<?xml version="1.0" encoding="UTF-8"?>
<svg width="64px" height="64px" viewBox="0 0 64 64" version="1.1" xmlns="http://www.w3.org/2000/svg" xmlns:xlink="http://www.w3.org/1999/xlink">
    <title>app-icon-tile64</title>
    <g id="App-icons" stroke="none" stroke-width="1" fill="none" fill-rule="evenodd">
        <g id="App-icons-Letsconnect" transform="translate(-200.000000, -1525.000000)">
            <g id="app-icon-tile" transform="translate(200.000000, 1525.000000)">
                <rect id="Rectangle" fill="#FFFFFF" x="0" y="0" width="64" height="64"></rect>
                <g id="Logo/mark-light" transform="translate(4.750000, 10.250000)" fill="#1193F5" stroke-width="1">
                    <g id="letsconnect" transform="translate(0.000000, 4.875000)">
                        <path d="M22.0476042,6.38495171 C17.9884361,5.13002807 12.9981369,6.70544067 10.9119322,10.5264362 C8.49972114,11.7234563 5.36515323,10.9022405 3.32161105,13.0549654 C-0.566430222,15.869532 -1.27744418,22.2993716 2.45394112,25.5395849 C4.71166502,27.7137608 7.97691974,28.1789116 10.9839763,28.0433302 C22.0814631,28.1699764 33.1799991,27.9525381 44.2777136,28.1131815 C46.4013983,28.0436376 48.9395666,28.5320164 50.5333191,26.7454487 C53.4679559,23.6778565 53.150458,17.7533584 49.3646596,15.5047725 C48.0567953,14.2160826 44.7454414,16.608367 45.527525,13.7831378 C45.6396289,7.99996609 41.9969876,1.90487451 36.1593586,0.438571152 C32.8701858,-0.576965994 29.2932231,0.238523866 26.5230851,2.18982836 C24.7795206,3.27657392 23.1402282,4.62338254 22.0476042,6.38495171 Z M35.4585121,4.39335839 C37.4623906,4.21305488 36.9327984,7.42933985 36.4635946,8.44742095 C33.9427884,8.3627362 31.4127518,8.43415647 28.8883334,8.41056021 C28.0141729,6.31268364 29.2256479,3.13417478 31.7913564,4.90503082 C33.0417384,5.16036917 34.2473148,4.59970538 35.4585121,4.39335727 L35.4585121,4.39335839 Z M30.1519983,9.73938729 C32.9139884,9.8854257 35.8080789,9.38627535 38.4819419,10.1350607 C39.9887179,11.4677868 37.8468136,12.8781024 36.6070217,11.6624138 C35.7860247,12.2064224 36.3278638,14.225479 34.6044631,13.5709984 C33.4185302,14.0795501 33.0183913,10.5584665 32.3303102,12.6388672 C32.1858306,14.5653607 28.6744123,13.653901 29.238652,11.6140679 C28.4854714,11.4938831 25.0869695,11.3556377 27.3570558,10.5652824 C28.2034056,10.0761661 29.1468995,9.6404032 30.1519983,9.73938729 L30.1519983,9.73938729 Z M28.3285372,16.3099995 C28.7566129,18.3114769 28.9976894,21.8564906 31.3324319,22.2286941 C32.8509995,21.9164245 32.0184121,19.3589067 32.3878659,18.0846994 C30.8151134,16.4837085 35.240927,16.6205921 33.5383811,17.8928471 C34.0371717,19.2587608 32.8006407,22.2099846 34.7644555,22.2078895 C36.9290435,21.2295114 36.6159525,18.3237133 37.4445895,16.4758504 C39.0947316,16.3985911 42.9168573,15.8031725 42.3516256,18.6156356 C42.0097361,20.5429415 41.7273622,22.4626341 41.4128753,24.3909182 C41.0267938,25.7856244 39.3998007,25.2389366 38.3350308,25.3484261 C33.8491473,25.3484261 29.3632639,25.3484261 24.8773804,25.3484261 C23.4557184,23.4744275 23.6168479,20.9125585 23.3557491,18.6711599 C22.644174,15.8542922 26.0477993,16.6003285 27.784528,16.3453501 L28.0565334,16.3276754 L28.3285394,16.3099995 L28.3285372,16.3099995 Z" id="path841" fill-rule="nonzero"></path>
                    </g>
                </g>
            </g>
        </g>
    </g>
</svg>