<?xml version="1.0" encoding="UTF-8"?>
<svg width="512px" height="512px" viewBox="0 0 512 512" version="1.1" xmlns="http://www.w3.org/2000/svg" xmlns:xlink="http://www.w3.org/1999/xlink">
    <title>app-icon-tile512</title>
    <g id="App-icons" stroke="none" stroke-width="1" fill="none" fill-rule="evenodd">
        <g id="App-icons-Letsconnect" transform="translate(-200.000000, -441.000000)">
            <g id="app-icon-tile" transform="translate(200.000000, 441.000000)">
                <rect id="Rectangle" fill="#FFFFFF" x="0" y="0" width="512" height="512"></rect>
                <g id="Logo/mark-light" transform="translate(38.000000, 82.000000)" fill="#1193F5" stroke-width="1">
                    <g id="letsconnect" transform="translate(0.000000, 39.000000)">
                        <path d="M176.380834,51.0796136 C143.907489,41.0402246 103.985095,53.6435254 87.2954572,84.2114899 C67.9977691,93.78765 42.9212258,87.2179239 26.5728884,104.439724 C-4.53144178,126.956256 -10.2195535,178.394973 19.631529,204.31668 C37.6933201,221.710087 63.8153579,225.431293 87.8718102,224.346642 C176.651705,225.359812 265.439993,223.620305 354.221709,224.905452 C371.211187,224.349101 391.516533,228.256131 404.266553,213.96359 C427.743647,189.422852 425.203664,142.026867 394.917277,124.03818 C384.454362,113.728661 357.963531,132.866936 364.2202,110.265102 C365.117031,63.9997287 335.975901,15.2389961 289.274869,3.50856922 C262.961486,-4.61572795 234.345785,1.90819093 212.184681,17.5186268 C198.236165,26.2125914 185.121826,36.9870603 176.380834,51.0796136 Z M283.668097,35.1468671 C299.699124,33.704439 295.462387,59.4347188 291.708757,67.5793676 C271.542307,66.9018896 251.302014,67.4732518 231.106667,67.2844817 C224.113383,50.5014691 233.805183,25.0733983 254.330852,39.2402466 C264.333907,41.2829533 273.978519,36.797643 283.668097,35.1468581 L283.668097,35.1468671 Z M241.215986,77.9150983 C263.311907,79.0834056 286.464632,75.0902028 307.855535,81.0804857 C319.909743,91.7422944 302.774509,103.02482 292.856174,93.2993107 C286.288198,97.651379 290.62291,113.803832 276.835704,108.567987 C267.348242,112.636401 264.14713,84.4677318 258.642482,101.110938 C257.486645,116.522886 229.395298,109.231208 233.909216,92.9125433 C227.883771,91.951065 200.695756,90.8451014 218.856446,84.5222595 C225.627245,80.609329 233.175196,77.1232256 241.215986,77.9150983 L241.215986,77.9150983 Z M226.628297,130.479996 C230.052903,146.491815 231.981515,174.851924 250.659455,177.829553 C262.807996,175.331396 256.147297,154.871254 259.102927,144.677595 C246.520907,131.869668 281.927416,132.964737 268.307049,143.142777 C272.297373,154.070086 262.405126,177.679877 278.115644,177.663116 C295.432348,169.836091 292.92762,146.589706 299.556716,131.806803 C312.757853,131.188729 343.334859,126.42538 338.813004,148.925085 C336.077889,164.343532 333.818897,179.701073 331.303002,195.127346 C328.21435,206.284995 315.198406,201.911493 306.680246,202.787409 C270.793179,202.787409 234.906111,202.787409 199.019043,202.787409 C187.645747,187.79542 188.934783,167.300468 186.845993,149.369279 C181.153392,126.834337 208.382395,132.802628 222.276224,130.762801 L224.452267,130.621403 L226.628315,130.479996 L226.628297,130.479996 Z" id="path841" fill-rule="nonzero"></path>
                    </g>
                </g>
            </g>
        </g>
    </g>
</svg>