<?xml version="1.0" encoding="UTF-8"?>
<svg width="512px" height="512px" viewBox="0 0 512 512" version="1.1" xmlns="http://www.w3.org/2000/svg" xmlns:xlink="http://www.w3.org/1999/xlink">
    <title>app-icon-circle512</title>
    <g id="App-icons" stroke="none" stroke-width="1" fill="none" fill-rule="evenodd">
        <g id="App-icons-Letsconnect" transform="translate(-812.000000, -441.000000)">
            <g id="app-icon-circle" transform="translate(812.000000, 441.000000)">
                <path d="M256,0 C397.384896,0 512,114.615104 512,256 C512,397.384896 397.384896,512 256,512 C114.615104,512 0,397.384896 0,256 C0,114.615104 114.615104,0 256,0 Z" id="Rectangle" fill="#FFFFFF"></path>
                <g id="Logo/mark-light" transform="translate(59.000000, 102.000000)" fill="#1193F5" stroke-width="1">
                    <g id="letsconnect" transform="translate(0.000000, 35.089431)">
                        <path d="M158.615858,45.9578096 C129.41321,36.9250801 93.5117761,48.2646353 78.503109,75.7675194 C61.1490729,84.3834683 38.5982247,78.4724952 23.8964824,93.9674478 C-4.07503757,114.226225 -9.19024593,160.50713 17.6542527,183.829641 C33.8968706,199.478994 57.3879118,202.827071 79.021412,201.851179 C158.859447,202.762757 238.705029,201.197673 318.544702,202.353957 C333.82301,201.853392 352.083213,205.36866 363.549058,192.509246 C384.661553,170.429233 382.377395,127.785691 355.141436,111.600747 C345.73234,102.324974 321.90965,119.544235 327.536151,99.2087099 C328.342654,57.5824117 302.136602,13.7109667 260.139271,3.15676147 C236.476157,-4.15290428 210.742612,1.71685471 190.813562,15.7620166 C178.269933,23.5842285 166.476462,33.2783307 158.615858,45.9578096 Z M255.097209,31.6226555 C269.513601,30.3248611 265.703585,53.47514 262.328019,60.8031166 C244.192722,60.19357 225.99102,60.7076412 207.829737,60.5377993 C201.540812,45.4376362 210.25646,22.5592635 228.714795,35.3055877 C237.710348,37.1434702 246.38356,33.1079065 255.097209,31.6226474 L255.097209,31.6226555 Z M216.920851,70.1024733 C236.791284,71.1536332 257.612079,67.5608329 276.848503,72.9504641 C287.688618,82.5432025 272.279235,92.6944176 263.359869,83.9440953 C257.453415,87.8597773 261.351538,102.392608 248.952972,97.6817661 C240.421081,101.342236 237.542383,75.9980677 232.59216,90.9724426 C231.552738,104.839019 206.290736,98.2784855 210.350015,83.5961094 C204.931449,82.7310395 180.481795,81.735972 196.813351,76.0471278 C202.902199,72.5265508 209.689924,69.3900024 216.920851,70.1024733 L216.920851,70.1024733 Z M203.802426,117.396636 C206.882107,131.802934 208.61647,157.319347 225.413179,159.998405 C236.338126,157.750741 230.348289,139.342158 233.006229,130.170628 C221.691464,118.646964 253.531849,119.632229 241.283317,128.789707 C244.871739,138.621324 235.975832,159.863738 250.103996,159.848657 C265.676572,152.806456 263.424118,131.891009 269.385536,118.590403 C281.257062,118.034304 308.754369,113.748581 304.687954,133.992217 C302.228317,147.864641 300.19685,161.682266 297.934354,175.561731 C295.15679,185.600592 283.451804,181.665625 275.791588,182.453712 C243.519045,182.453712 211.246503,182.453712 178.97396,182.453712 C168.746175,168.964985 169.905381,150.525082 168.026972,134.391871 C162.907727,114.116531 187.39424,119.486376 199.888691,117.651084 L201.845564,117.523864 L203.802442,117.396636 L203.802426,117.396636 Z" id="path841" fill-rule="nonzero"></path>
                    </g>
                </g>
            </g>
        </g>
    </g>
</svg>