<?xml version="1.0" encoding="UTF-8"?>
<svg width="32px" height="32px" viewBox="0 0 32 32" version="1.1" xmlns="http://www.w3.org/2000/svg" xmlns:xlink="http://www.w3.org/1999/xlink">
    <title>app-icon-tile32</title>
    <g id="App-icons" stroke="none" stroke-width="1" fill="none" fill-rule="evenodd">
        <g id="App-icons-Letsconnect" transform="translate(-200.000000, -1765.000000)">
            <g id="app-icon-tile" transform="translate(200.000000, 1765.000000)">
                <rect id="Rectangle" fill="#FFFFFF" x="0" y="0" width="32" height="32"></rect>
                <g id="Logo/mark-light" transform="translate(2.375000, 5.125000)" fill="#1193F5" stroke-width="1">
                    <g id="letsconnect" transform="translate(0.000000, 2.437500)">
                        <path d="M11.0238021,3.19247585 C8.99421807,2.56501404 6.49906844,3.35272034 5.45596608,5.26321812 C4.24986057,5.86172813 2.68257662,5.45112024 1.66080552,6.52748272 C-0.283215111,7.93476599 -0.638722092,11.1496858 1.22697056,12.7697925 C2.35583251,13.8568804 3.98845987,14.0894558 5.49198814,14.0216651 C11.0407316,14.0849882 16.5899995,13.9762691 22.1388568,14.0565908 C23.2006992,14.0218188 24.4697833,14.2660082 25.2666595,13.3727244 C26.733978,11.8389283 26.575229,8.87667919 24.6823298,7.75238623 C24.0283976,7.10804131 22.3727207,8.3041835 22.7637625,6.89156889 C22.8198144,3.99998304 20.9984938,0.952437257 18.0796793,0.219285576 C16.4350929,-0.288482997 14.6466116,0.119261933 13.2615426,1.09491418 C12.3897603,1.63828696 11.5701141,2.31169127 11.0238021,3.19247585 Z M17.7292561,2.19667919 C18.7311953,2.10652744 18.4663992,3.71466993 18.2317973,4.22371047 C16.9713942,4.1813681 15.7063759,4.21707824 14.4441667,4.20528011 C14.0070865,3.15634182 14.612824,1.56708739 15.8956782,2.45251541 C16.5208692,2.58018458 17.1236574,2.29985269 17.7292561,2.19667863 L17.7292561,2.19667919 Z M15.0759991,4.86969365 C16.4569942,4.94271285 17.9040395,4.69313767 19.2409709,5.06753036 C19.994359,5.7338934 18.9234068,6.43905122 18.3035109,5.83120692 C17.8930124,6.10321119 18.1639319,7.11273949 17.3022315,6.78549919 C16.7092651,7.03977507 16.5091956,5.27923324 16.1651551,6.31943361 C16.0929153,7.28268037 14.3372061,6.82695052 14.619326,5.80703396 C14.2427357,5.74694156 12.5434847,5.67781884 13.6785279,5.28264122 C14.1017028,5.03808306 14.5734497,4.8202016 15.0759991,4.86969365 L15.0759991,4.86969365 Z M14.1642686,8.15499976 C14.3783065,9.15573846 14.4988447,10.9282453 15.6662159,11.1143471 C16.4254997,10.9582123 16.0092061,9.67945337 16.1939329,9.0423497 C15.4075567,8.24185425 17.6204635,8.31029606 16.7691905,8.94642357 C17.0185858,9.6293804 16.4003204,11.1049923 17.3822277,11.1039448 C18.4645217,10.6147557 18.3079762,9.16185664 18.7222948,8.23792518 C19.5473658,8.19929557 21.4584287,7.90158626 21.1758128,9.30781779 C21.004868,10.2714708 20.8636811,11.2313171 20.7064376,12.1954591 C20.5133969,12.8928122 19.6999004,12.6194683 19.1675154,12.6742131 C16.9245737,12.6742131 14.6816319,12.6742131 12.4386902,12.6742131 C11.7278592,11.7372137 11.808424,10.4562792 11.6778745,9.33557993 C11.322087,7.92714608 13.0238997,8.30016427 13.892264,8.17267505 L14.0282667,8.16383768 L14.1642697,8.15499976 L14.1642686,8.15499976 Z" id="path841" fill-rule="nonzero"></path>
                    </g>
                </g>
            </g>
        </g>
    </g>
</svg>