<?xml version="1.0" encoding="UTF-8"?>
<svg width="256px" height="256px" viewBox="0 0 256 256" version="1.1" xmlns="http://www.w3.org/2000/svg" xmlns:xlink="http://www.w3.org/1999/xlink">
    <title>app-icon-circle256</title>
    <g id="App-icons" stroke="none" stroke-width="1" fill="none" fill-rule="evenodd">
        <g id="App-icons-Letsconnect" transform="translate(-812.000000, -1013.000000)">
            <g id="app-icon-circle" transform="translate(812.000000, 1013.000000)">
                <path d="M128,0 C198.692448,0 256,57.307552 256,128 C256,198.692448 198.692448,256 128,256 C57.307552,256 0,198.692448 0,128 C0,57.307552 57.307552,0 128,0 Z" id="Rectangle" fill="#FFFFFF"></path>
                <g id="Logo/mark-light" transform="translate(29.500000, 51.000000)" fill="#1193F5" stroke-width="1">
                    <g id="letsconnect" transform="translate(0.000000, 17.544715)">
                        <path d="M79.3079289,22.9789048 C64.7066048,18.4625401 46.755888,24.1323176 39.2515545,37.8837597 C30.5745365,42.1917342 19.2991123,39.2362476 11.9482412,46.9837239 C-2.03751878,57.1131123 -4.59512297,80.253565 8.82712634,91.9148206 C16.9484353,99.7394969 28.6939559,101.413536 39.510706,100.92559 C79.4297235,101.381379 119.352515,100.598836 159.272351,101.176978 C166.911505,100.926696 176.041607,102.68433 181.774529,96.254623 C192.330777,85.2146164 191.188698,63.8928453 177.570718,55.8003735 C172.86617,51.1624871 160.954825,59.7721175 163.768076,49.6043549 C164.171327,28.7912059 151.068301,6.85548334 130.069635,1.57838073 C118.238078,-2.07645214 105.371306,0.858427355 95.406781,7.88100828 C89.1349663,11.7921143 83.238231,16.6391654 79.3079289,22.9789048 Z M127.548605,15.8113277 C134.756801,15.1624306 132.851793,26.73757 131.164009,30.4015583 C122.096361,30.096785 112.99551,30.3538206 103.914868,30.2688996 C100.770406,22.7188181 105.12823,11.2796317 114.357397,17.6527938 C118.855174,18.5717351 123.19178,16.5539532 127.548605,15.8113237 L127.548605,15.8113277 Z M108.460425,35.0512367 C118.395642,35.5768166 128.806039,33.7804164 138.424251,36.4752321 C143.844309,41.2716013 136.139617,46.3472088 131.679934,41.9720476 C128.726708,43.9298887 130.675769,51.1963038 124.476486,48.840883 C120.21054,50.6711181 118.771192,37.9990338 116.29608,45.4862213 C115.776369,52.4195096 103.145368,49.1392427 105.175007,41.7980547 C102.465724,41.3655198 90.2408974,40.867986 98.4066755,38.0235639 C101.451099,36.2632754 104.844962,34.6950012 108.460425,35.0512367 L108.460425,35.0512367 Z M101.901213,58.6983181 C103.441054,65.9014671 104.308235,78.6596733 112.70659,79.9992027 C118.169063,78.8753706 115.174144,69.671079 116.503115,65.0853138 C110.845732,59.3234821 126.765924,59.8161147 120.641659,64.3948537 C122.435869,69.3106622 117.987916,79.9318688 125.051998,79.9243287 C132.838286,76.403228 131.712059,65.9455047 134.692768,59.2952013 C140.628531,59.0171519 154.377185,56.8742903 152.343977,66.9961086 C151.114159,73.9323207 150.098425,80.8411332 148.967177,87.7808655 C147.578395,92.800296 141.725902,90.8328125 137.895794,91.2268561 C121.759523,91.2268561 105.623251,91.2268561 89.4869799,91.2268561 C84.3730876,84.4824925 84.9526904,75.2625411 84.013486,67.1959357 C81.4538634,57.0582655 93.6971198,59.7431878 99.9443453,58.8255418 L100.922782,58.7619319 L101.901221,58.6983181 L101.901213,58.6983181 Z" id="path841" fill-rule="nonzero"></path>
                    </g>
                </g>
            </g>
        </g>
    </g>
</svg>