<?xml version="1.0" encoding="UTF-8"?>
<svg width="64px" height="64px" viewBox="0 0 64 64" version="1.1" xmlns="http://www.w3.org/2000/svg" xmlns:xlink="http://www.w3.org/1999/xlink">
    <title>app-icon-circle64</title>
    <g id="App-icons" stroke="none" stroke-width="1" fill="none" fill-rule="evenodd">
        <g id="App-icons-Letsconnect" transform="translate(-803.000000, -1525.000000)">
            <g id="app-icon-circle" transform="translate(803.000000, 1525.000000)">
                <path d="M32,0 C49.673112,0 64,14.326888 64,32 C64,49.673112 49.673112,64 32,64 C14.326888,64 0,49.673112 0,32 C0,14.326888 14.326888,0 32,0 Z" id="Rectangle" fill="#FFFFFF"></path>
                <g id="Logo/mark-light" transform="translate(7.375000, 12.750000)" fill="#1193F5" stroke-width="1">
                    <g id="letsconnect" transform="translate(0.000000, 4.386179)">
                        <path d="M19.8269822,5.7447262 C16.1766512,4.61563501 11.688972,6.03307941 9.81288863,9.47093992 C7.64363412,10.5479335 4.82477809,9.8090619 2.9870603,11.745931 C-0.509379696,14.2782781 -1.14878074,20.0633912 2.20678159,22.9787052 C4.23710883,24.9348742 7.17348898,25.3533839 9.8776765,25.2313974 C19.8574309,25.3453447 29.8381287,25.1497091 39.8180877,25.2942446 C41.7278762,25.231674 44.0104017,25.6710825 45.4436323,24.0636558 C48.0826942,21.3036541 47.7971744,15.9732113 44.3926795,13.9500934 C43.2165425,12.7906218 40.2387063,14.9430294 40.9420189,12.4010887 C41.0428317,7.19780146 37.7670752,1.71387084 32.5174089,0.394595183 C29.5595196,-0.519113035 26.3428266,0.214606839 23.8516953,1.97025207 C22.2837416,2.94802857 20.8095577,4.15979134 19.8269822,5.7447262 Z M31.8871512,3.95283194 C33.6892001,3.79060764 33.2129482,6.68439249 32.7910023,7.60038958 C30.5240902,7.52419626 28.2488775,7.58845515 25.9787171,7.56722491 C25.1926015,5.67970452 26.2820575,2.81990793 28.5893493,4.41319846 C29.7137935,4.64293378 30.797945,4.13848831 31.8871512,3.95283093 L31.8871512,3.95283194 Z M27.1151064,8.76280916 C29.5989105,8.89420415 32.2015098,8.44510411 34.6060628,9.11880801 C35.9610773,10.3179003 34.0349044,11.5868022 32.9199836,10.4930119 C32.1816769,10.9824722 32.6689423,12.7990759 31.1191215,12.2102208 C30.0526351,12.6677795 29.6927979,9.49975846 29.07402,11.3715553 C28.9440923,13.1048774 25.786342,12.2848107 26.2937518,10.4495137 C25.6164311,10.3413799 22.5602243,10.2169965 24.6016689,9.50589098 C25.3627749,9.06581885 26.2112405,8.67375031 27.1151064,8.76280916 L27.1151064,8.76280916 Z M25.4753032,14.6745795 C25.8602634,16.4753668 26.0770588,19.6649183 28.1766474,19.9998007 C29.5422657,19.7188427 28.7935361,17.4177697 29.1257786,16.2713285 C27.7114329,14.8308705 31.6914811,14.9540287 30.1604146,16.0987134 C30.6089673,17.3276655 29.4969791,19.9829672 31.2629995,19.9810822 C33.2095715,19.100807 32.9280148,16.4863762 33.673192,14.8238003 C35.1571327,14.754288 38.5942961,14.2185726 38.0859942,16.7490271 C37.7785396,18.4830802 37.5246063,20.2102833 37.2417943,21.9452164 C36.8945987,23.200074 35.4314755,22.7082031 34.4739485,22.806714 C30.4398807,22.806714 26.4058128,22.806714 22.371745,22.806714 C21.0932719,21.1206231 21.2381726,18.8156353 21.0033715,16.7989839 C20.3634658,14.2645664 23.42428,14.935797 24.9860863,14.7063855 L25.2306955,14.690483 L25.4753052,14.6745795 L25.4753032,14.6745795 Z" id="path841" fill-rule="nonzero"></path>
                    </g>
                </g>
            </g>
        </g>
    </g>
</svg>