<?xml version="1.0" encoding="UTF-8"?>
<svg width="48px" height="48px" viewBox="0 0 48 48" version="1.1" xmlns="http://www.w3.org/2000/svg" xmlns:xlink="http://www.w3.org/1999/xlink">
    <title>app-icon-circle48</title>
    <g id="App-icons" stroke="none" stroke-width="1" fill="none" fill-rule="evenodd">
        <g id="App-icons-Letsconnect" transform="translate(-803.000000, -1657.000000)">
            <g id="app-icon-circle" transform="translate(803.000000, 1657.000000)">
                <path d="M24,0 C37.254834,0 48,10.745166 48,24 C48,37.254834 37.254834,48 24,48 C10.745166,48 0,37.254834 0,24 C0,10.745166 10.745166,0 24,0 Z" id="Rectangle" fill="#FFFFFF"></path>
                <g id="Logo/mark-light" transform="translate(5.531250, 9.562500)" fill="#1193F5" stroke-width="1">
                    <g id="letsconnect" transform="translate(0.000000, 3.289634)">
                        <path d="M14.8702367,4.30854465 C12.1324884,3.46172626 8.766729,4.52480956 7.35966647,7.10320494 C5.73272559,7.91095015 3.61858356,7.35679643 2.24029522,8.80944823 C-0.382034772,10.7087086 -0.861585556,15.0475434 1.65508619,17.2340289 C3.17783162,18.7011557 5.38011673,19.0150379 7.40825738,18.923548 C14.8930732,19.0090085 22.3785965,18.8622818 29.8635658,18.9706835 C31.2959072,18.9237555 33.0078012,19.2533119 34.0827242,18.0477418 C36.0620206,15.9777406 35.8478808,11.9799085 33.2945096,10.46257 C32.4124069,9.59296632 30.1790297,11.207272 30.7065142,9.30081655 C30.7821238,5.3983511 28.3253064,1.28540313 24.3880566,0.295946387 C22.1696397,-0.389334777 19.7571199,0.160955129 17.8887714,1.47768905 C16.7128062,2.21102143 15.6071683,3.1198435 14.8702367,4.30854465 Z M23.9153634,2.96462395 C25.2669001,2.84295573 24.9097111,5.01329437 24.5932518,5.70029218 C22.8930677,5.64314719 21.1866581,5.69134136 19.4840378,5.67541868 C18.8944512,4.25977839 19.7115431,2.11493095 21.442012,3.30989885 C22.2853451,3.48220033 23.0984587,3.10386623 23.9153634,2.9646232 L23.9153634,2.96462395 Z M20.3363298,6.57210687 C22.1991828,6.67065311 24.1511324,6.33382808 25.9545471,6.83910601 C26.9708079,7.73842524 25.5261783,8.69010165 24.6899877,7.86975893 C24.1362577,8.23685412 24.5017067,9.59930696 23.3393411,9.15766557 C22.5394763,9.50083465 22.2695984,7.12481885 21.805515,8.52866649 C21.7080692,9.82865806 19.3397565,9.21360801 19.7203139,7.83713526 C19.2123233,7.75603496 16.9201683,7.66274738 18.4512517,7.12941823 C19.0220811,6.79936414 19.6584304,6.50531273 20.3363298,6.57210687 L20.3363298,6.57210687 Z M19.1064774,11.0059346 C19.3951976,12.3565251 19.5577941,14.7486888 21.1324855,14.9998505 C22.1566993,14.789132 21.595152,13.0633273 21.844334,12.2034963 C20.7835747,11.1231529 23.7686108,11.2155215 22.620311,12.0740351 C22.9567255,12.9957492 22.1227343,14.9872254 23.4472497,14.9858116 C24.9071786,14.3256052 24.6960111,12.3647821 25.254894,11.1178502 C26.3678495,11.065716 28.9457221,10.6639294 28.5644957,12.5617704 C28.3339047,13.8623101 28.1434547,15.1577125 27.9313457,16.4589123 C27.670949,17.4000555 26.5736066,17.0311523 25.8554614,17.1050355 C22.8299105,17.1050355 19.8043596,17.1050355 16.7788087,17.1050355 C15.8199539,15.8404673 15.9286294,14.1117265 15.7525286,12.5992379 C15.2725994,10.6984248 17.56821,11.2018477 18.7395647,11.0297891 L18.9230216,11.0178622 L19.1064789,11.0059346 L19.1064774,11.0059346 Z" id="path841" fill-rule="nonzero"></path>
                    </g>
                </g>
            </g>
        </g>
    </g>
</svg>