<?xml version="1.0" encoding="UTF-8"?>
<svg width="32px" height="32px" viewBox="0 0 32 32" version="1.1" xmlns="http://www.w3.org/2000/svg" xmlns:xlink="http://www.w3.org/1999/xlink">
    <title>app-icon-circle32</title>
    <g id="App-icons" stroke="none" stroke-width="1" fill="none" fill-rule="evenodd">
        <g id="App-icons-Letsconnect" transform="translate(-803.000000, -1765.000000)">
            <g id="app-icon-circle" transform="translate(803.000000, 1765.000000)">
                <path d="M16,0 C24.836556,0 32,7.163444 32,16 C32,24.836556 24.836556,32 16,32 C7.163444,32 0,24.836556 0,16 C0,7.163444 7.163444,0 16,0 Z" id="Rectangle" fill="#FFFFFF"></path>
                <g id="Logo/mark-light" transform="translate(3.687500, 6.375000)" fill="#1193F5" stroke-width="1">
                    <g id="letsconnect" transform="translate(0.000000, 2.193089)">
                        <path d="M9.91349111,2.8723631 C8.0883256,2.30781751 5.844486,3.01653971 4.90644431,4.73546996 C3.82181706,5.27396677 2.41238904,4.90453095 1.49353015,5.87296549 C-0.254689848,7.13913904 -0.574390371,10.0316956 1.10339079,11.4893526 C2.11855441,12.4674371 3.58674449,12.6766919 4.93883825,12.6156987 C9.92871544,12.6726723 14.9190643,12.5748545 19.9090439,12.6471223 C20.8639381,12.615837 22.0052008,12.8355412 22.7218161,12.0318279 C24.0413471,10.651827 23.8985872,7.98660567 22.1963397,6.97504669 C21.6082712,6.39531088 20.1193531,7.47151469 20.4710095,6.20054437 C20.5214159,3.59890073 18.8835376,0.856935418 16.2587044,0.197297592 C14.7797598,-0.259556518 13.1714133,0.107303419 11.9258476,0.985126035 C11.1418708,1.47401428 10.4047789,2.07989567 9.91349111,2.8723631 Z M15.9435756,1.97641597 C16.8446001,1.89530382 16.6064741,3.34219625 16.3955012,3.80019479 C15.2620451,3.76209813 14.1244388,3.79422757 12.9893586,3.78361245 C12.5963008,2.83985226 13.1410287,1.40995397 14.2946747,2.20659923 C14.8568967,2.32146689 15.3989725,2.06924415 15.9435756,1.97641546 L15.9435756,1.97641597 Z M13.5575532,4.38140458 C14.7994552,4.44710207 16.1007549,4.22255205 17.3030314,4.55940401 C17.9805386,5.15895016 17.0174522,5.7934011 16.4599918,5.24650596 C16.0908385,5.49123608 16.3344711,6.39953797 15.5595607,6.10511038 C15.0263175,6.33388977 14.846399,4.74987923 14.53701,5.68577766 C14.4720461,6.55243871 12.893171,6.14240534 13.1468759,5.22475684 C12.8082155,5.17068997 11.2801122,5.10849825 12.3008344,4.75294549 C12.6813874,4.53290942 13.1056203,4.33687515 13.5575532,4.38140458 L13.5575532,4.38140458 Z M12.7376516,7.33728976 C12.9301317,8.23768338 13.0385294,9.83245917 14.0883237,9.99990034 C14.7711328,9.85942133 14.396768,8.70888487 14.5628893,8.13566423 C13.8557165,7.41543526 15.8457405,7.47701434 15.0802073,8.04935671 C15.3044837,8.66383277 14.7484895,9.9914836 15.6314998,9.99054109 C16.6047857,9.55040349 16.4640074,8.24318808 16.836596,7.41190017 C17.5785664,7.37714398 19.2971481,7.10928629 19.0429971,8.37451357 C18.8892698,9.24154008 18.7623031,10.1051416 18.6208971,10.9726082 C18.4472994,11.600037 17.7157377,11.3541016 17.2369743,11.403357 C15.2199403,11.403357 13.2029064,11.403357 11.1858725,11.403357 C10.546636,10.5603116 10.6190863,9.40781763 10.5016857,8.39949197 C10.1817329,7.13228319 11.71214,7.46789848 12.4930432,7.35319273 L12.6153477,7.34524149 L12.7376526,7.33728976 L12.7376516,7.33728976 Z" id="path841" fill-rule="nonzero"></path>
                    </g>
                </g>
            </g>
        </g>
    </g>
</svg>