<?xml version="1.0" encoding="UTF-8"?>
<svg width="128px" height="128px" viewBox="0 0 128 128" version="1.1" xmlns="http://www.w3.org/2000/svg" xmlns:xlink="http://www.w3.org/1999/xlink">
    <title>app-icon-tile128</title>
    <g id="App-icons" stroke="none" stroke-width="1" fill="none" fill-rule="evenodd">
        <g id="App-icons-Letsconnect" transform="translate(-200.000000, -1337.000000)">
            <g id="app-icon-tile" transform="translate(200.000000, 1337.000000)">
                <rect id="Rectangle" fill="#FFFFFF" x="0" y="0" width="128" height="128"></rect>
                <g id="Logo/mark-light" transform="translate(9.500000, 20.500000)" fill="#1193F5" stroke-width="1">
                    <g id="letsconnect" transform="translate(0.000000, 9.750000)">
                        <path d="M44.0952085,12.7699034 C35.9768723,10.2600561 25.9962737,13.4108813 21.8238643,21.0528725 C16.9994423,23.4469125 10.7303065,21.804481 6.6432221,26.1099309 C-1.13286044,31.7390639 -2.55488837,44.5987432 4.90788225,51.0791699 C9.42333004,55.4275216 15.9538395,56.3578232 21.9679525,56.0866605 C44.1629263,56.3399529 66.3599982,55.9050762 88.5554271,56.226363 C92.8027967,56.0872752 97.8791333,57.0640328 101.066638,53.4908974 C106.935912,47.355713 106.300916,35.5067168 98.7293192,31.0095449 C96.1135905,28.4321653 89.4908827,33.216734 91.0550501,27.5662756 C91.2792577,15.9999322 83.9939752,3.80974903 72.3187173,0.877142305 C65.7403716,-1.15393199 58.5864463,0.477047732 53.0461702,4.37965671 C49.5590413,6.55314784 46.2804564,9.24676509 44.0952085,12.7699034 Z M70.9170242,8.78671677 C74.9247811,8.42610976 73.8655967,14.8586797 72.9271892,16.8948419 C67.8855767,16.7254724 62.8255036,16.8683129 57.7766669,16.8211204 C56.0283458,12.6253673 58.4512958,6.26834956 63.5827129,9.81006164 C66.0834767,10.3207383 68.4946296,9.19941076 70.9170242,8.78671453 L70.9170242,8.78671677 Z M60.3039966,19.4787746 C65.8279769,19.7708514 71.6161579,18.7725507 76.9638838,20.2701214 C79.9774358,22.9355736 75.6936273,25.7562049 73.2140435,23.3248277 C71.5720495,24.4128448 72.6557276,28.450958 69.2089261,27.1419968 C66.8370604,28.1591003 66.0367826,21.116933 64.6606204,25.2777344 C64.3716613,29.1307215 57.3488245,27.3078021 58.4773041,23.2281358 C56.9709427,22.9877663 50.1739389,22.7112754 54.7141116,21.1305649 C56.4068113,20.1523323 58.2937989,19.2808064 60.3039966,19.4787746 L60.3039966,19.4787746 Z M56.6570744,32.6199991 C57.5132258,36.6229538 57.9953788,43.7129811 62.6648638,44.4573883 C65.7019989,43.832849 64.0368242,38.7178135 64.7757317,36.1693988 C61.6302269,32.967417 70.4818539,33.2411842 67.0767621,35.7856943 C68.0743433,38.5175216 65.6012814,44.4199693 69.528911,44.4157791 C73.858087,42.4590228 73.2319049,36.6474265 74.8891791,32.9517007 C78.1894632,32.7971823 85.8337146,31.6063451 84.7032511,37.2312712 C84.0194721,41.085883 83.4547243,44.9252683 82.8257505,48.7818364 C82.0535876,51.5712488 78.7996014,50.4778732 76.6700616,50.6968523 C67.6982946,50.6968523 58.7265277,50.6968523 49.7547608,50.6968523 C46.9114367,46.948855 47.2336958,41.825117 46.7114982,37.3423197 C45.288348,31.7085843 52.0955986,33.2006571 55.569056,32.6907002 L56.1130667,32.6553507 L56.6570788,32.6199991 L56.6570744,32.6199991 Z" id="path841" fill-rule="nonzero"></path>
                    </g>
                </g>
            </g>
        </g>
    </g>
</svg>