<?xml version="1.0" encoding="UTF-8"?>
<svg width="256px" height="256px" viewBox="0 0 256 256" version="1.1" xmlns="http://www.w3.org/2000/svg" xmlns:xlink="http://www.w3.org/1999/xlink">
    <title>app-icon-tile256</title>
    <g id="App-icons" stroke="none" stroke-width="1" fill="none" fill-rule="evenodd">
        <g id="App-icons-Letsconnect" transform="translate(-200.000000, -1013.000000)">
            <g id="app-icon-tile" transform="translate(200.000000, 1013.000000)">
                <rect id="Rectangle" fill="#FFFFFF" x="0" y="0" width="256" height="256"></rect>
                <g id="Logo/mark-light" transform="translate(19.000000, 41.000000)" fill="#1193F5" stroke-width="1">
                    <g id="letsconnect" transform="translate(0.000000, 19.500000)">
                        <path d="M88.190417,25.5398068 C71.9537445,20.5201123 51.9925475,26.8217627 43.6477286,42.1057449 C33.9988846,46.893825 21.4606129,43.6089619 13.2864442,52.2198618 C-2.26572089,63.4781279 -5.10977674,89.1974864 9.81576449,102.15834 C18.8466601,110.855043 31.907679,112.715646 43.9359051,112.173321 C88.3258526,112.679906 132.719996,111.810152 177.110854,112.452726 C185.605593,112.17455 195.758267,114.128066 202.133276,106.981795 C213.871824,94.711426 212.601832,71.0134335 197.458638,62.0190898 C192.227181,56.8643305 178.981765,66.433468 182.1101,55.1325511 C182.558515,31.9998643 167.98795,7.61949805 144.637435,1.75428461 C131.480743,-2.30786398 117.172893,0.954095464 106.09234,8.75931342 C99.1180826,13.1062957 92.5609129,18.4935302 88.190417,25.5398068 Z M141.834048,17.5734335 C149.849562,16.8522195 147.731193,29.7173594 145.854378,33.7896838 C135.771153,33.4509448 125.651007,33.7366259 115.553334,33.6422409 C112.056692,25.2507346 116.902592,12.5366991 127.165426,19.6201233 C132.166953,20.6414767 136.989259,18.3988215 141.834048,17.5734291 L141.834048,17.5734335 Z M120.607993,38.9575492 C131.655954,39.5417028 143.232316,37.5451014 153.927768,40.5402429 C159.954872,45.8711472 151.387255,51.5124098 146.428087,46.6496554 C143.144099,48.8256895 145.311455,56.901916 138.417852,54.2839935 C133.674121,56.3182006 132.073565,42.2338659 129.321241,50.5554689 C128.743323,58.2614429 114.697649,54.6156041 116.954608,46.4562716 C113.941885,45.9755325 100.347878,45.4225507 109.428223,42.2611298 C112.813623,40.3046645 116.587598,38.5616128 120.607993,38.9575492 L120.607993,38.9575492 Z M113.314149,65.2399981 C115.026452,73.2459077 115.990758,87.4259622 125.329728,88.9147765 C131.403998,87.6656981 128.073648,77.435627 129.551463,72.3387976 C123.260454,65.934834 140.963708,66.4823685 134.153524,71.5713886 C136.148687,77.0350432 131.202563,88.8399385 139.057822,88.8315582 C147.716174,84.9180455 146.46381,73.2948531 149.778358,65.9034015 C156.378926,65.5943646 171.667429,63.2126901 169.406502,74.4625423 C168.038944,82.171766 166.909449,89.8505366 165.651501,97.5636728 C164.107175,103.142498 157.599203,100.955746 153.340123,101.393705 C135.396589,101.393705 117.453055,101.393705 99.5095217,101.393705 C93.8228734,93.89771 94.4673917,83.6502339 93.4229964,74.6846394 C90.5766961,63.4171686 104.191197,66.4013142 111.138112,65.3814004 L112.226133,65.3107015 L113.314158,65.2399981 L113.314149,65.2399981 Z" id="path841" fill-rule="nonzero"></path>
                    </g>
                </g>
            </g>
        </g>
    </g>
</svg>