<?xml version="1.0" encoding="UTF-8"?>
<svg width="128px" height="128px" viewBox="0 0 128 128" version="1.1" xmlns="http://www.w3.org/2000/svg" xmlns:xlink="http://www.w3.org/1999/xlink">
    <title>app-icon-circle128</title>
    <g id="App-icons" stroke="none" stroke-width="1" fill="none" fill-rule="evenodd">
        <g id="App-icons-Letsconnect" transform="translate(-803.000000, -1337.000000)">
            <g id="app-icon-circle" transform="translate(803.000000, 1337.000000)">
                <path d="M64,0 C99.346224,0 128,28.653776 128,64 C128,99.346224 99.346224,128 64,128 C28.653776,128 0,99.346224 0,64 C0,28.653776 28.653776,0 64,0 Z" id="Rectangle" fill="#FFFFFF"></path>
                <g id="Logo/mark-light" transform="translate(14.750000, 25.500000)" fill="#1193F5" stroke-width="1">
                    <g id="letsconnect" transform="translate(0.000000, 8.772358)">
                        <path d="M39.6539645,11.4894524 C32.3533024,9.23127003 23.377944,12.0661588 19.6257773,18.9418798 C15.2872682,21.0958671 9.64955617,19.6181238 5.97412059,23.4918619 C-1.01875939,28.5565562 -2.29756148,40.1267825 4.41356317,45.9574103 C8.47421766,49.8697485 14.346978,50.7067678 19.755353,50.4627948 C39.7148618,50.6906893 59.6762574,50.2994182 79.6361755,50.5884892 C83.4557524,50.4633479 88.0208033,51.342165 90.8872645,48.1273115 C96.1653883,42.6073082 95.5943489,31.9464227 88.785359,27.9001867 C86.433085,25.5812435 80.4774125,29.8860588 81.8840378,24.8021775 C82.0856634,14.3956029 75.5341504,3.42774167 65.0348177,0.789190367 C59.1190392,-1.03822607 52.6856531,0.429213677 47.7033905,3.94050414 C44.5674832,5.89605714 41.6191155,8.31958268 39.6539645,11.4894524 Z M63.7743023,7.90566387 C67.3784003,7.58121528 66.4258963,13.368785 65.5820047,15.2007792 C61.0481805,15.0483925 56.4977551,15.1769103 51.9574342,15.1344498 C50.3852031,11.359409 52.564115,5.63981587 57.1786986,8.82639692 C59.427587,9.28586756 61.59589,8.27697662 63.7743023,7.90566185 L63.7743023,7.90566387 Z M54.2302127,17.5256183 C59.1978209,17.7884083 64.4030197,16.8902082 69.2121257,18.237616 C71.9221545,20.6358006 68.0698087,23.1736044 65.8399671,20.9860238 C64.3633539,21.9649443 65.3378845,25.5981519 62.2382429,24.4204415 C60.1052701,25.3355591 59.3855959,18.9995169 58.1480399,22.7431106 C57.8881846,26.2097548 51.5726839,24.5696214 52.5875037,20.8990274 C51.2328622,20.6827599 45.1204487,20.433993 49.2033377,19.011782 C50.7255497,18.1316377 52.422481,17.3475006 54.2302127,17.5256183 L54.2302127,17.5256183 Z M50.9506064,29.349159 C51.7205268,32.9507335 52.1541176,39.3298367 56.3532948,39.9996014 C59.0845314,39.4376853 57.5870721,34.8355395 58.2515573,32.5426569 C55.4228659,29.661741 63.3829621,29.9080574 60.3208293,32.1974268 C61.2179346,34.6553311 58.9939581,39.9659344 62.5259991,39.9621644 C66.419143,38.201614 65.8560296,32.9727523 67.346384,29.6476007 C70.3142654,29.5085759 77.1885923,28.4371451 76.1719884,33.4980543 C75.5570793,36.9661603 75.0492125,40.4205666 74.4835886,43.8904327 C73.7891975,46.400148 70.8629509,45.4164062 68.9478971,45.613428 C60.8797614,45.613428 52.8116257,45.613428 44.74349,45.613428 C42.1865438,42.2412462 42.4763452,37.6312705 42.006743,33.5979679 C40.7269317,28.5291328 46.8485599,29.8715939 49.9721726,29.4127709 L50.4613909,29.380966 L50.9506104,29.349159 L50.9506064,29.349159 Z" id="path841" fill-rule="nonzero"></path>
                    </g>
                </g>
            </g>
        </g>
    </g>
</svg>