<?xml version="1.0" encoding="UTF-8"?>
<svg width="48px" height="48px" viewBox="0 0 48 48" version="1.1" xmlns="http://www.w3.org/2000/svg" xmlns:xlink="http://www.w3.org/1999/xlink">
    <title>app-icon-tile48</title>
    <g id="App-icons" stroke="none" stroke-width="1" fill="none" fill-rule="evenodd">
        <g id="App-icons-Letsconnect" transform="translate(-200.000000, -1657.000000)">
            <g id="app-icon-tile" transform="translate(200.000000, 1657.000000)">
                <rect id="Rectangle" fill="#FFFFFF" x="0" y="0" width="48" height="48"></rect>
                <g id="Logo/mark-light" transform="translate(3.562500, 7.687500)" fill="#1193F5" stroke-width="1">
                    <g id="letsconnect" transform="translate(0.000000, 3.656250)">
                        <path d="M16.5357032,4.78871378 C13.4913271,3.84752105 9.74860265,5.0290805 8.18394911,7.89482718 C6.37479085,8.79259219 4.02386492,8.17668037 2.49120829,9.79122409 C-0.424822667,11.902149 -0.958083139,16.7245287 1.84045584,19.1546887 C3.53374876,20.7853206 5.98268981,21.1341837 8.2379822,21.0324977 C16.5610974,21.1274823 24.8849993,20.9644036 33.2082852,21.0848861 C34.8010488,21.0327282 36.704675,21.3990123 37.8999893,20.0590865 C40.1009669,17.7583924 39.8628435,13.3150188 37.0234947,11.6285793 C36.0425964,10.662062 33.559081,12.4562752 34.1456438,10.3373533 C34.2297216,5.99997456 31.4977407,1.42865589 27.119519,0.328928364 C24.6526393,-0.432724496 21.9699174,0.178892899 19.8923138,1.64237127 C18.5846405,2.45743044 17.3551712,3.46753691 16.5357032,4.78871378 Z M26.5938841,3.29501879 C28.0967929,3.15979116 27.6995988,5.57200489 27.347696,6.33556571 C25.4570913,6.27205215 23.5595639,6.32561735 21.6662501,6.30792016 C21.0106297,4.73451273 21.9192359,2.35063109 23.8435173,3.67877311 C24.7813038,3.87027688 25.6854861,3.44977904 26.5938841,3.29501795 L26.5938841,3.29501879 Z M22.6139987,7.30454047 C24.6854913,7.41406927 26.8560592,7.03970651 28.8614564,7.60129553 C29.9915384,8.6008401 28.3851102,9.65857683 27.4552663,8.74681038 C26.8395186,9.15481678 27.2458978,10.6691092 25.9533473,10.1782488 C25.0638976,10.5596626 24.7637935,7.91884986 24.2477326,9.47915041 C24.139373,10.9240206 21.5058092,10.2404258 21.928989,8.71055093 C21.3641035,8.62041235 18.8152271,8.51672826 20.5177918,7.92396183 C21.1525542,7.5571246 21.8601746,7.2303024 22.6139987,7.30454047 L22.6139987,7.30454047 Z M21.2464029,12.2324996 C21.5674597,13.7336077 21.748267,16.3923679 23.4993239,16.6715206 C24.6382496,16.4373184 24.0138091,14.5191801 24.2908994,13.5635245 C23.1113351,12.3627814 26.4306952,12.4654441 25.1537858,13.4196354 C25.5278787,14.4440706 24.6004805,16.6574885 26.0733416,16.6559172 C27.6967826,15.9221335 27.4619644,13.742785 28.0834421,12.3568878 C29.3210487,12.2989434 32.187643,11.8523794 31.7637192,13.9617267 C31.5073021,15.4072061 31.2955216,16.8469756 31.0596564,18.2931886 C30.7700953,19.3392183 29.5498505,18.9292025 28.7512731,19.0113196 C25.3868605,19.0113196 22.0224479,19.0113196 18.6580353,19.0113196 C17.5917888,17.6058206 17.7126359,15.6844189 17.5168118,14.0033699 C16.9831305,11.8907191 19.5358495,12.4502464 20.838396,12.2590126 L21.0424,12.2457565 L21.2464045,12.2324996 L21.2464029,12.2324996 Z" id="path841" fill-rule="nonzero"></path>
                    </g>
                </g>
            </g>
        </g>
    </g>
</svg>