<?xml version="1.0" encoding="UTF-8"?>
<svg width="16px" height="12px" viewBox="0 0 16 12" version="1.1" xmlns="http://www.w3.org/2000/svg" xmlns:xlink="http://www.w3.org/1999/xlink">
    <title>AL</title>
    <g id="AL" stroke="none" stroke-width="1" fill="none" fill-rule="evenodd">
        <g id="Albania">
            <rect id="Rectangle-77" fill="#E41E20" x="0" y="0" width="16" height="12"></rect>
            <path d="M8.45831749,9.78067339 C8.35199336,9.68292007 8.22310778,9.48495675 8.22492307,9.29414343 C8.23443173,9.15185844 8.32645828,9.06919345 8.38591335,9.24288343 C8.46996992,9.43459509 8.65025414,9.75161506 8.89868953,9.56564174 C9.00722658,9.48116175 9.00553231,9.35678843 8.85671312,9.37105176 C8.67293662,9.35770509 8.56004288,9.25047343 8.4778016,8.97439179 C8.46284707,8.82255514 8.52240586,8.82635014 8.60551157,8.92403013 C8.71235434,9.05401345 8.92496802,9.25047343 9.15953805,9.14518511 C9.28989316,9.08725178 9.32668303,8.96771846 9.12975001,8.93829346 C8.94331109,8.94117179 8.79112064,8.81300347 8.63962173,8.61749682 C8.5565506,8.50933016 8.67907403,8.40013684 8.75263649,8.49220683 C8.81824626,8.55197349 8.9101345,8.66208348 8.98888351,8.67726348 C9.07994191,8.69622015 9.19281837,8.68679681 9.3178832,8.61658015 C9.45269873,8.49691849 9.40892431,8.41058684 9.2452716,8.3907135 C9.11840877,8.39738684 9.04930673,8.4485185 8.88567131,8.33278017 C8.59152519,8.12194686 8.35768127,7.84025521 8.32115072,7.50141858 C8.29715432,7.27855859 8.41015179,7.2110736 8.50409737,7.23672193 C8.75962104,7.30642526 8.92678331,7.81279188 9.10357526,8.09096353 C9.16145707,8.17113519 9.21463642,8.17243685 9.25225615,8.14772352 C9.32317347,8.0832452 9.37981052,8.03024353 9.45072784,7.95815687 C9.45072784,7.95815687 9.97085163,8.05726686 10.2540887,8.15516686 L9.93871235,8.27402185 C9.81930085,8.20409852 9.67518412,8.27948518 9.67518412,8.40079684 C9.56218665,8.4836635 9.57128038,8.58081182 9.62003389,8.67456848 C9.63490197,8.60928349 9.64759172,8.52449183 9.73685211,8.51321683 C9.86425089,8.56909682 10.0126897,8.48934683 10.0126897,8.3838385 L10.3847204,8.22877518 L10.7605719,8.45442183 C10.7605719,8.60695515 10.896857,8.65528182 11.038657,8.61410515 C11.105477,8.65810515 11.1484389,8.73444514 11.1710695,8.81608347 C11.2129076,8.69834681 11.2041769,8.61522349 11.1386536,8.55745516 C11.176256,8.4052335 10.9751046,8.25886018 10.8193873,8.35633851 L10.5489955,8.19170519 L11.011808,8.17795519 C11.0655233,8.27878851 11.2596729,8.28434351 11.3163099,8.17795519 C11.3647177,8.16389352 11.4056222,8.15494686 11.5,8.22934352 C11.4702638,8.10896686 11.412382,8.0575052 11.3255593,8.0575052 C11.2595865,7.93355354 11.0208326,7.93412187 10.9863594,8.0736752 L10.5043394,8.08788353 L10.7903427,7.87195355 C10.897099,7.93879687 11.0469036,7.86449188 11.0768991,7.74307022 C11.1194634,7.68940856 11.1719512,7.66420023 11.2752671,7.70061023 C11.2220186,7.6006019 11.1469866,7.57075524 11.0114795,7.63864356 C10.8878669,7.53931357 10.7249404,7.6597819 10.7496629,7.75979022 L10.3691435,8.03433187 C10.0929428,7.94693687 9.59271809,7.81084855 9.59271809,7.81084855 C9.65227689,7.74440856 9.71270011,7.68268023 9.77215518,7.61532357 C9.79362747,7.57587024 9.76081394,7.52992691 9.71522423,7.52035691 C9.26890495,7.42267691 9.01336399,7.23188193 8.8585284,6.74694697 C8.79376578,6.54385032 8.93378514,6.48316699 8.98189897,6.60739365 C9.0484596,6.78016697 9.12190104,6.96900028 9.32230905,7.11522694 C9.39142837,7.16648694 9.59717852,7.12463194 9.47548494,7.00222028 C9.34945196,6.89211029 9.29520072,6.84477363 9.23310052,6.57707032 C9.23310052,6.44144033 9.36345562,6.38062867 9.43617095,6.51063032 C9.51396909,6.77728863 9.52192179,6.89211029 9.662771,7.06393028 C9.76949276,7.19395027 9.90866498,7.28130859 9.97776702,7.27934693 C10.1021057,7.27751359 10.2272743,7.1350636 10.0609765,7.03164528 C9.81677674,6.92820862 9.72753363,6.7868403 9.69159089,6.65199864 C9.65227689,6.416727 9.69522147,6.30282201 9.82906884,6.41856033 C10.0188963,6.64728698 10.3812628,7.07337194 10.5710902,7.27175693 C10.7838249,7.44453025 11.0279036,7.45014025 11.2221742,7.27463526 C11.3333737,7.13889527 11.2939214,6.99281528 11.1198091,7.02407361 C10.7269112,7.05923694 10.4293939,6.85234529 10.1029529,6.29327034 C10.0390374,6.16706368 10.0215242,5.98580203 10.1625117,6.12064369 C10.3251962,6.354082 10.5623941,6.55246699 10.7829951,6.63786364 C11.0043913,6.72223364 11.1871996,6.67563031 11.2580997,6.60178365 C11.3435566,6.51118032 11.3210816,6.28293034 11.1732132,6.337967 C11.0515369,6.383507 10.8800526,6.39487366 10.7015836,6.32177867 C10.5229764,6.24774868 10.3374883,6.08834036 10.1405726,5.81788704 C10.0731475,5.66513372 10.0951039,5.53604873 10.2315964,5.61475373 C10.5545451,5.90524537 10.971111,6.14051702 11.1837073,5.9991487 C11.3403755,5.8956937 11.3430206,5.62995206 11.1443933,5.64707539 C10.7443899,5.70488039 10.5930466,5.61099539 10.2088275,5.25135042 C10.1213824,5.1820321 10.1274334,5.00639878 10.266571,5.11847043 C10.5895197,5.33962542 11.0305487,5.42592041 11.2038484,5.31020042 C11.3596694,5.20674543 11.3368659,4.89064212 11.0743404,5.00260378 C10.8642682,5.13834377 10.6323606,5.13454877 10.1676982,4.78249379 C10.0504823,4.67905714 10.1379102,4.54421548 10.2341551,4.60214881 C10.6078801,4.82801546 11.1522423,4.92477878 11.2939387,4.46549215 C11.3490543,4.28996883 11.2493344,4.18744884 11.1031603,4.3089255 C10.7820096,4.62398381 10.4179316,4.46926882 10.2141351,4.31075883 C10.1557692,4.2742755 10.0486843,4.08962218 10.236783,4.12388718 C10.7234017,4.24158717 11.2046955,4.13906718 11.2922444,3.77366554 C11.3430206,3.65504889 11.2431451,3.4452789 11.0655406,3.62091222 C10.8319387,3.86573554 10.5842295,3.87422387 10.272743,3.87239053 C10.1142768,3.8372272 10.1125998,3.65217055 10.2456001,3.62470722 C10.4914941,3.63031722 10.7338958,3.51641223 10.9281837,3.40067391 C11.1181149,3.28493558 11.2756129,3.1226306 11.325542,2.89769895 C11.3561426,2.69654563 11.1732305,2.48299898 11.0629992,2.69654563 C10.9001936,3.0087256 10.5396252,3.30297558 10.1387573,3.35608724 C10.1178901,3.31905391 10.0653159,3.22412392 10.0005532,3.25079892 C9.88285329,3.29919891 9.74260918,3.36395224 9.59821583,3.43668057 C9.28695412,3.59341222 9.15723868,3.66894555 9.19461637,3.9397472 C9.23363646,4.22231884 9.0281975,4.40088549 8.8585284,4.35156883 C8.71053905,4.30932883 8.62890287,4.16757551 8.65542339,3.9217072 C8.67667093,3.72579721 8.8621417,3.48882057 9.07114208,3.36455724 C9.20644169,3.28425725 9.41072231,3.24033059 9.6566163,3.18239726 C9.80626534,3.15113893 9.88249023,3.0894106 9.89118634,3.02480394 C9.89118634,3.02480394 9.78889043,3.10418726 9.62515127,3.0922706 C9.54773348,3.08640393 9.49586805,3.05028727 9.47633208,3.01343727 C9.53326303,3.00115394 9.63649251,3.01539894 9.7292279,3.01539894 C9.85258117,3.01435394 10.1389993,2.98505727 10.2149822,2.80089895 C10.2386155,2.6794223 10.1633415,2.6575873 10.0933059,2.73539396 C10.0180492,2.81948895 9.98705093,2.89507728 9.83605339,2.92331061 C9.74418243,2.94045228 9.65227689,2.96034394 9.53409287,2.93000228 C9.6006535,2.84616395 9.7064244,2.76038229 9.79663566,2.77618562 C9.82630269,2.78142896 9.8657377,2.81046895 9.89732374,2.86264562 C9.91661768,2.72976563 9.88236921,2.57976231 9.54723212,2.6424073 C9.55255697,2.54184898 9.35294423,2.49816065 9.23310052,2.5000592 C9.16484561,2.50195565 9.02567339,2.54472731 8.92508904,2.59585897 C8.76579302,2.64816397 8.60829501,2.68609563 8.42268594,2.70035896 C8.53039314,2.79803895 8.55053421,2.80379562 8.65808582,2.88631395 C8.49540127,2.95079228 8.36936828,3.08367227 8.31247191,3.17103059 C8.31247191,3.17103059 8.5024031,3.16540226 8.55053421,3.18815392 C8.3517859,3.24975392 8.2625255,3.28676892 8.1575153,3.40067391 C8.19428789,3.40734724 8.24938626,3.4187139 8.27303689,3.42826557 C8.29763839,3.4376889 8.29124166,3.45481224 8.27134262,3.4709089 C8.22853636,3.5055589 8.05164068,3.72343221 8.00001729,3.77560888 C7.9483939,3.72343221 7.77149822,3.5055589 7.72869195,3.4709089 C7.70879292,3.45481224 7.70239618,3.4376889 7.72699768,3.42826557 C7.75063103,3.41873224 7.80574669,3.40734724 7.84251928,3.40067391 C7.73749179,3.28676892 7.64824868,3.24975392 7.44950036,3.18815392 C7.49763148,3.16540226 7.68756267,3.17103059 7.68756267,3.17103059 C7.63063172,3.08367227 7.50461602,2.95079228 7.34193147,2.88631395 C7.44950036,2.80379562 7.46964144,2.79803895 7.57733135,2.70034063 C7.39173957,2.68609563 7.23424155,2.64816397 7.07492825,2.59584064 C6.97436119,2.54472731 6.83518896,2.50195565 6.76693406,2.5000592 C6.64707306,2.49816065 6.44747761,2.54184898 6.45280246,2.64238897 C6.11766536,2.57976231 6.08341689,2.72976563 6.10271083,2.86264562 C6.13429688,2.81046895 6.17373189,2.78142896 6.20339891,2.77620396 C6.29361018,2.76038229 6.39936378,2.84616395 6.4659417,2.93000228 C6.34775768,2.96034394 6.25585215,2.94045228 6.1639639,2.92332894 C6.01298365,2.89509561 5.98198541,2.81948895 5.90671139,2.73541229 C5.83667577,2.6575873 5.76141904,2.6794223 5.78505238,2.80091729 C5.86103523,2.98505727 6.14741883,3.01435394 6.27080668,3.01539894 C6.36354206,3.01539894 6.46677155,3.00113561 6.5237025,3.01343727 C6.50416652,3.05032393 6.4523011,3.08640393 6.3748833,3.0922706 C6.21112686,3.10418726 6.10884824,3.02480394 6.10884824,3.02480394 C6.11754434,3.0894106 6.19373466,3.15112059 6.34341828,3.18239726 C6.58931226,3.24033059 6.79359289,3.28427558 6.9288925,3.36457558 C7.13789288,3.48882057 7.32336365,3.72579721 7.34459389,3.9217072 C7.37111442,4.16755718 7.28947823,4.30932883 7.14150617,4.35156883 C6.97183707,4.40088549 6.76639812,4.22231884 6.80541821,3.9397472 C6.84279589,3.66894555 6.71308046,3.59341222 6.40181875,3.43668057 C6.2574254,3.36395224 6.11718129,3.29918058 5.99948135,3.25078058 C5.93471872,3.22412392 5.88214446,3.31907225 5.86127727,3.35608724 C5.46040939,3.30297558 5.09984095,3.0087256 4.93703537,2.69654563 C4.82680405,2.48299898 4.64387469,2.69654563 4.67449258,2.89769895 C4.7244217,3.12264893 4.88191971,3.28493558 5.0718509,3.40067391 C5.26613879,3.51641223 5.50854051,3.63031722 5.75443449,3.62470722 C5.88743474,3.65217055 5.88575775,3.8372272 5.72729159,3.87239053 C5.41578784,3.87422387 5.16809585,3.86573554 4.93449397,3.62091222 C4.75687217,3.4452789 4.65701393,3.65504889 4.70779019,3.77366554 C4.79533903,4.13904885 5.2766329,4.24158717 5.76323433,4.12388718 C5.95133294,4.08960385 5.84426541,4.27429384 5.78588223,4.31077717 C5.58210297,4.46926882 5.21802496,4.62398381 4.89687424,4.30894383 C4.75071747,4.18744884 4.65096297,4.28996883 4.70609592,4.46549215 C4.84779226,4.92477878 5.39215449,4.82801546 5.76587946,4.60214881 C5.86212441,4.54421548 5.94955223,4.67905714 5.83233636,4.78249379 C5.36767401,5.13454877 5.13578369,5.13834377 4.92569413,5.00260378 C4.66316863,4.89064212 4.64036513,5.20674543 4.79618616,5.31020042 C4.96946855,5.42593874 5.41049756,5.33962542 5.73344628,5.11847043 C5.87261851,5.00639878 5.8786349,5.1820321 5.79118979,5.25135042 C5.406988,5.61099539 5.25564469,5.70488039 4.85564123,5.64707539 C4.65699665,5.62995206 4.65965907,5.89567537 4.81632724,5.9991487 C5.02892362,6.14049869 5.44545486,5.90524537 5.76840358,5.61477206 C5.90493067,5.53604873 5.92686975,5.66513372 5.85946198,5.81788704 C5.66254625,6.08834036 5.4770409,6.24774868 5.29845095,6.32177867 C5.11998202,6.39487366 4.94849763,6.383507 4.82682134,6.33798534 C4.67895301,6.28293034 4.65647799,6.51118032 4.74191764,6.60178365 C4.81285225,6.67563031 4.9956433,6.72223364 5.21705681,6.63786364 C5.43762318,6.55246699 5.67483835,6.35406367 5.83752291,6.12064369 C5.97849314,5.98580203 5.9609972,6.16706368 5.89708171,6.29327034 C5.57064071,6.85234529 5.27314062,7.05923694 4.88022544,7.02407361 C4.70609592,6.99281528 4.6666609,7.13889527 4.77784309,7.27463526 C4.97213098,7.45014025 5.21620967,7.44453025 5.42892708,7.27175693 C5.61875454,7.07337194 5.98112098,6.64728698 6.17094845,6.41856033 C6.30481311,6.30282201 6.34775768,6.416727 6.30844369,6.65199864 C6.27248366,6.7868403 6.18327513,6.92820862 5.93905812,7.03164528 C5.77274299,7.13510027 5.89791155,7.27749526 6.02226756,7.27932859 C6.09136959,7.28130859 6.23054182,7.19395027 6.33726358,7.06394861 C6.47811279,6.89211029 6.48608278,6.77728863 6.56386363,6.51063032 C6.63657896,6.38062867 6.76693406,6.44144033 6.76693406,6.57705198 C6.70483386,6.84477363 6.65056533,6.89211029 6.52454964,7.00220195 C6.40283877,7.12463194 6.6086062,7.1664686 6.67770824,7.11522694 C6.87813354,6.96900028 6.95155769,6.78016697 7.01811832,6.60739365 C7.06624944,6.48316699 7.2062688,6.54385032 7.14150617,6.74694697 C6.98667059,7.2318636 6.73112963,7.42267691 6.28481035,7.52037524 C6.23922064,7.52990857 6.20640711,7.57587024 6.22786211,7.61532357 C6.28733446,7.68268023 6.34775768,7.74439022 6.40731648,7.81084855 C6.40731648,7.81084855 5.90707444,7.94693687 5.63087376,8.03433187 L5.25035441,7.75979022 C5.27507693,7.6597819 5.11216763,7.53931357 4.98853774,7.6386069 C4.85301338,7.57075524 4.77799869,7.6006019 4.72475018,7.70061023 C4.82806611,7.66420023 4.88055392,7.68940856 4.92311815,7.74305189 C4.95311365,7.86449188 5.10291829,7.93879687 5.20967463,7.87193521 L5.49567788,8.08790186 L5.01367518,8.0736752 C4.97918468,7.93414021 4.74043083,7.93355354 4.67444072,8.0575052 C4.58765257,8.0575052 4.52973618,8.10896686 4.5,8.22934352 C4.59439508,8.15494686 4.6353169,8.16389352 4.68370734,8.17795519 C4.74034439,8.28434351 4.93449397,8.27878851 4.98819197,8.17795519 L5.45102175,8.19170519 L5.18062999,8.35633851 C5.02491269,8.25886018 4.82376128,8.4052335 4.86136371,8.55745516 C4.79584039,8.61520515 4.78709242,8.69834681 4.82894782,8.81608347 C4.85156115,8.73444514 4.8945403,8.65810515 4.96137755,8.61408682 C5.10314304,8.65528182 5.23944539,8.60697349 5.23944539,8.4544035 L5.61529684,8.22877518 L5.98734484,8.3838385 C5.98734484,8.48934683 6.1357664,8.56909682 6.26316517,8.51321683 C6.35242557,8.52449183 6.36511531,8.60928349 6.3799834,8.67455015 C6.4287369,8.58081182 6.43783064,8.4836635 6.32483317,8.40079684 C6.32483317,8.27948518 6.18071643,8.20408019 6.06130493,8.27402185 L5.74592856,8.15516686 C6.02916566,8.05726686 6.54930673,7.95817521 6.54930673,7.95817521 C6.62020677,8.0302252 6.67684382,8.0832452 6.74777843,8.14774186 C6.78539815,8.17243685 6.8385775,8.17113519 6.89645932,8.09096353 C7.07325127,7.81279188 7.24039625,7.30642526 7.49593721,7.23672193 C7.58988278,7.21105527 7.70288026,7.27855859 7.67888386,7.50141858 C7.64233602,7.84025521 7.4084921,8.12196519 7.11438055,8.33278017 C6.95072784,8.4485185 6.88162581,8.39738684 6.75476298,8.3907135 C6.59111027,8.41058684 6.54733585,8.49691849 6.68215138,8.61658015 C6.80721621,8.68679681 6.92009267,8.69622015 7.01115107,8.67726348 C7.08990007,8.66208348 7.18178832,8.55197349 7.24739808,8.49220683 C7.32096055,8.40013684 7.44348397,8.50933016 7.36039556,8.61749682 C7.20891394,8.81300347 7.05672349,8.94117179 6.87026728,8.93829346 C6.67335154,8.96771846 6.71014142,9.08725178 6.84049653,9.14518511 C7.07506656,9.25047343 7.28766294,9.05403178 7.39452301,8.92403013 C7.47761142,8.82635014 7.53718751,8.82255514 7.52223298,8.97439179 C7.43997441,9.25047343 7.32709796,9.35770509 7.14332146,9.37105176 C6.99450226,9.35678843 6.99280799,9.48116175 7.10134504,9.56564174 C7.34978044,9.75161506 7.53006466,9.43459509 7.61412123,9.24288343 C7.67357629,9.06921178 7.76556827,9.15185844 7.77511151,9.29414343 C7.7769268,9.48495675 7.64804122,9.68292007 7.54171709,9.78067339 C7.43542754,9.87846338 8,10.5 8,10.5 C8,10.5 8.56458974,9.87842672 8.4583002,9.78065506 L8.45831749,9.78067339 Z M9.21491304,2.74177396 C9.12703572,2.74177396 9.0727499,2.77440729 9.0727499,2.81400729 C9.0727499,2.85423062 9.12703572,2.88701061 9.21491304,2.88701061 C9.30227171,2.88701061 9.35775042,2.85126062 9.35775042,2.81098229 C9.35775042,2.77138229 9.30225442,2.74175563 9.21491304,2.74175563 L9.21491304,2.74177396 Z M6.78512154,2.74177396 C6.87299886,2.74177396 6.92728467,2.77440729 6.92728467,2.81400729 C6.92728467,2.85423062 6.87299886,2.88701061 6.78512154,2.88701061 C6.69776287,2.88701061 6.64228415,2.85126062 6.64228415,2.81098229 C6.64228415,2.77138229 6.69778016,2.74175563 6.78512154,2.74175563 L6.78512154,2.74177396 Z" id="Shape" fill="#000000" fill-rule="nonzero"></path>
            <g id="Overlay" opacity="0" stroke="#000000" stroke-opacity="0.503742351">
                <g>
                    <rect style="mix-blend-mode: multiply;" x="0.5" y="0.5" width="15" height="11"></rect>
                </g>
            </g>
        </g>
    </g>
</svg>