<?xml version="1.0" encoding="UTF-8"?>
<svg width="16px" height="12px" viewBox="0 0 16 12" version="1.1" xmlns="http://www.w3.org/2000/svg" xmlns:xlink="http://www.w3.org/1999/xlink">
    <title>BI</title>
    <defs>
        <rect id="path-1" x="0" y="0" width="16" height="12"></rect>
    </defs>
    <g id="BI" stroke="none" stroke-width="1" fill="none" fill-rule="evenodd">
        <g id="Burundi">
            <mask id="mask-2" fill="white">
                <use xlink:href="#path-1"></use>
            </mask>
            <use id="Rectangle-77" fill="#FFFFFF" xlink:href="#path-1"></use>
            <rect id="Rectangle-119-Copy" fill="#2875C6" mask="url(#mask-2)" x="0" y="0" width="16" height="12"></rect>
            <polygon id="Rectangle-119-Copy-38" fill="#CE1126" mask="url(#mask-2)" points="8 6 16 12 0 12"></polygon>
            <polygon id="Rectangle-119-Copy-39" fill="#CE1126" mask="url(#mask-2)" points="8 6 16 0 0 0"></polygon>
            <polygon id="Rectangle-119-Copy-36" fill="#1EB53A" mask="url(#mask-2)" points="0 0 8 6 0 12"></polygon>
            <polygon id="Rectangle-119-Copy-37" fill="#1EB53A" mask="url(#mask-2)" transform="translate(12.000000, 6.000000) scale(-1, 1) translate(-12.000000, -6.000000) " points="8 0 16 6 8 12"></polygon>
            <path d="M1,2.77555756e-17 L8,5.133 L15,2.77555756e-17 L16,4.78121001e-08 L16,1 L9.181,6 L16,11 L16,12 L15,12 L8,6.866 L1,12 L0,12 L0,11 L6.819,6 L0,1 L0,4.78121001e-08 L1,2.77555756e-17 Z" id="Rectangle-114" fill="#FFFFFF" mask="url(#mask-2)"></path>
            <circle id="Oval-9" fill="#FFFFFF" mask="url(#mask-2)" cx="8" cy="6" r="3"></circle>
            <g id="Group-2" mask="url(#mask-2)" fill="#CE1126">
                <g transform="translate(6.000000, 4.000000)">
                    <polygon id="Star-7" points="1.74603029 1.4330127 1.13000488 1.5 1.49603029 1 1.13000488 0.5 1.74603029 0.566987298 1.99603029 0 2.24603029 0.566987298 2.86205569 0.5 2.49603029 1 2.86205569 1.5 2.24603029 1.4330127 1.99603029 2"></polygon>
                    <polygon id="Star-7-Copy" points="0.616025404 3.4330127 0 3.5 0.366025404 3 0 2.5 0.616025404 2.5669873 0.866025404 2 1.1160254 2.5669873 1.73205081 2.5 1.3660254 3 1.73205081 3.5 1.1160254 3.4330127 0.866025404 4"></polygon>
                    <polygon id="Star-7-Copy-2" points="2.88604494 3.4330127 2.27001953 3.5 2.63604494 3 2.27001953 2.5 2.88604494 2.5669873 3.13604494 2 3.38604494 2.5669873 4.00207034 2.5 3.63604494 3 4.00207034 3.5 3.38604494 3.4330127 3.13604494 4"></polygon>
                </g>
            </g>
            <g id="Overlay" mask="url(#mask-2)" opacity="0" stroke="#000000" stroke-opacity="0.503742351">
                <g>
                    <rect style="mix-blend-mode: multiply;" x="0.5" y="0.5" width="15" height="11"></rect>
                </g>
            </g>
        </g>
    </g>
</svg>