<?xml version="1.0" encoding="UTF-8"?>
<svg width="16px" height="12px" viewBox="0 0 16 12" version="1.1" xmlns="http://www.w3.org/2000/svg" xmlns:xlink="http://www.w3.org/1999/xlink">
    <title>CA-BC</title>
    <defs>
        <rect id="path-1" x="0" y="0" width="16" height="12"></rect>
        <rect id="path-3" x="0" y="0" width="16" height="4"></rect>
        <rect id="path-5" x="0" y="0" width="16" height="4"></rect>
    </defs>
    <g id="CA-BC" stroke="none" stroke-width="1" fill="none" fill-rule="evenodd">
        <g id="British-Colombia">
            <mask id="mask-2" fill="white">
                <use xlink:href="#path-1"></use>
            </mask>
            <use id="Rectangle-77" fill="#00247D" xlink:href="#path-1"></use>
            <path d="M13.4,10 C13.757138,10 13.9063168,10.1329671 14.4409304,10.7337911 C14.7499647,11.0810983 14.9157202,11.2163992 15,11.2163992 L15,11.2163992 L15,12 C14.60977,12 14.3599901,11.7961127 13.8884814,11.2662089 C13.5662322,10.9040502 13.4310973,10.7836008 13.4,10.7836008 C13.3614224,10.7836008 13.1942986,10.9211687 12.88984,11.2470633 C12.8777668,11.25999 12.8777668,11.25999 12.8656363,11.2729864 C12.3353708,11.841134 12.1476603,12 11.8,12 L11.8,12 L11.6967838,11.9948532 C11.362523,11.9602352 11.1171257,11.7479396 10.6884814,11.2662089 C10.3662322,10.9040502 10.2310973,10.7836008 10.2,10.7836008 C10.1614224,10.7836008 9.99429864,10.9211687 9.68983998,11.2470633 C9.67776681,11.25999 9.67776681,11.25999 9.66563635,11.2729864 C9.13537083,11.841134 8.94766025,12 8.6,12 L8.6,12 L8.49678376,11.9948532 C8.16252301,11.9602352 7.91712566,11.7479396 7.48848135,11.2662089 C7.16623221,10.9040502 7.0310973,10.7836008 7,10.7836008 C6.96142243,10.7836008 6.79429864,10.9211687 6.48983998,11.2470633 C6.47776681,11.25999 6.47776681,11.25999 6.46563635,11.2729864 C5.93537083,11.841134 5.74766025,12 5.4,12 L5.4,12 L5.29678376,11.9948532 C4.96252301,11.9602352 4.71712566,11.7479396 4.28848135,11.2662089 C3.96623221,10.9040502 3.8310973,10.7836008 3.8,10.7836008 C3.76142243,10.7836008 3.59429864,10.9211687 3.28983998,11.2470633 C3.27776681,11.25999 3.27776681,11.25999 3.26563635,11.2729864 C2.73537083,11.841134 2.54766025,12 2.2,12 L2.2,12 L2.09678376,11.9948532 C1.76252301,11.9602352 1.51712566,11.7479396 1.08848135,11.2662089 C0.766232206,10.9040502 0.631097298,10.7836008 0.6,10.7836008 C0.56142243,10.7836008 0.394298643,10.9211687 0.0898399808,11.2470633 C0.0777668116,11.25999 0.0777668116,11.25999 0.0656363497,11.2729864 C-0.464629166,11.841134 -0.652339749,12 -1,12 L-1,12 L-1,11.2163992 C-0.965797506,11.2163992 -0.801193982,11.0770895 -0.474459879,10.7270136 C-0.462261409,10.7139443 -0.462261409,10.7139443 -0.450003246,10.7008195 C0.039642844,10.1766991 0.254304948,10 0.6,10 C0.957137996,10 1.10631681,10.1329671 1.64093041,10.7337911 C1.94996466,11.0810983 2.11572019,11.2163992 2.2,11.2163992 C2.23420249,11.2163992 2.39880602,11.0770895 2.72554012,10.7270136 C2.73773859,10.7139443 2.73773859,10.7139443 2.74999675,10.7008195 C3.23964284,10.1766991 3.45430495,10 3.8,10 C4.157138,10 4.30631681,10.1329671 4.84093041,10.7337911 C5.14996466,11.0810983 5.31572019,11.2163992 5.4,11.2163992 C5.43420249,11.2163992 5.59880602,11.0770895 5.92554012,10.7270136 C5.93773859,10.7139443 5.93773859,10.7139443 5.94999675,10.7008195 C6.43964284,10.1766991 6.65430495,10 7,10 C7.357138,10 7.50631681,10.1329671 8.04093041,10.7337911 C8.34996466,11.0810983 8.51572019,11.2163992 8.6,11.2163992 C8.63420249,11.2163992 8.79880602,11.0770895 9.12554012,10.7270136 C9.13773859,10.7139443 9.13773859,10.7139443 9.14999675,10.7008195 C9.63964284,10.1766991 9.85430495,10 10.2,10 C10.557138,10 10.7063168,10.1329671 11.2409304,10.7337911 C11.5499647,11.0810983 11.7157202,11.2163992 11.8,11.2163992 C11.8342025,11.2163992 11.998806,11.0770895 12.3255401,10.7270136 C12.3377386,10.7139443 12.3377386,10.7139443 12.3499968,10.7008195 C12.8396428,10.1766991 13.0543049,10 13.4,10 Z M16.6,10 C16.957138,10 17.1063168,10.1329671 17.6409304,10.7337911 C17.9499647,11.0810983 18.1157202,11.2163992 18.2,11.2163992 L18.2,11.2163992 L18.2,12 C17.80977,12 17.5599901,11.7961127 17.0884814,11.2662089 C16.7662322,10.9040502 16.6310973,10.7836008 16.6,10.7836008 C16.5614224,10.7836008 16.3942986,10.9211687 16.08984,11.2470633 C16.0777668,11.25999 16.0777668,11.25999 16.0656363,11.2729864 C15.5353708,11.841134 15.3476603,12 15,12 L15,12 L15,11.2163992 C15.0342025,11.2163992 15.198806,11.0770895 15.5255401,10.7270136 C15.5377386,10.7139443 15.5377386,10.7139443 15.5499968,10.7008195 C16.0396428,10.1766991 16.2543049,10 16.6,10 Z M13.4,8 C13.757138,8 13.9063168,8.13296711 14.4409304,8.73379105 C14.7499647,9.0810983 14.9157202,9.21639921 15,9.21639921 L15,9.21639921 L15,10 C14.60977,10 14.3599901,9.79611268 13.8884814,9.26620895 C13.5662322,8.90405018 13.4310973,8.78360079 13.4,8.78360079 C13.3614224,8.78360079 13.1942986,8.92116872 12.88984,9.24706328 C12.8777668,9.25999 12.8777668,9.25999 12.8656363,9.27298642 C12.3353708,9.84113395 12.1476603,10 11.8,10 L11.8,10 L11.6967838,9.99485318 C11.362523,9.96023523 11.1171257,9.74793961 10.6884814,9.26620895 C10.3662322,8.90405018 10.2310973,8.78360079 10.2,8.78360079 C10.1614224,8.78360079 9.99429864,8.92116872 9.68983998,9.24706328 C9.67776681,9.25999 9.67776681,9.25999 9.66563635,9.27298642 C9.13537083,9.84113395 8.94766025,10 8.6,10 L8.6,10 L8.49678376,9.99485318 C8.16252301,9.96023523 7.91712566,9.74793961 7.48848135,9.26620895 C7.16623221,8.90405018 7.0310973,8.78360079 7,8.78360079 C6.96142243,8.78360079 6.79429864,8.92116872 6.48983998,9.24706328 C6.47776681,9.25999 6.47776681,9.25999 6.46563635,9.27298642 C5.93537083,9.84113395 5.74766025,10 5.4,10 L5.4,10 L5.29678376,9.99485318 C4.96252301,9.96023523 4.71712566,9.74793961 4.28848135,9.26620895 C3.96623221,8.90405018 3.8310973,8.78360079 3.8,8.78360079 C3.76142243,8.78360079 3.59429864,8.92116872 3.28983998,9.24706328 C3.27776681,9.25999 3.27776681,9.25999 3.26563635,9.27298642 C2.73537083,9.84113395 2.54766025,10 2.2,10 L2.2,10 L2.09678376,9.99485318 C1.76252301,9.96023523 1.51712566,9.74793961 1.08848135,9.26620895 C0.766232206,8.90405018 0.631097298,8.78360079 0.6,8.78360079 C0.56142243,8.78360079 0.394298643,8.92116872 0.0898399808,9.24706328 C0.0777668116,9.25999 0.0777668116,9.25999 0.0656363497,9.27298642 C-0.464629166,9.84113395 -0.652339749,10 -1,10 L-1,10 L-1,9.21639921 C-0.965797506,9.21639921 -0.801193982,9.07708948 -0.474459879,8.72701358 C-0.462261409,8.7139443 -0.462261409,8.7139443 -0.450003246,8.70081951 C0.039642844,8.17669909 0.254304948,8 0.6,8 C0.957137996,8 1.10631681,8.13296711 1.64093041,8.73379105 C1.94996466,9.0810983 2.11572019,9.21639921 2.2,9.21639921 C2.23420249,9.21639921 2.39880602,9.07708948 2.72554012,8.72701358 C2.73773859,8.7139443 2.73773859,8.7139443 2.74999675,8.70081951 C3.23964284,8.17669909 3.45430495,8 3.8,8 C4.157138,8 4.30631681,8.13296711 4.84093041,8.73379105 C5.14996466,9.0810983 5.31572019,9.21639921 5.4,9.21639921 C5.43420249,9.21639921 5.59880602,9.07708948 5.92554012,8.72701358 C5.93773859,8.7139443 5.93773859,8.7139443 5.94999675,8.70081951 C6.43964284,8.17669909 6.65430495,8 7,8 C7.357138,8 7.50631681,8.13296711 8.04093041,8.73379105 C8.34996466,9.0810983 8.51572019,9.21639921 8.6,9.21639921 C8.63420249,9.21639921 8.79880602,9.07708948 9.12554012,8.72701358 C9.13773859,8.7139443 9.13773859,8.7139443 9.14999675,8.70081951 C9.63964284,8.17669909 9.85430495,8 10.2,8 C10.557138,8 10.7063168,8.13296711 11.2409304,8.73379105 C11.5499647,9.0810983 11.7157202,9.21639921 11.8,9.21639921 C11.8342025,9.21639921 11.998806,9.07708948 12.3255401,8.72701358 C12.3377386,8.7139443 12.3377386,8.7139443 12.3499968,8.70081951 C12.8396428,8.17669909 13.0543049,8 13.4,8 Z M16.6,8 C16.957138,8 17.1063168,8.13296711 17.6409304,8.73379105 C17.9499647,9.0810983 18.1157202,9.21639921 18.2,9.21639921 L18.2,9.21639921 L18.2,10 C17.80977,10 17.5599901,9.79611268 17.0884814,9.26620895 C16.7662322,8.90405018 16.6310973,8.78360079 16.6,8.78360079 C16.5614224,8.78360079 16.3942986,8.92116872 16.08984,9.24706328 C16.0777668,9.25999 16.0777668,9.25999 16.0656363,9.27298642 C15.5353708,9.84113395 15.3476603,10 15,10 L15,10 L15,9.21639921 C15.0342025,9.21639921 15.198806,9.07708948 15.5255401,8.72701358 C15.5377386,8.7139443 15.5377386,8.7139443 15.5499968,8.70081951 C16.0396428,8.17669909 16.2543049,8 16.6,8 Z M2.09678376,7.99485318 C1.76252301,7.96023523 1.51712566,7.74793961 1.08848135,7.26620895 C0.766232206,6.90405018 0.631097298,6.78360079 0.6,6.78360079 C0.56142243,6.78360079 0.394298643,6.92116872 0.0898399808,7.24706328 C0.0777668116,7.25999 0.0777668116,7.25999 0.0656363497,7.27298642 C-0.464629166,7.84113395 -0.652339749,8 -1,8 L-1,8 L-1,7.21639921 C-0.965797506,7.21639921 -0.801193982,7.07708948 -0.474459879,6.72701358 C-0.462261409,6.7139443 -0.462261409,6.7139443 -0.450003246,6.70081951 C0.039642844,6.17669909 0.254304948,6 0.6,6 C0.957137996,6 1.10631681,6.13296711 1.64093041,6.73379105 C1.94996466,7.0810983 2.11572019,7.21639921 2.2,7.21639921 C2.23420249,7.21639921 2.39880602,7.07708948 2.72554012,6.72701358 C2.73773859,6.7139443 2.73773859,6.7139443 2.74999675,6.70081951 C3.23964284,6.17669909 3.45430495,6 3.8,6 C4.157138,6 4.30631681,6.13296711 4.84093041,6.73379105 C5.14996466,7.0810983 5.31572019,7.21639921 5.4,7.21639921 C5.43420249,7.21639921 5.59880602,7.07708948 5.92554012,6.72701358 C5.93773859,6.7139443 5.93773859,6.7139443 5.94999675,6.70081951 C6.43964284,6.17669909 6.65430495,6 7,6 C7.357138,6 7.50631681,6.13296711 8.04093041,6.73379105 C8.34996466,7.0810983 8.51572019,7.21639921 8.6,7.21639921 C8.63420249,7.21639921 8.79880602,7.07708948 9.12554012,6.72701358 C9.13773859,6.7139443 9.13773859,6.7139443 9.14999675,6.70081951 C9.63964284,6.17669909 9.85430495,6 10.2,6 C10.557138,6 10.7063168,6.13296711 11.2409304,6.73379105 C11.5499647,7.0810983 11.7157202,7.21639921 11.8,7.21639921 C11.8342025,7.21639921 11.998806,7.07708948 12.3255401,6.72701358 C12.3377386,6.7139443 12.3377386,6.7139443 12.3499968,6.70081951 C12.8396428,6.17669909 13.0543049,6 13.4,6 C13.757138,6 13.9063168,6.13296711 14.4409304,6.73379105 C14.7499647,7.0810983 14.9157202,7.21639921 15,7.21639921 L15,7.21639921 L15,8 C14.60977,8 14.3599901,7.79611268 13.8884814,7.26620895 C13.5662322,6.90405018 13.4310973,6.78360079 13.4,6.78360079 C13.3614224,6.78360079 13.1942986,6.92116872 12.88984,7.24706328 C12.8777668,7.25999 12.8777668,7.25999 12.8656363,7.27298642 C12.3353708,7.84113395 12.1476603,8 11.8,8 L11.8,8 L11.6967838,7.99485318 C11.362523,7.96023523 11.1171257,7.74793961 10.6884814,7.26620895 C10.3662322,6.90405018 10.2310973,6.78360079 10.2,6.78360079 C10.1614224,6.78360079 9.99429864,6.92116872 9.68983998,7.24706328 C9.67776681,7.25999 9.67776681,7.25999 9.66563635,7.27298642 C9.13537083,7.84113395 8.94766025,8 8.6,8 L8.6,8 L8.49678376,7.99485318 C8.16252301,7.96023523 7.91712566,7.74793961 7.48848135,7.26620895 C7.16623221,6.90405018 7.0310973,6.78360079 7,6.78360079 C6.96142243,6.78360079 6.79429864,6.92116872 6.48983998,7.24706328 C6.47776681,7.25999 6.47776681,7.25999 6.46563635,7.27298642 C5.93537083,7.84113395 5.74766025,8 5.4,8 L5.4,8 L5.29678376,7.99485318 C4.96252301,7.96023523 4.71712566,7.74793961 4.28848135,7.26620895 C3.96623221,6.90405018 3.8310973,6.78360079 3.8,6.78360079 C3.76142243,6.78360079 3.59429864,6.92116872 3.28983998,7.24706328 C3.27776681,7.25999 3.27776681,7.25999 3.26563635,7.27298642 C2.73537083,7.84113395 2.54766025,8 2.2,8 L2.2,8 Z M16.6,6 C16.957138,6 17.1063168,6.13296711 17.6409304,6.73379105 C17.9499647,7.0810983 18.1157202,7.21639921 18.2,7.21639921 L18.2,7.21639921 L18.2,8 C17.80977,8 17.5599901,7.79611268 17.0884814,7.26620895 C16.7662322,6.90405018 16.6310973,6.78360079 16.6,6.78360079 C16.5614224,6.78360079 16.3942986,6.92116872 16.08984,7.24706328 C16.0777668,7.25999 16.0777668,7.25999 16.0656363,7.27298642 C15.5353708,7.84113395 15.3476603,8 15,8 L15,8 L15,7.21639921 C15.0342025,7.21639921 15.198806,7.07708948 15.5255401,6.72701358 C15.5377386,6.7139443 15.5377386,6.7139443 15.5499968,6.70081951 C16.0396428,6.17669909 16.2543049,6 16.6,6 Z" id="blue" fill="#00247D" fill-rule="nonzero" mask="url(#mask-2)"></path>
            <rect id="Rectangle-65" fill="#FFFFFF" mask="url(#mask-2)" x="0" y="4" width="16" height="1"></rect>
            <path d="M13.4,10 C13.757138,10 13.9063168,10.1329671 14.4409304,10.7337911 C14.7499647,11.0810983 14.9157202,11.2163992 15,11.2163992 L15,11.2163992 L15,12 C14.60977,12 14.3599901,11.7961127 13.8884814,11.2662089 C13.5662322,10.9040502 13.4310973,10.7836008 13.4,10.7836008 C13.3614224,10.7836008 13.1942986,10.9211687 12.88984,11.2470633 C12.8777668,11.25999 12.8777668,11.25999 12.8656363,11.2729864 C12.3353708,11.841134 12.1476603,12 11.8,12 L11.8,12 L11.6967838,11.9948532 C11.362523,11.9602352 11.1171257,11.7479396 10.6884814,11.2662089 C10.3662322,10.9040502 10.2310973,10.7836008 10.2,10.7836008 C10.1614224,10.7836008 9.99429864,10.9211687 9.68983998,11.2470633 C9.67776681,11.25999 9.67776681,11.25999 9.66563635,11.2729864 C9.13537083,11.841134 8.94766025,12 8.6,12 L8.6,12 L8.49678376,11.9948532 C8.16252301,11.9602352 7.91712566,11.7479396 7.48848135,11.2662089 C7.16623221,10.9040502 7.0310973,10.7836008 7,10.7836008 C6.96142243,10.7836008 6.79429864,10.9211687 6.48983998,11.2470633 C6.47776681,11.25999 6.47776681,11.25999 6.46563635,11.2729864 C5.93537083,11.841134 5.74766025,12 5.4,12 L5.4,12 L5.29678376,11.9948532 C4.96252301,11.9602352 4.71712566,11.7479396 4.28848135,11.2662089 C3.96623221,10.9040502 3.8310973,10.7836008 3.8,10.7836008 C3.76142243,10.7836008 3.59429864,10.9211687 3.28983998,11.2470633 C3.27776681,11.25999 3.27776681,11.25999 3.26563635,11.2729864 C2.73537083,11.841134 2.54766025,12 2.2,12 L2.2,12 L2.09678376,11.9948532 C1.76252301,11.9602352 1.51712566,11.7479396 1.08848135,11.2662089 C0.766232206,10.9040502 0.631097298,10.7836008 0.6,10.7836008 C0.56142243,10.7836008 0.394298643,10.9211687 0.0898399808,11.2470633 C0.0777668116,11.25999 0.0777668116,11.25999 0.0656363497,11.2729864 C-0.464629166,11.841134 -0.652339749,12 -1,12 L-1,12 L-1,11.2163992 C-0.965797506,11.2163992 -0.801193982,11.0770895 -0.474459879,10.7270136 C-0.462261409,10.7139443 -0.462261409,10.7139443 -0.450003246,10.7008195 C0.039642844,10.1766991 0.254304948,10 0.6,10 C0.957137996,10 1.10631681,10.1329671 1.64093041,10.7337911 C1.94996466,11.0810983 2.11572019,11.2163992 2.2,11.2163992 C2.23420249,11.2163992 2.39880602,11.0770895 2.72554012,10.7270136 C2.73773859,10.7139443 2.73773859,10.7139443 2.74999675,10.7008195 C3.23964284,10.1766991 3.45430495,10 3.8,10 C4.157138,10 4.30631681,10.1329671 4.84093041,10.7337911 C5.14996466,11.0810983 5.31572019,11.2163992 5.4,11.2163992 C5.43420249,11.2163992 5.59880602,11.0770895 5.92554012,10.7270136 C5.93773859,10.7139443 5.93773859,10.7139443 5.94999675,10.7008195 C6.43964284,10.1766991 6.65430495,10 7,10 C7.357138,10 7.50631681,10.1329671 8.04093041,10.7337911 C8.34996466,11.0810983 8.51572019,11.2163992 8.6,11.2163992 C8.63420249,11.2163992 8.79880602,11.0770895 9.12554012,10.7270136 C9.13773859,10.7139443 9.13773859,10.7139443 9.14999675,10.7008195 C9.63964284,10.1766991 9.85430495,10 10.2,10 C10.557138,10 10.7063168,10.1329671 11.2409304,10.7337911 C11.5499647,11.0810983 11.7157202,11.2163992 11.8,11.2163992 C11.8342025,11.2163992 11.998806,11.0770895 12.3255401,10.7270136 C12.3377386,10.7139443 12.3377386,10.7139443 12.3499968,10.7008195 C12.8396428,10.1766991 13.0543049,10 13.4,10 Z M16.6,10 C16.957138,10 17.1063168,10.1329671 17.6409304,10.7337911 C17.9499647,11.0810983 18.1157202,11.2163992 18.2,11.2163992 L18.2,11.2163992 L18.2,12 C17.80977,12 17.5599901,11.7961127 17.0884814,11.2662089 C16.7662322,10.9040502 16.6310973,10.7836008 16.6,10.7836008 C16.5614224,10.7836008 16.3942986,10.9211687 16.08984,11.2470633 C16.0777668,11.25999 16.0777668,11.25999 16.0656363,11.2729864 C15.5353708,11.841134 15.3476603,12 15,12 L15,12 L15,11.2163992 C15.0342025,11.2163992 15.198806,11.0770895 15.5255401,10.7270136 C15.5377386,10.7139443 15.5377386,10.7139443 15.5499968,10.7008195 C16.0396428,10.1766991 16.2543049,10 16.6,10 Z M16.6,8 C16.957138,8 17.1063168,8.13296711 17.6409304,8.73379105 C17.9499647,9.0810983 18.1157202,9.21639921 18.2,9.21639921 L18.2,9.21639921 L18.2,10 C17.80977,10 17.5599901,9.79611268 17.0884814,9.26620895 C16.7662322,8.90405018 16.6310973,8.78360079 16.6,8.78360079 C16.5614224,8.78360079 16.3942986,8.92116872 16.08984,9.24706328 C16.0777668,9.25999 16.0777668,9.25999 16.0656363,9.27298642 C15.5353708,9.84113395 15.3476603,10 15,10 L15,10 L15,9.21639921 C15.0342025,9.21639921 15.198806,9.07708948 15.5255401,8.72701358 C15.5377386,8.7139443 15.5377386,8.7139443 15.5499968,8.70081951 C16.0396428,8.17669909 16.2543049,8 16.6,8 Z M10.2,7.78121948 C10.557138,7.78121948 10.7063168,8.13296711 11.2409304,8.73379105 C11.5499647,9.0810983 11.7157202,9.21639921 11.8,9.21639921 C11.8342025,9.21639921 11.998806,9.07708948 12.3255401,8.72701358 C12.3377386,8.7139443 12.3377386,8.7139443 12.3499968,8.70081951 C12.8396428,8.17669909 13.0543049,8 13.4,8 C13.757138,8 13.9063168,8.13296711 14.4409304,8.73379105 C14.7499647,9.0810983 14.9157202,9.21639921 15,9.21639921 L15,9.21639921 L15,10 C14.60977,10 14.3599901,9.79611268 13.8884814,9.26620895 C13.5662322,8.90405018 13.4310973,8.78360079 13.4,8.78360079 C13.3614224,8.78360079 13.1942986,8.92116872 12.88984,9.24706328 C12.8777668,9.25999 12.8777668,9.25999 12.8656363,9.27298642 C12.3353708,9.84113395 12.1476603,10 11.8,10 L11.8,10 L11.6967838,9.99485318 C11.362523,9.96023523 11.1171257,9.74793961 10.6884814,9.26620895 C10.3662322,8.90405018 10.2310973,8.78360079 10.2,8.78360079 C10.1614224,8.78360079 9.99429864,8.92116872 9.68983998,9.24706328 C9.67776681,9.25999 9.67776681,9.25999 9.66563635,9.27298642 C9.13537083,9.84113395 8.94766025,10 8.6,10 L8.6,10 L8.49678376,9.99485318 C8.16252301,9.96023523 7.91712566,9.74793961 7.48848135,9.26620895 C7.16623221,8.90405018 7.0310973,8.78360079 7,8.78360079 C6.96142243,8.78360079 6.79429864,8.92116872 6.48983998,9.24706328 C6.47776681,9.25999 6.47776681,9.25999 6.46563635,9.27298642 C5.93537083,9.84113395 5.74766025,10 5.4,10 L5.4,10 L5.29678376,9.99485318 C4.96252301,9.96023523 4.71712566,9.74793961 4.28848135,9.26620895 C3.96623221,8.90405018 3.8310973,8.78360079 3.8,8.78360079 C3.76142243,8.78360079 3.59429864,8.92116872 3.28983998,9.24706328 C3.27776681,9.25999 3.27776681,9.25999 3.26563635,9.27298642 C2.73537083,9.84113395 2.54766025,10 2.2,10 L2.2,10 L2.09678376,9.99485318 C1.76252301,9.96023523 1.51712566,9.74793961 1.08848135,9.26620895 C0.766232206,8.90405018 0.631097298,8.78360079 0.6,8.78360079 C0.56142243,8.78360079 0.394298643,8.92116872 0.0898399808,9.24706328 C0.0777668116,9.25999 0.0777668116,9.25999 0.0656363497,9.27298642 C-0.464629166,9.84113395 -0.652339749,10 -1,10 L-1,10 L-1,9.21639921 C-0.965797506,9.21639921 -0.801193982,9.07708948 -0.474459879,8.72701358 C-0.462261409,8.7139443 -0.462261409,8.7139443 -0.450003246,8.70081951 C0.039642844,8.17669909 0.254304948,8 0.6,8 C0.957137996,8 1.10631681,8.13296711 1.64093041,8.73379105 C1.94996466,9.0810983 2.11572019,9.21639921 2.2,9.21639921 C2.23420249,9.21639921 2.39880602,9.07708948 2.72554012,8.72701358 C2.73773859,8.7139443 2.73773859,8.7139443 2.74999675,8.70081951 C3.23964284,8.17669909 3.45430495,8 3.8,8 C4.157138,8 4.30631681,8.13296711 4.84093041,8.73379105 C5.14996466,9.0810983 5.31572019,9.21639921 5.4,9.21639921 C5.43420249,9.21639921 5.59880602,9.07708948 5.92554012,8.72701358 C5.93773859,8.7139443 5.93773859,8.7139443 5.94999675,8.70081951 C6.43964284,8.17669909 6.65430495,7.78121948 7,7.78121948 C7.357138,7.78121948 7.50631681,8.13296711 8.04093041,8.73379105 C8.34996466,9.0810983 8.51572019,9.21639921 8.6,9.21639921 C8.63420249,9.21639921 8.79880602,9.07708948 9.12554012,8.72701358 C9.13773859,8.7139443 9.13773859,8.7139443 9.14999675,8.70081951 C9.63964284,8.17669909 9.85430495,7.78121948 10.2,7.78121948 Z M13.4,6 C13.757138,6 13.9063168,6.13296711 14.4409304,6.73379105 C14.7499647,7.0810983 14.9157202,7.21639921 15,7.21639921 L15,7.21639921 L15,8 C14.60977,8 14.3599901,7.79611268 13.8884814,7.26620895 C13.5662322,6.90405018 13.4310973,7 13.4,7 C13.3614224,7 13.1942986,6.92116872 12.88984,7.24706328 C12.8777668,7.25999 12.8777668,7.25999 12.8656363,7.27298642 C12.3353708,7.84113395 12.1476603,8 11.8,8 L11.8,8 L11.6967838,7.99485318 C11.362523,7.96023523 11.1171257,7.74793961 10.6884814,7.26620895 C10.3662322,6.90405018 10.2310973,7 10.2,7 C10.1614224,7 9.99429864,6.92116872 9.68983998,7.24706328 C9.67776681,7.25999 9.67776681,7.25999 9.66563635,7.27298642 C9.13537083,7.84113395 8.94766025,8.22653198 8.6,8.22653198 L8.6,8.22653198 C8.20977,8.23434448 7.95999009,7.79611268 7.48848135,7.26620895 C7.16623221,6.90405018 7.0310973,7 7,7 C6.96142243,7 6.79429864,6.92116872 6.48983998,7.24706328 C6.47776681,7.25999 6.47776681,7.25999 6.46563635,7.27298642 C5.93537083,7.84113395 5.74766025,8 5.4,8 L5.4,8 L5.29678376,7.99485318 C4.96252301,7.96023523 4.71712566,7.74793961 4.28848135,7.26620895 C3.96623221,6.90405018 3.8310973,7 3.8,7 C3.76142243,7 3.59429864,6.92116872 3.28983998,7.24706328 C3.27776681,7.25999 3.27776681,7.25999 3.26563635,7.27298642 C2.73537083,7.84113395 2.54766025,8 2.2,8 L2.2,8 L2.09678376,7.99485318 C1.76252301,7.96023523 1.51712566,7.74793961 1.08848135,7.26620895 C0.766232206,6.90405018 0.631097298,7 0.6,7 C0.56142243,7 0.394298643,6.92116872 0.0898399808,7.24706328 C0.0777668116,7.25999 0.0777668116,7.25999 0.0656363497,7.27298642 C-0.464629166,7.84113395 -0.652339749,8 -1,8 L-1,8 L-1,7.21639921 C-0.965797506,7.21639921 -0.801193982,7.07708948 -0.474459879,6.72701358 C-0.462261409,6.7139443 -0.462261409,6.7139443 -0.450003246,6.70081951 C0.039642844,6.17669909 0.254304948,6 0.6,6 C0.957137996,6 1.10631681,6.13296711 1.64093041,6.73379105 C1.94996466,7.0810983 2.11572019,7.21639921 2.2,7.21639921 C2.23420249,7.21639921 2.39880602,7.07708948 2.72554012,6.72701358 C2.73773859,6.7139443 2.73773859,6.7139443 2.74999675,6.70081951 C3.23964284,6.17669909 3.45430495,6 3.8,6 C4.157138,6 4.30631681,6.13296711 4.84093041,6.73379105 C5.14996466,7.0810983 5.31572019,7.21639921 5.4,7.21639921 C5.43420249,7.21639921 5.59880602,7.07708948 5.92554012,6.72701358 C5.93773859,6.7139443 5.93773859,6.7139443 5.94999675,6.70081951 C6.43964284,6.17669909 6.65430495,6 7,6 C7.357138,6 7.50631681,6.13296711 8.04093041,6.73379105 C8.34996466,7.0810983 8.51572019,7.21639921 8.6,7.21639921 L8.6,7.21639921 L8.61627402,7.21114157 C8.67278267,7.18283944 8.83510981,7.03819216 9.12554012,6.72701358 C9.13773859,6.7139443 9.13773859,6.7139443 9.14999675,6.70081951 C9.63964284,6.17669909 9.85430495,6 10.2,6 C10.557138,6 10.7063168,6.13296711 11.2409304,6.73379105 C11.5499647,7.0810983 11.7157202,7.21639921 11.8,7.21639921 C11.8342025,7.21639921 11.998806,7.07708948 12.3255401,6.72701358 C12.3377386,6.7139443 12.3377386,6.7139443 12.3499968,6.70081951 C12.8396428,6.17669909 13.0543049,6 13.4,6 Z M16.6,6 C16.957138,6 17.1063168,6.13296711 17.6409304,6.73379105 C17.9499647,7.0810983 18.1157202,7.21639921 18.2,7.21639921 L18.2,7.21639921 L18.2,8 C17.80977,8 17.5599901,7.79611268 17.0884814,7.26620895 C16.7662322,6.90405018 16.6310973,7 16.6,7 C16.5614224,7 16.3942986,6.92116872 16.08984,7.24706328 C16.0777668,7.25999 16.0777668,7.25999 16.0656363,7.27298642 C15.5353708,7.84113395 15.3476603,8 15,8 L15,8 L15,7.21639921 C15.0342025,7.21639921 15.198806,7.07708948 15.5255401,6.72701358 C15.5377386,6.7139443 15.5377386,6.7139443 15.5499968,6.70081951 C16.0396428,6.17669909 16.2543049,6 16.6,6 Z M2.2,6 L2.09678376,5.99485318 C1.76252301,5.96023523 1.51712566,5.74793961 1.08848135,5.26620895 C0.766232206,4.90405018 0.631097298,5 0.6,5 C0.56142243,5 0.394298643,4.92116872 0.0898399808,5.24706328 C0.0777668116,5.25999 0.0777668116,5.25999 0.0656363497,5.27298642 C-0.464629166,5.84113395 -0.652339749,6 -1,6 L-1,6 L-1,5.21639921 C-0.965797506,5.21639921 -0.801193982,5.07708948 -0.474459879,4.72701358 C-0.462261409,4.7139443 -0.462261409,4.7139443 -0.450003246,4.70081951 C0.039642844,4.17669909 0.254304948,4 0.6,4 C0.957137996,4 1.10631681,4.13296711 1.64093041,4.73379105 C1.94996466,5.0810983 2.11572019,4.21639921 2.2,4.21639921 L2.199,4.217 L2.2,4.21639921 L2.2,4.21639921 C2.23620364,4.22678735 2.40078623,5.07496781 2.72554012,4.72701358 C2.73773859,4.7139443 2.73773859,4.7139443 2.74999675,4.70081951 C3.23964284,4.17669909 3.45430495,4 3.8,4 C4.157138,4 4.30631681,4.13296711 4.84093041,4.73379105 C5.14996466,5.0810983 5.31572019,4.21639921 5.4,4.21639921 L5.399,4.217 L5.4,4.21639921 L5.4,4.21639921 C5.43620364,4.22678735 5.60078623,5.07496781 5.92554012,4.72701358 C5.93773859,4.7139443 5.93773859,4.7139443 5.94999675,4.70081951 C6.43964284,4.17669909 6.65430495,4 7,4 C7.357138,4 7.50631681,4.13296711 8.04093041,4.73379105 C8.34996466,5.0810983 8.51572019,4.21639921 8.6,4.21639921 L8.6,4.21639921 L8.60858858,4.22726132 C8.65687021,4.32577673 8.82058829,5.05375109 9.12554012,4.72701358 C9.13773859,4.7139443 9.13773859,4.7139443 9.14999675,4.70081951 C9.63964284,4.17669909 9.85430495,4 10.2,4 C10.557138,4 10.7063168,4.13296711 11.2409304,4.73379105 C11.5499647,5.0810983 11.7157202,4.21639921 11.8,4.21639921 L11.8,4.21639921 L11.8085886,4.22726132 C11.8568702,4.32577673 12.0205883,5.05375109 12.3255401,4.72701358 C12.3377386,4.7139443 12.3377386,4.7139443 12.3499968,4.70081951 C12.8396428,4.17669909 13.0543049,4 13.4,4 C13.757138,4 13.9063168,4.13296711 14.4409304,4.73379105 C14.7499647,5.0810983 14.9157202,4.21639921 15,4.21639921 L15,4.21639921 L15.0085886,4.22726132 C15.0568702,4.32577673 15.2205883,5.05375109 15.5255401,4.72701358 C15.5377386,4.7139443 15.5377386,4.7139443 15.5499968,4.70081951 C16.0396428,4.17669909 16.2543049,4 16.6,4 C16.957138,4 17.1063168,4.13296711 17.6409304,4.73379105 C17.9499647,5.0810983 18.1157202,5.21639921 18.2,5.21639921 L18.2,5.21639921 L18.2,6 C17.80977,6 17.5599901,5.79611268 17.0884814,5.26620895 C16.7662322,4.90405018 16.6310973,5 16.6,5 C16.5614224,5 16.3942986,4.92116872 16.08984,5.24706328 C16.0777668,5.25999 16.0777668,5.25999 16.0656363,5.27298642 C15.5353708,5.84113395 15.3476603,6 15,6 L15,6 L14.8967838,5.99485318 C14.562523,5.96023523 14.3171257,5.74793961 13.8884814,5.26620895 C13.5662322,4.90405018 13.4310973,5 13.4,5 C13.3614224,5 13.1942986,4.92116872 12.88984,5.24706328 C12.8777668,5.25999 12.8777668,5.25999 12.8656363,5.27298642 C12.3353708,5.84113395 12.1476603,6 11.8,6 L11.8,6 L11.6967838,5.99485318 C11.362523,5.96023523 11.1171257,5.74793961 10.6884814,5.26620895 C10.3662322,4.90405018 10.2310973,5 10.2,5 C10.1614224,5 9.99429864,4.92116872 9.68983998,5.24706328 C9.67776681,5.25999 9.67776681,5.25999 9.66563635,5.27298642 C9.13537083,5.84113395 8.94766025,6.22653198 8.6,6.22653198 L8.6,6.22653198 C8.20977,6.23434448 7.95999009,5.79611268 7.48848135,5.26620895 C7.16623221,4.90405018 7.0310973,5 7,5 C6.96142243,5 6.79429864,4.92116872 6.48983998,5.24706328 C6.47776681,5.25999 6.47776681,5.25999 6.46563635,5.27298642 C5.93537083,5.84113395 5.74766025,6 5.4,6 L5.4,6 L5.4,6 L5.29678376,5.99485318 C4.96252301,5.96023523 4.71712566,5.74793961 4.28848135,5.26620895 C3.96623221,4.90405018 3.8310973,5 3.8,5 C3.76142243,5 3.59429864,4.92116872 3.28983998,5.24706328 C3.27776681,5.25999 3.27776681,5.25999 3.26563635,5.27298642 C2.73537083,5.84113395 2.54766025,6 2.2,6 L2.2,6 L2.2,6 Z" id="waves-white" fill="#FFFFFF" fill-rule="nonzero" mask="url(#mask-2)"></path>
            <ellipse id="sun" stroke-opacity="0.5" stroke="#FFCC00" stroke-width="3" fill="#FFCC00" mask="url(#mask-2)" cx="8" cy="11.5" rx="9.5" ry="5"></ellipse>
            <g id="GB" mask="url(#mask-2)">
                <g id="United-Kingdom">
                    <mask id="mask-4" fill="white">
                        <use xlink:href="#path-3"></use>
                    </mask>
                    <use id="Rectangle-77" fill="#FFFFFF" xlink:href="#path-3"></use>
                    <g id="GB-Symbol" mask="url(#mask-4)">
                        <g id="UK">
                            <mask id="mask-6" fill="white">
                                <use xlink:href="#path-5"></use>
                            </mask>
                            <use id="Rectangle-77" fill="#FFFFFF" xlink:href="#path-5"></use>
                            <g id="St-Andrew" mask="url(#mask-6)">
                                <g transform="translate(-2.000000, -0.666667)">
                                    <rect id="Rectangle-77" fill="#00247D" x="2" y="0.666666667" width="16" height="4"></rect>
                                    <polygon id="Rectangle-3" fill="#FFFFFF" transform="translate(9.851141, 2.576741) rotate(36.000000) translate(-9.851141, -2.576741) " points="1.79341514 5.2459944 18.8599229 -1.78349626 17.9088664 -0.0925132541 0.842358619 6.9369774"></polygon>
                                    <polygon id="Rectangle-3-Copy" fill="#FFFFFF" transform="translate(9.851141, 2.576741) scale(-1, 1) rotate(36.000000) translate(-9.851141, -2.576741) " points="1.79341514 5.2459944 18.8599229 -1.78349626 17.9088664 -0.0925132541 0.842358619 6.9369774"></polygon>
                                </g>
                            </g>
                            <g id="St-Patrick" mask="url(#mask-6)">
                                <g transform="translate(-2.000000, -2.000000)">
                                    <g id="Group-2" transform="translate(1.000000, 1.666667)">
                                        <polygon id="Rectangle-2" fill="#CF142B" transform="translate(4.433621, 1.370732) rotate(36.000000) translate(-4.433621, -1.370732) " points="0.653728123 2.71108277 8.53053277 -0.533278961 8.21351393 0.0303820405 0.336709285 3.27474378"></polygon>
                                        <polygon id="Rectangle-2-Copy" fill="#CF142B" transform="translate(13.433621, 3.237399) rotate(36.000000) translate(-13.433621, -3.237399) " points="9.65372812 4.57774951 17.5305328 1.33338777 17.2135139 1.89704877 9.33670928 5.14141051"></polygon>
                                    </g>
                                    <g id="Group-2-Copy" transform="translate(10.154508, 3.841491) rotate(-72.000000) translate(-10.154508, -3.841491) translate(0.654508, 1.508157)">
                                        <polygon id="Rectangle-2-Copy" fill="#CF142B" transform="translate(13.791355, 3.221217) rotate(36.000000) translate(-13.791355, -3.221217) " points="9.67877448 4.69859778 18.2209538 1.18017617 17.903935 1.74383717 9.36175564 5.26225878"></polygon>
                                        <polygon id="Rectangle-2" fill="#CF142B" transform="translate(5.033749, 1.405735) rotate(36.000000) translate(-5.033749, -1.405735) " points="1.2538564 2.74608495 9.13066104 -0.49827679 8.8136422 0.0653842119 0.936837562 3.30974595"></polygon>
                                    </g>
                                </g>
                            </g>
                            <g id="St-George" mask="url(#mask-6)">
                                <path d="M10,0 L10,1.333 L16,1.33333333 L16,2.66666667 L10,2.666 L10,4 L6,4 L6,2.666 L0,2.66666667 L0,1.33333333 L6,1.333 L6,0 L10,0 Z" id="Combined-Shape" fill="#FFFFFF"></path>
                                <polygon id="Rectangle-112" fill="#CF142B" points="16 1.66666667 16 2.33333333 9 2.33333333 9 4 7 4 7 2.33333333 0 2.33333333 0 1.66666667 7 1.66666667 7 0 9 0 9 1.66666667"></polygon>
                            </g>
                        </g>
                    </g>
                    <g id="Overlay" mask="url(#mask-4)" opacity="0" stroke="#000000" stroke-opacity="0.503742351">
                        <g>
                            <rect style="mix-blend-mode: multiply;" x="0.5" y="0.5" width="15" height="3"></rect>
                        </g>
                    </g>
                </g>
            </g>
            <g id="Overlay" mask="url(#mask-2)" opacity="0" stroke="#000000" stroke-opacity="0.503742351">
                <g>
                    <rect style="mix-blend-mode: multiply;" x="0.5" y="0.5" width="15" height="11"></rect>
                </g>
            </g>
        </g>
    </g>
</svg>