<?xml version="1.0" encoding="UTF-8"?>
<svg width="16px" height="12px" viewBox="0 0 16 12" version="1.1" xmlns="http://www.w3.org/2000/svg" xmlns:xlink="http://www.w3.org/1999/xlink">
    <title>CA-QC</title>
    <defs>
        <rect id="path-1" x="0" y="0" width="16" height="12"></rect>
    </defs>
    <g id="CA-QC" stroke="none" stroke-width="1" fill="none" fill-rule="evenodd">
        <g id="Quebec">
            <mask id="mask-2" fill="white">
                <use xlink:href="#path-1"></use>
            </mask>
            <use id="Rectangle-77" fill="#FFFFFF" xlink:href="#path-1"></use>
            <rect id="Rectangle-119-Copy" fill="#002495" mask="url(#mask-2)" x="0" y="0" width="16" height="12"></rect>
            <polygon id="Rectangle-119-Copy-21" fill="#FFFFFF" mask="url(#mask-2)" points="7 5 7 0 9 0 9 5 16 5 16 7 9 7 9 12 7 12 7 7 0 7 0 5"></polygon>
            <polygon id="Path-64" stroke="#FFFFFF" fill="#FFFFFF" opacity="0.7" mask="url(#mask-2)" points="13.1561279 2.59686279 12.2186279 1.29998779 11.2811279 2.59686279 12.2186279 3.73748779"></polygon>
            <polygon id="Path-64-Copy-4" stroke="#FFFFFF" fill="#FFFFFF" opacity="0.7" mask="url(#mask-2)" points="4.25500488 2.59686279 3.31750488 1.29998779 2.38000488 2.59686279 3.31750488 3.73748779"></polygon>
            <polygon id="Path-64-Copy-6" stroke="#FFFFFF" fill="#FFFFFF" opacity="0.7" mask="url(#mask-2)" points="13.1561279 9.59686279 12.2186279 8.29998779 11.2811279 9.59686279 12.2186279 10.7374878"></polygon>
            <polygon id="Path-64-Copy-5" stroke="#FFFFFF" fill="#FFFFFF" opacity="0.7" mask="url(#mask-2)" points="4.25500488 9.59686279 3.31750488 8.29998779 2.38000488 9.59686279 3.31750488 10.7374878"></polygon>
            <g id="Overlay" mask="url(#mask-2)" opacity="0" stroke="#000000" stroke-opacity="0.503742351">
                <g>
                    <rect style="mix-blend-mode: multiply;" x="0.5" y="0.5" width="15" height="11"></rect>
                </g>
            </g>
        </g>
    </g>
</svg>