<?xml version="1.0" encoding="UTF-8"?>
<svg width="16px" height="12px" viewBox="0 0 16 12" version="1.1" xmlns="http://www.w3.org/2000/svg" xmlns:xlink="http://www.w3.org/1999/xlink">
    <title>DM</title>
    <defs>
        <rect id="path-1" x="0" y="0" width="16" height="12"></rect>
    </defs>
    <g id="DM" stroke="none" stroke-width="1" fill="none" fill-rule="evenodd">
        <g id="Dominica">
            <mask id="mask-2" fill="white">
                <use xlink:href="#path-1"></use>
            </mask>
            <use id="Rectangle-77" fill="#FFFFFF" xlink:href="#path-1"></use>
            <rect id="Rectangle-119-Copy" fill="#006B3F" mask="url(#mask-2)" x="0" y="0" width="16" height="12"></rect>
            <rect id="Rectangle-119-Copy-13" fill="#FFFFFF" mask="url(#mask-2)" x="0" y="7" width="16" height="1"></rect>
            <rect id="Rectangle-119-Copy-15" fill="#FFFFFF" mask="url(#mask-2)" x="9" y="0" width="1" height="12"></rect>
            <rect id="Rectangle-119-Copy-17" fill="#FCD116" mask="url(#mask-2)" x="6" y="0" width="1" height="12"></rect>
            <rect id="Rectangle-119-Copy-18" fill="#FCD116" mask="url(#mask-2)" x="0" y="4" width="16" height="1"></rect>
            <rect id="Rectangle-119-Copy-12" fill="#181A1A" mask="url(#mask-2)" x="7" y="0" width="2" height="12"></rect>
            <rect id="Rectangle-119" fill="#181A1A" mask="url(#mask-2)" x="0" y="5" width="16" height="2"></rect>
            <circle id="Oval-21" fill="#E34F4F" mask="url(#mask-2)" cx="8" cy="6" r="4"></circle>
            <rect id="Rectangle-150" fill="#9461C9" mask="url(#mask-2)" x="7" y="4" width="1" height="3"></rect>
            <rect id="Rectangle-150-Copy" fill="#006B3F" mask="url(#mask-2)" x="8" y="5" width="1" height="3"></rect>
            <path d="M8.66217927,8.14496363 C8.89713587,8.06862161 9.14689937,8.18922095 9.22004168,8.41432982 C9.29318398,8.63943868 9.16200758,8.88381291 8.92705098,8.96015493 C8.69209439,9.03649696 8.44233088,8.91589761 8.36918858,8.69078875 C8.29604628,8.46567988 8.42722268,8.22130566 8.66217927,8.14496363 Z M6.77995832,8.41432982 C6.85310063,8.18922095 7.10286413,8.06862161 7.33782073,8.14496363 C7.57277732,8.22130566 7.70395372,8.46567988 7.63081142,8.69078875 C7.55766912,8.91589761 7.30790561,9.03649696 7.07294902,8.96015493 C6.83799242,8.88381291 6.70681602,8.63943868 6.77995832,8.41432982 Z M9.73360785,7.32566043 C9.87881901,7.12579441 10.1517684,7.07655403 10.3432575,7.21567896 C10.5347465,7.35480389 10.5722621,7.62961034 10.427051,7.82947636 C10.2818398,8.02934238 10.0088904,8.07858276 9.81740135,7.93945783 C9.62591231,7.8003329 9.58839668,7.52552645 9.73360785,7.32566043 Z M5.65674252,7.21567896 C5.84823156,7.07655403 6.12118099,7.12579441 6.26639215,7.32566043 C6.41160332,7.52552645 6.37408769,7.8003329 6.18259865,7.93945783 C5.99110962,8.07858276 5.71816018,8.02934238 5.57294902,7.82947636 C5.42773786,7.62961034 5.46525349,7.35480389 5.65674252,7.21567896 Z M5.42857143,5.55268006 C5.66526489,5.55268006 5.85714286,5.75295202 5.85714286,6 C5.85714286,6.24704798 5.66526489,6.44731994 5.42857143,6.44731994 C5.19187796,6.44731994 5,6.24704798 5,6 C5,5.75295202 5.19187796,5.55268006 5.42857143,5.55268006 Z M10.5714286,5.55268006 C10.808122,5.55268006 11,5.75295202 11,6 C11,6.24704798 10.808122,6.44731994 10.5714286,6.44731994 C10.3347351,6.44731994 10.1428571,6.24704798 10.1428571,6 C10.1428571,5.75295202 10.3347351,5.55268006 10.5714286,5.55268006 Z M5.57294902,4.17052364 C5.71816018,3.97065762 5.99110962,3.92141724 6.18259865,4.06054217 C6.37408769,4.1996671 6.41160332,4.47447355 6.26639215,4.67433957 C6.12118099,4.87420559 5.84823156,4.92344597 5.65674252,4.78432104 C5.46525349,4.64519611 5.42773786,4.37038966 5.57294902,4.17052364 Z M9.81740135,4.06054217 C10.0088904,3.92141724 10.2818398,3.97065762 10.427051,4.17052364 C10.5722621,4.37038966 10.5347465,4.64519611 10.3432575,4.78432104 C10.1517684,4.92344597 9.87881901,4.87420559 9.73360785,4.67433957 C9.58839668,4.47447355 9.62591231,4.1996671 9.81740135,4.06054217 Z M7.07294902,3.03984507 C7.30790561,2.96350304 7.55766912,3.08410239 7.63081142,3.30921125 C7.70395372,3.53432012 7.57277732,3.77869434 7.33782073,3.85503637 C7.10286413,3.93137839 6.85310063,3.81077905 6.77995832,3.58567018 C6.70681602,3.36056132 6.83799242,3.11618709 7.07294902,3.03984507 Z M8.36918858,3.30921125 C8.44233088,3.08410239 8.69209439,2.96350304 8.92705098,3.03984507 C9.16200758,3.11618709 9.29318398,3.36056132 9.22004168,3.58567018 C9.14689937,3.81077905 8.89713587,3.93137839 8.66217927,3.85503637 C8.42722268,3.77869434 8.29604628,3.53432012 8.36918858,3.30921125 Z" id="Oval-21-Copy" fill="#006B3F" mask="url(#mask-2)"></path>
            <g id="Overlay" mask="url(#mask-2)" opacity="0" stroke="#000000" stroke-opacity="0.503742351">
                <g>
                    <rect style="mix-blend-mode: multiply;" x="0.5" y="0.5" width="15" height="11"></rect>
                </g>
            </g>
        </g>
    </g>
</svg>