<?xml version="1.0" encoding="UTF-8"?>
<svg width="16px" height="12px" viewBox="0 0 16 12" version="1.1" xmlns="http://www.w3.org/2000/svg" xmlns:xlink="http://www.w3.org/1999/xlink">
    <title>FR-TF</title>
    <defs>
        <rect id="path-1" x="0" y="0" width="16" height="12"></rect>
        <rect id="path-3" x="0" y="0" width="8" height="6"></rect>
    </defs>
    <g id="FR-TF" stroke="none" stroke-width="1" fill="none" fill-rule="evenodd">
        <g id="French-Southern-and-Antarctic-Lands">
            <mask id="mask-2" fill="white">
                <use xlink:href="#path-1"></use>
            </mask>
            <use id="Rectangle-77" fill="#FFFFFF" xlink:href="#path-1"></use>
            <rect id="Rectangle-119-Copy" fill="#002395" mask="url(#mask-2)" x="0" y="0" width="16" height="12"></rect>
            <g id="France-Symbol" mask="url(#mask-2)">
                <g id="France">
                    <mask id="mask-4" fill="white">
                        <use xlink:href="#path-3"></use>
                    </mask>
                    <use id="Rectangle-77" fill="#FFFFFF" xlink:href="#path-3"></use>
                    <rect id="Rectangle-74" fill="#ED2939" mask="url(#mask-4)" x="5.5" y="0" width="2.5" height="6"></rect>
                    <rect id="Rectangle-77" fill="#FFFFFF" mask="url(#mask-4)" x="2.5" y="0" width="3" height="6"></rect>
                    <rect id="Rectangle-79" fill="#002395" mask="url(#mask-4)" x="0" y="0" width="2.5" height="6"></rect>
                </g>
            </g>
            <g id="Stars" mask="url(#mask-2)" fill="#FFFFFF">
                <g transform="translate(9.000000, 6.000000)">
                    <rect id="Rectangle-71" x="0" y="0" width="1" height="1"></rect>
                    <rect id="Rectangle-71-Copy" x="6" y="0" width="1" height="1"></rect>
                    <rect id="Rectangle-71-Copy-2" x="5" y="4" width="1" height="1"></rect>
                    <rect id="Rectangle-71-Copy-3" x="1" y="4" width="1" height="1"></rect>
                    <rect id="Rectangle-71-Copy-4" x="3" y="5" width="1" height="1"></rect>
                </g>
            </g>
            <path d="M11,8 L12,10 L10,10 L11,8 Z M14,8 L15,10 L13,10 L14,8 Z M13,10 L12.5,10.5 L12,10 L12,6 L10,6 L10,5 L15,5 L15,6 L13,6 L13,7 L14,7 L14,8 L13,8 L13,10 Z" id="TAAF" fill="#FFFFFF" mask="url(#mask-2)"></path>
            <g id="Overlay" mask="url(#mask-2)" opacity="0" stroke="#000000" stroke-opacity="0.503742351">
                <g>
                    <rect style="mix-blend-mode: multiply;" x="0.5" y="0.5" width="15" height="11"></rect>
                </g>
            </g>
        </g>
    </g>
</svg>