<?xml version="1.0" encoding="UTF-8"?>
<svg width="16px" height="12px" viewBox="0 0 16 12" version="1.1" xmlns="http://www.w3.org/2000/svg" xmlns:xlink="http://www.w3.org/1999/xlink">
    <title>FR-YT</title>
    <defs>
        <rect id="path-1" x="0" y="0" width="16" height="12"></rect>
    </defs>
    <g id="FR-YT" stroke="none" stroke-width="1" fill="none" fill-rule="evenodd">
        <g id="Mayotte">
            <mask id="mask-2" fill="white">
                <use xlink:href="#path-1"></use>
            </mask>
            <use id="Rectangle-77" fill="#FFFFFF" xlink:href="#path-1"></use>
            <rect id="Rectangle-119-Copy" fill="#FFFFFF" mask="url(#mask-2)" x="0" y="0" width="16" height="12"></rect>
            <path d="M4.8585,1.554 L4.8585,3 L4.6215,3 L4.6215,2.066 C4.6215,2.02866648 4.62349998,1.98833355 4.6275,1.945 L4.1905,2.766 C4.16983323,2.80533353 4.13816688,2.825 4.0955,2.825 L4.0575,2.825 C4.01483312,2.825 3.98316677,2.80533353 3.9625,2.766 L3.5205,1.942 C3.52250001,1.96400011 3.52416666,1.98566656 3.5255,2.007 C3.52683334,2.02833344 3.5275,2.04799991 3.5275,2.066 L3.5275,3 L3.2905,3 L3.2905,1.554 L3.4935,1.554 C3.50550006,1.554 3.51583329,1.55433333 3.5245,1.555 C3.53316671,1.55566667 3.54099997,1.55733332 3.548,1.56 C3.55500003,1.56266668 3.56133331,1.56699997 3.567,1.573 C3.5726667,1.57900003 3.57816664,1.58699995 3.5835,1.597 L4.0165,2.4 C4.02783339,2.42133344 4.03833329,2.44333322 4.048,2.466 C4.05766671,2.48866678 4.06716662,2.51199988 4.0765,2.536 C4.08583338,2.51133321 4.09549995,2.48750011 4.1055,2.4645 C4.11550005,2.44149988 4.12616661,2.41933344 4.1375,2.398 L4.5645,1.597 C4.56983336,1.58699995 4.57549997,1.57900003 4.5815,1.573 C4.58750003,1.56699997 4.59399997,1.56266668 4.601,1.56 C4.60800003,1.55733332 4.61583329,1.55566667 4.6245,1.555 C4.63316671,1.55433333 4.64349994,1.554 4.6555,1.554 L4.8585,1.554 Z M5.9445,2.454 L5.7685,1.973 C5.75983329,1.95166656 5.75083338,1.92633348 5.7415,1.897 C5.73216662,1.86766652 5.72283338,1.83600017 5.7135,1.802 C5.70483329,1.83600017 5.69583338,1.86783319 5.6865,1.8975 C5.67716662,1.92716681 5.66816671,1.95299989 5.6595,1.975 L5.4845,2.454 L5.9445,2.454 Z M6.4195,3 L6.2115,3 C6.18816655,3 6.16916674,2.99416672 6.1545,2.9825 C6.13983326,2.97083327 6.12883337,2.95633342 6.1215,2.939 L6.0135,2.644 L5.4145,2.644 L5.3065,2.939 C5.30116664,2.95433341 5.29083341,2.96833327 5.2755,2.981 C5.26016659,2.99366673 5.24116678,3 5.2185,3 L5.0085,3 L5.5775,1.554 L5.8515,1.554 L6.4195,3 Z M7.1905,2.44 L7.1905,3 L6.9225,3 L6.9225,2.44 L6.3955,1.554 L6.6325,1.554 C6.65583345,1.554 6.67433327,1.55966661 6.688,1.571 C6.70166673,1.58233339 6.71316662,1.59666658 6.7225,1.614 L6.9865,2.097 C7.00183341,2.12566681 7.01533327,2.15266654 7.027,2.178 C7.03866673,2.20333346 7.04916662,2.22866654 7.0585,2.254 C7.06716671,2.22866654 7.07716661,2.20333346 7.0885,2.178 C7.09983339,2.15266654 7.11283326,2.12566681 7.1275,2.097 L7.3905,1.614 C7.39783337,1.59933326 7.40883326,1.58566673 7.4235,1.573 C7.43816674,1.56033327 7.45683322,1.554 7.4795,1.554 L7.7175,1.554 L7.1905,2.44 Z M9.2445,2.277 C9.2445,2.38300053 9.22700018,2.48116622 9.192,2.5715 C9.15699982,2.66183378 9.10750032,2.73999967 9.0435,2.806 C8.97949968,2.87200033 8.90250045,2.92349981 8.8125,2.9605 C8.72249955,2.99750018 8.62250055,3.016 8.5125,3.016 C8.40316612,3.016 8.30350045,2.99750018 8.2135,2.9605 C8.12349955,2.92349981 8.04633365,2.87200033 7.982,2.806 C7.91766635,2.73999967 7.86783351,2.66183378 7.8325,2.5715 C7.79716649,2.48116622 7.7795,2.38300053 7.7795,2.277 C7.7795,2.17099947 7.79716649,2.07283379 7.8325,1.9825 C7.86783351,1.89216622 7.91766635,1.81400033 7.982,1.748 C8.04633365,1.68199967 8.12349955,1.63050019 8.2135,1.5935 C8.30350045,1.55649982 8.40316612,1.538 8.5125,1.538 C8.5858337,1.538 8.65483301,1.54649992 8.7195,1.5635 C8.78416699,1.58050008 8.84349973,1.60449984 8.8975,1.6355 C8.95150027,1.66650016 8.99999978,1.70416644 9.043,1.7485 C9.08600022,1.79283356 9.12249985,1.84233306 9.1525,1.897 C9.18250015,1.95166694 9.20533326,2.01099968 9.221,2.075 C9.23666675,2.13900032 9.2445,2.20633298 9.2445,2.277 Z M8.9695,2.277 C8.9695,2.19766627 8.95883344,2.12650031 8.9375,2.0635 C8.91616656,2.00049969 8.88583353,1.94700022 8.8465,1.903 C8.80716647,1.85899978 8.75933361,1.82533345 8.703,1.802 C8.64666638,1.77866655 8.58316702,1.767 8.5125,1.767 C8.44183298,1.767 8.37833361,1.77866655 8.322,1.802 C8.26566638,1.82533345 8.21766687,1.85899978 8.178,1.903 C8.13833313,1.94700022 8.10783344,2.00049969 8.0865,2.0635 C8.06516656,2.12650031 8.0545,2.19766627 8.0545,2.277 C8.0545,2.35633373 8.06516656,2.42749968 8.0865,2.4905 C8.10783344,2.55350031 8.13833313,2.60683311 8.178,2.6505 C8.21766687,2.69416688 8.26566638,2.72766655 8.322,2.751 C8.37833361,2.77433345 8.44183298,2.786 8.5125,2.786 C8.58316702,2.786 8.64666638,2.77433345 8.703,2.751 C8.75933361,2.72766655 8.80716647,2.69416688 8.8465,2.6505 C8.88583353,2.60683311 8.91616656,2.55350031 8.9375,2.4905 C8.95883344,2.42749968 8.9695,2.35633373 8.9695,2.277 Z M10.4915,1.775 L10.0555,1.775 L10.0555,3 L9.7865,3 L9.7865,1.775 L9.3505,1.775 L9.3505,1.554 L10.4915,1.554 L10.4915,1.775 Z M11.6915,1.775 L11.2555,1.775 L11.2555,3 L10.9865,3 L10.9865,1.775 L10.5505,1.775 L10.5505,1.554 L11.6915,1.554 L11.6915,1.775 Z M12.1515,1.768 L12.1515,2.169 L12.6575,2.169 L12.6575,2.376 L12.1515,2.376 L12.1515,2.785 L12.7935,2.785 L12.7935,3 L11.8815,3 L11.8815,1.554 L12.7935,1.554 L12.7935,1.768 L12.1515,1.768 Z" id="MAYOTTE" fill="#FF0000" mask="url(#mask-2)"></path>
            <rect id="Rectangle-16" fill="#00009C" mask="url(#mask-2)" x="6" y="5" width="4" height="2"></rect>
            <rect id="Rectangle-16-Copy" fill="#FF0000" mask="url(#mask-2)" x="6" y="7" width="4" height="2"></rect>
            <polygon id="Path-4" fill="#D8D8D8" fill-rule="nonzero" mask="url(#mask-2)" points="4.2676015 9.29480358 3.45650051 9.12546755 3.25213373 10.1043619 5.16540312 10.503801 5.34323367 8.47624298 3.24149647 6.50919531 4.27902523 5.21925109 4.97882219 6.33621901 5.82624305 5.80529728 4.3804452 3.49761388 1.88081767 6.60536397 4.30453044 8.87375345"></polygon>
            <polygon id="Path-4-Copy" fill="#D8D8D8" fill-rule="nonzero" mask="url(#mask-2)" transform="translate(11.972713, 7.000707) scale(-1, 1) translate(-11.972713, -7.000707) " points="12.3867838 9.29480358 11.5756828 9.12546755 11.3713161 10.1043619 13.2845854 10.503801 13.462416 8.47624298 11.3606788 6.50919531 12.3982076 5.21925109 13.0980045 6.33621901 13.9454254 5.80529728 12.4996275 3.49761388 10 6.60536397 12.4237128 8.87375345"></polygon>
            <g id="Overlay" mask="url(#mask-2)" opacity="0" stroke="#000000" stroke-opacity="0.503742351">
                <g>
                    <rect style="mix-blend-mode: multiply;" x="0.5" y="0.5" width="15" height="11"></rect>
                </g>
            </g>
        </g>
    </g>
</svg>