<?xml version="1.0" encoding="UTF-8"?>
<svg width="16px" height="12px" viewBox="0 0 16 12" version="1.1" xmlns="http://www.w3.org/2000/svg" xmlns:xlink="http://www.w3.org/1999/xlink">
    <title>GE</title>
    <defs>
        <rect id="path-1" x="0" y="0" width="16" height="12"></rect>
    </defs>
    <g id="GE" stroke="none" stroke-width="1" fill="none" fill-rule="evenodd">
        <g id="Georgia">
            <mask id="mask-2" fill="white">
                <use xlink:href="#path-1"></use>
            </mask>
            <use id="Rectangle-77" fill="#FFFFFF" xlink:href="#path-1"></use>
            <path d="M9.5,-0.5 L6.5,-0.5 L6.5,4.5 L-0.5,4.5 L-0.5,7.5 L6.5,7.5 L6.5,12.5 L9.5,12.5 L9.5,7.5 L16.5,7.5 L16.5,4.5 L9.5,4.5 L9.5,-0.5 Z" id="Rectangle-112" stroke="#FFFFFF" fill="#FF0000" mask="url(#mask-2)"></path>
            <path d="M4,1 L4,2 L5,2 L5,3 L4,3 L4,4 L3,4 L3,3 L2,3 L2,2 L3,2 L3,1 L4,1 Z" id="Rectangle-143" fill="#FF0000" mask="url(#mask-2)"></path>
            <path d="M13,1 L13,2 L14,2 L14,3 L13,3 L13,4 L12,4 L12,3 L11,3 L11,2 L12,2 L12,1 L13,1 Z" id="Rectangle-144" fill="#FF0000" mask="url(#mask-2)"></path>
            <path d="M13,8 L13,9 L14,9 L14,10 L13,10 L13,11 L12,11 L12,10 L11,10 L11,9 L12,9 L12,8 L13,8 Z" id="Rectangle-145" fill="#FF0000" mask="url(#mask-2)"></path>
            <path d="M4,8 L4,9 L5,9 L5,10 L4,10 L4,11 L3,11 L3,10 L2,10 L2,9 L3,9 L3,8 L4,8 Z" id="Rectangle-146" fill="#FF0000" mask="url(#mask-2)"></path>
            <g id="Overlay" mask="url(#mask-2)" opacity="0" stroke="#000000" stroke-opacity="0.503742351">
                <g>
                    <rect style="mix-blend-mode: multiply;" x="0.5" y="0.5" width="15" height="11"></rect>
                </g>
            </g>
        </g>
    </g>
</svg>