<?xml version="1.0" encoding="UTF-8"?>
<svg width="16px" height="12px" viewBox="0 0 16 12" version="1.1" xmlns="http://www.w3.org/2000/svg" xmlns:xlink="http://www.w3.org/1999/xlink">
    <title>GG</title>
    <defs>
        <rect id="path-1" x="0" y="0" width="16" height="12"></rect>
    </defs>
    <g id="GG" stroke="none" stroke-width="1" fill="none" fill-rule="evenodd">
        <g id="Guernsey">
            <mask id="mask-2" fill="white">
                <use xlink:href="#path-1"></use>
            </mask>
            <use id="Rectangle-77" fill="#FFFFFF" xlink:href="#path-1"></use>
            <path d="M10.5,-0.5 L5.5,-0.5 L5.5,3.5 L-0.5,3.5 L-0.5,8.5 L5.5,8.5 L5.5,12.5 L10.5,12.5 L10.5,8.5 L16.5,8.5 L16.5,3.5 L10.5,3.5 L10.5,-0.5 Z" id="Rectangle-112" stroke="#FFFFFF" fill="#CE1124" mask="url(#mask-2)"></path>
            <polygon id="Combined-Shape" fill="#F9DD16" mask="url(#mask-2)" points="7 5 4 5 4 7 7 7 7 10 9 10 9 7 12 7 12 5 9 5 9 2 7 2"></polygon>
            <g id="Overlay" mask="url(#mask-2)" opacity="0" stroke="#000000" stroke-opacity="0.503742351">
                <g>
                    <rect style="mix-blend-mode: multiply;" x="0.5" y="0.5" width="15" height="11"></rect>
                </g>
            </g>
        </g>
    </g>
</svg>