<?xml version="1.0" encoding="UTF-8"?>
<svg width="16px" height="12px" viewBox="0 0 16 12" version="1.1" xmlns="http://www.w3.org/2000/svg" xmlns:xlink="http://www.w3.org/1999/xlink">
    <title>GQ</title>
    <defs>
        <rect id="path-1" x="0" y="0" width="16" height="12"></rect>
    </defs>
    <g id="GQ" stroke="none" stroke-width="1" fill="none" fill-rule="evenodd">
        <g id="Equatorial-Guinea">
            <mask id="mask-2" fill="white">
                <use xlink:href="#path-1"></use>
            </mask>
            <use id="Rectangle-77" fill="#FFFFFF" xlink:href="#path-1"></use>
            <rect id="Rectangle-119-Copy" fill="#FFFFFF" mask="url(#mask-2)" x="0" y="0" width="16" height="12"></rect>
            <rect id="Rectangle-119-Copy-48" fill="#3E9A00" mask="url(#mask-2)" x="0" y="0" width="16" height="4"></rect>
            <rect id="Rectangle-119-Copy-49" fill="#E32118" mask="url(#mask-2)" x="0" y="8" width="16" height="4"></rect>
            <polygon id="Rectangle-119-Copy-36" fill="#0073CE" mask="url(#mask-2)" points="0 0 3 6 0 12"></polygon>
            <g id="tree" mask="url(#mask-2)">
                <g transform="translate(6.500000, 5.000000)">
                    <rect id="Rectangle-11-Copy" fill="#73452B" transform="translate(1.500000, 1.500000) rotate(90.000000) translate(-1.500000, -1.500000) " x="0" y="1" width="3" height="1"></rect>
                    <polygon id="Rectangle-11-Copy-2" fill="#A36629" points="1.5 0 1.5 3 1 3 1 0"></polygon>
                    <rect id="Rectangle-11" fill="#009A3B" x="0" y="0" width="3" height="1"></rect>
                </g>
            </g>
            <path d="M6.67918137,6.1352641 C7.9246967,6.1352641 9.06435087,5.50842458 9.73795703,4.48870479 C9.89016093,4.25829519 9.82676268,3.94812567 9.59635308,3.79592177 C9.36594348,3.64371787 9.05577395,3.70711612 8.90357006,3.93752572 C8.41317604,4.67989495 7.58527139,5.1352641 6.67918137,5.1352641 C6.40303899,5.1352641 6.17918137,5.35912172 6.17918137,5.6352641 C6.17918137,5.91140647 6.40303899,6.1352641 6.67918137,6.1352641 Z" id="stars" fill="#FFD700" fill-rule="nonzero" mask="url(#mask-2)" transform="translate(8.000000, 4.924162) rotate(-152.000000) translate(-8.000000, -4.924162) "></path>
            <g id="Overlay" mask="url(#mask-2)" opacity="0" stroke="#000000" stroke-opacity="0.503742351">
                <g>
                    <rect style="mix-blend-mode: multiply;" x="0.5" y="0.5" width="15" height="11"></rect>
                </g>
            </g>
        </g>
    </g>
</svg>