<?xml version="1.0" encoding="UTF-8"?>
<svg width="16px" height="12px" viewBox="0 0 16 12" version="1.1" xmlns="http://www.w3.org/2000/svg" xmlns:xlink="http://www.w3.org/1999/xlink">
    <title>HK</title>
    <defs>
        <rect id="path-1" x="0" y="0" width="16" height="12"></rect>
    </defs>
    <g id="HK" stroke="none" stroke-width="1" fill="none" fill-rule="evenodd">
        <g id="Hong-Kong">
            <mask id="mask-2" fill="white">
                <use xlink:href="#path-1"></use>
            </mask>
            <use id="Rectangle-77" fill="#FFFFFF" xlink:href="#path-1"></use>
            <rect id="Rectangle-119-Copy" fill="#DE2910" mask="url(#mask-2)" x="0" y="0" width="16" height="12"></rect>
            <path d="M7.95228748,6.20719833 C7.75126778,5.79803673 7.50723451,5.51808406 7.5933738,5.03713973 C7.67951308,4.5561954 8.46191686,4.4198082 8.56241269,3.85990286 C8.66290852,3.29999752 8.19632074,3.07029277 8.19632074,2.93390557 C8.19632074,2.79751837 8.23221211,2.72573564 8.40449067,2.61806153 C7.07651006,2.43860469 5.41117863,3.98193351 7.95228748,6.20719833 Z M7.94678959,6.22604347 C8.27380689,5.90842449 8.46464728,5.58982493 8.94867102,5.52312829 C9.43269476,5.45643164 9.80418276,6.15839589 10.3677393,6.08095284 C10.9312958,6.00350979 11.0055745,5.48877577 11.1352864,5.44662981 C11.2649984,5.40448384 11.3443588,5.41643648 11.5,5.54701 C11.260305,4.22857017 9.27789637,3.1216607 7.94678959,6.22604347 Z M7.92716786,6.22663814 C8.33029536,6.43950041 8.69227447,6.52254773 8.90527831,6.96227126 C9.11828215,7.4019948 8.56547058,7.97221976 8.81327184,8.48426267 C9.06107311,8.99630557 9.57356762,8.9078872 9.65373401,9.01822676 C9.73390039,9.12856632 9.7470565,9.20773619 9.67096946,9.39610917 C10.8508104,8.76072539 11.2909459,6.53328889 7.92716786,6.22663814 Z M7.92053884,6.20816053 C7.84266804,6.65733562 7.87554305,7.02726124 7.52316292,7.36572198 C7.17078279,7.70418272 6.45763845,7.35463687 6.04723151,7.74853984 C5.63682458,8.14244281 5.87928496,8.60253128 5.79911857,8.71287084 C5.71895219,8.8232104 5.64772263,8.86018744 5.44505709,8.84603482 C6.41393389,9.77178587 8.66836124,9.50206388 7.92053884,6.20816053 Z M7.93606362,6.19614606 C7.48480931,6.26088927 7.14314808,6.40646856 6.71236134,6.17592526 C6.2815746,5.94538196 6.39363873,5.15912579 5.89219203,4.89052831 C5.39074533,4.62193083 5.02809957,4.99469951 4.89838764,4.95255355 C4.7686757,4.91040758 4.71149731,4.85409078 4.66233015,4.656971 C4.08128798,5.8645004 5.0344652,7.92523954 7.93606362,6.19614606 Z" id="Path-12" fill="#FFFFFF" mask="url(#mask-2)"></path>
            <g id="Overlay" mask="url(#mask-2)" opacity="0" stroke="#000000" stroke-opacity="0.503742351">
                <g>
                    <rect style="mix-blend-mode: multiply;" x="0.5" y="0.5" width="15" height="11"></rect>
                </g>
            </g>
        </g>
    </g>
</svg>