<?xml version="1.0" encoding="UTF-8"?>
<svg width="16px" height="12px" viewBox="0 0 16 12" version="1.1" xmlns="http://www.w3.org/2000/svg" xmlns:xlink="http://www.w3.org/1999/xlink">
    <title>JM</title>
    <defs>
        <rect id="path-1" x="0" y="0" width="16" height="12"></rect>
    </defs>
    <g id="JM" stroke="none" stroke-width="1" fill="none" fill-rule="evenodd">
        <g id="Jamaica">
            <mask id="mask-2" fill="white">
                <use xlink:href="#path-1"></use>
            </mask>
            <use id="Rectangle-77" fill="#FFFFFF" xlink:href="#path-1"></use>
            <rect id="Rectangle-77" fill="#009B3A" mask="url(#mask-2)" x="0" y="0" width="16" height="12"></rect>
            <polygon id="Rectangle-420" fill="#181A1A" mask="url(#mask-2)" points="0 0 7 6 0 12"></polygon>
            <polygon id="Rectangle-421" fill="#181A1A" mask="url(#mask-2)" transform="translate(12.500000, 6.000000) scale(-1, 1) translate(-12.500000, -6.000000) " points="9 0 16 6 9 12"></polygon>
            <path d="M1,-3.74683395e-08 L8,5.13299996 L15,-3.74683395e-08 L16,1.03437606e-08 L16,0.999999963 L9.181,5.99999996 L16,11 L16,12 L15,12 L8,6.86599996 L1,12 L0,12 L0,11 L6.819,5.99999996 L0,0.999999963 L0,1.03437606e-08 L1,-3.74683395e-08 Z" id="Rectangle-114" fill="#FED100" mask="url(#mask-2)"></path>
            <g id="Overlay" mask="url(#mask-2)" opacity="0" stroke="#000000" stroke-opacity="0.503742351">
                <g>
                    <rect style="mix-blend-mode: multiply;" x="0.5" y="0.5" width="15" height="11"></rect>
                </g>
            </g>
        </g>
    </g>
</svg>