<?xml version="1.0" encoding="UTF-8"?>
<svg width="16px" height="12px" viewBox="0 0 16 12" version="1.1" xmlns="http://www.w3.org/2000/svg" xmlns:xlink="http://www.w3.org/1999/xlink">
    <title>KR</title>
    <defs>
        <rect id="path-1" x="0" y="0" width="16" height="12"></rect>
    </defs>
    <g id="KR" stroke="none" stroke-width="1" fill="none" fill-rule="evenodd">
        <g id="Korea,-Republic-of">
            <mask id="mask-2" fill="white">
                <use xlink:href="#path-1"></use>
            </mask>
            <use id="Rectangle-77" fill="#FFFFFF" xlink:href="#path-1"></use>
            <rect id="Rectangle-119-Copy" fill="#FFFFFF" mask="url(#mask-2)" x="0" y="0" width="16" height="12"></rect>
            <g id="Group-8" mask="url(#mask-2)" fill="#666666">
                <g transform="translate(8.000000, 6.000000) rotate(40.000000) translate(-8.000000, -6.000000) translate(2.000000, 5.000000)">
                    <rect id="Rectangle-33" x="8.53e-14" y="0" width="2" height="2"></rect>
                    <rect id="Rectangle-33-Copy" x="10" y="0" width="2" height="2"></rect>
                </g>
            </g>
            <g id="Group-8-Copy" mask="url(#mask-2)" fill="#666666">
                <g transform="translate(8.000000, 6.000000) scale(-1, 1) rotate(40.000000) translate(-8.000000, -6.000000) translate(2.000000, 5.000000)">
                    <rect id="Rectangle-33" x="8.53e-14" y="0" width="2" height="2"></rect>
                    <rect id="Rectangle-33-Copy" x="10" y="0" width="2" height="2"></rect>
                </g>
            </g>
            <g id="ball" mask="url(#mask-2)">
                <g transform="translate(5.000000, 3.000000)">
                    <path d="M8.53e-14,3 C8.53e-14,4.65685425 1.34314575,6 3,6 C4.65685425,6 6,4.65685425 6,3 L8.53e-14,3 Z" id="Combined-Shape" fill="#0047A0"></path>
                    <path d="M8.53e-14,0 C8.53e-14,1.65685425 1.34314575,3 3,3 C4.65685425,3 6,1.65685425 6,0 L8.53e-14,0 Z" id="Combined-Shape-Copy-3" fill="#CD2E3A" transform="translate(3.000000, 1.500000) scale(1, -1) translate(-3.000000, -1.500000) "></path>
                </g>
            </g>
            <g id="Overlay" mask="url(#mask-2)" opacity="0" stroke="#000000" stroke-opacity="0.503742351">
                <g>
                    <rect style="mix-blend-mode: multiply;" x="0.5" y="0.5" width="15" height="11"></rect>
                </g>
            </g>
        </g>
    </g>
</svg>