<?xml version="1.0" encoding="UTF-8"?>
<svg width="16px" height="12px" viewBox="0 0 16 12" version="1.1" xmlns="http://www.w3.org/2000/svg" xmlns:xlink="http://www.w3.org/1999/xlink">
    <title>LK</title>
    <g id="LK" stroke="none" stroke-width="1" fill="none" fill-rule="evenodd">
        <g id="Sri-Lanka">
            <rect id="Rectangle-119-Copy" fill="#FFBE29" x="0" y="0" width="16" height="12"></rect>
            <rect id="Rectangle-42" fill="#00534E" x="1" y="1" width="2" height="10"></rect>
            <rect id="Rectangle-42-Copy" fill="#EB7400" x="3" y="1" width="2" height="10"></rect>
            <rect id="Rectangle-43" fill="#8D153A" x="6" y="1" width="9" height="10"></rect>
            <g id="lion" transform="translate(7.000000, 3.000000)" fill="#FFBE29" fill-rule="nonzero">
                <path d="M1.73739417,5.62871584 L1.80238321,5.59119206 L1.83018539,5.62878293 C1.86722615,5.67886681 1.96971809,5.6783003 2.03772156,5.62763053 L2.08972412,5.58889174 L2.1332678,5.62763053 C2.19051802,5.67856865 2.29743619,5.67863573 2.36570055,5.62781241 C2.41349603,5.5922088 2.42015997,5.59149321 2.45176224,5.61857771 C2.47060165,5.63472471 2.52585865,5.65310794 2.57455459,5.65942899 C2.66225617,5.67081388 2.66358449,5.67018863 2.7148968,5.59320705 C2.75787099,5.52873681 2.76459307,5.5026431 2.75433776,5.4401154 C2.7475407,5.39866034 2.74021827,5.33193898 2.73806553,5.29184802 C2.73417168,5.21925434 2.7345906,5.21880263 2.84033237,5.18198251 C2.89872903,5.16164781 2.96632699,5.13437636 2.99054674,5.12137647 C3.03277851,5.09871312 3.14921404,4.96187432 3.14921404,4.9349055 C3.14921404,4.92775884 3.10372782,4.9168115 3.04813538,4.91057542 C2.827003,4.88577276 2.78955376,4.76702796 2.93330994,4.54647402 C3.16774038,4.18677051 3.30921859,3.83647404 3.3101578,3.61332906 C3.31058268,3.51358468 3.31626194,3.48009505 3.32907921,3.50178638 C3.38145894,3.59042867 3.28762266,3.9621049 3.1454706,4.22900526 L3.08823529,4.33647652 L3.14285124,4.32390345 C3.17288965,4.31698876 3.34949292,4.2424767 3.53530792,4.15831878 C4.04389899,3.92797317 4.21859252,3.88283133 4.54773435,3.8966959 C4.82349014,3.90831098 4.94092153,3.96218287 5.13562179,4.16638408 C5.23876373,4.27456497 5.338119,4.35197547 5.51987899,4.46573945 C5.90711783,4.70813084 5.92326334,4.72912149 5.94167489,5.01417996 C5.96033242,5.30299528 5.95104748,5.31866373 5.73260319,5.36692137 C5.54589369,5.40817069 5.42884991,5.49521184 5.39745338,5.61614068 C5.38068918,5.68071974 5.41596929,5.68257879 5.51010075,5.62208083 L5.57908815,5.57774254 L5.60976313,5.62208083 C5.65009113,5.68037164 5.73581142,5.6806042 5.80699777,5.62261156 L5.86076694,5.57880996 L5.91573175,5.62261156 C6.0011345,5.6906672 6.11471064,5.67416389 6.14676313,5.58903843 C6.15292541,5.57267675 6.16936983,5.5779189 6.20266864,5.60685813 C6.26506217,5.66108498 6.42500858,5.68434466 6.4422722,5.64170739 C6.44886473,5.62543963 6.43634175,5.5852622 6.41444468,5.55242703 C6.32138958,5.41289284 6.29227996,5.34635187 6.29106793,5.27039491 C6.28938837,5.16475139 6.32090507,5.11378495 6.44105868,5.02786936 C6.58702126,4.92350048 6.63212135,4.78884721 6.52112432,4.78884721 C6.45258863,4.78884721 6.38349688,4.72826949 6.33943886,4.62953887 C6.24987227,4.42886045 6.2674266,4.20388177 6.40185327,3.82961302 C6.5383939,3.44945555 6.55354355,3.37935749 6.55408024,3.12511414 C6.55452749,2.91954585 6.54934691,2.88398995 6.50257561,2.77128444 C6.47397883,2.70237456 6.41595636,2.59976633 6.37363664,2.54327941 L6.29668978,2.44055788 L6.39548153,2.35871221 C6.69713275,2.10880713 6.63542798,1.69980241 6.2722956,1.54220851 C6.16120613,1.49399858 6.13345017,1.48974081 5.93877078,1.49104975 C5.82197746,1.49183541 5.64388785,1.5072042 5.5430194,1.52520578 C5.44017413,1.54355918 5.26610078,1.55830929 5.14668661,1.55878785 C4.95698057,1.55955114 4.924779,1.55487461 4.8516695,1.51596124 C4.77544122,1.47538577 4.76237126,1.45612148 4.74744672,1.3623329 C4.74437937,1.34305519 4.73090018,1.3238237 4.71749777,1.31959724 C4.69156954,1.31142147 4.57183037,1.41534176 4.55413441,1.46137361 C4.54540674,1.48408616 4.53828259,1.48251633 4.51267787,1.45223209 C4.49567216,1.43212102 4.47192946,1.38591027 4.4599135,1.34954038 C4.42969918,1.25807449 4.46680166,1.18950154 4.57431556,1.1381281 L4.65772956,1.09826226 L4.60854315,1.06773934 C4.50704408,1.00475544 4.33445707,1.04784145 4.2720367,1.15174668 C4.25438099,1.18113807 4.23512266,1.20523857 4.2292414,1.20530267 C4.22336104,1.2053474 4.18980193,1.17732755 4.15466345,1.14299412 C4.02361498,1.01494366 4.0686942,0.825495545 4.24397512,0.767651977 C4.33744317,0.736808534 4.42015947,0.760336853 4.43736346,0.822662999 C4.46363756,0.917815668 4.54531178,0.792740879 4.53066453,0.679783423 C4.52092505,0.604685179 4.52238843,0.602082218 4.57435283,0.602082218 C4.64661704,0.602082218 4.80043471,0.696926289 4.84800657,0.77082741 C4.90326209,0.856658021 4.89924136,0.99181071 4.8384351,1.09254499 L4.79068881,1.1716401 L4.85314496,1.15913277 C4.9447316,1.14079278 5.0337123,1.08391675 5.07871997,1.01493979 C5.12630674,0.942018132 5.13142321,0.8000241 5.08922558,0.723411189 C5.04833405,0.649153763 5.05302266,0.6373659 5.11347665,0.662459274 C5.21629657,0.705138286 5.27126436,0.752207744 5.31250026,0.832874177 C5.34963345,0.905520034 5.35170568,0.923572295 5.33160355,0.999189343 C5.31920028,1.04583839 5.29160353,1.1072137 5.27027595,1.13557792 C5.23706957,1.17974476 5.23593655,1.18714963 5.26239387,1.18714963 C5.31166824,1.18714963 5.4145463,1.14051549 5.45110105,1.10161718 C5.4695618,1.08196528 5.49647695,1.03357645 5.51091249,0.994086288 L5.53716125,0.922285723 L5.56732041,0.977016472 C5.6099711,1.05440759 5.69288418,1.12405095 5.79398371,1.16739337 C5.90270875,1.21400366 5.94798475,1.21663047 5.89113109,1.17302745 C5.85279034,1.14362414 5.7821392,0.936316068 5.80355026,0.916041003 C5.81614883,0.904109873 5.963768,1.01769362 6.13231938,1.16900226 C6.2917619,1.31213378 6.39194457,1.35902136 6.53838719,1.35902136 C6.72545448,1.35902255 6.83437333,1.19617979 6.75029144,1.04220856 C6.70127349,0.952437727 6.59207139,0.939967071 6.52821984,1.01684833 C6.49885678,1.05220148 6.49079595,1.0803227 6.49939645,1.11740371 C6.50993054,1.1628288 6.50582037,1.1688815 6.46443538,1.1688815 C6.41006094,1.1688815 6.30287591,1.09931417 6.11251393,0.940473947 C5.82223761,0.698246553 5.46952602,0.492931704 5.21483542,0.417943779 C5.05139753,0.369812862 4.70224898,0.351031593 4.53609781,0.381430773 C4.35627587,0.414333029 4.14358149,0.517242401 4.02771546,0.627400109 C3.82240061,0.822607242 3.81913573,1.0823666 4.01904772,1.318914 L4.07631136,1.38667446 L4.03754275,1.44689438 C3.98114378,1.53450204 3.98597402,1.65240304 4.0495198,1.73924293 C4.07750833,1.77749124 4.10574136,1.80877001 4.11226069,1.80874913 C4.11877972,1.80873423 4.12592832,1.78413878 4.12814382,1.75410485 C4.13375584,1.67812405 4.1663653,1.62721723 4.22233789,1.60706292 C4.27275125,1.58891078 4.30534043,1.59748415 4.53616907,1.68961822 C4.77900769,1.78654347 5.17836684,1.79320591 5.60301019,1.70741555 C5.8111874,1.66535821 6.05666477,1.66783147 6.16465931,1.71307498 C6.36262444,1.79601043 6.40851169,2.01177439 6.26298592,2.17555517 C6.1999901,2.24645678 6.13923646,2.27533086 5.93526036,2.33131538 C5.78003685,2.37391538 5.74327339,2.37674345 5.39047235,2.37322066 C5.08905965,2.3702116 4.98073714,2.37599983 4.85770029,2.40168924 C4.72412637,2.42957789 4.64196465,2.43239105 4.24959742,2.42250248 L3.79592793,2.41107018 L3.84623693,2.45272798 C3.87390643,2.47563881 3.91299854,2.5038286 3.93310813,2.51537197 C3.96732528,2.53501195 3.96618481,2.53765069 3.9153272,2.55650799 C3.88543787,2.5675907 3.81909816,2.57665783 3.7679066,2.57665783 L3.67483213,2.57665783 L3.66230706,2.65575593 C3.65541726,2.69926085 3.65594054,2.75005287 3.66346393,2.76862691 C3.67456438,2.7960236 3.67042722,2.79995785 3.64155493,2.78946402 C3.62198055,2.78235 3.56746149,2.76835708 3.52040396,2.75837012 C3.47334643,2.74838241 3.41000325,2.72804399 3.37964134,2.71317461 C3.32858396,2.6881692 3.32290992,2.68884155 3.30410331,2.72212188 C3.28731078,2.75184125 3.1296483,2.8691817 3.10651087,2.8691817 C3.10277698,2.8691817 3.09795688,2.84655711 3.09580042,2.81890401 C3.09364411,2.79125091 3.07089936,2.7192625 3.04525588,2.6589248 C3.0196109,2.59859157 2.99283589,2.53277364 2.98575303,2.51266257 C2.97506807,2.48232451 2.97023068,2.4807681 2.95734409,2.50352105 C2.94880173,2.5186051 2.93632958,2.55974112 2.92962837,2.59493476 C2.92292761,2.63012839 2.89917105,2.68730259 2.87683568,2.72198785 L2.83622592,2.78505076 L2.81032452,2.73112803 C2.78251936,2.67324272 2.73635781,2.6132166 2.71964579,2.6132166 C2.714005,2.6132166 2.70439775,2.63172804 2.69829734,2.65435262 C2.68555789,2.70159949 2.57609534,2.83260921 2.54936058,2.83260921 C2.5395151,2.83260921 2.53146039,2.79558634 2.53146039,2.75033717 C2.53146039,2.70508799 2.52277341,2.66806513 2.51215584,2.66806513 C2.50153827,2.66806513 2.49285129,2.67977472 2.49285129,2.69408579 C2.49285129,2.72887392 2.39936834,2.83260921 2.36801653,2.83260921 C2.35433518,2.83260921 2.33232645,2.84495001 2.3191074,2.86003272 C2.28464278,2.89936038 2.25645,2.89384139 2.27093922,2.85060452 C2.27773256,2.83033542 2.27331543,2.78302892 2.26112281,2.74547831 C2.24892974,2.70792769 2.23596533,2.66796196 2.23231283,2.65666607 C2.22771054,2.64243938 2.19421062,2.64621308 2.12331051,2.66894471 C2.0087385,2.70567686 1.97033812,2.69917841 2.02925955,2.65302878 C2.05080031,2.63615873 2.08356243,2.57772182 2.1020679,2.52316848 C2.12057188,2.46861663 2.14787464,2.4202114 2.16274103,2.41560479 C2.18355727,2.40915225 2.18244959,2.41712601 2.15791482,2.450299 C2.14039329,2.47398952 2.12600545,2.50593766 2.12593985,2.52129751 C2.12593985,2.53665736 2.11268891,2.57307347 2.09663642,2.60222185 C2.08058632,2.63137024 2.0704965,2.65810202 2.07421608,2.66162332 C2.07793431,2.66514552 2.12152705,2.64858586 2.17108616,2.62482408 L2.26119392,2.58162179 L2.26156066,2.62027113 C2.26177235,2.64152864 2.27262428,2.69760709 2.28569097,2.74489122 L2.30945006,2.83086048 L2.37078661,2.8026692 C2.43347383,2.77385773 2.49284548,2.67114664 2.49284548,2.59151036 C2.49284548,2.55214393 2.51539553,2.5581862 2.52462963,2.60002708 C2.52734007,2.61230542 2.54149371,2.65838796 2.5560843,2.70243405 L2.58261333,2.78251608 L2.62460955,2.73195365 C2.64770822,2.70414401 2.67666429,2.64959514 2.68895754,2.61073559 C2.71029853,2.54327479 2.74380904,2.51427101 2.74380904,2.56326063 C2.74380904,2.5985631 2.8401484,2.7251779 2.85873288,2.71429496 C2.86771548,2.70903805 2.88560182,2.66151867 2.89847946,2.60869616 C2.92526491,2.49884407 2.96847614,2.42413343 2.99593395,2.4402044 C3.00625813,2.44624742 3.0102793,2.4579749 3.00486825,2.46626681 C2.99945704,2.47455767 3.02164586,2.54597763 3.05417691,2.62497882 C3.08670795,2.70397853 3.11937317,2.78351194 3.12676909,2.80172969 C3.13865088,2.83099734 3.1493907,2.82674554 3.21912052,2.7651645 C3.26251811,2.72683866 3.30190689,2.68393454 3.30665066,2.6698225 C3.31382058,2.64848896 3.32350133,2.64927014 3.36408276,2.67445237 C3.42083357,2.70966837 3.61163236,2.76641022 3.6263616,2.75245323 C3.63188074,2.74722658 3.63753898,2.69711721 3.63893661,2.6410984 L3.64147726,2.5392475 L3.69634516,2.55062584 C3.72652221,2.55688398 3.78997571,2.55649935 3.83735228,2.54976862 L3.92349,2.53753545 L3.84672502,2.48486948 C3.8045022,2.45590297 3.76181126,2.41841795 3.75185561,2.40157027 C3.74124966,2.38362087 3.70367251,2.36838029 3.66110531,2.36476208 C3.54609351,2.3549886 3.3422501,2.24066079 3.3422501,2.18592408 C3.3422501,2.17564865 3.37048313,2.19312039 3.40499099,2.22474934 C3.48154278,2.29491746 3.58789891,2.33895908 3.6807766,2.33895908 L3.75027982,2.33895908 L3.70728475,2.28177445 C3.68258644,2.24892586 3.66043594,2.18661284 3.65523449,2.13534972 C3.64694497,2.05363823 3.63831972,2.04064579 3.55299747,1.98133377 C3.50174926,1.94570481 3.43826893,1.89230238 3.41193371,1.86266053 L3.36405026,1.80876762 L3.3396203,1.87275483 C3.32618226,1.90794847 3.30975931,1.93674204 3.30312668,1.93674204 C3.29649345,1.93674204 3.27066123,1.91617329 3.24572588,1.89103519 C3.22078755,1.86589709 3.19538409,1.84542225 3.18927324,1.84553854 C3.18315941,1.84564289 3.16106854,1.87951567 3.14018224,1.92078586 L3.10220525,1.99582298 L3.07286008,1.9525715 C3.05671904,1.92878259 3.01859446,1.88669394 2.98813863,1.85904084 C2.9576828,1.83138773 2.94166401,1.80876315 2.95254248,1.80876315 C2.96341886,1.80876315 3.00100883,1.83757014 3.03607724,1.87277868 L3.09983188,1.93679422 L3.12577949,1.88989322 C3.14117661,1.86206122 3.14694755,1.81930916 3.13997218,1.78474167 C3.12980439,1.73435664 3.13123304,1.73142868 3.15055144,1.76305629 C3.16283694,1.78316737 3.20013441,1.82172428 3.23343621,1.84873782 L3.29398709,1.89785417 L3.33577162,1.82131431 C3.37735786,1.74514268 3.37765006,1.7449936 3.39656998,1.7904813 C3.42187207,1.85131395 3.60498572,2.00141652 3.7608801,2.08912108 C3.78490903,2.10263829 3.77477746,2.05615621 3.73040191,1.94926935 C3.71864923,1.92096178 3.70903407,1.86992974 3.70903407,1.83586316 C3.70903407,1.78532458 3.69445496,1.76283118 3.6298182,1.71364477 C3.5365052,1.64263433 3.50632666,1.5921375 3.48874251,1.47757443 C3.48161896,1.43116839 3.46528903,1.37955493 3.45245164,1.36287869 C3.43340947,1.33813715 3.43026237,1.35198367 3.43535797,1.4381126 C3.4387922,1.49616786 3.43124213,1.56834858 3.41857737,1.59850923 L3.39555473,1.65335776 L3.3777574,1.6076509 C3.36796976,1.5825128 3.32467698,1.53879469 3.28154775,1.51050054 C3.23842,1.48220639 3.20815052,1.45430581 3.21428373,1.4484991 C3.22041485,1.44269193 3.26478355,1.46847898 3.31287719,1.5058015 C3.38614621,1.56266113 3.40228576,1.56881819 3.41243373,1.54377401 C3.42435651,1.51434684 3.41241882,1.38631428 3.38938426,1.29685055 C3.37788815,1.25217385 3.378894,1.25241387 3.43400729,1.30751867 C3.47465581,1.34815974 3.49713132,1.39663354 3.51454551,1.48119845 C3.5366662,1.58863841 3.54782644,1.60652519 3.64717127,1.69375866 C3.70683065,1.74614286 3.75874973,1.7860594 3.76254683,1.78246505 C3.76634214,1.7788698 3.7738712,1.6433617 3.77927674,1.48133561 C3.78964326,1.17063514 3.77792606,1.0967057 3.70309914,1.00071221 L3.66465404,0.951388641 L3.72509163,0.886196853 C3.8039348,0.801153391 3.84013473,0.732985939 3.85583747,0.639988986 L3.86861121,0.564333178 L3.800405,0.62892864 C3.74455614,0.681821216 3.71788548,0.693524103 3.65319759,0.693524103 C3.58914478,0.693524103 3.56412297,0.682790096 3.52095944,0.636795664 C3.46917007,0.581610217 3.37740154,0.528511908 3.28915283,0.502668655 C3.25655321,0.493122826 3.24571649,0.497280854 3.24571649,0.51933446 C3.24571649,0.53549637 3.22770895,0.582146909 3.20570007,0.623002656 L3.16568514,0.697286916 L3.08184477,0.614417061 C3.03041617,0.56358628 2.96938375,0.524021578 2.92398251,0.512081652 C2.80798529,0.481576624 2.801703,0.484605957 2.801703,0.571028422 C2.801703,0.702118643 2.74573338,0.726535189 2.64500358,0.63940906 C2.56821475,0.572987351 2.50451676,0.558545839 2.35890154,0.574551214 L2.24644202,0.586912444 L2.26667683,0.637680611 C2.28357819,0.680088294 2.27976916,0.697946751 2.24355729,0.746110466 C2.18482222,0.824227608 2.1084538,0.858067586 1.99089421,0.858067586 C1.93674935,0.858067586 1.86899336,0.869271944 1.84032203,0.882965664 C1.8116507,0.896659681 1.74041367,0.912436067 1.68201253,0.918025127 C1.62361588,0.923614336 1.56137292,0.933589221 1.54369783,0.940192035 C1.51603727,0.950524267 1.51300198,0.942009187 1.52191108,0.879098493 C1.53554785,0.78282026 1.46829397,0.711799391 1.36348232,0.711799391 C1.22749477,0.711799391 1.16477177,0.833437854 1.21802662,0.993891141 C1.22827581,1.02477185 1.24168732,1.07347226 1.24782798,1.10211377 C1.25420061,1.13182867 1.31545427,1.21068227 1.39048095,1.28575219 C1.46279883,1.35811181 1.53114518,1.43340386 1.54236504,1.4530662 C1.5535852,1.47273153 1.59067784,1.50428907 1.62479213,1.52319407 L1.6868219,1.55756925 L1.67864031,1.49119972 C1.66964803,1.4182572 1.68554204,1.40681371 1.72435164,1.45828703 C1.73822411,1.47668814 1.7734665,1.50642988 1.80266557,1.52437927 C1.84866164,1.55265553 1.85575344,1.55323099 1.85575344,1.52867908 C1.85575344,1.51309411 1.86512992,1.4771819 1.87658905,1.44887433 L1.89742616,1.39740698 L1.93357988,1.46743347 C1.95346435,1.50594864 2.01812988,1.59348176 2.0772794,1.66195483 C2.19205118,1.79481316 2.2619763,1.94328627 2.22588817,1.97745571 C2.21124928,1.99131849 2.17167772,1.99024555 2.08966359,1.97376237 C2.02608635,1.96098476 1.94744892,1.95423122 1.91491042,1.95875286 C1.84846336,1.9679889 1.84322912,1.95941031 1.8840953,1.9082426 C1.92722603,1.85423639 1.9203653,1.84532878 1.83563193,1.84532878 C1.7376005,1.84532878 1.49422071,1.79833535 1.40079142,1.76136765 C1.30995018,1.72542115 1.28899084,1.734372 1.26225309,1.82053208 C1.2502185,1.85930814 1.22818353,1.92957317 1.21328881,1.97667989 L1.18620669,2.06231819 L1.28449156,2.05285302 C1.33854846,2.04764709 1.40807554,2.03581152 1.43899948,2.02655208 C1.46992045,2.01729234 1.49802228,2.01237116 1.50144817,2.01561607 C1.50487481,2.01886142 1.49109298,2.05232437 1.47082239,2.08997785 L1.43396799,2.15843899 L1.4952449,2.14594747 C1.52894921,2.13907705 1.57965476,2.12226589 1.60792655,2.10858917 C1.65712042,2.08479131 1.66107108,2.08651916 1.69987397,2.14880088 C1.74758895,2.22539292 1.78576124,2.22224582 1.79423055,2.14102167 C1.80298729,2.05705159 1.83060789,2.06947156 1.88256871,2.1807444 C1.93253333,2.28774307 1.984518,2.32552029 1.99450645,2.26209064 C1.99782082,2.24103141 2.02473717,2.20674866 2.05431789,2.18590858 C2.11415318,2.14375433 2.15924433,2.15640239 2.18509653,2.22258706 C2.21185663,2.2910974 2.1521734,2.36171426 1.97857412,2.46694632 C1.63081203,2.67774736 1.42867262,2.96605581 1.37096322,3.33352645 C1.31891146,3.66497904 1.4814832,4.00747856 1.80762253,4.25347771 C1.9636958,4.3712013 2.21163301,4.49545167 2.19587511,4.44804379 C2.12896442,4.24670942 2.13116784,3.86254166 2.19960662,3.79773599 C2.20987698,3.78800933 2.2063442,3.82809492 2.19175555,3.88681509 C2.13741539,4.10554726 2.16102242,4.27983828 2.30031659,4.6883212 C2.42629929,5.05777463 2.40886124,5.2156667 2.23055546,5.32003856 C2.17328735,5.35355801 2.13641655,5.35908148 1.98243935,5.35721349 C1.81536387,5.35518404 1.79716104,5.35854777 1.74352157,5.4012879 C1.6915205,5.44272954 1.62409547,5.57878417 1.62409547,5.64227792 C1.62409547,5.67667397 1.66229011,5.67212103 1.73734662,5.62878516 L1.73739417,5.62871584 Z" id="Path"></path>
                <path d="M4.4493332,5.62126177 L4.51941784,5.57621982 L4.56697926,5.62126177 C4.62928931,5.68027265 4.70228402,5.67895328 4.7621864,5.61773317 C4.7883293,5.59101779 4.81180515,5.57250784 4.81435444,5.57659715 C4.81690268,5.58068704 4.82856085,5.60048743 4.84025881,5.62059851 C4.85506766,5.64605564 4.88551544,5.65885577 4.94047429,5.66273337 C5.00669175,5.66740469 5.02447269,5.66099658 5.05078406,5.62296741 L5.08214779,5.57763177 L5.15113818,5.62197006 C5.34000935,5.74336105 5.44065418,5.61600427 5.35624431,5.3624045 C5.31332379,5.23345658 5.33692337,5.16096577 5.47525596,4.9968421 C5.53358852,4.92763406 5.58136611,4.85376424 5.58142425,4.83268861 C5.58142425,4.79908716 5.57063285,4.79458491 5.49299813,4.79612343 C5.41870493,4.7976053 5.39697036,4.78962572 5.35786482,4.74657922 C5.29425926,4.67656316 5.29803848,4.59637975 5.3691388,4.50739308 L5.4259388,4.4363096 L5.32516577,4.36792151 C5.2697403,4.33030679 5.16979317,4.24131565 5.10304945,4.17016508 C4.95316305,4.01036477 4.80579612,3.93458672 4.61145366,3.91739764 L4.48115059,3.90587395 L4.4813429,4.00450319 C4.48159336,4.13147281 4.54117969,4.25361815 4.70383193,4.46051326 C4.88876735,4.69574874 4.9016778,4.73216931 4.90917659,5.03963471 L4.91550853,5.29966242 L4.86199428,5.35043506 C4.81363825,5.39631186 4.79183361,5.40216629 4.63579313,5.41116484 C4.48724101,5.4197321 4.45603083,5.42739682 4.41243944,5.46601336 C4.3545422,5.51730331 4.33722938,5.5452024 4.31935304,5.61603394 C4.30893419,5.65731158 4.31315602,5.66631163 4.34294516,5.66631163 C4.36290119,5.66631163 4.41076675,5.64604103 4.44931322,5.62126818 L4.4493332,5.62126177 Z" id="Path"></path>
                <path d="M0.474376889,4.949203 C0.490904048,4.92685421 0.504428709,4.89076609 0.504428709,4.86900617 C0.504428709,4.83613075 0.519119634,4.82735731 0.591364014,4.81709753 L0.678299318,4.80475121 L0.620321577,4.75854643 C0.551440025,4.70365616 0.545068288,4.66077291 0.605779287,4.66067899 C0.666246686,4.66067899 0.768650673,4.5978889 0.784214767,4.55143366 C0.79145058,4.5298422 0.786900169,4.50099347 0.773921593,4.48618224 C0.740023474,4.44750159 0.676294174,4.45333365 0.664455623,4.4962011 C0.651731827,4.54228215 0.630429293,4.54240439 0.582134387,4.49665729 C0.509484058,4.42785177 0.507853108,4.28542391 0.578765893,4.20248995 C0.612186953,4.1634038 0.61188879,4.1608396 0.569281337,4.12048775 C0.523446273,4.07707823 0.490712479,3.99116265 0.512242809,3.97076534 C0.519094141,3.96427672 0.55530645,3.96944746 0.592715436,3.9822616 C0.645871886,4.00046592 0.666856578,4.00074172 0.688755139,3.98352282 C0.755090381,3.9313846 0.683222134,3.86434122 0.576842744,3.8791286 C0.534029559,3.88507993 0.516342546,3.8791286 0.510194431,3.85691995 C0.505543838,3.84007674 0.468096836,3.81808426 0.42590532,3.80741898 C0.350516367,3.78836041 0.349984147,3.78859298 0.349984147,3.84053442 C0.349984147,3.89745219 0.317493355,3.90819052 0.255755782,3.87167602 C0.205589905,3.84200436 0.156935712,3.86503922 0.156935712,3.91846223 C0.156935712,3.96830609 0.207061338,3.99288811 0.296896274,3.98709929 C0.365800188,3.9826583 0.368364388,4.03389742 0.302923187,4.10755106 L0.255862674,4.16051818 L0.29314494,4.21408013 C0.348360204,4.29340632 0.343711847,4.42514952 0.2833901,4.49058133 L0.236100001,4.54187873 L0.20507617,4.50074271 C0.161963332,4.44357597 0.102991218,4.44740737 0.0868203627,4.50842681 C0.0762314119,4.5483836 0.0849844258,4.56664309 0.135019857,4.60898219 C0.168645158,4.63743586 0.21773765,4.66071641 0.244114615,4.66071641 C0.309388398,4.66071641 0.306836125,4.71204959 0.238983682,4.76390605 L0.18589581,4.80448003 L0.267941245,4.81720651 C0.313066682,4.82420708 0.349986681,4.83737573 0.349986681,4.8464682 C0.349986681,4.88133833 0.406847803,4.98980695 0.425125178,4.98980695 C0.435682821,4.98980695 0.457845555,4.97152212 0.474372714,4.94917333 L0.474376889,4.949203 Z" id="Path"></path>
                <path d="M1.54269392,4.48615629 C1.61723609,4.45677385 1.77855554,4.32016911 1.77855554,4.28641709 C1.77855554,4.2758022 1.73402643,4.22682927 1.67960427,4.1775862 C1.56507401,4.07396124 1.44049268,3.89944511 1.40821657,3.79741383 C1.39138677,3.74421116 1.31005693,3.65313438 1.08096807,3.43095694 L0.776126507,3.13529878 L0.688266898,3.15755216 C0.639943666,3.16979233 0.580984969,3.18010369 0.557246744,3.18046596 C0.516337328,3.18108763 0.517079753,3.18343685 0.571466572,3.22552729 L0.628846496,3.26993267 L0.709289308,3.22528578 C0.787263332,3.18200895 0.790039227,3.1817421 0.799654974,3.21657034 C0.805286224,3.2369587 0.793139522,3.27229397 0.771581463,3.29825201 C0.750681747,3.32341247 0.738777601,3.35195559 0.745122503,3.36168017 C0.751468002,3.37140266 0.731391067,3.39173497 0.700506925,3.40686077 C0.643264155,3.43489552 0.603532481,3.52717986 0.648705624,3.52717986 C0.689346694,3.52717986 0.778962481,3.41660771 0.768637106,3.37920766 C0.763347551,3.36005667 0.765905489,3.34035855 0.774320237,3.3354329 C0.809223165,3.31500429 0.807042105,3.40181585 0.771581016,3.44451275 C0.7506813,3.46967322 0.738777154,3.49821633 0.745122056,3.50794091 C0.751467555,3.5176637 0.731390619,3.53799571 0.700506478,3.55312151 C0.64363492,3.58097438 0.603503709,3.6734406 0.648284768,3.6734406 C0.69217432,3.6734406 0.780320165,3.56777919 0.769404428,3.52825325 C0.763694165,3.5075697 0.765904594,3.48661929 0.774319342,3.48169365 C0.797826491,3.46793403 0.810508843,3.53646763 0.790664623,3.57004522 C0.78003542,3.58803338 0.780131876,3.61258708 0.79091508,3.63206009 C0.810438774,3.66733721 0.790643751,3.73508574 0.754664456,3.75614498 C0.739241989,3.76517126 0.749686033,3.78288421 0.787094124,3.81113364 C0.841225566,3.85201622 0.842275099,3.85630827 0.842275099,4.03669373 C0.842275099,4.18744481 0.848361644,4.22635504 0.876058426,4.25259336 C0.907138908,4.28204289 0.909841753,4.28214874 0.909841753,4.25391124 C0.909841753,4.22306631 0.963985122,4.18536214 1.00827719,4.18536214 C1.02134268,4.18536214 1.10297069,4.25453887 1.18966448,4.33909484 C1.2768905,4.42415768 1.3681596,4.49653966 1.39401031,4.50114628 C1.41970001,4.50572799 1.44751262,4.51059669 1.45581646,4.51196586 C1.46411954,4.5133374 1.5032124,4.50172576 1.54268766,4.48616584 L1.54269392,4.48615629 Z" id="Path"></path>
                <path d="M0.610637252,3.75685028 C0.610637252,3.70825274 0.510393454,3.65637839 0.390488807,3.64292976 C0.293685807,3.63207142 0.292101073,3.63268578 0.292101073,3.68104241 C0.292101073,3.72107075 0.30732377,3.73681822 0.374146508,3.76591145 C0.481520867,3.81265889 0.610637252,3.80771386 0.610637252,3.75685058 L0.610637252,3.75685028 Z" id="Path"></path>
                <path d="M0.720510214,3.75237784 C0.76940741,3.70801123 0.792574653,3.65524239 0.763156428,3.65524239 C0.729322414,3.65524239 0.639523256,3.73582385 0.639523256,3.76618426 C0.639523256,3.81357127 0.656202479,3.81072679 0.720510214,3.75237694 L0.720510214,3.75237784 Z" id="Path"></path>
                <path d="M0.616302344,3.60866341 C0.620445016,3.58124436 0.603485819,3.56294612 0.552649075,3.53998759 C0.442987808,3.49046127 0.311882678,3.46752361 0.280307246,3.49234119 C0.222150607,3.53805251 0.260899835,3.59942484 0.354889669,3.6104658 C0.3927295,3.61491022 0.444040323,3.62645031 0.468910075,3.63611078 C0.541148939,3.66416789 0.609847121,3.65137522 0.616302344,3.60866341 L0.616302344,3.60866341 Z" id="Path"></path>
                <path d="M0.616302344,3.46181827 C0.622205667,3.42270379 0.597196076,3.40870654 0.393008282,3.3368374 C0.240572591,3.28318451 0.173083459,3.30848511 0.221803248,3.40102885 C0.23877467,3.43326621 0.267258155,3.44799395 0.331138027,3.45755901 C0.378650256,3.46467467 0.443585624,3.47858545 0.475438348,3.48847551 C0.560535479,3.51489272 0.609698039,3.50559005 0.616303834,3.46181976 L0.616302344,3.46181827 Z" id="Path"></path>
                <path d="M0.718572157,3.32421617 C0.749381311,3.2929881 0.774585005,3.25613072 0.774585005,3.24231684 C0.774585005,3.19750149 0.652913744,3.27678594 0.63740481,3.33170453 C0.618802438,3.39757911 0.648958765,3.39479874 0.71857812,3.32421573 L0.718572157,3.32421617 Z" id="Path"></path>
                <path d="M0.616302344,3.31497313 C0.623018608,3.27041867 0.54892055,3.23018161 0.403205447,3.19925319 C0.296297713,3.17656301 0.249144769,3.18943171 0.257148948,3.23911159 C0.261519268,3.26623098 0.297123624,3.28604389 0.398129227,3.31756714 C0.559778146,3.36801031 0.608393577,3.36743337 0.61629489,3.31497268 L0.616302344,3.31497313 Z" id="Path"></path>
                <path d="M0.758824124,3.10760096 C0.945548528,3.02448064 0.961694039,2.8148797 0.785622989,2.75985377 C0.712517963,2.73700407 0.665849534,2.74931581 0.637865472,2.79883408 C0.616439498,2.83675143 0.630769199,2.90568963 0.660077103,2.90568963 C0.66997864,2.90568963 0.678080168,2.9184504 0.678080168,2.9340464 C0.678080168,3.00682643 0.392991883,3.03980323 0.27608228,2.98054488 C0.235008875,2.95972715 0.217126566,2.90568963 0.251310922,2.90568963 C0.276854522,2.90568963 0.294516191,2.85062643 0.281464117,2.81168042 C0.263681693,2.75861938 0.210204718,2.74023765 0.132634705,2.76052017 C-0.0423868124,2.80628666 -0.0374671275,3.01194588 0.140726394,3.09921811 C0.286845507,3.17077865 0.607157246,3.17512885 0.758817714,3.10761005 L0.758824124,3.10760096 Z" id="Path"></path>
                <path d="M0.642689744,2.94644401 C0.653502466,2.93620301 0.64880372,2.92046658 0.63067647,2.90621887 C0.590980576,2.87501913 0.593097532,2.82861308 0.636639725,2.77549092 C0.669337739,2.73559824 0.673422569,2.67589861 0.684678211,2.07370532 C0.704070715,1.03593507 0.781242681,0.255359971 0.882956421,0.0681137827 C0.92345139,-0.00644031477 0.917772881,-0.00673698667 0.813128202,0.0644614385 C0.678331818,0.156179273 0.575701228,0.275605369 0.484761598,0.446571873 C0.313079503,0.769347926 0.253417143,1.20360702 0.253417143,2.13059492 C0.253417143,2.65692666 0.257002699,2.72578734 0.286982811,2.77526745 C0.315461824,2.82226236 0.316974999,2.83961841 0.296970964,2.88981113 C0.284003718,2.92234664 0.278119626,2.95344203 0.283895187,2.95891183 C0.322225496,2.99521314 0.601468301,2.98558248 0.642689297,2.94653912 L0.642689744,2.94644401 Z" id="Path"></path>
                <path d="M2.2114729,1.95684194 C2.21732226,1.94787916 2.2043978,1.90262999 2.18275387,1.85628656 C2.1490093,1.7840298 2.13541606,1.77202726 2.0873418,1.77202726 C1.9367398,1.77202726 1.69464658,1.70472597 1.44505457,1.59348743 C1.30092718,1.52924678 1.25114445,1.51448325 1.23386592,1.53085387 C1.18976765,1.57261753 1.26305903,1.67174769 1.37655914,1.7238546 C1.47724869,1.77008026 1.75872921,1.82688026 1.88713298,1.82688026 C1.96162297,1.82688026 1.96338363,1.83024175 1.92099383,1.89151299 L1.88981496,1.93657731 L1.9740817,1.93874018 C2.02042663,1.93993134 2.08440787,1.94718385 2.11626209,1.95486035 C2.19899181,1.974797 2.19976554,1.9748134 2.2114893,1.9568473 L2.2114729,1.95684194 Z" id="Path"></path>
                <path d="M3.09120201,2.42451016 C3.09120201,2.39768744 3.01243189,2.32499537 2.93260926,2.27815699 C2.86992651,2.24137266 2.85957132,2.24025455 2.85943118,2.27025628 C2.85921799,2.31580361 2.81871557,2.43023548 2.80281008,2.43023548 C2.79384105,2.43023548 2.78057907,2.40787477 2.7733352,2.38054368 C2.76609179,2.35321409 2.73570558,2.29935099 2.7058088,2.26085073 L2.65145075,2.19084809 L2.60912507,2.25570743 C2.5696677,2.31617035 2.50131688,2.37538696 2.4709833,2.37538696 C2.46373809,2.37538696 2.46232122,2.34354467 2.46783261,2.30462549 C2.47382106,2.26234006 2.46920416,2.22879824 2.45634246,2.2212741 C2.44451241,2.21434927 2.434833,2.21676514 2.434833,2.22664252 C2.434833,2.24942663 2.3399129,2.35710362 2.31982866,2.35710362 C2.31155271,2.35710362 2.29996804,2.32625123 2.29408231,2.2885426 C2.28819822,2.25083396 2.2781962,2.1911865 2.27185726,2.15599287 C2.26551743,2.12079774 2.27903463,2.14466522 2.30189715,2.20903005 L2.343467,2.32605594 L2.38905161,2.25473691 C2.41412262,2.21551062 2.43468094,2.17264824 2.43473461,2.15948435 C2.43473461,2.14632136 2.44326922,2.1404899 2.45357998,2.14652382 C2.46388881,2.15255818 2.47823804,2.19971008 2.48546402,2.25130416 L2.49860479,2.3451136 L2.54876471,2.29011749 C2.5763537,2.25987037 2.6086805,2.2193754 2.62060403,2.20012751 C2.64187794,2.16578513 2.64308252,2.16581345 2.68539926,2.20170091 C2.70911364,2.22181199 2.74557297,2.26991607 2.76641753,2.30859821 C2.78726507,2.34728035 2.80711078,2.37607542 2.81052176,2.3725884 C2.81393095,2.36910005 2.82156988,2.32922362 2.82749914,2.28397295 C2.83342572,2.23872378 2.83871722,2.20002226 2.8392557,2.1979709 C2.84220542,2.18675849 2.99034966,2.28305461 3.04516687,2.33181316 C3.08039629,2.36315305 3.11385462,2.38440608 3.11951822,2.37904363 C3.12518227,2.37367983 3.12981542,2.32744359 3.12981542,2.27629526 C3.12981542,2.19703318 3.12141394,2.17578908 3.07293343,2.13245411 C3.01719042,2.08262814 3.01563102,2.08235383 2.99503543,2.11880139 C2.96830366,2.16610491 2.93676848,2.1667877 2.93676848,2.12006262 C2.93676848,2.08596026 2.83142908,1.95488047 2.80402494,1.95488047 C2.79692077,1.95488047 2.77473642,1.98367554 2.75472225,2.01887066 C2.73470956,2.0540643 2.71318818,2.08282657 2.70689694,2.08278781 C2.67987595,2.08262233 2.53136855,1.91705406 2.53144309,1.88716325 C2.53144309,1.86339222 2.54145077,1.86947027 2.567485,1.90916915 C2.58726661,1.93933576 2.62678509,1.98437026 2.65529989,2.00924597 C2.71304059,2.05961609 2.73403124,2.04736757 2.75631294,1.95030517 C2.76266038,1.92265206 2.77369285,1.90002748 2.78082788,1.90002748 C2.80551277,1.90002748 2.9347842,2.03732694 2.95297213,2.08286086 L2.97122565,2.12856771 L2.98505161,2.07829002 C3.00195743,2.01680887 3.02061049,2.01452196 3.04760316,2.07062351 C3.05887759,2.0940591 3.11456753,2.14278485 3.17135709,2.17890131 L3.27461084,2.24456717 L3.29533315,2.17851966 C3.30673057,2.14219449 3.32182938,2.12132012 3.3288854,2.1321315 C3.33940831,2.14825465 3.31256845,2.25769826 3.29231872,2.28124268 C3.28928402,2.28477203 3.2558251,2.26528352 3.2179644,2.23793603 L3.14913055,2.18821293 L3.14885922,2.27722643 C3.14866691,2.32618325 3.14335737,2.38475136 3.13695418,2.40737594 C3.12443492,2.45161435 3.09120708,2.46405817 3.09120708,2.42450837 L3.09120201,2.42451016 Z" id="Path"></path>
                <path d="M2.57642407,1.71488289 C2.45370924,1.61242672 2.43508003,1.58898219 2.43779778,1.54042788 L2.44068981,1.48874435 L2.44869548,1.53866425 C2.45337112,1.56781264 2.48605229,1.61149496 2.52724049,1.64365032 L2.59778281,1.69871651 L2.6411297,1.64857895 C2.66497228,1.62100337 2.68479116,1.58815777 2.6851743,1.57558872 C2.68617762,1.54281318 2.69205828,1.54556522 2.77514043,1.61765352 C2.84895806,1.68170334 2.85010897,1.68200896 2.86108732,1.64050769 C2.86720696,1.61737175 2.86503515,1.57381465 2.85626126,1.54371512 C2.83214139,1.46097646 2.83686727,1.44848941 2.87341605,1.49838992 C2.89162485,1.52325222 2.92090443,1.55839964 2.93848112,1.57649364 C2.96907709,1.60799304 2.97094359,1.60760394 2.98232893,1.56735197 C2.98886943,1.54422945 2.99433848,1.50190824 2.99448324,1.473304 L2.99475457,1.42129696 L3.06131194,1.49674257 C3.12348185,1.56721631 3.12920955,1.56981927 3.14818463,1.53624018 C3.15935828,1.51646901 3.16863263,1.46889864 3.16879364,1.43052957 C3.16900533,1.380963 3.17422601,1.36845657 3.18683248,1.38733027 C3.20788426,1.41884607 3.19326862,1.5046573 3.15439536,1.57778171 L3.12649925,1.63025685 L3.08986847,1.57321236 C3.04303158,1.50026983 3.02743916,1.50144161 2.99738436,1.58015687 C2.96898138,1.65454549 2.95051169,1.6602076 2.92283623,1.60301104 C2.90492708,1.56599563 2.90151759,1.57053069 2.88880542,1.64829301 L2.87467609,1.73471101 L2.79002024,1.66901383 L2.7053629,1.60331666 L2.66730541,1.64658454 C2.64637289,1.6703824 2.6289587,1.70013755 2.62860538,1.7127066 C2.62783463,1.73994973 2.6074716,1.74079949 2.57643436,1.71488647 L2.57642407,1.71488289 Z" id="Path"></path>
                <path d="M3.66799779,1.33323461 C3.62333003,1.29299307 3.59255964,1.25460015 3.59961864,1.24791534 C3.60667645,1.24123083 3.61462368,1.23931618 3.61727882,1.24366026 C3.61993336,1.24800434 3.65644398,1.28639891 3.69841486,1.32897953 C3.79505238,1.42702288 3.7751858,1.42980176 3.66799779,1.33323475 L3.66799779,1.33323461 Z" id="Path"></path>
                <path d="M2.21400728,1.18296059 C2.17337516,1.12802113 2.17618087,1.09162292 2.2256401,1.03207535 C2.26138087,0.989044506 2.27770677,0.983204989 2.3401167,0.991133135 C2.380151,0.99621845 2.46629618,1.03159083 2.53155207,1.06973628 C2.60692015,1.11379281 2.68488225,1.14330644 2.7452602,1.15064274 C2.79754154,1.15699494 2.84031895,1.15938979 2.84031895,1.15596479 C2.84031895,1.15253995 2.81860078,1.11715593 2.79205684,1.07733332 C2.72902077,0.98276654 2.73117947,0.972617081 2.80227666,1.02927396 C2.87525795,1.08743358 2.96255404,1.10444227 3.157627,1.09851331 L3.25293471,1.09561651 L3.19764341,1.04095881 C3.1203164,0.964520324 3.14411426,0.957667053 3.22950955,1.03178226 C3.30959904,1.10129293 3.30458395,1.10618876 3.13601318,1.12301408 C3.06438257,1.13016373 2.98735074,1.12497749 2.9233188,1.10869512 C2.82752508,1.08433224 2.82380699,1.08470345 2.84195318,1.11681573 C2.85241243,1.13532269 2.86935135,1.15046488 2.87959324,1.15046488 C2.88983826,1.15046488 2.89822096,1.15984329 2.89822096,1.17130497 C2.89822096,1.20655376 2.69131094,1.17555736 2.59244018,1.12549674 C2.36656701,1.01113344 2.33813719,1.00122997 2.28437845,1.01817157 C2.2544623,1.02759873 2.22451782,1.05519295 2.2141999,1.08284456 C2.17977552,1.17508567 2.31059292,1.24678933 2.36454845,1.1652463 C2.38018708,1.14161243 2.37653459,1.12544754 2.34904846,1.09668676 C2.3114084,1.057295 2.31493864,1.05168208 2.36575302,1.07014879 C2.40182922,1.08325975 2.40668331,1.16987229 2.37312346,1.20165644 C2.33472457,1.23802186 2.24709604,1.22772779 2.21399401,1.18296164 L2.21400728,1.18296059 Z" id="Path"></path>
                <path d="M3.10372484,0.955164276 C3.07547989,0.928413116 3.09762264,0.921862481 3.22425265,0.919501033 C3.38090734,0.916580081 3.47605107,0.890474892 3.58830933,0.819607576 C3.67825459,0.762825468 3.70263983,0.773999116 3.61726689,0.832875221 C3.53938381,0.886584763 3.4179153,0.927874336 3.30063299,0.940498546 C3.24384343,0.946611776 3.17912423,0.955080194 3.15680973,0.959317086 C3.13449672,0.963554127 3.11060793,0.961685542 3.10372186,0.955164872 L3.10372484,0.955164276 Z" id="Path"></path>
            </g>
            <circle id="Oval-48" fill="#FFBE29" cx="6.5" cy="1.5" r="1"></circle>
            <circle id="Oval-48-Copy" fill="#FFBE29" cx="14.5" cy="1.5" r="1"></circle>
            <circle id="Oval-48-Copy-3" fill="#FFBE29" cx="6.5" cy="10.5" r="1"></circle>
            <circle id="Oval-48-Copy-2" fill="#FFBE29" cx="14.5" cy="10.5" r="1"></circle>
            <g id="Overlay" opacity="0" stroke="#000000" stroke-opacity="0.503742351">
                <g>
                    <rect style="mix-blend-mode: multiply;" x="0.5" y="0.5" width="15" height="11"></rect>
                </g>
            </g>
        </g>
    </g>
</svg>