<?xml version="1.0" encoding="UTF-8"?>
<svg width="16px" height="12px" viewBox="0 0 16 12" version="1.1" xmlns="http://www.w3.org/2000/svg" xmlns:xlink="http://www.w3.org/1999/xlink">
    <title>MH</title>
    <defs>
        <rect id="path-1" x="0" y="0" width="16" height="12"></rect>
    </defs>
    <g id="MH" stroke="none" stroke-width="1" fill="none" fill-rule="evenodd">
        <g id="Marshall-Islands">
            <mask id="mask-2" fill="white">
                <use xlink:href="#path-1"></use>
            </mask>
            <use id="Rectangle-77" fill="#FFFFFF" xlink:href="#path-1"></use>
            <rect id="Rectangle-119-Copy" fill="#003893" mask="url(#mask-2)" x="0" y="0" width="16" height="12"></rect>
            <g id="Group-7" mask="url(#mask-2)">
                <g transform="translate(7.814622, 6.461416) rotate(-25.000000) translate(-7.814622, -6.461416) translate(-3.185378, 4.461416)">
                    <polygon id="Rectangle-58" fill="#DD7500" points="22 0 22 2 1.24344979e-14 2 0 1"></polygon>
                    <polygon id="Rectangle-58-Copy" fill="#FFFFFF" transform="translate(11.000000, 3.000000) scale(1, -1) translate(-11.000000, -3.000000) " points="22 2 22 4 1.24344979e-14 4 0 3"></polygon>
                </g>
            </g>
            <g id="Group-11" mask="url(#mask-2)" fill="#FFFFFF">
                <circle id="Oval-56" cx="3.5" cy="3.5" r="1.5"></circle>
                <g id="Group-10" transform="translate(3.000000, 0.000000)">
                    <polygon id="Rectangle-59" points="0.5 0 1 2.5 0 2.5"></polygon>
                    <polygon id="Rectangle-59-Copy" transform="translate(0.500000, 5.750000) scale(1, -1) translate(-0.500000, -5.750000) " points="0.5 4.5 1 7 0 7"></polygon>
                </g>
                <g id="Group-10-Copy" transform="translate(3.500000, 3.500000) rotate(90.000000) translate(-3.500000, -3.500000) translate(3.000000, 0.000000)">
                    <polygon id="Rectangle-59" points="0.5 0 1 2.5 0 2.5"></polygon>
                    <polygon id="Rectangle-59-Copy" transform="translate(0.500000, 5.750000) scale(1, -1) translate(-0.500000, -5.750000) " points="0.5 4.5 1 7 0 7"></polygon>
                </g>
            </g>
            <g id="Overlay" mask="url(#mask-2)" opacity="0" stroke="#000000" stroke-opacity="0.503742351">
                <g>
                    <rect style="mix-blend-mode: multiply;" x="0.5" y="0.5" width="15" height="11"></rect>
                </g>
            </g>
        </g>
    </g>
</svg>