<?xml version="1.0" encoding="UTF-8"?>
<svg width="16px" height="12px" viewBox="0 0 16 12" version="1.1" xmlns="http://www.w3.org/2000/svg" xmlns:xlink="http://www.w3.org/1999/xlink">
    <title>MN</title>
    <defs>
        <rect id="path-1" x="0" y="0" width="16" height="12"></rect>
    </defs>
    <g id="MN" stroke="none" stroke-width="1" fill="none" fill-rule="evenodd">
        <g id="Mongolia">
            <mask id="mask-2" fill="white">
                <use xlink:href="#path-1"></use>
            </mask>
            <use id="Rectangle-77" fill="#FFFFFF" xlink:href="#path-1"></use>
            <rect id="Rectangle-119-Copy" fill="#C4272F" mask="url(#mask-2)" x="0" y="0" width="16" height="12"></rect>
            <rect id="Rectangle-39" fill="#015197" mask="url(#mask-2)" x="5" y="0" width="6" height="12"></rect>
            <g id="decoration" mask="url(#mask-2)" fill="#F9CF02">
                <g transform="translate(1.000000, 2.000000)">
                    <polygon id="Rectangle-40" points="-1.137e-13 4 1 4 1 8 -1.137e-13 8"></polygon>
                    <polygon id="Rectangle-40-Copy" points="2 4 3 4 3 8 2 8"></polygon>
                    <circle id="Oval-43" cx="1.5" cy="3.5" r="1"></circle>
                    <circle id="Oval-43-Copy-2" cx="1.5" cy="2.5" r="1"></circle>
                    <circle id="Oval-43-Copy-3" cx="1.5" cy="1.5" r="1"></circle>
                    <circle id="Oval-43-Copy-8" cx="1.5" cy="0.5" r="1"></circle>
                    <circle id="Oval-43-Copy" cx="1.5" cy="7.5" r="1"></circle>
                    <circle id="Oval-43-Copy-5" cx="1.5" cy="6.5" r="1"></circle>
                    <circle id="Oval-43-Copy-6" cx="1.5" cy="5.5" r="1"></circle>
                    <circle id="Oval-43-Copy-7" cx="1.5" cy="4.5" r="1"></circle>
                </g>
            </g>
            <g id="Overlay" mask="url(#mask-2)" opacity="0" stroke="#000000" stroke-opacity="0.503742351">
                <g>
                    <rect style="mix-blend-mode: multiply;" x="0.5" y="0.5" width="15" height="11"></rect>
                </g>
            </g>
        </g>
    </g>
</svg>