<?xml version="1.0" encoding="UTF-8"?>
<svg width="16px" height="12px" viewBox="0 0 16 12" version="1.1" xmlns="http://www.w3.org/2000/svg" xmlns:xlink="http://www.w3.org/1999/xlink">
    <title>MP</title>
    <defs>
        <rect id="path-1" x="0" y="0" width="16" height="12"></rect>
        <linearGradient x1="50%" y1="100%" x2="50%" y2="0%" id="linearGradient-3">
            <stop stop-color="#F7DF73" offset="0%"></stop>
            <stop stop-color="#DE2010" offset="100%"></stop>
        </linearGradient>
    </defs>
    <g id="MP" stroke="none" stroke-width="1" fill="none" fill-rule="evenodd">
        <g>
            <mask id="mask-2" fill="white">
                <use xlink:href="#path-1"></use>
            </mask>
            <use id="Rectangle-77" fill="#FFFFFF" xlink:href="#path-1"></use>
            <rect id="Rectangle-119-Copy" fill="#0071BC" mask="url(#mask-2)" x="0" y="0" width="16" height="12"></rect>
            <circle id="Oval" stroke="#FFFFFF" stroke-width="1.5" mask="url(#mask-2)" cx="8" cy="6" r="4.25"></circle>
            <circle id="Oval-Copy" stroke="url(#linearGradient-3)" stroke-width="0.5" mask="url(#mask-2)" cx="8" cy="6" r="4.25"></circle>
            <path d="M8.59501244,5.75 L7.40498756,5.75 C7.08389291,5.75 6.78891884,5.87165453 6.56623091,6.07318433 C6.34354298,6.27471414 6.19314119,6.55611923 6.16119107,6.87562035 L5.855053,9.98706571 C5.85150998,10.3373672 5.99207648,10.6548559 6.22110409,10.8838835 C6.44730959,11.110089 6.75980959,11.25 7.10498756,11.25 L9.0066513,11.2450062 C9.35550933,11.213643 9.65738379,11.0421948 9.86245906,10.7915472 C10.0650337,10.5439561 10.1731554,10.2190853 10.1388089,9.87562035 L9.83880893,6.87562035 C9.80685881,6.55611923 9.65645702,6.27471414 9.43376909,6.07318433 C9.21108116,5.87165453 8.91610709,5.75 8.59501244,5.75 Z" id="Rectangle-126-Copy" stroke="#000000" stroke-width="0.5" fill="#8C8A8C" mask="url(#mask-2)"></path>
            <path d="M8.31953958,2.75 L7.49428332,2.76393902 C7.14527426,2.81663678 6.85273993,3.00822738 6.66329358,3.27345226 C6.4773538,3.53376795 6.39072111,3.86501728 6.44746802,4.20549873 L6.61413468,5.20549873 C6.66753016,5.52587162 6.83748884,5.80180159 7.13195796,5.9922289 C7.37622262,6.15018998 7.71322453,6.25 8.15287291,6.25 C8.45839738,6.25 8.74153153,6.13955842 8.96084153,5.95377498 C9.18015154,5.76799153 9.3356374,5.50686622 9.38586532,5.20549873 L9.56937881,4.02027803 C9.57497612,3.66707151 9.43405007,3.34674354 9.20342305,3.11611652 C8.97721755,2.88991102 8.66471755,2.75 8.31953958,2.75 Z" id="Rectangle-126" stroke="#000000" stroke-width="0.5" fill="#8C8A8C" mask="url(#mask-2)"></path>
            <polygon id="Star-2" fill="#FFFFFF" mask="url(#mask-2)" points="8 7.20459722 6.14589803 8.52633879 6.82999995 6.35454243 5 4.99962728 7.2769002 4.97912488 8 2.81999969 8.7230998 4.97912488 11 4.99962728 9.17000005 6.35454243 9.85410197 8.52633879"></polygon>
            <g id="Overlay" mask="url(#mask-2)" opacity="0" stroke="#000000" stroke-opacity="0.503742351">
                <g>
                    <rect style="mix-blend-mode: multiply;" x="0.5" y="0.5" width="15" height="11"></rect>
                </g>
            </g>
        </g>
    </g>
</svg>