<?xml version="1.0" encoding="UTF-8"?>
<svg width="16px" height="12px" viewBox="0 0 16 12" version="1.1" xmlns="http://www.w3.org/2000/svg" xmlns:xlink="http://www.w3.org/1999/xlink">
    <title>Netherlands Antilles</title>
    <defs>
        <rect id="path-1" x="0" y="0" width="16" height="12"></rect>
    </defs>
    <g id="Netherlands-Antilles" stroke="none" stroke-width="1" fill="none" fill-rule="evenodd">
        <g>
            <mask id="mask-2" fill="white">
                <use xlink:href="#path-1"></use>
            </mask>
            <use id="Rectangle-77" fill="#FFFFFF" xlink:href="#path-1"></use>
            <rect id="Rectangle-119-Copy" fill="#FFFFFF" mask="url(#mask-2)" x="0" y="0" width="16" height="12"></rect>
            <rect id="Rectangle-119-Copy-24" fill="#DC171D" mask="url(#mask-2)" x="6" y="0" width="4" height="12"></rect>
            <rect id="Rectangle-119-Copy-21" fill="#00007B" mask="url(#mask-2)" x="0" y="4" width="16" height="4"></rect>
            <path d="M8.68966125,6.65580093 C8.92156199,6.48731518 9.2105369,6.48972057 9.33510477,6.66117353 C9.45967263,6.83262649 9.37266214,7.10820127 9.1407614,7.27668702 C8.90886066,7.44517277 8.61988575,7.44276738 8.49531788,7.27131442 C8.37075002,7.09986146 8.45776051,6.82428668 8.68966125,6.65580093 Z M6.66489523,6.66117353 C6.7894631,6.48972057 7.07843801,6.48731518 7.31033875,6.65580093 C7.54223949,6.82428668 7.62924998,7.09986146 7.50468212,7.27131442 C7.38011425,7.44276738 7.09113934,7.44517277 6.8592386,7.27668702 C6.62733786,7.10820127 6.54032737,6.83262649 6.66489523,6.66117353 Z M9.32045801,5.18556441 C9.52201305,5.12007521 9.75721252,5.28798439 9.84579072,5.56060007 C9.93436892,5.83321574 9.8427831,6.1073039 9.64122805,6.1727931 C9.43967301,6.23828231 9.20447354,6.07037312 9.11589534,5.79775745 C9.02731714,5.52514178 9.11890296,5.25105362 9.32045801,5.18556441 Z M6.61135817,5.17220253 L6.67954199,5.18556441 C6.88109704,5.25105362 6.97268286,5.52514178 6.88410466,5.79775745 C6.79552646,6.07037312 6.56032699,6.23828231 6.35877195,6.1727931 C6.1572169,6.1073039 6.06563108,5.83321574 6.15420928,5.56060007 C6.24278748,5.28798439 6.47798695,5.12007521 6.67954199,5.18556441 Z M8,4.5 C8.28664508,4.5 8.51901684,4.67180119 8.51901684,4.88372871 C8.51901684,5.09565622 8.28664508,5.26745742 8,5.26745742 C7.71335492,5.26745742 7.48098316,5.09565622 7.48098316,4.88372871 C7.48098316,4.67180119 7.71335492,4.5 8,4.5 Z" id="Oval-33" fill="#FFFFFF" mask="url(#mask-2)"></path>
            <g id="Overlay" mask="url(#mask-2)" opacity="0" stroke="#000000" stroke-opacity="0.503742351">
                <g>
                    <rect style="mix-blend-mode: multiply;" x="0.5" y="0.5" width="15" height="11"></rect>
                </g>
            </g>
        </g>
    </g>
</svg>