<?xml version="1.0" encoding="UTF-8"?>
<svg width="16px" height="12px" viewBox="0 0 16 12" version="1.1" xmlns="http://www.w3.org/2000/svg" xmlns:xlink="http://www.w3.org/1999/xlink">
    <title>RS</title>
    <defs>
        <rect id="path-1" x="0" y="0" width="16" height="12"></rect>
    </defs>
    <g id="RS" stroke="none" stroke-width="1" fill="none" fill-rule="evenodd">
        <g id="Serbia">
            <mask id="mask-2" fill="white">
                <use xlink:href="#path-1"></use>
            </mask>
            <use id="Rectangle-77" fill="#FFFFFF" xlink:href="#path-1"></use>
            <rect id="Rectangle-74" fill="#C6363C" mask="url(#mask-2)" x="0" y="0" width="16" height="4"></rect>
            <rect id="Rectangle-77" fill="#FFFFFF" mask="url(#mask-2)" x="0" y="8" width="16" height="4"></rect>
            <rect id="Rectangle-78" fill="#0C4076" mask="url(#mask-2)" x="0" y="4" width="16" height="4"></rect>
            <path d="M5.75,4.25 L2.25033074,4.25 L2.25547316,8.13958729 C2.29098692,8.59043568 2.49749521,8.99315563 2.8099984,9.2831317 C3.12224776,9.57287224 3.54044217,9.75 4,9.75 C4.48324916,9.75 4.92074916,9.55412458 5.23743687,9.23743687 C5.55412458,8.92074916 5.75,8.48324916 5.75,8 L5.75,4.25 Z" id="Combined-Shape" stroke="#FFFFFF" stroke-width="0.5" fill="#C6363C" mask="url(#mask-2)"></path>
            <polygon id="Rectangle-178" fill="#FFFFFF" mask="url(#mask-2)" points="3 5 5 5 5 6 4.5 7.5 5 9 3 9 3.49872752 7.5 3 6"></polygon>
            <path d="M3.27302932,3.71679796 L2.86096549,3.5 L3.70832912,3.5 L3.22832966,3.85999813 C3.24272016,3.81066 3.25653179,3.76235117 3.26976625,3.71508116 C3.29093468,3.63942404 3.31010293,3.56843633 3.32788026,3.5 C3.43774218,3.07707089 3.49448301,2.75158198 3.49961679,2.53200099 C3.29938939,2.5851986 3.03262186,2.70507147 2.70769777,2.89423084 L3.27302932,3.71679796 Z M1.30022276,2.61185454 L1.72334516,2.33079263 C2.54932418,1.78213049 3.19429185,1.5 3.70832912,1.5 C4.68389039,1.5 4.68389039,2.44095736 4.18832857,4.14000187 L4.0833276,4.5 L2.59790193,4.5 L1.30022276,2.61185454 Z" id="Path-20" fill="#EDB92E" fill-rule="nonzero" mask="url(#mask-2)"></path>
            <path d="M5.27302932,3.71679796 L4.86096549,3.5 L5.70832912,3.5 L5.22832966,3.85999813 C5.24272016,3.81066 5.25653179,3.76235117 5.26976625,3.71508116 C5.29093468,3.63942404 5.31010293,3.56843633 5.32788026,3.5 C5.43774218,3.07707089 5.49448301,2.75158198 5.49961679,2.53200099 C5.29938939,2.5851986 5.03262186,2.70507147 4.70769777,2.89423084 L5.27302932,3.71679796 Z M3.30022276,2.61185454 L3.72334516,2.33079263 C4.54932418,1.78213049 5.19429185,1.5 5.70832912,1.5 C6.68389039,1.5 6.68389039,2.44095736 6.18832857,4.14000187 L6.0833276,4.5 L4.59790193,4.5 L3.30022276,2.61185454 Z" id="Path-20-Copy" fill="#EDB92E" fill-rule="nonzero" mask="url(#mask-2)" transform="translate(4.907588, 3.000000) scale(-1, 1) translate(-4.907588, -3.000000) "></path>
            <g id="Overlay" mask="url(#mask-2)" opacity="0" stroke="#000000" stroke-opacity="0.503742351">
                <g>
                    <rect style="mix-blend-mode: multiply;" x="0.5" y="0.5" width="15" height="11"></rect>
                </g>
            </g>
        </g>
    </g>
</svg>