<svg xmlns="http://www.w3.org/2000/svg" viewBox="0 0 1194 442"><defs><style>.a{fill:none;}.b{fill:#1d1805;}.c{fill:#fff;}.d{font-size:43.14px;fill:#1d1d1b;}.d,.g{font-family:GothamRounded-Bold, Gotham Rounded;font-weight:700;}.e{letter-spacing:-0.02em;}.f{letter-spacing:-0.02em;}.g{font-size:200px;letter-spacing:-0.07em;}.h{fill:#ed6b06;}</style></defs><title>logo eduVPN alle onderdelen 3</title><rect class="a" width="1194" height="442"/><path class="b" d="M1156.58,374.8a17.66,17.66,0,0,1,17.66,17.66v11.28a17.66,17.66,0,0,1-17.66,17.66h-26.37a17.66,17.66,0,0,1-17.66-17.66v-7a22,22,0,0,0-22-22H965.17a22,22,0,0,1-22-22V325.64a22,22,0,0,1,22-22h125.41a22,22,0,0,1,22,22v27.18a22,22,0,0,0,22,22Z" transform="translate(-3.36 0.34)"/><path class="c" d="M981.05,345.75c0-1.65-2.07-2.33-4.74-3.13L971,341c-3.85-1.14-7.23-3.85-7.23-8.59,0-5.71,5.12-9.6,12.06-9.6,5.37,0,11.71,1.86,11.71,5.29,0,2.11-1.06,3.43-3,3.43a9.13,9.13,0,0,1-2.92-.68,15.65,15.65,0,0,0-5.79-1.18c-2,0-4.57.8-4.57,2.41,0,1.44,1.14,2.11,3.64,2.87l6,1.82c4,1.23,7.7,3.64,7.7,9.18,0,5.92-5.54,9.73-12.65,9.73-6,0-12.94-1.86-12.94-5.29a3.11,3.11,0,0,1,3.34-3.43,10.13,10.13,0,0,1,3.25.68,18,18,0,0,0,6.35,1.18C978.31,348.83,981.05,347.73,981.05,345.75Z" transform="translate(-3.36 0.34)"/><path class="c" d="M1017.3,326.63c0-2.41,1.27-3.64,3.64-3.64s3.68,1.23,3.68,3.64v14c0,9.18-6.13,15.1-14.51,15.1s-14.46-5.92-14.46-15.1v-14c0-2.41,1.27-3.64,3.64-3.64s3.68,1.23,3.68,3.64v14c0,4.95,3,7.91,7.15,7.91s7.19-3,7.19-7.91Z" transform="translate(-3.36 0.34)"/><path class="c" d="M1047.2,345.41h-6.68v6.47c0,2.41-1.27,3.64-3.68,3.64s-3.64-1.23-3.64-3.64v-25c0-2.41,1.27-3.64,3.64-3.64h10.49c7,0,11.88,4.61,11.88,11.25a9.44,9.44,0,0,1-5,8.8l3.39,6.77a4.22,4.22,0,0,1,.46,1.95c0,2.11-2.41,3.47-4.23,3.47-1.35,0-2.32-.8-3-2.32Zm-6.68-15.14v8.5h6.17c2.79,0,5-1.27,5-4.23s-2.19-4.27-5-4.27Z" transform="translate(-3.36 0.34)"/><path class="c" d="M1074.43,344v7.87c0,2.41-1.22,3.64-3.63,3.64s-3.64-1.23-3.64-3.64v-25c0-2.41,1.27-3.64,3.64-3.64h17.51c2.32,0,3.47,1.19,3.47,3.47s-1.14,3.51-3.47,3.51h-13.88V337h8.67c2.33,0,3.47,1.18,3.47,3.51s-1.14,3.47-3.47,3.47Z" transform="translate(-3.36 0.34)"/><text class="d" transform="translate(596.99 355.58)">P<tspan class="e" x="28.82" y="0">O</tspan><tspan x="64.62" y="0">WERED </tspan><tspan class="f" x="247.65" y="0">B</tspan><tspan x="277.72" y="0">Y</tspan></text><text class="g" transform="translate(382 273)">eduVPN</text><path class="h" d="M262.64,180.76a66.47,66.47,0,0,1-38-11.94,65.81,65.81,0,0,1-37.83,11.94,66.87,66.87,0,0,1-8.59-.55,97.32,97.32,0,0,1-37.88-15.75v27.12h0v84.17c25,56.37,84.06,79.75,84.06,79.75s57.94-23.38,83.94-79.75V202.23h0V165a99.71,99.71,0,0,1-37.11,15.2A67.1,67.1,0,0,1,262.64,180.76Zm31.72,96.54c-28,40.85-70,62-70,62V184.5A66.61,66.61,0,0,0,271,196a91.32,91.32,0,0,0,23.38-7.51Z" transform="translate(-3.36 0.34)"/><path class="h" d="M224.41,38.47,91.13,69.12l49.23,14.4v29.3a121.34,121.34,0,0,1,24.2-2.65c19.22,0,40,5.55,60.11,22.7,19.34-16.51,41.22-21,59.81-21a140.86,140.86,0,0,1,23.88,2.2V83.52l49.18-14.4Z" transform="translate(-3.36 0.34)"/><path class="c" d="M224.36,184.5V339.29s42-21.14,70-62V188.45A91.32,91.32,0,0,1,271,196,66.61,66.61,0,0,1,224.36,184.5Z" transform="translate(-3.36 0.34)"/><path d="M361.43,51.58l-133-30.65-4-.93-4,.93L87.23,51.58,20,67.06,81.36,85V119.9l32,10V94.32l9,2.7V279.58l1.7,3.5c27.79,62.33,90.95,88.07,93.62,89.14l6.71,2.66,6.69-2.67c2.67-1.07,65.79-26.81,93.57-89.13l1.72-3.5V97L362.58,86.4l66.13-19.33ZM128.18,133.82l0,0-.17-.16.23.16,16-3.37a98.29,98.29,0,0,1,20.37-2.27c18,0,33.87,6,48.36,18.33l4.95,4.16h0l-4.41,3.91a48.89,48.89,0,0,1-26.75,8.16,47.06,47.06,0,0,1-6-.37A78.81,78.81,0,0,1,151,149.72L128.28,133.8Zm180.18,68.4h0v73.52c-26,56.37-83.94,79.75-83.94,79.75s-59.06-23.38-84.06-79.75V191.59h0V164.45a97.32,97.32,0,0,0,37.88,15.75,66,66,0,0,0,46.39-11.39,66.55,66.55,0,0,0,38,11.94,67.23,67.23,0,0,0,8.62-.55A99.72,99.72,0,0,0,308.36,165Zm12.51-67.65-23,15.58a79.65,79.65,0,0,1-29.3,12.23,47.07,47.07,0,0,1-5.95.38,49.57,49.57,0,0,1-27-8.19L231.26,151h0l5.17-4.41c13.14-11.22,28.82-16.68,47.94-16.68a117.91,117.91,0,0,1,20.58,1.93l15.92,2.76h0ZM308.36,83.52v30.56a140.43,140.43,0,0,0-23.85-2.2c-18.59,0-40.36,4.48-59.7,21-20.09-17.15-41-22.7-60.22-22.7a121.71,121.71,0,0,0-24.24,2.65V83.52L91.13,69.12,224.34,38.47,357.5,69.12Z" transform="translate(-3.36 0.34)"/><path class="c" d="M320.87,134.57l-23,15.58a79.52,79.52,0,0,1-29.3,12.23,47.42,47.42,0,0,1-5.95.38,49.5,49.5,0,0,1-27-8.19l-4.41-3.6,5.17-4.42c13.14-11.22,28.82-16.67,47.93-16.67a117.76,117.76,0,0,1,20.59,1.93Z" transform="translate(-3.36 0.34)"/><path class="c" d="M218,150.66l-4.41,3.91a48.89,48.89,0,0,1-26.75,8.16,45.74,45.74,0,0,1-6-.37A78.55,78.55,0,0,1,151,149.72L128.28,133.8l16-3.37a98.65,98.65,0,0,1,20.37-2.26c18,0,33.87,6,48.36,18.33Z" transform="translate(-3.36 0.34)"/></svg>
