<?xml version="1.0" encoding="UTF-8"?>
<svg width="90px" height="51px" viewBox="0 0 90 51" version="1.1" xmlns="http://www.w3.org/2000/svg" xmlns:xlink="http://www.w3.org/1999/xlink">
    <title>Logo/Android</title>
    <g id="Logo/Android" stroke="none" stroke-width="1" fill="none" fill-rule="evenodd">
        <g id="Android_logo_2019" fill="#16A566" fill-rule="nonzero">
            <path d="M66.8601988,15.1720604 L74.3091861,2.26829881 C74.729537,1.54490939 74.4753736,0.626002625 73.7617518,0.205651693 C73.0481367,-0.214692447 72.1194556,0.0296932068 71.7088824,0.753086018 L64.1621381,13.8230351 C58.404322,11.1934016 51.9231199,9.72706729 44.9531261,9.72706729 C37.9831391,9.72706729 31.5019337,11.1934016 25.7441176,13.8230351 L18.1973733,0.753086018 C17.7770223,0.0296932068 16.8581189,-0.214692447 16.1347261,0.205651693 C15.4113299,0.626002625 15.1669409,1.54490939 15.5872918,2.26829881 L23.0362826,15.1720604 C10.1911749,22.1322764 1.49090838,35.1337915 0.0539004891,50.354367 L89.8523555,50.354367 C88.4153442,35.1337915 79.715075,22.1322764 66.8601988,15.1720604 Z M24.3364327,37.7438696 C22.2542335,37.7438696 20.5728366,36.0526949 20.5728366,33.9802768 C20.5728366,31.8980742 22.2640113,30.2166807 24.3364327,30.2166807 C26.4186319,30.2166807 28.1000747,31.907852 28.1000747,33.9802768 C28.1098473,36.0526949 26.4186319,37.7438696 24.3364327,37.7438696 Z M65.5600452,37.7438696 C63.4778494,37.7438696 61.7964423,36.0526949 61.7964423,33.9802768 C61.7964423,31.8980742 63.4876204,30.2166807 65.5600452,30.2166807 C67.6422478,30.2166807 69.3236835,31.907852 69.3236835,33.9802768 C69.3334225,36.0526949 67.6422478,37.7438696 65.5600452,37.7438696 Z" id="path80319"></path>
        </g>
    </g>
</svg>