<?xml version="1.0" encoding="UTF-8"?>
<svg width="440px" height="130px" viewBox="0 0 440 130" version="1.1" xmlns="http://www.w3.org/2000/svg" xmlns:xlink="http://www.w3.org/1999/xlink">
    <title>Logo/eduVPN-Logo</title>
    <defs>
        <polygon id="path-1" points="0 0.024 138.357884 0.024 138.357884 129 0 129"></polygon>
    </defs>
    <g id="Logo/eduVPN-Logo" stroke="none" stroke-width="1" fill="none" fill-rule="evenodd">
        <g id="Group-22">
            <path d="M161.4048,62.2159 C158.8148,62.2159 156.7848,63.0369 155.3158,64.6799 C153.8458,66.3219 153.0058,68.6529 152.7928,71.6709 L169.9388,71.6709 C169.8838,68.6529 169.0968,66.3219 167.5738,64.6799 C166.0518,63.0369 163.9948,62.2159 161.4048,62.2159 M163.1278,99.9539 C155.9168,99.9539 150.2808,97.9649 146.2218,93.9849 C142.1618,90.0049 140.1328,84.3699 140.1328,77.0789 C140.1328,69.5739 142.0088,63.7729 145.7608,59.6729 C149.5138,55.5719 154.7008,53.5229 161.3248,53.5229 C167.6548,53.5229 172.5818,55.3249 176.1078,58.9309 C179.6328,62.5369 181.3958,67.5169 181.3958,73.8739 L181.3958,79.8029 L152.5108,79.8029 C152.6448,83.2749 153.6728,85.9859 155.5968,87.9349 C157.5198,89.8849 160.2158,90.8599 163.6888,90.8599 C166.3848,90.8599 168.9368,90.5789 171.3398,90.0189 C173.7438,89.4569 176.2538,88.5629 178.8718,87.3349 L178.8718,96.7889 C176.7348,97.8579 174.4518,98.6519 172.0208,99.1719 C169.5908,99.6939 166.6268,99.9539 163.1278,99.9539" id="Fill-1" fill="#000000"></path>
            <path d="M206.6963,90.2188 C209.8213,90.2188 212.1113,89.3108 213.5663,87.4948 C215.0223,85.6788 215.8163,82.5938 215.9503,78.2408 L215.9503,76.9178 C215.9503,72.1108 215.2093,68.6658 213.7273,66.5828 C212.2443,64.4988 209.8343,63.4578 206.4953,63.4578 C203.7713,63.4578 201.6543,64.6138 200.1473,66.9238 C198.6373,69.2338 197.8823,72.5918 197.8823,76.9988 C197.8823,81.4058 198.6443,84.7098 200.1663,86.9128 C201.6883,89.1168 203.8643,90.2188 206.6963,90.2188 M202.4103,99.9538 C197.1483,99.9538 193.0153,97.9108 190.0113,93.8238 C187.0063,89.7388 185.5043,84.0758 185.5043,76.8378 C185.5043,69.4938 187.0323,63.7728 190.0913,59.6728 C193.1493,55.5728 197.3623,53.5228 202.7303,53.5228 C208.3643,53.5228 212.6653,55.7128 215.6303,60.0928 L216.0303,60.0928 C215.4153,56.7548 215.1093,53.7768 215.1093,51.1578 L215.1093,36.8168 L227.3683,36.8168 L227.3683,99.1528 L217.9933,99.1528 L215.6303,93.3438 L215.1093,93.3438 C212.3313,97.7508 208.0983,99.9538 202.4103,99.9538" id="Fill-3" fill="#000000"></path>
            <path d="M266.7744,99.1524 L265.1314,93.4234 L264.4904,93.4234 C263.1814,95.5064 261.3254,97.1164 258.9214,98.2514 C256.5184,99.3854 253.7804,99.9534 250.7094,99.9534 C245.4474,99.9534 241.4814,98.5454 238.8114,95.7274 C236.1404,92.9094 234.8054,88.8574 234.8054,83.5694 L234.8054,54.3634 L247.0234,54.3634 L247.0234,80.5234 C247.0234,83.7564 247.5974,86.1794 248.7474,87.7944 C249.8944,89.4114 251.7234,90.2184 254.2354,90.2184 C257.6534,90.2184 260.1244,89.0764 261.6464,86.7944 C263.1684,84.5094 263.9294,80.7244 263.9294,75.4364 L263.9294,54.3634 L276.1484,54.3634 L276.1484,99.1524 L266.7744,99.1524 Z" id="Fill-5" fill="#000000"></path>
            <path d="M319.2373,40.5826 L331.7773,40.5826 L311.8673,99.1526 L298.3263,99.1526 L278.4563,40.5826 L290.9953,40.5826 L302.0113,75.4366 C302.6263,77.4936 303.2593,79.8896 303.9153,82.6266 C304.5693,85.3656 304.9763,87.2686 305.1353,88.3356 C305.4293,85.8786 306.4313,81.5796 308.1403,75.4366 L319.2373,40.5826 Z" id="Fill-7" fill="#E24301"></path>
            <path d="M348.4648,68.1446 L352.5518,68.1446 C356.3698,68.1446 359.2278,67.3906 361.1248,65.8806 C363.0208,64.3726 363.9688,62.1756 363.9688,59.2906 C363.9688,56.3806 363.1728,54.2306 361.5848,52.8416 C359.9958,51.4536 357.5048,50.7586 354.1128,50.7586 L348.4648,50.7586 L348.4648,68.1446 Z M376.5078,58.8516 C376.5078,65.1546 374.5378,69.9756 370.5988,73.3126 C366.6578,76.6516 361.0568,78.3206 353.7928,78.3206 L348.4648,78.3206 L348.4648,99.1526 L336.0458,99.1526 L336.0458,40.5826 L354.7548,40.5826 C361.8588,40.5826 367.2598,42.1116 370.9588,45.1696 C374.6578,48.2286 376.5078,52.7886 376.5078,58.8516 L376.5078,58.8516 Z" id="Fill-9" fill="#E24301"></path>
            <path d="M434.4219,99.1524 L418.6379,99.1524 L393.1589,54.8444 L392.7979,54.8444 C393.3059,62.6714 393.5599,68.2514 393.5599,71.5904 L393.5599,99.1524 L382.4629,99.1524 L382.4629,40.5824 L398.1259,40.5824 L423.5659,84.4494 L423.8459,84.4494 C423.4449,76.8384 423.2449,71.4564 423.2449,68.3054 L423.2449,40.5824 L434.4219,40.5824 L434.4219,99.1524 Z" id="Fill-11" fill="#E24301"></path>
            <g id="Group-15" transform="translate(0.000000, 0.976000)">
                <mask id="mask-2" fill="white">
                    <use xlink:href="#path-1"></use>
                </mask>
                <g id="Clip-14"></g>
                <path d="M104.3276,41.5841 L95.9616,47.2591 C90.8876,50.7341 85.6966,51.6461 85.2886,51.7131 C84.5706,51.8051 83.8426,51.8511 83.1216,51.8511 C77.6196,51.8511 73.6716,49.1361 73.2976,48.8691 L71.6916,47.5551 L71.6916,47.5551 L73.5736,45.9491 C78.3596,41.8621 84.0706,39.8751 91.0326,39.8751 C93.3926,39.8751 95.8446,40.1051 98.5296,40.5781 L104.3276,41.5841 L104.3296,41.5821 L104.3346,41.5851 L104.3276,41.5841 Z M65.2516,48.8701 C64.8276,49.1721 60.9416,51.8411 55.5086,51.8411 C54.7876,51.8411 54.0576,51.7991 53.3376,51.7071 C52.9646,51.6461 47.6116,50.7281 42.4546,47.1011 L34.1846,41.3031 L34.1826,41.3031 L34.1816,41.3021 L34.1486,41.3101 L34.1606,41.3031 L34.0986,41.2441 L34.1816,41.3021 L34.1826,41.3021 L34.1846,41.3031 L40.0216,40.0771 C42.6636,39.5211 45.0946,39.2511 47.4416,39.2511 C54.0146,39.2511 59.7786,41.4211 65.0566,45.9281 L66.8576,47.4441 L66.8586,47.4441 L65.2516,48.8701 Z M136.9816,15.4711 L70.6506,0.1891 C69.6946,-0.0319 68.7016,-0.0319 67.7446,0.1881 L1.3766,15.4681 C-0.4054,15.8781 -0.4774,18.3891 1.2776,18.9011 L17.0946,23.5161 L17.0946,39.8621 C17.0946,40.4201 17.4536,40.9151 17.9846,41.0871 L23.1336,42.7651 C23.9666,43.0371 24.8226,42.4161 24.8226,41.5391 L24.8226,25.7971 L32.0276,27.9061 L32.0276,33.6611 L32.0276,39.3511 L32.0276,39.8421 L32.0276,41.7401 L32.0276,42.4891 L32.0276,52.4671 L32.0276,62.3441 L32.0276,91.4701 C32.0276,93.5161 32.5076,95.5371 33.4426,97.3551 C42.6976,115.3591 59.6566,125.0721 66.3446,128.3471 C68.1226,129.2171 70.2026,129.2181 71.9816,128.3481 C78.6746,125.0751 95.6556,115.3621 104.9136,97.3561 C105.8486,95.5371 106.3286,93.5161 106.3286,91.4701 L106.3286,66.2261 L106.3286,52.6671 L106.3286,42.9281 L106.3286,41.9321 L106.3286,40.2301 L106.3286,39.5631 L106.3286,34.1211 L106.3286,27.9041 L137.0806,18.9041 C138.8356,18.3911 138.7626,15.8811 136.9816,15.4711 L136.9816,15.4711 Z" id="Fill-13" fill="#000000" mask="url(#mask-2)"></path>
            </g>
            <path d="M93.8691,94.4854 C84.1571,108.8874 69.1781,117.1214 69.1781,117.1214 L69.1781,60.7454 C69.1781,60.7454 76.1621,66.2314 86.1591,64.9174 C86.1591,64.9174 89.9391,64.3894 94.6741,62.1814 L94.6741,91.8914 C94.6741,92.8174 94.3871,93.7174 93.8691,94.4854 M83.1221,59.3834 C74.8531,59.3834 69.2881,55.0334 69.2881,55.0334 C69.2881,55.0334 63.7661,59.3834 55.5091,59.3834 C54.5191,59.3834 53.4421,59.3204 52.3791,59.1814 C52.3791,59.1814 45.5041,58.2324 38.5841,53.4434 L38.5841,63.3194 L38.5841,63.3244 L38.5841,92.5534 C38.5841,93.5374 38.8111,94.5084 39.2391,95.3934 C48.6791,114.9014 69.2001,123.0254 69.2001,123.0254 C69.2001,123.0254 89.3141,114.9084 99.0801,95.4204 C99.5331,94.5154 99.7731,93.5164 99.7731,92.5054 L99.7731,67.2014 L99.7731,67.2004 L99.7731,53.6434 C92.8521,58.2454 86.2571,59.1814 86.2571,59.1814 C85.1941,59.3204 84.1121,59.3834 83.1221,59.3834" id="Fill-16" fill="#E24301"></path>
            <path d="M67.7476,7.8912 L20.6536,18.7202 L38.5836,23.9652 L38.5836,34.6372 C41.4976,34.0542 44.3516,33.6712 47.3976,33.6712 C54.3986,33.6712 61.9736,35.6912 69.2916,41.9392 C76.3346,35.9252 84.3036,34.2952 91.0736,34.2952 C94.2746,34.2952 97.2236,34.6592 99.7726,35.0972 L99.7726,23.9652 L117.6836,18.7202 L70.6456,7.8912 C69.6926,7.6722 68.7016,7.6722 67.7476,7.8912" id="Fill-18" fill="#E24301"></path>
            <path d="M93.8691,94.4854 C84.1571,108.8874 69.1781,117.1214 69.1781,117.1214 L69.1781,60.7454 C69.1781,60.7454 76.1621,66.2314 86.1591,64.9174 C86.1591,64.9174 89.9391,64.3894 94.6741,62.1814 L94.6741,91.8914 C94.6741,92.8174 94.3871,93.7174 93.8691,94.4854" id="Fill-20" fill="#FFFFFF"></path>
        </g>
    </g>
</svg>