<?xml version="1.0" encoding="UTF-8"?>
<svg width="72px" height="72px" viewBox="0 0 72 72" version="1.1" xmlns="http://www.w3.org/2000/svg" xmlns:xlink="http://www.w3.org/1999/xlink">
    <title>Logo/iOS</title>
    <g id="Logo/iOS" stroke="none" stroke-width="1" fill="none" fill-rule="evenodd">
        <g id="Apple_iOS_logo" fill="#ED1556" fill-rule="nonzero">
            <path d="M70.5599981,9.58499975 C69.8849981,7.80749979 68.2649982,5.30999986 65.9699983,3.53249991 C64.6199983,2.51999993 63.0899983,1.52999996 60.9299984,0.899999976 C58.5899984,0.224999994 55.7099985,0 52.1999986,0 L19.7999995,0 C16.2674996,0 13.4099996,0.224999994 11.0924997,0.922499976 C8.93249976,1.57499996 7.33499981,2.54249993 6.02999984,3.55499991 C3.7349999,5.30999986 2.11499994,7.82999979 1.41749996,9.60749975 C0.0224999994,13.1849997 0,17.2349995 0,19.7999995 L0,52.1999986 C0,54.7649985 0.0224999994,58.8149984 1.41749996,62.4149983 C2.11499994,64.1924983 3.7349999,66.6899982 6.02999984,68.4674982 C7.35749981,69.4799982 8.93249976,70.4699981 11.0924997,71.0999981 C13.4099996,71.7749981 16.2674996,72 19.7999995,72 L52.1999986,72 C55.7324985,72 58.5899984,71.7749981 60.9074984,71.0774981 C63.0674983,70.4249981 64.6649983,69.4574982 65.9699983,68.4449982 C68.2649982,66.6899982 69.8849981,64.1699983 70.5824981,62.3924983 C72,58.8149984 72,54.7424985 72,52.1774986 L72,19.7774995 C72,17.2124995 71.9774981,13.1624997 70.5824981,9.56249975 L70.5599981,9.58499975 Z M14.2649996,49.4999987 L11.5874997,49.4999987 L11.5874997,33.5024991 L14.2649996,33.5024991 L14.2649996,49.4999987 Z M12.9374997,30.8024992 C12.0374997,30.8024992 11.2724997,30.0599992 11.2724997,29.1374992 C11.2724997,28.2149993 12.0149997,27.4724993 12.9374997,27.4724993 C13.8599996,27.4724993 14.6249996,28.2149993 14.6249996,29.1374992 C14.6024996,30.0599992 13.8599996,30.8024992 12.9374997,30.8024992 Z M29.0249992,49.9049987 C21.9599994,49.9049987 17.5049995,44.8649988 17.5049995,36.832499 C17.5049995,28.7999992 21.9599994,23.7374994 29.0249992,23.7374994 C36.089999,23.7374994 40.5449989,28.7999992 40.5449989,36.832499 C40.5449989,44.8649988 36.089999,49.9049987 29.0249992,49.9049987 L29.0249992,49.9049987 Z M52.3349986,49.9049987 C47.0249988,49.9049987 43.2899989,46.9799988 43.0424989,42.6149989 L45.4499988,42.6149989 C45.7199988,45.6524988 48.5774987,47.7224987 52.5599986,47.7224987 C56.3624985,47.7224987 59.0849984,45.6524988 59.0849984,42.7949989 C59.0849984,40.4324989 57.4424985,39.014999 53.6849986,38.069999 L50.5349987,37.259999 C45.8324988,36.067499 43.7399988,34.0874991 43.7399988,30.7349992 C43.7399988,26.6399993 47.4299987,23.7149994 52.4249986,23.7149994 C57.3749985,23.7149994 60.9749984,26.6399993 61.1324984,30.6674992 L58.7249984,30.6674992 C58.4999985,27.8099993 55.9574985,25.8974993 52.3574986,25.8974993 C48.8474987,25.8974993 46.2374988,27.8549993 46.2374988,30.6449992 C46.2374988,32.8274991 47.8124987,34.1099991 51.5474986,35.0549991 L54.2924986,35.7524991 C59.3999984,37.034999 61.5374984,38.992499 61.5374984,42.5249989 C61.5374984,46.9799988 57.9599985,49.9049987 52.3349986,49.9049987 L52.3349986,49.9049987 Z M38.092499,36.832499 C38.092499,43.4699988 34.5824991,47.6774987 29.0249992,47.6774987 C23.4674994,47.6774987 19.9799995,43.4699988 19.9799995,36.832499 C19.9799995,30.1724992 23.4674994,25.9649993 29.0249992,25.9649993 C34.5824991,25.9649993 38.092499,30.1724992 38.092499,36.832499 Z" id="Shape"></path>
        </g>
    </g>
</svg>