<svg xmlns="http://www.w3.org/2000/svg" width="125" height="54" viewBox="0 0 125 54">
    <g fill="#F5BD0C" fill-rule="evenodd">
        <path d="M124.902 26.25c-.378.979-.917 1.894-1.586 2.699-1.479 1.775-3.533 2.946-5.577 4-3.486 1.797-7.1 3.374-10.378 5.536-2.196 1.449-4.224 3.15-6.12 4.982-1.62 1.566-3.158 3.24-4.976 4.568-1.834 1.34-3.955 2.31-6.192 2.65-2.722.412-5.534-.122-8.057-1.233-1.768-.78-3.469-1.894-4.487-3.55-1.022-1.663-1.255-3.697-1.258-5.655-.004-3.462.63-6.888 1.228-10.297.496-2.833.968-5.673 1.273-8.533.554-5.203.55-10.457.18-15.677-.061-.874-.133-1.756-.004-2.623.13-.866.482-1.73 1.139-2.302.606-.528 1.42-.762 2.22-.806.798-.044 1.596.084 2.388.2 1.866.276 3.748.493 5.572.979 1.151.306 2.272.717 3.422 1.031 1.917.525 3.924.776 5.897.543 2.124-.251 4.186-1.058 6.324-1.005.877.021 1.748.189 2.584.455.854.272 1.696.662 2.323 1.307.477.492.809 1.11 1.058 1.75.372.953.572 1.97.658 2.99.076.905.064 1.82.234 2.713.279 1.466 1.041 2.804 1.988 3.95.947 1.147 2.079 2.12 3.209 3.082 1.127.958 2.26 1.912 3.475 2.75.57.395 1.159.764 1.7 1.198.542.434 1.04.938 1.378 1.548.459.825.6 1.827.385 2.75M23.01.364c.906-.38 1.926-.45 2.892-.27.964.18 1.877.602 2.688 1.16 1.624 1.114 2.828 2.736 3.981 4.341 2.649 3.686 5.198 7.449 7.509 11.36 1.874 3.172 3.596 6.448 5.762 9.425 1.414 1.944 3.008 3.746 4.43 5.684 1.42 1.938 2.68 4.042 3.31 6.368.818 3.023.501 6.355-.923 9.14-1.002 1.958-2.538 3.638-4.406 4.776-1.869 1.138-4.065 1.727-6.245 1.644-3.466-.13-6.633-1.882-9.855-3.179-6.565-2.642-13.696-3.47-20.463-5.528-2.08-.633-4.125-1.381-6.219-1.963-.93-.259-1.876-.486-2.754-.889-.88-.403-1.7-1.002-2.19-1.843C.15 39.94-.01 39.175 0 38.422c.01-.754.185-1.498.439-2.207.508-1.418 1.328-2.7 1.882-4.1.905-2.285 1.067-4.805.945-7.263s-.517-4.895-.683-7.351c-.075-1.096-.102-2.207.105-3.285.207-1.08.666-2.134 1.45-2.897.722-.703 1.68-1.12 2.662-1.326.982-.208 1.993-.217 2.995-.194 1.003.023 2.008.077 3.007-.006 1-.083 2.003-.31 2.873-.813.828-.477 1.505-1.188 2.067-1.967.56-.779 1.014-1.63 1.478-2.471.465-.842.946-1.68 1.555-2.422.608-.741 1.354-1.387 2.235-1.756"/>
    </g>
</svg>
