<?xml version="1.0" encoding="UTF-8"?>
<svg width="80px" height="80px" viewBox="0 0 80 80" version="1.1" xmlns="http://www.w3.org/2000/svg" xmlns:xlink="http://www.w3.org/1999/xlink">
    <title>Logo/macOS</title>
    <g id="Logo/macOS" stroke="none" stroke-width="1" fill="none" fill-rule="evenodd">
        <g id="MacOS_logo" fill="#000000" fill-rule="nonzero">
            <path d="M43.9828571,26.7009524 L43.9828571,26.0495238 L41.9580952,26.1885714 C41.3847619,26.2247619 40.9542857,26.3466667 40.6647619,26.552381 C40.3752381,26.76 40.2304762,27.047619 40.2304762,27.4152381 C40.2304762,27.7733333 40.3733333,28.0590476 40.6609524,28.2704762 C40.9466667,28.4838095 41.3314286,28.5885714 41.8114286,28.5885714 C42.1180952,28.5885714 42.4057143,28.5409524 42.6704762,28.447619 C42.9352381,28.3542857 43.167619,28.2228571 43.3619048,28.0552381 C43.5561905,27.8895238 43.7085714,27.6914286 43.8171429,27.4609524 C43.927619,27.2304762 43.9828571,26.9771429 43.9828571,26.7009524 Z M40,0.476190476 C17.9447619,0.476190476 0.476190476,17.9447619 0.476190476,40 C0.476190476,62.0571429 17.9447619,79.5238095 40,79.5238095 C62.0552381,79.5238095 79.5238095,62.0571429 79.5238095,40 C79.5238095,17.9447619 62.0571429,0.476190476 40,0.476190476 Z M47.672381,23.9028571 C47.8590476,23.3790476 48.1219048,22.9295238 48.4628571,22.5561905 C48.8038095,22.1828571 49.2133333,21.8952381 49.6933333,21.6933333 C50.1733333,21.4914286 50.7085714,21.3904762 51.2971429,21.3904762 C51.8285714,21.3904762 52.3085714,21.4704762 52.7352381,21.6285714 C53.1638095,21.7866667 53.5295238,22 53.8361905,22.2685714 C54.1428571,22.5371429 54.3866667,22.8495238 54.5657143,23.207619 C54.7447619,23.5657143 54.8514286,23.9447619 54.887619,24.3428571 L53.3009524,24.3428571 C53.2609524,24.1238095 53.1885714,23.9180952 53.0857143,23.7295238 C52.9828571,23.5409524 52.847619,23.3771429 52.68,23.2380952 C52.5104762,23.0990476 52.312381,22.9904762 52.0857143,22.912381 C51.8571429,22.832381 51.6019048,22.7942857 51.3142857,22.7942857 C50.9771429,22.7942857 50.6704762,22.8628571 50.3980952,22.9980952 C50.1238095,23.1333333 49.8895238,23.3257143 49.6952381,23.5733333 C49.5009524,23.8209524 49.3504762,24.1238095 49.2438095,24.4780952 C49.1352381,24.8342857 49.0819048,25.2285714 49.0819048,25.6628571 C49.0819048,26.112381 49.1352381,26.5161905 49.2438095,26.8704762 C49.3504762,27.2266667 49.5028571,27.5257143 49.7009524,27.7714286 C49.8971429,28.0171429 50.1352381,28.2057143 50.4114286,28.3352381 C50.687619,28.4647619 50.992381,28.5314286 51.3238095,28.5314286 C51.8666667,28.5314286 52.3085714,28.4038095 52.6514286,28.1485714 C52.9942857,27.8933333 53.2152381,27.52 53.3180952,27.0285714 L54.9066667,27.0285714 C54.8609524,27.4628571 54.7409524,27.8590476 54.5466667,28.2171429 C54.352381,28.5752381 54.1009524,28.88 53.792381,29.1333333 C53.4819048,29.3866667 53.1180952,29.5828571 52.6990476,29.72 C52.28,29.8571429 51.8190476,29.927619 51.3180952,29.927619 C50.7238095,29.927619 50.1885714,29.8285714 49.7066667,29.632381 C49.2266667,29.4361905 48.8133333,29.152381 48.4704762,28.7847619 C48.127619,28.4171429 47.8628571,27.9695238 47.6761905,27.4419048 C47.4895238,26.9142857 47.3961905,26.3219048 47.3961905,25.6609524 C47.392381,25.0152381 47.4857143,24.4285714 47.672381,23.9028571 L47.672381,23.9028571 Z M25.0952381,21.4990476 L26.6838095,21.4990476 L26.6838095,22.9104762 L26.7142857,22.9104762 C26.8114286,22.6761905 26.9390476,22.4647619 27.0952381,22.2819048 C27.2514286,22.0971429 27.4304762,21.9409524 27.6361905,21.8095238 C27.84,21.6780952 28.0666667,21.5790476 28.3104762,21.5104762 C28.5561905,21.4419048 28.8152381,21.407619 29.0857143,21.407619 C29.6685714,21.407619 30.1619048,21.5466667 30.5619048,21.8247619 C30.9638095,22.1028571 31.2495238,22.5028571 31.4171429,23.0247619 L31.4571429,23.0247619 C31.5638095,22.7733333 31.7047619,22.5485714 31.8780952,22.3504762 C32.0514286,22.152381 32.2514286,21.9809524 32.4761905,21.84 C32.7009524,21.6990476 32.9485714,21.592381 33.2171429,21.5180952 C33.4857143,21.4438095 33.767619,21.407619 34.0647619,21.407619 C34.4742857,21.407619 34.8457143,21.472381 35.1809524,21.6038095 C35.5161905,21.7352381 35.8019048,21.9180952 36.04,22.1561905 C36.2780952,22.3942857 36.4609524,22.6838095 36.5885714,23.0228571 C36.7161905,23.3619048 36.7809524,23.7390476 36.7809524,24.1542857 L36.7809524,29.832381 L35.1238095,29.832381 L35.1238095,24.552381 C35.1238095,24.0057143 34.9828571,23.5809524 34.7009524,23.2819048 C34.4209524,22.9828571 34.0190476,22.832381 33.4971429,22.832381 C33.2419048,22.832381 33.007619,22.8780952 32.7942857,22.967619 C32.5828571,23.0571429 32.3980952,23.1828571 32.2457143,23.3447619 C32.0914286,23.5047619 31.9714286,23.6990476 31.8857143,23.9238095 C31.7980952,24.1485714 31.7542857,24.3942857 31.7542857,24.6609524 L31.7542857,29.832381 L30.12,29.832381 L30.12,24.4152381 C30.12,24.1752381 30.0819048,23.9580952 30.007619,23.7638095 C29.9333333,23.5695238 29.8285714,23.4038095 29.6895238,23.2647619 C29.552381,23.1257143 29.3828571,23.0209524 29.1866667,22.9466667 C28.9885714,22.872381 28.767619,22.8342857 28.5219048,22.8342857 C28.2666667,22.8342857 28.0304762,22.8819048 27.8114286,22.9771429 C27.5942857,23.072381 27.407619,23.2038095 27.2514286,23.3714286 C27.0952381,23.5409524 26.9733333,23.7390476 26.887619,23.9695238 C26.8038095,24.1980952 26.6666667,24.4495238 26.6666667,24.72 L26.6666667,29.8304762 L25.0952381,29.8304762 L25.0952381,21.4990476 L25.0952381,21.4990476 Z M28.7009524,61.3828571 C21.4152381,61.3828571 16.8457143,56.32 16.8457143,48.24 C16.8457143,40.16 21.4152381,35.08 28.7009524,35.08 C35.9866667,35.08 40.5390476,40.16 40.5390476,48.24 C40.5390476,56.3180952 35.9866667,61.3828571 28.7009524,61.3828571 Z M42.1904762,29.8114286 C41.9219048,29.88 41.647619,29.9142857 41.3657143,29.9142857 C40.9504762,29.9142857 40.5714286,29.8552381 40.2266667,29.7371429 C39.88,29.6190476 39.5847619,29.4533333 39.3371429,29.2380952 C39.0895238,29.0228571 38.8952381,28.7638095 38.7580952,28.4590476 C38.6190476,28.1542857 38.5504762,27.8152381 38.5504762,27.4419048 C38.5504762,26.7104762 38.8228571,26.1390476 39.367619,25.727619 C39.912381,25.3161905 40.7009524,25.0761905 41.7352381,25.0095238 L43.9828571,24.88 L43.9828571,24.2361905 C43.9828571,23.7561905 43.8304762,23.3885714 43.5257143,23.1390476 C43.2209524,22.8895238 42.7904762,22.7638095 42.232381,22.7638095 C42.007619,22.7638095 41.7961905,22.792381 41.6019048,22.847619 C41.407619,22.9047619 41.2361905,22.9847619 41.087619,23.0895238 C40.9390476,23.1942857 40.8152381,23.32 40.72,23.4666667 C40.6228571,23.6114286 40.5561905,23.7752381 40.52,23.9542857 L38.9619048,23.9542857 C38.9714286,23.5866667 39.0628571,23.2457143 39.2342857,22.9333333 C39.4057143,22.6209524 39.6380952,22.3504762 39.9333333,22.12 C40.2285714,21.8895238 40.5733333,21.7104762 40.9733333,21.5828571 C41.3733333,21.4552381 41.807619,21.3904762 42.2780952,21.3904762 C42.7847619,21.3904762 43.2438095,21.4533333 43.6552381,21.5828571 C44.0666667,21.712381 44.4190476,21.8933333 44.7104762,22.1314286 C45.0019048,22.3695238 45.2266667,22.6552381 45.3847619,22.9904762 C45.5428571,23.3257143 45.6228571,23.7009524 45.6228571,24.1142857 L45.6228571,29.8304762 L44.0361905,29.8304762 L44.0361905,28.4419048 L43.9961905,28.4419048 C43.8780952,28.6666667 43.7295238,28.8704762 43.5485714,29.0514286 C43.3657143,29.232381 43.1619048,29.3885714 42.9352381,29.5161905 C42.7066667,29.6438095 42.4590476,29.7428571 42.1904762,29.8114286 L42.1904762,29.8114286 Z M52.672381,61.3828571 C47.1161905,61.3828571 43.3390476,58.472381 43.0761905,53.9028571 L46.6933333,53.9028571 C46.9752381,56.5142857 49.4990476,58.2438095 52.9561905,58.2438095 C56.272381,58.2438095 58.6552381,56.5142857 58.6552381,54.1504762 C58.6552381,52.1047619 57.207619,50.8685714 53.8571429,50.0228571 L50.592381,49.2114286 C45.8990476,48.047619 43.7657143,45.912381 43.7657143,42.4019048 C43.7657143,38.08 47.5409524,35.08 52.9219048,35.08 C58.1790476,35.08 61.847619,38.0971429 61.9885714,42.4361905 L58.407619,42.4361905 C58.16,39.8247619 56.0266667,38.2190476 52.8495238,38.2190476 C49.6914286,38.2190476 47.5047619,39.8419048 47.5047619,42.1885714 C47.5047619,44.04 48.88,45.1352381 52.232381,45.9809524 L54.9847619,46.6685714 C60.2247619,47.9390476 62.3771429,50.0038095 62.3771429,53.7085714 C62.3752381,58.4361905 58.6361905,61.3828571 52.672381,61.3828571 L52.672381,61.3828571 Z M28.7009524,38.3238095 C23.7085714,38.3238095 20.5866667,42.152381 20.5866667,48.2380952 C20.5866667,54.3066667 23.7085714,58.1352381 28.7009524,58.1352381 C33.6761905,58.1352381 36.815239,54.3066667 36.815239,48.2380952 C36.8171429,42.152381 33.6761905,38.3238095 28.7009524,38.3238095 L28.7009524,38.3238095 Z" id="Shape"></path>
        </g>
    </g>
</svg>