<?xml version="1.0" encoding="utf-8"?>
<!-- Generator: Adobe Illustrator 22.1.0, SVG Export Plug-In . SVG Version: 6.00 Build 0)  -->
<svg version="1.1" id="Layer_1" xmlns="http://www.w3.org/2000/svg" xmlns:xlink="http://www.w3.org/1999/xlink" x="0px" y="0px"
	 width="457px" height="185px" viewBox="0 0 457 185" style="enable-background:new 0 0 457 185;" xml:space="preserve">
<style type="text/css">
	.st0{fill:#E24301;}
	.st1{fill:#FFFFFF;fill-opacity:0.5;}
</style>
<g id="Logo_x2F_eduVPN-Logo_1_">
	<g id="Group_1_" transform="translate(140.132800, 36.816800)">
		<path id="Fill-1_1_" d="M36.6,52.7c-2.4,0-4.3,0.8-5.6,2.3c-1.4,1.5-2.1,3.7-2.3,6.5h15.9c-0.1-2.8-0.8-5-2.2-6.5
			C40.9,53.4,39,52.7,36.6,52.7 M38.2,87.6c-6.7,0-11.9-1.8-15.7-5.5c-3.8-3.7-5.6-8.9-5.6-15.7c0-7,1.7-12.3,5.2-16.1
			c3.5-3.8,8.3-5.7,14.4-5.7c5.9,0,10.4,1.7,13.7,5c3.3,3.3,4.9,8,4.9,13.9V69H28.4c0.1,3.2,1.1,5.7,2.9,7.5
			c1.8,1.8,4.3,2.7,7.5,2.7c2.5,0,4.9-0.3,7.1-0.8c2.2-0.5,4.6-1.3,7-2.5v8.8c-2,1-4.1,1.7-6.4,2.2C44.2,87.4,41.5,87.6,38.2,87.6"
			/>
		<path id="Fill-3_1_" d="M78.6,78.6c2.9,0,5-0.8,6.4-2.5c1.3-1.7,2.1-4.5,2.2-8.6v-1.2c0-4.5-0.7-7.6-2.1-9.6
			c-1.4-1.9-3.6-2.9-6.7-2.9c-2.5,0-4.5,1.1-5.9,3.2c-1.4,2.1-2.1,5.3-2.1,9.3s0.7,7.1,2.1,9.2C74,77.6,76,78.6,78.6,78.6
			 M74.6,87.6c-4.9,0-8.7-1.9-11.5-5.7c-2.8-3.8-4.2-9-4.2-15.7c0-6.8,1.4-12.1,4.3-15.9c2.8-3.8,6.7-5.7,11.7-5.7
			c5.2,0,9.2,2,12,6.1h0.4c-0.6-3.1-0.9-5.9-0.9-8.3V29.1h11.4v57.8h-8.7l-2.2-5.4h-0.5C83.8,85.6,79.9,87.6,74.6,87.6"/>
		<path id="Fill-5_1_" d="M134.3,86.9l-1.5-5.3h-0.6c-1.2,1.9-2.9,3.4-5.2,4.5c-2.2,1.1-4.8,1.6-7.6,1.6c-4.9,0-8.6-1.3-11-3.9
			c-2.5-2.6-3.7-6.4-3.7-11.3V45.4H116v24.3c0,3,0.5,5.2,1.6,6.7c1.1,1.5,2.8,2.2,5.1,2.2c3.2,0,5.5-1.1,6.9-3.2
			c1.4-2.1,2.1-5.6,2.1-10.5V45.4H143v41.5H134.3z"/>
		<path id="Fill-7_1_" class="st0" d="M182.9,32.6h11.6l-18.5,54.3h-12.6l-18.4-54.3h11.6L167,64.9c0.6,1.9,1.2,4.1,1.8,6.7
			c0.6,2.5,1,4.3,1.1,5.3c0.3-2.3,1.2-6.3,2.8-12L182.9,32.6z"/>
		<path id="Fill-9_1_" class="st0" d="M210,58.1h3.8c3.5,0,6.2-0.7,7.9-2.1c1.8-1.4,2.6-3.4,2.6-6.1c0-2.7-0.7-4.7-2.2-6
			c-1.5-1.3-3.8-1.9-6.9-1.9H210V58.1z M236,49.5c0,5.8-1.8,10.3-5.5,13.4c-3.7,3.1-8.8,4.6-15.6,4.6H210v19.3h-11.5V32.6h17.3
			c6.6,0,11.6,1.4,15,4.3C234.3,39.7,236,43.9,236,49.5L236,49.5z"/>
		<path id="Fill-11_1_" class="st0" d="M289.7,86.9h-14.6l-23.6-41.1h-0.3c0.5,7.3,0.7,12.4,0.7,15.5v25.6h-10.3V32.6h14.5
			l23.6,40.7h0.3c-0.4-7.1-0.6-12-0.6-15V32.6h10.4V86.9z"/>
	</g>
	<g id="Mark_1_" transform="translate(0.000000, -0.000000)">
		<path id="Black_1_" d="M111.5,72.4c2.2,0,4.5,0.2,6.9,0.7l5.4,0.9l-7.8,5.3c-4.7,3.2-9.5,4.1-9.9,4.1c-0.7,0.1-1.3,0.1-2,0.1
			c-5.1,0-8.8-2.5-9.1-2.8l-1.5-1.2l1.7-1.5C99.8,74.3,105.1,72.4,111.5,72.4z M71.1,71.9c6.1,0,11.4,2,16.3,6.2l1.7,1.4h0l-1.5,1.3
			c-0.4,0.3-4,2.8-9,2.8c-0.7,0-1.3,0-2-0.1c-0.3-0.1-5.3-0.9-10.1-4.3l-7.7-5.4l5.4-1.1C66.7,72.1,68.9,71.9,71.1,71.9z M92.6,35.7
			c-0.9-0.2-1.8-0.2-2.7,0L28.4,49.8c-1.7,0.4-1.7,2.7-0.1,3.2L43,57.3v15.2c0,0.5,0.3,1,0.8,1.1l4.8,1.6c0.8,0.3,1.6-0.3,1.6-1.1
			V59.4l6.7,2v5.3V72v0.5v1.8v0.7v9.2v9.2v21.4c0,1.9,0.4,3.8,1.3,5.5c8.6,16.7,24.3,25.7,30.5,28.7c1.6,0.8,3.6,0.8,5.2,0
			c6.2-3,21.9-12,30.5-28.7c0.9-1.7,1.3-3.6,1.3-5.5V96.9V84.3v-9v-0.9v-1.6v-0.6v-5v-5.8l28.5-8.3c1.6-0.5,1.6-2.8-0.1-3.2
			L92.6,35.7z"/>
		<path id="Orange-Shield_1_" class="st0" d="M91.4,85.6c0,0-5.1,4-12.8,4c-0.9,0-1.9-0.1-2.9-0.2c0,0-6.4-0.9-12.8-5.3v9.2v21.5
			c0,0.9,0.2,1.8,0.6,2.6c8.8,18.1,27.8,25.6,27.8,25.6s18.6-7.5,27.7-25.6c0.4-0.8,0.6-1.8,0.6-2.7V96.9V84.3
			c-6.4,4.3-12.5,5.1-12.5,5.1c-1,0.1-2,0.2-2.9,0.2C96.5,89.6,91.4,85.6,91.4,85.6z"/>
		<path id="Orange-Hat_1_" class="st0" d="M89.9,41.9l-43.7,10l16.6,4.9v9.9c2.7-0.5,5.3-0.9,8.2-0.9c6.5,0,13.5,1.9,20.3,7.7
			c6.5-5.6,13.9-7.1,20.2-7.1c3,0,5.7,0.3,8.1,0.7V56.8l16.6-4.9l-43.6-10C91.7,41.7,90.8,41.7,89.9,41.9"/>
		<path id="White-glare_1_" class="st1" d="M91.3,137.6V90.9c0,0,6.5,5.1,15.7,3.9c0,0,3.5-0.5,7.9-2.5v22c0,0.9-0.3,1.7-0.7,2.4
			C105.2,130,91.3,137.6,91.3,137.6z"/>
	</g>
</g>
</svg>
