<?xml version="1.0" encoding="UTF-8"?>
<svg width="440px" height="130px" viewBox="0 0 440 130" version="1.1" xmlns="http://www.w3.org/2000/svg" xmlns:xlink="http://www.w3.org/1999/xlink">
    <title>Logo/eduVPN-Logo dia</title>
    <g id="Logo/eduVPN-Logo-dia" stroke="none" stroke-width="1" fill="none" fill-rule="evenodd">
        <g id="Group-22" transform="translate(0.000000, 4.000000)">
            <g id="Group-15" transform="translate(0.000000, 0.976000)" fill="#000000">
                <path d="M104.3276,41.5841 L95.9616,47.2591 C90.8876,50.7341 85.6966,51.6461 85.2886,51.7131 C84.5706,51.8051 83.8426,51.8511 83.1216,51.8511 C77.6196,51.8511 73.6716,49.1361 73.2976,48.8691 L71.6916,47.5551 L71.6916,47.5551 L73.5736,45.9491 C78.3596,41.8621 84.0706,39.8751 91.0326,39.8751 C93.3926,39.8751 95.8446,40.1051 98.5296,40.5781 L104.3276,41.5841 L104.3296,41.5821 L104.3346,41.5851 L104.3276,41.5841 Z M65.2516,48.8701 C64.8276,49.1721 60.9416,51.8411 55.5086,51.8411 C54.7876,51.8411 54.0576,51.7991 53.3376,51.7071 C52.9646,51.6461 47.6116,50.7281 42.4546,47.1011 L34.1846,41.3031 L34.1826,41.3031 L34.1816,41.3021 L34.1486,41.3101 L34.1606,41.3031 L34.0986,41.2441 L34.1816,41.3021 L34.1826,41.3021 L34.1846,41.3031 L40.0216,40.0771 C42.6636,39.5211 45.0946,39.2511 47.4416,39.2511 C54.0146,39.2511 59.7786,41.4211 65.0566,45.9281 L66.8576,47.4441 L66.8586,47.4441 L65.2516,48.8701 Z M70.6506,0.1891 C69.6946,-0.0319 68.7016,-0.0319 67.7446,0.1881 L1.3766,15.4681 C-0.4054,15.8781 -0.4774,18.3891 1.2776,18.9011 L17.0946,23.5161 L17.0946,39.8621 C17.0946,40.4201 17.4536,40.9151 17.9846,41.0871 L23.1336,42.7651 C23.9666,43.0371 24.8226,42.4161 24.8226,41.5391 L24.8226,25.7971 L32.0276,27.9061 L32.0276,33.6611 L32.0276,39.3511 L32.0276,39.8421 L32.0276,41.7401 L32.0276,42.4891 L32.0276,52.4671 L32.0276,62.3441 L32.0276,85.4701 C32.0276,87.5161 32.5076,89.5371 33.4426,91.3551 C42.6976,109.3591 59.6566,119.0721 66.3446,122.3471 C68.1226,123.2171 70.2026,123.2181 71.9816,122.3481 C78.6746,119.0751 95.6556,109.3621 104.9136,91.3561 C105.8486,89.5371 106.3286,87.5161 106.3286,85.4701 L106.3286,66.2261 L106.3286,52.6671 L106.3286,42.9281 L106.3286,41.9321 L106.3286,40.2301 L106.3286,39.5631 L106.3286,34.1211 L106.3286,27.9041 L137.0806,18.9041 C138.8356,18.3911 138.7626,15.8811 136.9816,15.4711 L70.6506,0.1891 Z" id="Fill-13"></path>
            </g>
            <path d="M69.1781,111.1214 L69.1781,60.7454 C69.1781,60.7454 76.1621,66.2314 86.1591,64.9174 C86.1591,64.9174 89.9391,64.3894 94.6741,62.1814 L94.6741,85.8914 C94.6741,86.8174 94.3871,87.7174 93.8691,88.4854 C84.1571,102.8874 69.1781,111.1214 69.1781,111.1214 Z M69.2881,55.0334 C69.2881,55.0334 63.7661,59.3834 55.5091,59.3834 C54.5191,59.3834 53.4421,59.3204 52.3791,59.1814 C52.3791,59.1814 45.5041,58.2324 38.5841,53.4434 L38.5841,63.3194 L38.5841,86.5534 C38.5841,87.5374 38.8111,88.5084 39.2391,89.3934 C48.6791,108.9014 69.2001,117.0254 69.2001,117.0254 C69.2001,117.0254 89.3141,108.9084 99.0801,89.4204 C99.5331,88.5154 99.7731,87.5164 99.7731,86.5054 L99.7731,67.2014 L99.7731,53.6434 C92.8521,58.2454 86.2571,59.1814 86.2571,59.1814 C85.1941,59.3204 84.1121,59.3834 83.1221,59.3834 C74.8531,59.3834 69.2881,55.0334 69.2881,55.0334 Z" id="Fill-16" fill="#FFFFFF"></path>
            <path d="M67.7476,7.8912 L20.6536,18.7202 L38.5836,23.9652 L38.5836,34.6372 C41.4976,34.0542 44.3516,33.6712 47.3976,33.6712 C54.3986,33.6712 61.9736,35.6912 69.2916,41.9392 C76.3346,35.9252 84.3036,34.2952 91.0736,34.2952 C94.2746,34.2952 97.2236,34.6592 99.7726,35.0972 L99.7726,23.9652 L117.6836,18.7202 L70.6456,7.8912 C69.6926,7.6722 68.7016,7.6722 67.7476,7.8912" id="Fill-18" fill="#FFFFFF"></path>
            <path d="M69.1781,111.1214 L69.1781,60.7454 C69.1781,60.7454 76.1621,66.2314 86.1591,64.9174 C86.1591,64.9174 89.9391,64.3894 94.6741,62.1814 L94.6741,85.8914 C94.6741,86.8174 94.3871,87.7174 93.8691,88.4854 C84.1571,102.8874 69.1781,111.1214 69.1781,111.1214 Z" id="Fill-20" fill="#000000"></path>
        </g>
        <g id="Group" transform="translate(140.132800, 36.816800)" fill="#000000">
            <path d="M21.272,25.3991 C18.682,25.3991 16.652,26.2201 15.183,27.8631 C13.713,29.5051 12.873,31.8361 12.66,34.8541 L29.806,34.8541 C29.751,31.8361 28.964,29.5051 27.441,27.8631 C25.919,26.2201 23.862,25.3991 21.272,25.3991 M22.995,63.1371 C15.784,63.1371 10.148,61.1481 6.089,57.1681 C2.029,53.1881 3.55271368e-14,47.5531 3.55271368e-14,40.2621 C3.55271368e-14,32.7571 1.876,26.9561 5.628,22.8561 C9.381,18.7551 14.568,16.7061 21.192,16.7061 C27.522,16.7061 32.449,18.5081 35.975,22.1141 C39.5,25.7201 41.263,30.7001 41.263,37.0571 L41.263,42.9861 L12.378,42.9861 C12.512,46.4581 13.54,49.1691 15.464,51.1181 C17.387,53.0681 20.083,54.0431 23.556,54.0431 C26.252,54.0431 28.804,53.7621 31.207,53.2021 C33.611,52.6401 36.121,51.7461 38.739,50.5181 L38.739,59.9721 C36.602,61.0411 34.319,61.8351 31.888,62.3551 C29.458,62.8771 26.494,63.1371 22.995,63.1371" id="Fill-1"></path>
            <path d="M66.5635,53.402 C69.6885,53.402 71.9785,52.494 73.4335,50.678 C74.8895,48.862 75.6835,45.777 75.8175,41.424 L75.8175,40.101 C75.8175,35.294 75.0765,31.849 73.5945,29.766 C72.1115,27.682 69.7015,26.641 66.3625,26.641 C63.6385,26.641 61.5215,27.797 60.0145,30.107 C58.5045,32.417 57.7495,35.775 57.7495,40.182 C57.7495,44.589 58.5115,47.893 60.0335,50.096 C61.5555,52.3 63.7315,53.402 66.5635,53.402 M62.2775,63.137 C57.0155,63.137 52.8825,61.094 49.8785,57.007 C46.8735,52.922 45.3715,47.259 45.3715,40.021 C45.3715,32.677 46.8995,26.956 49.9585,22.856 C53.0165,18.756 57.2295,16.706 62.5975,16.706 C68.2315,16.706 72.5325,18.896 75.4975,23.276 L75.8975,23.276 C75.2825,19.938 74.9765,16.96 74.9765,14.341 L74.9765,3.55271368e-15 L87.2355,3.55271368e-15 L87.2355,62.336 L77.8605,62.336 L75.4975,56.527 L74.9765,56.527 C72.1985,60.934 67.9655,63.137 62.2775,63.137" id="Fill-3"></path>
            <path d="M126.6416,62.3356 L124.9986,56.6066 L124.3576,56.6066 C123.0486,58.6896 121.1926,60.2996 118.7886,61.4346 C116.3856,62.5686 113.6476,63.1366 110.5766,63.1366 C105.3146,63.1366 101.3486,61.7286 98.6786,58.9106 C96.0076,56.0926 94.6726,52.0406 94.6726,46.7526 L94.6726,17.5466 L106.8906,17.5466 L106.8906,43.7066 C106.8906,46.9396 107.4646,49.3626 108.6146,50.9776 C109.7616,52.5946 111.5906,53.4016 114.1026,53.4016 C117.5206,53.4016 119.9916,52.2596 121.5136,49.9776 C123.0356,47.6926 123.7966,43.9076 123.7966,38.6196 L123.7966,17.5466 L136.0156,17.5466 L136.0156,62.3356 L126.6416,62.3356 Z" id="Fill-5"></path>
            <path d="M179.1045,3.7658 L191.6445,3.7658 L171.7345,62.3358 L158.1935,62.3358 L138.3235,3.7658 L150.8625,3.7658 L161.8785,38.6198 C162.4935,40.6768 163.1265,43.0728 163.7825,45.8098 C164.4365,48.5488 164.8435,50.4518 165.0025,51.5188 C165.2965,49.0618 166.2985,44.7628 168.0075,38.6198 L179.1045,3.7658 Z" id="Fill-7"></path>
            <path d="M208.332,31.3278 L212.419,31.3278 C216.237,31.3278 219.095,30.5738 220.992,29.0638 C222.888,27.5558 223.836,25.3588 223.836,22.4738 C223.836,19.5638 223.04,17.4138 221.452,16.0248 C219.863,14.6368 217.372,13.9418 213.98,13.9418 L208.332,13.9418 L208.332,31.3278 Z M236.375,22.0348 C236.375,28.3378 234.405,33.1588 230.466,36.4958 C226.525,39.8348 220.924,41.5038 213.66,41.5038 L208.332,41.5038 L208.332,62.3358 L195.913,62.3358 L195.913,3.7658 L214.622,3.7658 C221.726,3.7658 227.127,5.2948 230.826,8.3528 C234.525,11.4118 236.375,15.9718 236.375,22.0348 L236.375,22.0348 Z" id="Fill-9"></path>
            <path d="M294.2891,62.3356 L278.5051,62.3356 L253.0261,18.0276 L252.6651,18.0276 C253.1731,25.8546 253.4271,31.4346 253.4271,34.7736 L253.4271,62.3356 L242.3301,62.3356 L242.3301,3.7656 L257.9931,3.7656 L283.4331,47.6326 L283.7131,47.6326 C283.3121,40.0216 283.1121,34.6396 283.1121,31.4886 L283.1121,3.7656 L294.2891,3.7656 L294.2891,62.3356 Z" id="Fill-11"></path>
        </g>
    </g>
</svg>