<svg xmlns="http://www.w3.org/2000/svg" width="512" height="512" viewBox="0 0 512 512">
    <defs>
        <linearGradient id="763vn7e4la" x1="50%" x2="50%" y1="0%" y2="98.878%">
            <stop offset="0%" stop-color="#FFF"/>
            <stop offset="100%" stop-color="#E5E5E5"/>
        </linearGradient>
    </defs>
    <g fill="none" fill-rule="evenodd">
        <path fill="url(#763vn7e4la)" d="M0 0H512V512H0z"/>
        <g>
            <path fill="#000" d="M273.098 119.556c7.08 0 14.436.69 22.49 2.109l17.395 3.018-25.098 17.025c-15.222 10.425-30.795 13.16-32.019 13.362-2.154.276-4.338.414-6.501.414-16.506 0-28.35-8.145-29.472-8.946l-4.818-3.942 5.646-4.818c14.358-12.261 31.49-18.222 52.377-18.222zm-130.773-1.872c19.719 0 37.011 6.51 52.845 20.03l5.403 4.549h.003l-4.821 4.278c-1.272.906-12.93 8.913-29.23 8.913-2.162 0-4.352-.126-6.512-.402-1.12-.183-17.178-2.937-32.65-13.818l-24.81-17.394 17.512-3.678c7.926-1.668 15.219-2.478 22.26-2.478zM211.952.498c-2.868-.663-5.847-.663-8.718-.003L4.13 46.335c-5.346 1.23-5.562 8.763-.297 10.299l47.45 13.845v49.038c0 1.674 1.078 3.159 2.67 3.675l15.448 5.034c2.499.816 5.067-1.047 5.067-3.678V77.322l21.615 6.327V256.34c0 6.138 1.44 12.2 4.245 17.655 27.765 54.012 78.642 83.15 98.706 92.976 5.334 2.61 11.574 2.613 16.911.003 20.079-9.82 71.022-38.958 98.796-92.976 2.805-5.457 4.245-11.52 4.245-17.658V83.643l92.256-27c5.265-1.54 5.046-9.07-.297-10.3L211.952.499z" transform="translate(48 82)"/>
            <path fill="#E24301" d="M207.864 162.103s-16.566 13.05-41.337 13.05c-2.97 0-6.2-.19-9.39-.606 0 0-20.625-2.847-41.385-17.214v99.33c0 2.952.681 5.865 1.965 8.52 28.32 58.524 89.883 82.896 89.883 82.896s60.342-24.351 89.64-82.815c1.36-2.715 2.08-5.712 2.08-8.745v-98.586c-20.764 13.806-40.549 16.614-40.549 16.614-3.189.417-6.435.606-9.405.606-24.807 0-41.502-13.05-41.502-13.05zM203.243 20.676L61.96 53.163l53.79 15.735v32.016c8.742-1.75 17.304-2.898 26.442-2.898 21.003 0 43.728 6.06 65.682 24.804 21.129-18.042 45.036-22.932 65.346-22.932 9.603 0 18.45 1.092 26.097 2.406V68.898l53.733-15.735-141.114-32.487c-2.86-.657-5.832-.657-8.694 0" transform="translate(48 82)"/>
            <path fill="#FFF" fill-opacity=".5" d="M207.534 330.367V179.239s20.952 16.458 50.943 12.516c0 0 11.34-1.584 25.545-8.208v71.13c0 2.778-.86 5.478-2.415 7.782-29.136 43.206-74.073 67.908-74.073 67.908z" transform="translate(48 82)"/>
        </g>
    </g>
</svg>
