<?xml version="1.0" encoding="UTF-8"?>
<svg width="440px" height="130px" viewBox="0 0 440 130" version="1.1" xmlns="http://www.w3.org/2000/svg" xmlns:xlink="http://www.w3.org/1999/xlink">
    <title>Logo/eduVPN-Logo</title>
    <g id="Logo/eduVPN-Logo" stroke="none" stroke-width="1" fill="none" fill-rule="evenodd">
        <g id="Group" transform="translate(140.132800, 36.816800)">
            <path d="M21.272,25.3991 C18.682,25.3991 16.652,26.2201 15.183,27.8631 C13.713,29.5051 12.873,31.8361 12.66,34.8541 L29.806,34.8541 C29.751,31.8361 28.964,29.5051 27.441,27.8631 C25.919,26.2201 23.862,25.3991 21.272,25.3991 M22.995,63.1371 C15.784,63.1371 10.148,61.1481 6.089,57.1681 C2.029,53.1881 3.55271368e-14,47.5531 3.55271368e-14,40.2621 C3.55271368e-14,32.7571 1.876,26.9561 5.628,22.8561 C9.381,18.7551 14.568,16.7061 21.192,16.7061 C27.522,16.7061 32.449,18.5081 35.975,22.1141 C39.5,25.7201 41.263,30.7001 41.263,37.0571 L41.263,42.9861 L12.378,42.9861 C12.512,46.4581 13.54,49.1691 15.464,51.1181 C17.387,53.0681 20.083,54.0431 23.556,54.0431 C26.252,54.0431 28.804,53.7621 31.207,53.2021 C33.611,52.6401 36.121,51.7461 38.739,50.5181 L38.739,59.9721 C36.602,61.0411 34.319,61.8351 31.888,62.3551 C29.458,62.8771 26.494,63.1371 22.995,63.1371" id="Fill-1" fill="#000000"></path>
            <path d="M66.5635,53.402 C69.6885,53.402 71.9785,52.494 73.4335,50.678 C74.8895,48.862 75.6835,45.777 75.8175,41.424 L75.8175,40.101 C75.8175,35.294 75.0765,31.849 73.5945,29.766 C72.1115,27.682 69.7015,26.641 66.3625,26.641 C63.6385,26.641 61.5215,27.797 60.0145,30.107 C58.5045,32.417 57.7495,35.775 57.7495,40.182 C57.7495,44.589 58.5115,47.893 60.0335,50.096 C61.5555,52.3 63.7315,53.402 66.5635,53.402 M62.2775,63.137 C57.0155,63.137 52.8825,61.094 49.8785,57.007 C46.8735,52.922 45.3715,47.259 45.3715,40.021 C45.3715,32.677 46.8995,26.956 49.9585,22.856 C53.0165,18.756 57.2295,16.706 62.5975,16.706 C68.2315,16.706 72.5325,18.896 75.4975,23.276 L75.8975,23.276 C75.2825,19.938 74.9765,16.96 74.9765,14.341 L74.9765,3.55271368e-15 L87.2355,3.55271368e-15 L87.2355,62.336 L77.8605,62.336 L75.4975,56.527 L74.9765,56.527 C72.1985,60.934 67.9655,63.137 62.2775,63.137" id="Fill-3" fill="#000000"></path>
            <path d="M126.6416,62.3356 L124.9986,56.6066 L124.3576,56.6066 C123.0486,58.6896 121.1926,60.2996 118.7886,61.4346 C116.3856,62.5686 113.6476,63.1366 110.5766,63.1366 C105.3146,63.1366 101.3486,61.7286 98.6786,58.9106 C96.0076,56.0926 94.6726,52.0406 94.6726,46.7526 L94.6726,17.5466 L106.8906,17.5466 L106.8906,43.7066 C106.8906,46.9396 107.4646,49.3626 108.6146,50.9776 C109.7616,52.5946 111.5906,53.4016 114.1026,53.4016 C117.5206,53.4016 119.9916,52.2596 121.5136,49.9776 C123.0356,47.6926 123.7966,43.9076 123.7966,38.6196 L123.7966,17.5466 L136.0156,17.5466 L136.0156,62.3356 L126.6416,62.3356 Z" id="Fill-5" fill="#000000"></path>
            <path d="M179.1045,3.7658 L191.6445,3.7658 L171.7345,62.3358 L158.1935,62.3358 L138.3235,3.7658 L150.8625,3.7658 L161.8785,38.6198 C162.4935,40.6768 163.1265,43.0728 163.7825,45.8098 C164.4365,48.5488 164.8435,50.4518 165.0025,51.5188 C165.2965,49.0618 166.2985,44.7628 168.0075,38.6198 L179.1045,3.7658 Z" id="Fill-7" fill="#E24301"></path>
            <path d="M208.332,31.3278 L212.419,31.3278 C216.237,31.3278 219.095,30.5738 220.992,29.0638 C222.888,27.5558 223.836,25.3588 223.836,22.4738 C223.836,19.5638 223.04,17.4138 221.452,16.0248 C219.863,14.6368 217.372,13.9418 213.98,13.9418 L208.332,13.9418 L208.332,31.3278 Z M236.375,22.0348 C236.375,28.3378 234.405,33.1588 230.466,36.4958 C226.525,39.8348 220.924,41.5038 213.66,41.5038 L208.332,41.5038 L208.332,62.3358 L195.913,62.3358 L195.913,3.7658 L214.622,3.7658 C221.726,3.7658 227.127,5.2948 230.826,8.3528 C234.525,11.4118 236.375,15.9718 236.375,22.0348 L236.375,22.0348 Z" id="Fill-9" fill="#E24301"></path>
            <path d="M294.2891,62.3356 L278.5051,62.3356 L253.0261,18.0276 L252.6651,18.0276 C253.1731,25.8546 253.4271,31.4346 253.4271,34.7736 L253.4271,62.3356 L242.3301,62.3356 L242.3301,3.7656 L257.9931,3.7656 L283.4331,47.6326 L283.7131,47.6326 C283.3121,40.0216 283.1121,34.6396 283.1121,31.4886 L283.1121,3.7656 L294.2891,3.7656 L294.2891,62.3356 Z" id="Fill-11" fill="#E24301"></path>
        </g>
        <g id="Logo/mark-light" transform="translate(-0.000050, 3.999225)">
            <g id="Mark" transform="translate(0.000000, -0.000000)">
                <path d="M91.0326498,39.8518752 C93.3926498,39.8518752 95.8446498,40.0818752 98.5296498,40.5548752 L104.32765,41.5608752 L95.9616498,47.2358752 C90.8876498,50.7108752 85.6966498,51.6228752 85.2886498,51.6898752 C84.5706498,51.7818752 83.8426498,51.8278752 83.1216498,51.8278752 C77.6196498,51.8278752 73.6716498,49.1128752 73.2976498,48.8458752 L71.6916498,47.5318752 L73.5736498,45.9258752 C78.3596498,41.8388752 84.0706498,39.8518752 91.0326498,39.8518752 Z M47.4416498,39.2278752 C54.0146498,39.2278752 59.7786498,41.3978752 65.0566498,45.9048752 L66.8576498,47.4208752 L66.8586498,47.4208752 L65.2516498,48.8468752 C64.8276498,49.1488752 60.9416498,51.8178752 55.5086498,51.8178752 C54.7876498,51.8178752 54.0576498,51.7758752 53.3376498,51.6838752 C52.9646498,51.6228752 47.6116498,50.7048752 42.4546498,47.0778752 L34.1846498,41.2798752 L40.0216498,40.0538752 C42.6636498,39.4978752 45.0946498,39.2278752 47.4416498,39.2278752 Z M70.6506498,0.165875213 C69.6946498,-0.0551247874 68.7016498,-0.0551247874 67.7446498,0.164875213 L1.37664984,15.4448752 C-0.405350159,15.8548752 -0.477350159,18.3658752 1.27764984,18.8778752 L17.0946498,23.4928752 L17.0946498,39.8388752 C17.0946498,40.3968752 17.4536498,40.8918752 17.9846498,41.0638752 L23.1336498,42.7418752 C23.9666498,43.0138752 24.8226498,42.3928752 24.8226498,41.5158752 L24.8226498,25.7738752 L32.0276498,27.8828752 L32.0276498,33.6378752 L32.0276498,39.3278752 L32.0276498,39.8188752 L32.0276498,41.7168752 L32.0276498,42.4658752 L32.0276498,52.4438752 L32.0276498,62.3208752 L32.0276498,85.4468752 C32.0276498,87.4928752 32.5076498,89.5138752 33.4426498,91.3318752 C42.6976498,109.335875 59.6566498,119.048875 66.3446498,122.323875 C68.1226498,123.193875 70.2026498,123.194875 71.9816498,122.324875 C78.6746498,119.051875 95.6556498,109.338875 104.91365,91.3328752 C105.84865,89.5138752 106.32865,87.4928752 106.32865,85.4468752 L106.32865,66.2028752 L106.32865,52.6438752 L106.32865,42.9048752 L106.32865,41.9088752 L106.32865,40.2068752 L106.32865,39.5398752 L106.32865,34.0978752 L106.32865,27.8808752 L137.08065,18.8808752 C138.83565,18.3678752 138.76265,15.8578752 136.98165,15.4478752 L70.6506498,0.165875213 Z" id="Black" fill="#000000"></path>
                <path d="M69.2881498,54.0341752 C69.2881498,54.0341752 63.7661498,58.3841752 55.5091498,58.3841752 C54.5191498,58.3841752 53.4421498,58.3211752 52.3791498,58.1821752 C52.3791498,58.1821752 45.5041498,57.2331752 38.5841498,52.4441752 L38.5841498,62.3201752 L38.5841498,85.5541752 C38.5841498,86.5381752 38.8111498,87.5091752 39.2391498,88.3941752 C48.6791498,107.902175 69.2001498,116.026175 69.2001498,116.026175 C69.2001498,116.026175 89.3141498,107.909175 99.0801498,88.4211752 C99.5331498,87.5161752 99.7731498,86.5171752 99.7731498,85.5061752 L99.7731498,66.2021752 L99.7731498,52.6441752 C92.8521498,57.2461752 86.2571498,58.1821752 86.2571498,58.1821752 C85.1941498,58.3211752 84.1121498,58.3841752 83.1221498,58.3841752 C74.8531498,58.3841752 69.2881498,54.0341752 69.2881498,54.0341752 Z" id="Orange-Shield" fill="#E24301"></path>
                <path d="M67.7476498,6.89197521 L20.6536498,17.7209752 L38.5836498,22.9659752 L38.5836498,33.6379752 C41.4976498,33.0549752 44.3516498,32.6719752 47.3976498,32.6719752 C54.3986498,32.6719752 61.9736498,34.6919752 69.2916498,40.9399752 C76.3346498,34.9259752 84.3036498,33.2959752 91.0736498,33.2959752 C94.2746498,33.2959752 97.2236498,33.6599752 99.7726498,34.0979752 L99.7726498,22.9659752 L117.68365,17.7209752 L70.6456498,6.89197521 C69.6926498,6.67297521 68.7016498,6.67297521 67.7476498,6.89197521" id="Orange-Hat" fill="#E24301"></path>
                <path d="M69.1781498,110.122175 L69.1781498,59.7461752 C69.1781498,59.7461752 76.1621498,65.2321752 86.1591498,63.9181752 C86.1591498,63.9181752 89.9391498,63.3901752 94.6741498,61.1821752 L94.6741498,84.8921752 C94.6741498,85.8181752 94.3871498,86.7181752 93.8691498,87.4861752 C84.1571498,101.888175 69.1781498,110.122175 69.1781498,110.122175 Z" id="White-glare" fill-opacity="0.5" fill="#FFFFFF"></path>
            </g>
        </g>
    </g>
</svg>