<?xml version="1.0" encoding="utf-8"?>
<!-- Generator: Adobe Illustrator 22.1.0, SVG Export Plug-In . SVG Version: 6.00 Build 0)  -->
<svg version="1.1" id="Layer_1" xmlns="http://www.w3.org/2000/svg" xmlns:xlink="http://www.w3.org/1999/xlink" x="0px" y="0px"
	 width="457px" height="185px" viewBox="0 0 457 185" style="enable-background:new 0 0 457 185;" xml:space="preserve">
<style type="text/css">
	.st0{fill:#1193F5;}
	.st1{font-family:'OpenSans-Bold';}
	.st2{font-size:36px;}
</style>
<g>
	<path id="path841_1_" class="st0" d="M83.8,65.7c-14.1-4.4-31.4,1.1-38.7,14.4c-8.4,4.2-19.3,1.3-26.3,8.8
		c-13.5,9.8-16,32.2-3,43.5c7.8,7.6,19.2,9.2,29.6,8.7c38.5,0.4,77-0.3,115.6,0.2c7.4-0.2,16.2,1.5,21.7-4.8
		c10.2-10.7,9.1-31.3-4.1-39.2c-4.5-4.5-16,3.8-13.3-6c0.4-20.2-12.3-41.4-32.5-46.5c-11.4-3.5-23.8-0.7-33.4,6.1
		C93.2,54.9,87.5,59.6,83.8,65.7z M130.3,58.8c7-0.6,5.1,10.6,3.5,14.1c-8.7-0.3-17.5,0-26.3-0.1c-3-7.3,1.2-18.4,10.1-12.2
		C121.9,61.5,126.1,59.5,130.3,58.8L130.3,58.8z M111.9,77.4c9.6,0.5,19.6-1.2,28.9,1.4c5.2,4.6-2.2,9.6-6.5,5.3
		c-2.8,1.9-1,8.9-7,6.7c-4.1,1.8-5.5-10.5-7.9-3.2c-0.5,6.7-12.7,3.5-10.7-3.6c-2.6-0.4-14.4-0.9-6.5-3.7
		C105.1,78.6,108.4,77.1,111.9,77.4L111.9,77.4z M105.6,100.3c1.5,7,2.3,19.3,10.4,20.6c5.3-1.1,2.4-10,3.7-14.4
		c-5.5-5.6,9.9-5.1,4-0.7c1.7,4.8-2.6,15,4.3,15c7.5-3.4,6.4-13.5,9.3-20c5.7-0.3,19-2.3,17,7.5c-1.2,6.7-2.2,13.4-3.3,20.1
		c-1.3,4.9-7,3-10.7,3.3c-15.6,0-31.1,0-46.7,0c-4.9-6.5-4.4-15.5-5.3-23.3c-2.5-9.8,9.3-7.2,15.4-8.1l0.9-0.1L105.6,100.3
		L105.6,100.3z"/>
	<text transform="matrix(1 0 0 1 199.2295 113.5)" class="st1 st2">Let’s Connect!</text>
</g>
</svg>
