<?xml version="1.0" encoding="utf-8"?>
<!-- Generator: Adobe Illustrator 22.1.0, SVG Export Plug-In . SVG Version: 6.00 Build 0)  -->
<svg version="1.1" id="Layer_1" xmlns="http://www.w3.org/2000/svg" xmlns:xlink="http://www.w3.org/1999/xlink" x="0px" y="0px"
	 width="947.244324px" height="502.166016px" viewBox="0 0 947.244324 502.166016"
	 enable-background="new 0 0 947.244324 502.166016" xml:space="preserve">
<g id="bg_1_">
	<path d="M760.140686,497.165985c-41.614258,0-75.470703-34.6875-75.470703-77.325195v-28.745117
		c0-46.836914-37.273438-84.941406-83.087891-84.941406H98.088936c-25.112793,0-48.568844-9.836914-66.047363-27.698242
		c-17.437988-17.819336-27.041504-41.700668-27.041504-67.244125V99.942368c0-52.351563,41.759277-94.942383,93.088867-94.942383
		h503.493164c25.112305,0,48.568359,9.836426,66.046875,27.697266c17.4375,17.819824,27.041016,41.701172,27.041016,67.245117
		v111.269531c0,46.836899,37.273438,84.942368,83.087891,84.942368h89.015625c41.615234,0,75.470703,34.6875,75.470703,77.325195
		v46.361328c0,42.637695-33.855469,77.325195-75.470703,77.325195H760.140686z"/>
	<path fill="#FFFFFF" d="M601.582153,10c49.143433,0,88.087891,39.871143,88.087891,89.942429v111.269424
		c0,50.070313,39.871948,89.942444,88.08783,89.942444h89.015747c38.944275,0,70.470703,32.453125,70.470703,72.325134v46.361298
		c0,39.871124-31.526428,72.325287-70.470703,72.325287H760.140747c-38.944458,0-70.470703-32.454163-70.470703-72.325287
		v-28.744995c0-50.070313-39.871033-89.941437-88.087891-89.941437H98.089005C48.944427,301.154297,10,261.282166,10,211.211853
		V99.942429C10,49.871143,49.872143,10,98.089005,10H601.582153 M601.582153,0H98.089005C44.002571,0,0,44.834,0,99.942429
		v111.269424c0,26.858582,10.110143,51.981873,28.468143,70.74173c18.426857,18.830292,43.152142,29.200714,69.620865,29.200714
		h503.493164c43.057861,0,78.087891,35.861572,78.087891,79.941437v28.744995c0,45.394287,36.098999,82.325287,80.470703,82.325287
		h106.632874c44.371704,0,80.470703-36.931,80.470703-82.325287v-46.361298c0-45.394287-36.098999-82.325134-80.470703-82.325134
		h-89.015747c-43.057861,0-78.08783-35.862-78.08783-79.942444V99.942429c0-26.859001-10.110168-51.982285-28.467896-70.742004
		C652.77533,10.370286,628.050598,0,601.582153,0L601.582153,0z"/>
</g>
<path id="SURF" fill="#FFFFFF" d="M571.910217,175.048798c9.2724,0,13.908203-4.636703,13.908203-13.90921
	c0-9.271393-4.635803-14.835892-13.908203-14.835892h-35.235413V118.48629h55.634827
	c9.272522,0,13.908203-4.635696,13.908203-14.8349c0-9.272499-4.635681-13.909195-13.908203-13.909195h-70.470703
	c-9.271484,0-14.835907,4.636696-14.835907,14.835899v101.997101c0,10.199203,4.636719,14.835892,14.835907,14.835892
	c9.273376,0,14.835876-4.636688,14.835876-14.835892v-32.454102C536.674805,175.048798,571.910217,175.048798,571.910217,175.048798
	z M456.004944,172.267593c12.982391-6.491196,20.399384-19.472702,20.399384-36.163101
	c0-26.889702-19.47171-46.362297-47.289001-46.362297h-41.726593c-9.272491,0-14.835907,4.636696-14.835907,14.835899v101.997101
	c0,10.199203,4.636719,14.835892,14.835907,14.835892c9.273407,0,14.835907-4.636688,14.835907-14.835892v-26.889709h25.036194
	l14.835907,31.526413c2.781281,6.490189,6.490204,9.2715,12.05368,9.2715c7.417999,0,16.690521-5.5625,16.690521-13.908203
	c0-2.782196-0.927795-5.563507-1.853607-8.344696L456.004944,172.267593L456.004944,172.267593z M425.406342,153.721695h-25.036194
	V118.48629h25.036194c11.125977,0,20.399384,5.564499,20.399384,17.618202
	C445.805725,148.159195,436.532318,153.721695,425.406342,153.721695z M307.645538,161.139587
	c0,20.400406-12.053711,32.453201-28.74411,32.453201s-28.745087-12.052795-28.745087-32.453201V103.65139
	c0-10.200195-4.635803-14.836998-14.836014-14.836998c-9.271393,0-14.835892,4.636803-14.835892,14.836998v57.488197
	c0,38.017609,25.036102,62.126007,58.416992,62.126007s58.416016-24.108398,58.416016-62.126007V103.65139
	c0-10.200195-4.636719-14.836998-14.835907-14.836998c-9.272491,0-14.835999,4.636803-14.835999,14.836998V161.139587z
	 M141.669037,195.448196c-11.126999,0-19.471695-2.781204-25.036201-4.636703
	c-4.635696-1.854507-8.344696-2.780304-12.9804-2.780304c-8.345695,0-12.981499,5.5616-12.981499,13.907303
	c0,13.909103,27.817398,21.327103,51.924797,21.327103c28.745209,0,50.9991-15.763702,50.9991-39.872101
	c0-22.253906-14.835999-32.453094-30.598694-38.016602L138.886734,137.959
	c-10.199203-2.781311-14.834892-5.5625-14.834892-12.053711c0-6.491196,10.199196-10.199295,18.543892-10.199295
	c10.200211,0,17.61821,2.780296,23.181702,4.635796c3.709,0.926704,7.417908,2.781204,12.053711,2.781204
	c7.417999,0,12.054688-5.5634,12.054688-13.908203c0-13.909096-25.036194-21.326096-47.2901-21.326096
	c-27.816399,0-48.215797,15.762695-48.215797,38.943298c0,19.471703,13.908203,30.598701,28.744209,35.235405l21.326096,6.491196
	c11.126999,3.709,19.472702,6.490204,19.472702,12.9814C162.068436,190.811493,150.941437,195.448196,141.669037,195.448196z"/>
</svg>
