<svg height='300px' width='300px' fill="#000000" xmlns="http://www.w3.org/2000/svg" xmlns:xlink="http://www.w3.org/1999/xlink" version="1.1" x="0px" y="0px" viewBox="0 0 100 100" enable-background="new 0 0 100 100" xml:space="preserve">
    <path fill="#000000" d="M99.5,42.9l-13.1-9.5l1.4-16.1l-16.2-0.9L64.1,2L50,10L35.9,2l-7.5,14.3l-16.2,0.9l1.4,16.1L0.5,42.9  l9.9,12.8L4.5,70.8l15.3,5.4L23,92.1l15.8-3.7L50,100l11.3-11.6L77,92.1l3.2-15.9l15.3-5.4l-5.9-15.1L99.5,42.9z M55.5,72.9h-11  v-8.4h11V72.9z M55.5,57.6h-11V23h11V57.6z"></path>
</svg>
