<?xml version="1.0" encoding="UTF-8"?>
<svg width="150px" height="130px" viewBox="0 0 150 130" version="1.1" xmlns="http://www.w3.org/2000/svg" xmlns:xlink="http://www.w3.org/1999/xlink">
    <title>illustration/desktop_deafault</title>
    <g id="illustration/desktop_deafault" stroke="none" stroke-width="1" fill="none" fill-rule="evenodd">
        <g id="Group">
            <polygon id="Fill-18" fill="#505050" points="62 125 88 125 88 107 62 107"></polygon>
            <polygon id="Fill-18" fill="#505050" points="35 130 115 130 115 125 35 125"></polygon>
            <path d="M7.62888723,107 L142.368536,107 C146.583619,107 150,103.546706 150,99.2857769 L150,7.7142231 C150,3.45329373 146.583619,3.6438089e-14 142.368536,3.6438089e-14 L7.62888723,3.6438089e-14 C3.41509288,3.6438089e-14 2.0040949e-13,3.45329373 2.0040949e-13,7.7142231 L2.0040949e-13,99.2857769 C2.0040949e-13,103.546706 3.41509288,107 7.62888723,107" id="Fill-20" fill="#505050"></path>
            <path d="M79,98.9992591 C79,101.208557 77.2100389,103 74.9992591,103 C72.7914429,103 71,101.208557 71,98.9992591 C71,96.7899611 72.7914429,95 74.9992591,95 C77.2100389,95 79,96.7899611 79,98.9992591" id="Fill-21" fill="#FFFFFF"></path>
            <path d="M9.33179273,90 L140.668207,90 C142.508344,90 144,88.4969689 144,86.6427987 L144,9.35720125 C144,7.50303105 142.508344,6 140.668207,6 L9.33179273,6 C7.49165556,6 6,7.50303105 6,9.35720125 L6,86.6427987 C6,88.4969689 7.49165556,90 9.33179273,90" id="Fill-23" fill="#7C7C7C"></path>
            <path d="M86.7193333,24.4077286 C79.7693446,24.4077286 75.0920333,20.6567585 75.0920333,20.6567585 C75.0920333,20.6567585 70.450863,24.4077286 63.5109602,24.4077286 C62.6788779,24.4077286 61.7736731,24.3534042 60.8802352,24.2335456 C60.8802352,24.2335456 55.1018857,23.4152305 49.2857143,19.2857143 L49.2857143,27.8017098 L49.2857143,27.8060213 L49.2857143,53.0099533 C49.2857143,53.8584486 49.4765049,54.6957341 49.8362334,55.4588625 C57.7704326,72.2804543 75.0180705,79.2857143 75.0180705,79.2857143 C75.0180705,79.2857143 91.9236301,72.2864903 100.131828,55.4821444 C100.512569,54.7017702 100.714286,53.8403405 100.714286,52.9685633 L100.714286,31.1491272 L100.714286,31.1482649 L100.714286,19.4581727 C94.8972738,23.4264403 89.3542607,24.2335456 89.3542607,24.2335456 C88.4608228,24.3534042 87.5514156,24.4077286 86.7193333,24.4077286" id="Orange-Shield-Copy" fill="#979797"></path>
        </g>
    </g>
</svg>