<?xml version="1.0" encoding="UTF-8"?>
<svg width="150px" height="130px" viewBox="0 0 150 130" version="1.1" xmlns="http://www.w3.org/2000/svg" xmlns:xlink="http://www.w3.org/1999/xlink">
    <title>illustration/desktop_connecting</title>
    <g id="illustration/desktop_connecting" stroke="none" stroke-width="1" fill="none" fill-rule="evenodd">
        <g id="Group">
            <polygon id="Fill-18" fill="#505050" points="62 125 88 125 88 107 62 107"></polygon>
            <polygon id="Fill-18" fill="#505050" points="35 130 115 130 115 125 35 125"></polygon>
            <path d="M7.62888723,107 L142.368536,107 C146.583619,107 150,103.546706 150,99.2857769 L150,7.7142231 C150,3.45329373 146.583619,3.6438089e-14 142.368536,3.6438089e-14 L7.62888723,3.6438089e-14 C3.41509288,3.6438089e-14 2.0040949e-13,3.45329373 2.0040949e-13,7.7142231 L2.0040949e-13,99.2857769 C2.0040949e-13,103.546706 3.41509288,107 7.62888723,107" id="Fill-20" fill="#505050"></path>
            <path d="M79,98.9992591 C79,101.208557 77.2100389,103 74.9992591,103 C72.7914429,103 71,101.208557 71,98.9992591 C71,96.7899611 72.7914429,95 74.9992591,95 C77.2100389,95 79,96.7899611 79,98.9992591" id="Fill-21" fill="#FFFFFF"></path>
            <path d="M9.33179273,90 L140.668207,90 C142.508344,90 144,88.4969689 144,86.6427987 L144,9.35720125 C144,7.50303105 142.508344,6 140.668207,6 L9.33179273,6 C7.49165556,6 6,7.50303105 6,9.35720125 L6,86.6427987 C6,88.4969689 7.49165556,90 9.33179273,90" id="Fill-23" fill="#FF9900"></path>
            <path d="M84,47.998333 C84,52.9692536 79.9725875,57 74.998333,57 C70.0307464,57 66,52.9692536 66,47.998333 C66,43.0274125 70.0307464,39 74.998333,39 C79.9725875,39 84,43.0274125 84,47.998333" id="Fill-21" fill="#FFFFFF"></path>
            <path d="M58,47.998333 C58,52.9692536 53.9725875,57 48.998333,57 C44.0307464,57 40,52.9692536 40,47.998333 C40,43.0274125 44.0307464,39 48.998333,39 C53.9725875,39 58,43.0274125 58,47.998333" id="Fill-21-Copy" fill="#FFFFFF"></path>
            <path d="M110,47.998333 C110,52.9692536 105.972588,57 100.998333,57 C96.0307464,57 92,52.9692536 92,47.998333 C92,43.0274125 96.0307464,39 100.998333,39 C105.972588,39 110,43.0274125 110,47.998333" id="Fill-21-Copy-2" fill="#FFFFFF"></path>
        </g>
    </g>
</svg>