<?xml version="1.0" encoding="UTF-8"?>
<svg width="30px" height="30px" viewBox="0 0 30 30" version="1.1" xmlns="http://www.w3.org/2000/svg" xmlns:xlink="http://www.w3.org/1999/xlink">
    <title>illustration/earth_icon (dark)</title>
    <g id="illustration/earth_icon-(dark)" stroke="none" stroke-width="1" fill="none" fill-rule="evenodd">
        <circle id="Oval" stroke="#FFFFFF" stroke-width="2" cx="15" cy="15" r="14"></circle>
        <g id="Group-14" fill="#FFFFFF">
            <path d="M16.0570793,10.5292227 C15.9490915,10.5544251 15.7400061,10.6073198 15.6495183,10.679587 C15.5366524,10.7697692 15.7130549,10.8870364 15.6486646,10.938413 C15.5373841,11.0270769 15.4566524,11.1878866 15.2184817,11.1727045 C14.7207378,11.1410648 13.9559207,10.4998907 13.5011037,10.2575223 C14.2342134,9.50606478 13.0743354,9.39347368 12.6222012,9.43112551 C12.0368354,9.47989069 11.0237256,9.4272996 10.4948841,9.72383806 C10.127872,9.92964777 9.63457927,10.7838583 9.33890854,11.1231498 C8.92732317,11.5953765 8.51317683,12.0053563 8.2450061,12.5707409 C7.26116463,14.6448097 8.77543293,17.0259231 11.155311,16.7474211 C11.8160427,16.6701134 12.5090915,16.2563684 13.0947012,16.8023198 C13.5262866,17.2046478 13.2979329,17.5832915 13.4122622,18.0524818 C13.5113476,18.4585142 13.96275,18.7082915 14.1189695,19.081166 C14.4184817,19.7959433 14.2288476,20.2430283 14.0150061,20.9022389 C13.7343963,21.7673198 14.4600671,22.7944251 14.7424451,23.6292632 C14.8846402,24.0496275 15.2990915,25.2267935 15.7059817,25.4109838 C16.3457378,25.7006599 17.3485427,24.8319352 17.7304939,24.3646883 C18.0292134,23.9994049 17.9317134,23.6283522 18.1322622,23.2863279 C18.3494573,22.9161862 18.6242134,22.8050526 18.7763476,22.3278462 C18.940311,21.8134737 19.1106768,21.6855789 19.4569573,21.3101538 C20.0143963,20.706085 19.927811,20.3527652 19.7049451,19.6364089 C19.2418354,18.1481903 20.9239695,17.4524818 21.6817134,16.3600324 C22.4729329,15.2192429 20.9435427,15.5995263 20.3441524,15.2093441 C19.727811,14.80817 19.4584817,14.0457206 19.1615915,13.4136559 C18.8645183,12.7815304 18.6187256,11.8316113 18.1267744,11.3123806 C17.747872,10.9126032 16.595128,10.7271377 16.0570793,10.5292227" id="Fill-4"></path>
            <path d="M23.7980671,20.5126093 C23.5589207,21.3150789 23.3198963,22.1175486 23.080811,22.9200182 C22.9136768,23.4810304 22.3228232,25.316253 21.4937988,24.1407267 C21.1786768,23.6940061 21.4348963,23.1086417 21.61075,22.6975688 C21.8325183,22.1789453 21.5328232,21.9178117 21.6874573,21.4268198 C21.8647744,20.8640466 22.5942866,20.8447955 22.9394695,20.4489656 C23.1801402,20.1730142 23.3286768,19.734249 23.5045915,19.4111721 C23.6025183,19.7783988 23.7002622,20.1454433 23.7980671,20.5126093" id="Fill-6"></path>
            <path d="M27.9857317,7.53092308 C25.4028049,3.07531579 20.8628049,0.44691498 16.0714634,0.100275304 L14.1104268,2.55031579 L9.90731707,4.01788664 L8.7797561,6.74023482 L10.5190854,9.16689474 L10.7039634,8.6538583 C11.0126829,7.79727935 11.8279878,7.22600405 12.7417073,7.22600405 L15.6083537,7.22600405 L18.9034756,8.37924291 L20.0384146,9.45827126 L20.0384146,10.1436559 L21.6162805,13.1537976 L22.0757317,12.9850324 C23.0679268,12.6206599 23.9688415,12.0462874 24.7166463,11.3015709 L24.3357317,10.7324211 C24.2145732,10.5514494 24.344878,10.309081 24.5632317,10.309081 L25.4827439,10.309081 C25.7520122,10.309081 26.0077439,10.4265304 26.182622,10.6304575 L26.9337805,11.5063482 C27.0053659,11.5897895 27.0612805,11.6853765 27.0989634,11.7884939 L27.9278659,14.0587166 L28.322378,13.6657409 C28.5712195,13.4179069 28.6971951,13.0803158 28.7030488,12.7299109 C28.7077439,12.4481903 28.8304878,12.1809231 29.0420122,11.9930283 L29.3441463,11.7246073 C29.420122,11.6571377 29.504939,11.6022996 29.5951829,11.5608219 C29.2667073,10.1801538 28.7346951,8.82292713 27.9857317,7.53092308" id="Fill-8"></path>
            <path d="M5.55114634,8.11436842 L6.26840244,7.34888259 C6.79139024,6.7907247 6.93956098,5.97999595 6.6474878,5.27408502 C6.33870732,4.52772874 5.66169512,4.04384211 4.91230488,3.94376113 C2.26352439,6.33635223 0.616634146,9.55309312 0.142853659,12.9604008 C0.702853659,13.4479312 1.28889024,13.969834 1.28553659,14.0158057 C1.27907317,14.1038016 3.38364634,13.7523644 3.38364634,13.7523644 L2.30023171,12.1694696 L3.85614634,11.0614737 L5.55114634,8.11436842 Z" id="Fill-10"></path>
            <path d="M7.00955488,22.9961417 C7.68565244,22.777336 8.05565244,22.0541174 7.83601829,21.3808178 L7.64290854,20.7887733 C7.55851829,20.5301903 7.55894512,20.2515668 7.64406707,19.993166 C7.88534756,19.2605951 7.42754268,18.4832672 6.66790854,18.3354534 L5.15248171,18.0404332 L2.38425,15.9443198 L0.095652439,16.6847247 C0.320408537,18.6642389 0.947664634,20.631 2.01156707,22.4663441 C2.99559146,24.163834 4.2640061,25.5954534 5.72168902,26.7373968 L6.40364024,23.1921741 L7.00955488,22.9961417 Z" id="Fill-12"></path>
        </g>
    </g>
</svg>