<?xml version="1.0" encoding="UTF-8"?>
<svg width="492px" height="494px" viewBox="0 0 492 494" version="1.1" xmlns="http://www.w3.org/2000/svg" xmlns:xlink="http://www.w3.org/1999/xlink">
    <title>illustration/earth</title>
    <defs>
        <polygon id="path-1" points="0 0.0437052977 491.956 0.0437052977 491.956 492 0 492"></polygon>
    </defs>
    <g id="illustration/earth" stroke="none" stroke-width="1" fill="none" fill-rule="evenodd">
        <g id="Group-14">
            <g id="Group-3" transform="translate(0.000000, 0.957000)">
                <mask id="mask-2" fill="white">
                    <use xlink:href="#path-1"></use>
                </mask>
                <g id="Clip-2"></g>
                <path d="M368.9465,459.0097 C251.3165,526.9237 100.9045,486.6197 32.9905,368.9897 C-34.9235,251.3607 5.3785,100.9467 123.0095,33.0337 C240.6405,-34.8793 391.0515,5.4237 458.9665,123.0517 C526.8805,240.6817 486.5765,391.0957 368.9465,459.0097" id="Fill-1" fill="#01B4D2" mask="url(#mask-2)"></path>
            </g>
            <path d="M263.3361,173.3812 C261.5651,173.7962 258.1361,174.6672 256.6521,175.8572 C254.8011,177.3422 257.6941,179.2732 256.6381,180.1192 C254.8131,181.5792 253.4891,184.2272 249.5831,183.9772 C241.4201,183.4562 228.8771,172.8982 221.4181,168.9072 C233.4411,156.5332 214.4191,154.6792 207.0041,155.2992 C197.4041,156.1022 180.7891,155.2362 172.1161,160.1192 C166.0971,163.5082 158.0071,177.5742 153.1581,183.1612 C146.4081,190.9372 139.6161,197.6882 135.2181,206.9982 C119.0831,241.1512 143.9171,280.3602 182.9471,275.7742 C193.7831,274.5012 205.1491,267.6882 214.7531,276.6782 C221.8311,283.3032 218.0861,289.5382 219.9611,297.2642 C221.5861,303.9502 228.9891,308.0632 231.5511,314.2032 C236.4631,325.9732 233.3531,333.3352 229.8461,344.1902 C225.2441,358.4352 237.1451,375.3482 241.7761,389.0952 C244.1081,396.0172 250.9051,415.4012 257.5781,418.4342 C268.0701,423.2042 284.5161,408.8992 290.7801,401.2052 C295.6791,395.1902 294.0801,389.0802 297.3691,383.4482 C300.9311,377.3532 305.4371,375.5232 307.9321,367.6652 C310.6211,359.1952 313.4151,357.0892 319.0941,350.9072 C328.2361,340.9602 326.8161,335.1422 323.1611,323.3462 C315.5661,298.8402 343.1531,287.3842 355.5801,269.3952 C368.5561,250.6102 343.4741,256.8722 333.6441,250.4472 C323.5361,243.8412 319.1191,231.2862 314.2501,220.8782 C309.3781,210.4692 305.3471,194.8272 297.2791,186.2772 C291.0651,179.6942 272.1601,176.6402 263.3361,173.3812" id="Fill-4" fill="#078B50"></path>
            <path d="M390.2883,337.7743 C386.3663,350.9883 382.4463,364.2023 378.5253,377.4163 C375.7843,386.6543 366.0943,416.8743 352.4983,397.5173 C347.3303,390.1613 351.5323,380.5223 354.4163,373.7533 C358.0533,365.2133 353.1383,360.9133 355.6743,352.8283 C358.5823,343.5613 370.5463,343.2443 376.2073,336.7263 C380.1543,332.1823 382.5903,324.9573 385.4753,319.6373 C387.0813,325.6843 388.6843,331.7283 390.2883,337.7743" id="Fill-6" fill="#078B50"></path>
            <path d="M458.966,124.0092 C416.606,50.6402 342.15,7.3592 263.572,1.6512 L231.411,41.9952 L162.48,66.1612 L143.988,110.9892 L172.513,150.9482 L175.545,142.5002 C180.608,128.3952 193.979,118.9882 208.964,118.9882 L255.977,118.9882 L310.017,137.9782 L328.63,155.7462 L328.63,167.0322 L354.507,216.5992 L362.042,213.8202 C378.314,207.8202 393.089,198.3622 405.353,186.0992 L399.106,176.7272 C397.119,173.7472 399.256,169.7562 402.837,169.7562 L417.917,169.7562 C422.333,169.7562 426.527,171.6902 429.395,175.0482 L441.714,189.4712 C442.888,190.8452 443.805,192.4192 444.423,194.1172 L458.017,231.5002 L464.487,225.0292 C468.568,220.9482 470.634,215.3892 470.73,209.6192 C470.807,204.9802 472.82,200.5792 476.289,197.4852 L481.244,193.0652 C482.49,191.9542 483.881,191.0512 485.361,190.3682 C479.974,167.6332 471.249,145.2842 458.966,124.0092" id="Fill-8" fill="#078B50"></path>
            <path d="M91.0388,133.6166 L102.8018,121.0116 C111.3788,111.8206 113.8088,98.4706 109.0188,86.8466 C103.9548,74.5566 92.8518,66.5886 80.5618,64.9406 C37.1218,104.3386 10.1128,157.3076 2.3428,213.4146 C11.5268,221.4426 21.1378,230.0366 21.0828,230.7936 C20.9768,232.2426 55.4918,226.4556 55.4918,226.4556 L37.7238,200.3906 L63.2408,182.1456 L91.0388,133.6166 Z" id="Fill-10" fill="#078B50"></path>
            <path d="M114.9567,378.6698 C126.0447,375.0668 132.1127,363.1578 128.5107,352.0708 L125.3437,342.3218 C123.9597,338.0638 123.9667,333.4758 125.3627,329.2208 C129.3197,317.1578 121.8117,304.3578 109.3537,301.9238 L84.5007,297.0658 L39.1017,262.5498 L1.5687,274.7418 C5.2547,307.3378 15.5417,339.7238 32.9897,369.9458 C49.1277,397.8978 69.9297,421.4718 93.8357,440.2758 L105.0197,381.8978 L114.9567,378.6698 Z" id="Fill-12" fill="#078B50"></path>
        </g>
    </g>
</svg>