<?xml version="1.0" encoding="UTF-8"?>
<svg width="449px" height="397px" viewBox="0 0 449 397" version="1.1" xmlns="http://www.w3.org/2000/svg" xmlns:xlink="http://www.w3.org/1999/xlink">
    <title>illustration/Institute</title>
    <g id="illustration/Institute" stroke="none" stroke-width="1" fill="none" fill-rule="evenodd">
        <polygon id="Fill-1" fill="#9A2E00" points="334.64 396.141 448.64 396.141 448.64 186.86 334.64 186.86"></polygon>
        <polygon id="Fill-2" fill="#FFFFFF" points="166.32 396.062 224.32 396.062 224.32 288.701 166.32 288.701"></polygon>
        <polygon id="Fill-3" fill="#000000" points="219.336 107.712 229.303 107.712 229.303 1.001 219.336 1.001"></polygon>
        <g id="Group-30" transform="translate(0.000000, 9.141000)">
            <polygon id="Fill-9" fill="#9A2E00" points="0 387 113 387 113 177.72 0 177.72"></polygon>
            <path d="M224.32,127.7198 C210.226,127.7198 198.8,139.1458 198.8,153.2398 C198.8,167.3338 210.226,178.7598 224.32,178.7598 C238.414,178.7598 249.84,167.3338 249.84,153.2398 C249.796,139.1638 238.396,127.7638 224.32,127.7198 L224.32,127.7198 Z M282.32,386.9208 L282.32,279.5598 L166.32,279.5598 L166.32,386.9208 L110.32,386.9208 L110.32,149.9598 L224,85.9598 L337.68,149.9598 L337.68,386.9208 L282.32,386.9208 Z" id="Fill-4" fill="#E24301"></path>
            <polygon id="Fill-6" fill="#EDEDED" points="224.32 386.92 282.32 386.92 282.32 279.56 224.32 279.56"></polygon>
            <path d="M224.32,126.3199 C239.232422,126.3199 251.32,138.408536 251.32,153.3199 C251.32,168.231264 239.232422,180.3199 224.32,180.3199 C209.408636,180.3199 197.32,168.231264 197.32,153.3199 C197.32,138.408536 209.408636,126.3199 224.32,126.3199" id="Fill-8" fill="#9A2E00"></path>
            <polygon id="Fill-10" fill="#ED1556" points="228.825 42.04 294.185 42.04 294.185 0.04 228.825 0.04"></polygon>
            <polygon id="Fill-11" fill="#B10F40" points="272.0554 15.7301 335.8154 15.7301 321.5584 36.7301 335.8154 57.7301 272.0554 57.7301"></polygon>
            <polygon id="Fill-12" fill="#FFFFFF" points="27.6 235.32 43.6 235.32 43.6 203.32 27.6 203.32"></polygon>
            <polygon id="Fill-13" fill="#FFFFFF" points="67.04 235.32 83.04 235.32 83.04 203.32 67.04 203.32"></polygon>
            <polygon id="Fill-14" fill="#FFFFFF" points="142.64 222.32 174.64 222.32 174.64 206.32 142.64 206.32"></polygon>
            <polygon id="Fill-15" fill="#FFFFFF" points="208.32 222.32 240.32 222.32 240.32 206.32 208.32 206.32"></polygon>
            <polygon id="Fill-16" fill="#FFFFFF" points="274 222.32 306 222.32 306 206.32 274 206.32"></polygon>
            <polygon id="Fill-17" fill="#FFFFFF" points="142.64 250.6 174.64 250.6 174.64 234.6 142.64 234.6"></polygon>
            <polygon id="Fill-18" fill="#FFFFFF" points="208.32 250.6 240.32 250.6 240.32 234.6 208.32 234.6"></polygon>
            <polygon id="Fill-19" fill="#FFFFFF" points="274 250.6 306 250.6 306 234.6 274 234.6"></polygon>
            <polygon id="Fill-20" fill="#FFFFFF" points="27.6 291.28 43.6 291.28 43.6 259.28 27.6 259.28"></polygon>
            <polygon id="Fill-21" fill="#FFFFFF" points="67.04 291.28 83.04 291.28 83.04 259.28 67.04 259.28"></polygon>
            <polygon id="Fill-22" fill="#FFFFFF" points="27.6 347.32 43.6 347.32 43.6 315.32 27.6 315.32"></polygon>
            <polygon id="Fill-23" fill="#FFFFFF" points="67.04 347.32 83.04 347.32 83.04 315.32 67.04 315.32"></polygon>
            <polygon id="Fill-24" fill="#FFFFFF" points="365.6 235.32 381.6 235.32 381.6 203.32 365.6 203.32"></polygon>
            <polygon id="Fill-25" fill="#FFFFFF" points="405.04 235.32 421.04 235.32 421.04 203.32 405.04 203.32"></polygon>
            <polygon id="Fill-26" fill="#FFFFFF" points="365.6 291.28 381.6 291.28 381.6 259.28 365.6 259.28"></polygon>
            <polygon id="Fill-27" fill="#FFFFFF" points="405.04 291.28 421.04 291.28 421.04 259.28 405.04 259.28"></polygon>
            <polygon id="Fill-28" fill="#FFFFFF" points="365.6 347.32 381.6 347.32 381.6 315.32 365.6 315.32"></polygon>
            <polygon id="Fill-29" fill="#FFFFFF" points="405.04 347.32 421.04 347.32 421.04 315.32 405.04 315.32"></polygon>
        </g>
    </g>
</svg>