<?xml version="1.0" encoding="UTF-8"?>
<svg width="30px" height="29px" viewBox="0 0 30 29" version="1.1" xmlns="http://www.w3.org/2000/svg" xmlns:xlink="http://www.w3.org/1999/xlink">
    <title>illustration/institute_icon</title>
    <g id="illustration/institute_icon" stroke="none" stroke-width="1" fill="none" fill-rule="evenodd">
        <path d="M17.3174251,24.3944544 L17.3174251,13.8500371 C17.3174251,13.3040104 17.3307436,12.7546209 17.3240844,12.2052313 L22.3118757,12.2052313 L22.3118757,23.6192158 C22.3118757,23.8767962 22.308879,24.1358417 22.3069145,24.3944544 L17.3174251,24.3944544 Z M7.66148724,13.8500371 C7.66148724,13.3040104 7.67480577,12.7546209 7.6681465,12.2052313 L12.6559378,12.2052313 L12.6559378,23.6192158 C12.6559378,23.8767962 12.6529412,24.1358417 12.6509767,24.3944544 L7.66148724,24.3944544 L7.66148724,13.8500371 Z M12.8824528,4.67516471 C13.5850721,3.81285616 14.8443396,3.46610811 15.893707,3.84478735 C16.984162,4.24174629 17.7095893,5.24549767 17.7415205,6.4043767 L17.7415205,6.44999268 L17.7415205,6.49560866 C17.7004661,7.75031454 16.8061931,8.91835006 15.5423973,9.14646327 C14.3972031,9.35633008 13.2337625,8.87270078 12.6223751,7.8643878 C12.0109878,6.85607481 12.147869,5.57399934 12.8824528,4.67516471 L12.8824528,4.67516471 Z M29.427303,12.2052313 L29.4739179,12.2052313 C29.7486127,12.2052313 29.9733629,11.980481 29.9733629,11.7057862 L29.9733629,8.47604151 C29.9700333,8.42609701 29.963374,8.37278957 29.9433962,8.32284507 C29.9433962,8.31954873 29.9400666,8.3162191 29.9400666,8.31288946 C29.900111,8.20967082 29.8301887,8.11644107 29.7369589,8.05647437 L29.7336293,8.05317803 C29.7302997,8.0498484 29.72697,8.0498484 29.7236404,8.04651876 C29.7069922,8.03652986 29.6936737,8.02987059 29.6803552,8.01988169 L29.6770255,8.01988169 C29.2108768,7.76349989 28.7447281,7.50378846 28.2785794,7.24740666 C27.1198668,6.60808369 25.9611876,5.96882731 24.8057714,5.33286726 C23.4073252,4.56035894 22.008879,3.79124684 20.6104329,3.01877181 C19.4051054,2.35284507 18.199778,1.69024795 16.9944506,1.0243212 C16.418424,0.704676365 15.8490566,0.365020427 15.2597114,0.0687163203 C14.9667037,-0.081117198 14.7669256,0.0420792504 14.527192,0.171934966 C14.2308546,0.33508702 13.9345172,0.498205776 13.6348502,0.664687463 C12.5394007,1.26738447 11.4439512,1.87337781 10.3485017,2.47604151 C8.95671476,3.24515361 7.56492786,4.01096937 6.17314095,4.78014806 C4.91786903,5.47271188 3.65926748,6.1652757 2.40399556,6.85780622 C1.71809101,7.23741776 1.03218646,7.61699601 0.342952275,7.99324462 C0.309655938,8.00989279 0.279689234,8.02654096 0.246392897,8.04651876 C0.0932297447,8.12975961 -1.95399252e-14,8.3061969 -1.95399252e-14,8.47937115 L-1.95399252e-14,11.7091159 C-1.95399252e-14,11.9838107 0.224750277,12.2085609 0.499445061,12.2085609 L2.99667037,12.2085609 L2.99667037,23.6192158 C2.99667037,23.8767962 2.99370699,24.1358417 2.99170921,24.3944544 L0.550621532,24.3944544 C0.246526082,24.3944544 -1.95399252e-14,24.6409472 -1.95399252e-14,24.9450426 L-1.95399252e-14,28.0391714 C-1.95399252e-14,28.3432668 0.246526082,28.5897596 0.550621532,28.5897596 L29.4227414,28.5897596 C29.7268368,28.5897596 29.9733629,28.3432668 29.9733629,28.0391714 L29.9733629,24.9450426 C29.9733629,24.6409472 29.7268368,24.3944544 29.4227414,24.3944544 L26.9800222,24.3944544 L26.9800222,13.8500371 C26.9800222,13.3040104 26.9933407,12.7546209 26.9866815,12.2052313 L28.2985572,12.2052313 C28.6748058,12.2052313 29.0510544,12.2118906 29.427303,12.2052313 L29.427303,12.2052313 Z" id="Fill-1" fill="#000000"></path>
    </g>
</svg>