<?xml version="1.0" encoding="UTF-8"?>
<svg width="30px" height="30px" viewBox="0 0 30 30" version="1.1" xmlns="http://www.w3.org/2000/svg" xmlns:xlink="http://www.w3.org/1999/xlink">
    <title>illustration/question_icon (dark)</title>
    <g id="illustration/question_icon-(dark)" stroke="none" stroke-width="1" fill="none" fill-rule="evenodd">
        <circle id="Oval" stroke="#FFFFFF" stroke-width="2" cx="15" cy="15" r="14"></circle>
        <path d="M16.2457372,17.5424403 L16.2457372,16.933687 C16.2457372,16.5915119 16.3520562,16.2950928 16.5646941,16.0444297 C16.777332,15.7937666 17.3049147,15.397878 18.1474423,14.8567639 C19.1424273,14.2281167 19.8665998,13.5616711 20.3199599,12.8574271 C20.77332,12.153183 21,11.3196286 21,10.3567639 C21,9.01193634 20.4904714,7.94960212 19.4714142,7.16976127 C18.4523571,6.38992042 17.0481444,6 15.2587763,6 C13.0842528,6 10.997994,6.56498674 9,7.69496021 L9,7.69496021 L10.6730191,10.9416446 C12.2938816,10.0901857 13.7101304,9.66445623 14.9217653,9.66445623 C15.4112337,9.66445623 15.8084253,9.76193634 16.11334,9.95689655 C16.4182548,10.1518568 16.5707121,10.4164456 16.5707121,10.7506631 C16.5707121,11.1724138 16.4282849,11.5464191 16.1434303,11.872679 C15.8585757,12.198939 15.3911735,12.5649867 14.7412237,12.9708223 C13.9227683,13.4801061 13.3530592,14.0033156 13.0320963,14.5404509 C12.7111334,15.0775862 12.550652,15.7360743 12.550652,16.5159151 L12.550652,16.5159151 L12.550652,17.5424403 L16.2457372,17.5424403 Z M14.5727182,24 C15.3430291,24 15.9508526,23.801061 16.3961886,23.403183 C16.8415246,23.005305 17.0641926,22.4442971 17.0641926,21.7201592 C17.0641926,20.9960212 16.8495486,20.4330239 16.4202608,20.0311671 C15.9909729,19.6293103 15.3751254,19.428382 14.5727182,19.428382 C13.7382146,19.428382 13.106319,19.627321 12.6770311,20.0251989 C12.2477432,20.4230769 12.0330993,20.9880637 12.0330993,21.7201592 C12.0330993,22.4522546 12.2577733,23.015252 12.7071214,23.4091512 C13.1564694,23.8030504 13.778335,24 14.5727182,24 Z" id="?" fill="#FFFFFF" fill-rule="nonzero"></path>
    </g>
</svg>