<?xml version="1.0" encoding="utf-8"?>
<!-- Generator: Adobe Illustrator 22.1.0, SVG Export Plug-In . SVG Version: 6.00 Build 0)  -->
<svg version="1.1" id="Layer_1" xmlns="http://www.w3.org/2000/svg" xmlns:xlink="http://www.w3.org/1999/xlink" x="0px" y="0px"
	 viewBox="0 0 30 30" enable-background="new 0 0 30 30" xml:space="preserve">
<path fill="#505050" d="M29.413671,25.820263l-7.753836-7.815758c1.109921-1.803389,1.762178-3.921696,1.762178-6.195571
	c0-6.506771-5.251503-11.800214-11.706723-11.800214S0.008568,5.302163,0.008568,11.808934s5.251504,11.800214,11.706723,11.800214
	c2.379403,0,4.592423-0.723389,6.442067-1.957472l7.695936,7.757397c0.793196,0.79953,2.091074,0.79953,2.88427,0l0.676107-0.681507
	C30.206867,27.928036,30.206867,26.61973,29.413671,25.820263z M3.029658,11.808934c0-4.827541,3.89634-8.754997,8.685633-8.754997
	s8.685634,3.927457,8.685634,8.754997s-3.896341,8.754996-8.685634,8.754996S3.029658,16.636475,3.029658,11.808934z"/>
</svg>
