<?xml version="1.0" encoding="utf-8"?>
<!-- Generator: Adobe Illustrator 22.1.0, SVG Export Plug-In . SVG Version: 6.00 Build 0)  -->
<svg version="1.1" id="Layer_1" xmlns="http://www.w3.org/2000/svg" xmlns:xlink="http://www.w3.org/1999/xlink" x="0px" y="0px"
	 viewBox="0 0 30 30" style="enable-background:new 0 0 30 30;" xml:space="preserve">
<title>illustration/server_icon</title>
<g id="illustration_x2F_server_x5F_icon">
	<path d="M28,3H2C0.9,3,0,3.9,0,5v3c0,1.1,0.9,2,2,2h26c1.1,0,2-0.9,2-2V5C30,3.9,29.1,3,28,3z M3.5,8C2.7,8,2,7.3,2,6.5
		S2.7,5,3.5,5S5,5.7,5,6.5S4.3,8,3.5,8z M8.5,8C7.7,8,7,7.3,7,6.5S7.7,5,8.5,5S10,5.7,10,6.5S9.3,8,8.5,8z"/>
	<path d="M28,12H2c-1.1,0-2,0.9-2,2v3c0,1.1,0.9,2,2,2h26c1.1,0,2-0.9,2-2v-3C30,12.9,29.1,12,28,12z M3.5,17C2.7,17,2,16.3,2,15.5
		S2.7,14,3.5,14S5,14.7,5,15.5S4.3,17,3.5,17z M8.5,17C7.7,17,7,16.3,7,15.5S7.7,14,8.5,14s1.5,0.7,1.5,1.5S9.3,17,8.5,17z"/>
	<path d="M28,21H2c-1.1,0-2,0.9-2,2v3c0,1.1,0.9,2,2,2h26c1.1,0,2-0.9,2-2v-3C30,21.9,29.1,21,28,21z M3.5,26C2.7,26,2,25.3,2,24.5
		S2.7,23,3.5,23S5,23.7,5,24.5S4.3,26,3.5,26z M8.5,26C7.7,26,7,25.3,7,24.5S7.7,23,8.5,23s1.5,0.7,1.5,1.5S9.3,26,8.5,26z"/>
</g>
</svg>
