<?xml version="1.0" encoding="utf-8"?>
<!-- Generator: Adobe Illustrator 22.1.0, SVG Export Plug-In . SVG Version: 6.00 Build 0)  -->
<svg version="1.1" id="Layer_1" xmlns="http://www.w3.org/2000/svg" xmlns:xlink="http://www.w3.org/1999/xlink" x="0px" y="0px"
	 width="85px" height="65px" viewBox="0 0 85 65" enable-background="new 0 0 85 65" xml:space="preserve">
<g>
	<path fill="#505050" d="M10.781982,61.942017l-3.83197,1.34198c0.166992,1.042969,0.966003,1.833008,1.927002,1.833008h3.809998
		c0.961975,0,1.76001-0.790039,1.927002-1.833008L10.781982,61.942017z"/>
	<path d="M6.917,60.770996v1.990002c0,0.119999,0.013,0.237,0.034,0.352001h7.664c0.02-0.115002,0.033-0.231998,0.033-0.353001
		v-1.990002l-3.865-1.169998l-3.866,1.169998V60.770996z"/>
	<path fill="#505050" d="M74.10498,61.942017l-3.83197,1.34198c0.166992,1.042969,0.964966,1.833008,1.927002,1.833008h3.809998
		c0.961975,0,1.76001-0.790039,1.927002-1.833008L74.10498,61.942017z"/>
	<path d="M70.239998,60.770996v1.990002c0,0.119999,0.012001,0.237,0.032997,0.352001h7.664001
		c0.021004-0.115002,0.033997-0.231998,0.033997-0.353001v-1.990002l-3.865997-1.169998l-3.864998,1.169998V60.770996z"/>
</g>
<g>
	<path fill="#222222" d="M3.694,57.943996v0.224998c0,1.437,1.17,2.602001,2.614,2.602001h72.272003
		c1.444,0,2.613998-1.165001,2.613998-2.602001v-0.224998l-52.313999-1.169998C28.880001,56.773998,3.694,57.943996,3.694,57.943996
		z"/>
	<path d="M3.694,55.601994v2.342003h77.5v-2.342003l-53.509003-1.169998L3.694,55.601994z"/>
	<path fill="#EDEDED" d="M2.614,54.431995h79.660004c2.182999,0,2.613998-2.335999,2.613998-3.772999v-5.759998
		c0-1.437-1.169998-2.602001-2.613998-2.602001H2.614C1.17,42.296993,0,43.461994,0,44.898994v5.759998
		c0,1.437,0.225,3.772999,2.614,3.772999"/>
	<path fill="#222222" d="M5.59,48.408997h5.778v-3.176003H5.59V48.408997z M12.458,48.408997h5.778v-3.176003h-5.778V48.408997z
		 M19.326,48.408997h5.778v-3.176003h-5.778V48.408997z M26.194,48.408997h5.778v-3.176003h-5.778V48.408997z M5.59,52.755993h5.778
		v-3.174999H5.59V52.755993z M12.458,52.755993h5.778v-3.174999h-5.778V52.755993z M19.326,52.755993h5.778v-3.174999h-5.778
		V52.755993z M26.194,52.755993h5.778v-3.174999h-5.778V52.755993z"/>
	<path fill="#B2B2B2" d="M82.274002,53.260994H2.614c-1.444,0-2.614-1.165001-2.614-2.601997v2.341999
		c0,1.437,1.17,2.601002,2.614,2.601002h79.660004c1.444,0,2.613998-1.164001,2.613998-2.601002v-2.341999
		c0,1.437-1.169998,2.602001-2.613998,2.602001"/>
	<path fill="#16A566" d="M77.047997,47.778996c-0.416-0.755001-1.220001-1.265999-2.146004-1.265999
		c-0.925003,0-1.730003,0.511002-2.145996,1.265999c-0.192001,0.347-0.301003,0.745998-0.301003,1.169998
		c0,1.346001,1.095001,2.437,2.446999,2.437c1.350998,0,2.446999-1.09,2.446999-2.436001
		c0-0.424999-0.109001-0.824001-0.300003-1.171001"/>
	<path fill="#1193F5" d="M67.790001,47.778996C67.375,47.023994,66.57,46.512997,65.643997,46.512997
		c-0.925003,0-1.73,0.511002-2.146,1.265999c-0.192001,0.347-0.300999,0.745998-0.300999,1.169998
		c0,1.346001,1.095001,2.437,2.446999,2.437s2.447998-1.09,2.447998-2.436001c0-0.424999-0.110001-0.824001-0.301003-1.171001
		L67.790001,47.778996z"/>
</g>
<g>
	<path d="M3.694,37.127991v2.342003l25.185999,1.170998L81.194,39.469994v-2.342003l-52.314003-1.170998L3.694,37.127991z"/>
	<path fill="#222222" d="M81.194,42.296993l-52.314003,1.170998L3.694,42.296993v-2.827h77.5V42.296993z"/>
	<path fill="#EDEDED" d="M2.614,35.956993h79.660004c2.182999,0,2.613998-2.335999,2.613998-3.772999v-5.760002
		c0-1.436001-1.169998-2.601-2.613998-2.601H2.614C1.17,23.821993,0,24.987993,0,26.424994v5.76
		C0,33.620995,0.225,35.956993,2.614,35.956993"/>
	<path fill="#222222" d="M5.59,29.934994h5.778v-3.176001H5.59V29.934994z M12.458,29.934994h5.778v-3.176001h-5.778V29.934994z
		 M19.326,29.934994h5.778v-3.176001h-5.778V29.934994z M26.194,29.934994h5.778v-3.176001h-5.778V29.934994z M5.59,34.281994h5.778
		v-3.175001H5.59V34.281994z M12.458,34.281994h5.778v-3.175001h-5.778V34.281994z M19.326,34.281994h5.778v-3.175001h-5.778
		V34.281994z M26.194,34.281994h5.778v-3.175001h-5.778V34.281994z"/>
	<path fill="#B2B2B2" d="M82.274002,34.785995H2.614c-1.444,0-2.614-1.164001-2.614-2.602001v2.341999
		c0,1.437,1.17,2.602001,2.614,2.602001h79.660004c1.444,0,2.613998-1.165001,2.613998-2.602001v-2.341999
		C84.888,33.620995,83.718002,34.785995,82.274002,34.785995"/>
	<path fill="#16A566" d="M77.047997,29.303993c-0.416-0.754-1.220001-1.264999-2.146004-1.264999
		c-0.925003,0-1.730003,0.511-2.145996,1.264999c-0.192001,0.348-0.301003,0.747-0.301003,1.171
		c0,1.346001,1.095001,2.437002,2.446999,2.437002c1.350998,0,2.446999-1.090002,2.446999-2.437002
		c0-0.424-0.109001-0.823-0.300003-1.17"/>
	<path fill="#1193F5" d="M67.790001,29.303993c-0.415001-0.754-1.220001-1.264999-2.146004-1.264999
		c-0.925003,0-1.73,0.511-2.146,1.264999c-0.192001,0.348-0.300999,0.747-0.300999,1.171
		c0,1.346001,1.095001,2.437002,2.446999,2.437002s2.447998-1.090002,2.447998-2.437002c0-0.424-0.110001-0.823-0.301003-1.17
		L67.790001,29.303993z"/>
</g>
<g>
	<path fill="#222222" d="M81.194,3.006993v-0.225c0-1.437-1.169998-2.602-2.613998-2.602H6.308c-1.444,0-2.614,1.165-2.614,2.602
		v0.224l25.185999,1.171L81.194,3.006993z"/>
	<path d="M3.694,5.347993l25.185999,1.171l52.314003-1.171v-2.341h-77.5V5.347993z"/>
	<path d="M3.694,18.653994v2.341999l25.185999,1.171l52.314003-1.171v-2.341999l-52.314003-1.171001L3.694,18.653994z"/>
	<path fill="#222222" d="M81.194,23.821993l-52.314003,1.172001L3.694,23.821993v-2.826h77.5V23.821993z"/>
	<path fill="#EDEDED" d="M2.614,17.482992h79.660004c2.182999,0,2.613998-2.336,2.613998-3.773v-5.76
		c0-1.437-1.169998-2.602-2.613998-2.602H2.614C1.17,5.347993,0,6.512993,0,7.951993v5.76c0,1.436,0.225,3.772,2.614,3.772"/>
	<path fill="#222222" d="M5.59,11.460993h5.778v-3.176H5.59V11.460993z M12.458,11.460993h5.778v-3.176h-5.778V11.460993z
		 M19.326,11.460993h5.778v-3.176h-5.778V11.460993z M26.194,11.460993h5.778v-3.176h-5.778V11.460993z M5.59,15.807993h5.778
		v-3.176H5.59V15.807993z M12.458,15.807993h5.778v-3.176h-5.778V15.807993z M19.326,15.807993h5.778v-3.176h-5.778V15.807993z
		 M26.194,15.807993h5.778v-3.176h-5.778V15.807993z"/>
	<path fill="#B2B2B2" d="M82.274002,16.311993H2.614c-1.444,0-2.614-1.165-2.614-2.602v2.342c0,1.437,1.17,2.601999,2.614,2.601999
		h79.660004c1.444,0,2.613998-1.164999,2.613998-2.601999v-2.342001c0,1.437-1.169998,2.601999-2.613998,2.601999"/>
	<path fill="#1193F5" d="M65.643997,14.437993c1.351997,0,2.447998-1.091,2.447998-2.437c0-0.424-0.110001-0.823-0.301003-1.17
		c-0.417-0.755-1.221001-1.266-2.147003-1.266c-0.925003,0-1.73,0.511-2.146,1.265c-0.192001,0.348-0.300999,0.747-0.300999,1.171
		c0,1.346,1.095001,2.437,2.446999,2.437"/>
	<path fill="#16A566" d="M77.047997,10.829993c-0.416-0.754-1.220001-1.265-2.146004-1.265
		c-0.925003,0-1.730003,0.511-2.145996,1.265c-0.192001,0.348-0.301003,0.747-0.301003,1.171c0,1.346,1.095001,2.437,2.446999,2.437
		c1.350998,0,2.446999-1.091,2.446999-2.437c0-0.424-0.109001-0.823-0.300003-1.17"/>
</g>
</svg>
