<svg xmlns="http://www.w3.org/2000/svg" xmlns:xlink="http://www.w3.org/1999/xlink" width="85" height="65" viewBox="0 0 85 65">
    <defs>
        <path id="prefix__a" d="M0.078 0.111L7.742 0.111 7.742 3.286 0.078 3.286z"/>
        <path id="prefix__c" d="M0.103 0.111L7.767 0.111 7.767 3.286 0.103 3.286z"/>
    </defs>
    <g fill="none" fill-rule="evenodd">
        <path fill="#000" d="M3.694 37.128L3.694 39.47 28.88 40.641 81.194 39.47 81.194 37.128 28.88 35.957z"/>
        <path fill="#222" d="M81.194 42.297L28.88 43.468 3.694 42.297 3.694 39.47 81.194 39.47z"/>
        <g>
            <g transform="translate(0 .072) translate(6.872 61.759)">
                <mask id="prefix__b" fill="#fff">
                    <use xlink:href="#prefix__a"/>
                </mask>
                <path fill="#505050" d="M.078 1.453c.167 1.043.966 1.833 1.927 1.833h3.81c.962 0 1.76-.79 1.927-1.833L3.91.111.078 1.453z" mask="url(#prefix__b)"/>
            </g>
            <path fill="#000" d="M6.917 60.699v1.99c0 .12.013.237.034.352h7.664c.02-.115.033-.232.033-.353v-1.99l-3.865-1.17-3.866 1.17z" transform="translate(0 .072)"/>
            <g transform="translate(0 .072) translate(70.17 61.759)">
                <mask id="prefix__d" fill="#fff">
                    <use xlink:href="#prefix__c"/>
                </mask>
                <path fill="#505050" d="M.103 1.453c.167 1.043.965 1.833 1.927 1.833h3.81c.962 0 1.76-.79 1.927-1.833L3.935.111.103 1.453z" mask="url(#prefix__d)"/>
            </g>
            <path fill="#000" d="M70.24 60.699v1.99c0 .12.012.237.033.352h7.664c.021-.115.034-.232.034-.353v-1.99l-3.866-1.17-3.865 1.17z" transform="translate(0 .072)"/>
            <path fill="#222" d="M3.694 57.872v.225c0 1.437 1.17 2.602 2.614 2.602H78.58c1.444 0 2.614-1.165 2.614-2.602v-.225l-52.314-1.17-25.186 1.17z" transform="translate(0 .072)"/>
            <path fill="#000" d="M3.694 55.53L3.694 57.872 81.194 57.872 81.194 55.53 27.685 54.36z" transform="translate(0 .072)"/>
            <path fill="#EDEDED" d="M2.614 54.36h79.66c2.183 0 2.614-2.336 2.614-3.773v-5.76c0-1.437-1.17-2.602-2.614-2.602H2.614C1.17 42.225 0 43.39 0 44.827v5.76c0 1.437.225 3.773 2.614 3.773" transform="translate(0 .072)"/>
            <path fill="#222" d="M5.59 48.337L11.368 48.337 11.368 45.161 5.59 45.161zM12.458 48.337L18.236 48.337 18.236 45.161 12.458 45.161zM19.326 48.337L25.104 48.337 25.104 45.161 19.326 45.161zM26.194 48.337L31.972 48.337 31.972 45.161 26.194 45.161zM5.59 52.684L11.368 52.684 11.368 49.509 5.59 49.509zM12.458 52.684L18.236 52.684 18.236 49.509 12.458 49.509zM19.326 52.684L25.104 52.684 25.104 49.509 19.326 49.509zM26.194 52.684L31.972 52.684 31.972 49.509 26.194 49.509z" transform="translate(0 .072)"/>
            <path fill="#3C434C" d="M3.694 6.11L81.194 6.11 81.194 2.935 3.694 2.935z" transform="translate(0 .072)"/>
            <path fill="#222" d="M81.194 2.935V2.71c0-1.437-1.17-2.602-2.614-2.602H6.308c-1.444 0-2.614 1.165-2.614 2.602v.224L28.88 4.105l52.314-1.17z" transform="translate(0 .072)"/>
            <path fill="#3C434C" d="M3.694 6.11L81.194 6.11 81.194 2.935 3.694 2.935z" transform="translate(0 .072)"/>
            <path fill="#000" d="M3.694 5.276L28.88 6.447 81.194 5.276 81.194 2.935 3.694 2.935z" transform="translate(0 .072)"/>
            <path fill="#B2B2B2" d="M82.274 53.189H2.614C1.17 53.189 0 52.024 0 50.587v2.342c0 1.437 1.17 2.601 2.614 2.601h79.66c1.444 0 2.614-1.164 2.614-2.601v-2.342c0 1.437-1.17 2.602-2.614 2.602" transform="translate(0 .072)"/>
            <path fill="#16A566" d="M77.048 47.707c-.416-.755-1.22-1.266-2.146-1.266-.925 0-1.73.511-2.146 1.266-.192.347-.301.746-.301 1.17 0 1.346 1.095 2.437 2.447 2.437 1.351 0 2.447-1.09 2.447-2.436 0-.425-.109-.824-.3-1.171" transform="translate(0 .072)"/>
            <path fill="#000" d="M3.694 18.582L3.694 20.924 28.88 22.095 81.194 20.924 81.194 18.582 28.88 17.411z" transform="translate(0 .072)"/>
            <path fill="#222" d="M81.194 23.75L28.88 24.922 3.694 23.75 3.694 20.924 81.194 20.924z" transform="translate(0 .072)"/>
            <path fill="#EDEDED" d="M2.614 35.885h79.66c2.183 0 2.614-2.336 2.614-3.773v-5.76c0-1.436-1.17-2.601-2.614-2.601H2.614C1.17 23.75 0 24.916 0 26.353v5.76c0 1.436.225 3.772 2.614 3.772" transform="translate(0 .072)"/>
            <path fill="#222" d="M5.59 29.863L11.368 29.863 11.368 26.687 5.59 26.687zM12.458 29.863L18.236 29.863 18.236 26.687 12.458 26.687zM19.326 29.863L25.104 29.863 25.104 26.687 19.326 26.687zM26.194 29.863L31.972 29.863 31.972 26.687 26.194 26.687zM5.59 34.21L11.368 34.21 11.368 31.035 5.59 31.035zM12.458 34.21L18.236 34.21 18.236 31.035 12.458 31.035zM19.326 34.21L25.104 34.21 25.104 31.035 19.326 31.035zM26.194 34.21L31.972 34.21 31.972 31.035 26.194 31.035z" transform="translate(0 .072)"/>
            <path fill="#B2B2B2" d="M82.274 34.714H2.614C1.17 34.714 0 33.55 0 32.112v2.342c0 1.437 1.17 2.602 2.614 2.602h79.66c1.444 0 2.614-1.165 2.614-2.602v-2.342c0 1.437-1.17 2.602-2.614 2.602" transform="translate(0 .072)"/>
            <path fill="#16A566" d="M77.048 29.232c-.416-.754-1.22-1.265-2.146-1.265-.925 0-1.73.511-2.146 1.265-.192.348-.301.747-.301 1.171 0 1.346 1.095 2.437 2.447 2.437 1.351 0 2.447-1.09 2.447-2.437 0-.424-.109-.823-.3-1.17" transform="translate(0 .072)"/>
            <path fill="#EDEDED" d="M2.614 17.411h79.66c2.183 0 2.614-2.336 2.614-3.773v-5.76c0-1.437-1.17-2.602-2.614-2.602H2.614C1.17 5.276 0 6.441 0 7.88v5.76c0 1.436.225 3.772 2.614 3.772" transform="translate(0 .072)"/>
            <path fill="#222" d="M5.59 11.389L11.368 11.389 11.368 8.213 5.59 8.213zM12.458 11.389L18.236 11.389 18.236 8.213 12.458 8.213zM19.326 11.389L25.104 11.389 25.104 8.213 19.326 8.213zM26.194 11.389L31.972 11.389 31.972 8.213 26.194 8.213zM5.59 15.736L11.368 15.736 11.368 12.56 5.59 12.56zM12.458 15.736L18.236 15.736 18.236 12.56 12.458 12.56zM19.326 15.736L25.104 15.736 25.104 12.56 19.326 12.56zM26.194 15.736L31.972 15.736 31.972 12.56 26.194 12.56z" transform="translate(0 .072)"/>
            <path fill="#B2B2B2" d="M82.274 16.24H2.614C1.17 16.24 0 15.075 0 13.638v2.342c0 1.437 1.17 2.602 2.614 2.602h79.66c1.444 0 2.614-1.165 2.614-2.602v-2.342c0 1.437-1.17 2.602-2.614 2.602" transform="translate(0 .072)"/>
            <path fill="#1193F5" d="M67.79 47.707c-.415-.755-1.22-1.266-2.146-1.266-.925 0-1.73.511-2.146 1.266-.192.347-.301.746-.301 1.17 0 1.346 1.095 2.437 2.447 2.437s2.448-1.09 2.448-2.436c0-.425-.11-.824-.301-1.171zM67.79 29.232c-.415-.754-1.22-1.265-2.146-1.265-.925 0-1.73.511-2.146 1.265-.192.348-.301.747-.301 1.171 0 1.346 1.095 2.437 2.447 2.437s2.448-1.09 2.448-2.437c0-.424-.11-.823-.301-1.17zM65.644 14.366c1.352 0 2.448-1.091 2.448-2.437 0-.424-.11-.823-.301-1.17-.417-.755-1.221-1.266-2.147-1.266-.925 0-1.73.511-2.146 1.265-.192.348-.301.747-.301 1.171 0 1.346 1.095 2.437 2.447 2.437" transform="translate(0 .072)"/>
            <path fill="#16A566" d="M77.048 10.758c-.416-.754-1.22-1.265-2.146-1.265-.925 0-1.73.511-2.146 1.265-.192.348-.301.747-.301 1.171 0 1.346 1.095 2.437 2.447 2.437 1.351 0 2.447-1.091 2.447-2.437 0-.424-.109-.823-.3-1.17" transform="translate(0 .072)"/>
        </g>
    </g>
</svg>
