<?xml version="1.0" encoding="UTF-8"?>
<svg width="512px" height="512px" viewBox="0 0 512 512" version="1.1" xmlns="http://www.w3.org/2000/svg" xmlns:xlink="http://www.w3.org/1999/xlink">
    <title>app-icon-circle512</title>
    <defs>
        <linearGradient x1="50%" y1="0%" x2="50%" y2="98.8782728%" id="linearGradient-1">
            <stop stop-color="#FFFFFF" offset="0%"></stop>
            <stop stop-color="#E5E5E5" offset="100%"></stop>
        </linearGradient>
    </defs>
    <g id="App-icons" stroke="none" stroke-width="1" fill="none" fill-rule="evenodd">
        <g transform="translate(-812.000000, -441.000000)" id="app-icon-circle">
            <g transform="translate(812.000000, 441.000000)">
                <path d="M256,0 C397.384896,0 512,114.615104 512,256 C512,397.384896 397.384896,512 256,512 C114.615104,512 0,397.384896 0,256 C0,114.615104 114.615104,0 256,0 Z" id="Rectangle" fill="url(#linearGradient-1)"></path>
                <g id="Logo/mark-light" transform="translate(69.000000, 108.000000)" stroke-width="1">
                    <g id="Mark" transform="translate(0.000000, -0.000000)">
                        <path d="M245.591681,107.567663 C251.958588,107.567663 258.573696,108.188476 265.817401,109.465192 L281.459487,112.180574 L258.889343,127.49846 C245.200494,136.878135 231.195998,139.339793 230.095278,139.520639 C228.158228,139.768964 226.194199,139.893127 224.249055,139.893127 C209.40553,139.893127 198.754451,132.564834 197.745458,131.844151 L193.412724,128.297419 L198.490063,123.962525 C211.401933,112.930948 226.809307,107.567663 245.591681,107.567663 Z M127.990063,105.88337 C145.722976,105.88337 161.273336,111.740606 175.512545,123.905842 L180.371357,127.99781 L180.374055,127.99781 L176.038624,131.84685 C174.894739,132.662005 164.410926,139.866135 149.753552,139.866135 C147.808408,139.866135 145.838983,139.752769 143.896537,139.504444 C142.890242,139.339793 128.448696,136.86194 114.535926,127.071988 L92.2247748,111.422102 L107.972077,108.112899 C115.099775,106.612151 121.658228,105.88337 127.990063,105.88337 Z M190.604271,0.447728216 C188.025134,-0.148792109 185.346178,-0.148792109 182.764343,0.445029029 L3.71398338,41.6886063 C-1.09357057,42.7952729 -1.28781518,49.5729315 3.44689705,50.9549152 L46.1186596,63.4116632 L46.1186596,107.532574 C46.1186596,109.03872 47.0871848,110.374818 48.5197388,110.839078 L62.4109258,115.368314 C64.658228,116.102492 66.9675805,114.426297 66.9675805,112.05911 L66.9675805,69.5685087 L86.4055301,75.2610941 L86.4055301,90.7949152 L86.4055301,106.153289 L86.4055301,107.47859 L86.4055301,112.601647 L86.4055301,114.623338 L86.4055301,141.555826 L86.4055301,168.215696 L86.4055301,230.637094 C86.4055301,236.159631 87.7004942,241.614688 90.2229762,246.52181 C115.191501,295.117972 160.944199,321.335175 178.987365,330.175013 C183.784127,332.523305 189.395638,332.526005 194.195098,330.177712 C212.251753,321.343273 258.063804,295.12607 283.040422,246.524509 C285.562904,241.614688 286.857868,236.159631 286.857868,230.637094 L286.857868,178.69394 L286.857868,142.095663 L286.857868,115.808281 L286.857868,113.119891 L286.857868,108.525875 L286.857868,106.725517 L286.857868,92.0365412 L286.857868,75.2556957 L369.821897,50.9630128 C374.556609,49.5783298 374.359667,42.8033705 369.554811,41.6967038 L190.604271,0.447728216 Z" id="Black" fill="#000000"></path>
                        <path d="M186.928462,145.848343 C186.928462,145.848343 172.03098,157.589806 149.754901,157.589806 C147.084037,157.589806 144.178462,157.419757 141.310656,157.04457 C141.310656,157.04457 122.762994,154.483042 104.093929,141.556636 L104.093929,168.213806 L104.093929,230.926717 C104.093929,233.582717 104.706339,236.203627 105.861016,238.592408 C131.328642,291.248148 186.691052,313.176343 186.691052,313.176343 C186.691052,313.176343 240.95544,291.267042 267.302563,238.665286 C268.524685,236.222522 269.172167,233.526034 269.172167,230.797156 L269.172167,178.69205 L269.172167,142.096473 C250.500404,154.518131 232.708138,157.04457 232.708138,157.04457 C229.840332,157.419757 226.921268,157.589806 224.250404,157.589806 C201.941951,157.589806 186.928462,145.848343 186.928462,145.848343 Z" id="Orange-Shield" fill="#E24301"></path>
                        <path d="M182.772437,18.6027298 L55.7202783,47.8322258 L104.092581,61.9894615 L104.092581,90.7951851 C111.954091,89.2215591 119.653732,88.1877705 127.871357,88.1877705 C146.758947,88.1877705 167.195098,93.6401282 186.937904,110.504649 C205.938804,94.271738 227.437904,89.8720632 245.702293,89.8720632 C254.338084,89.8720632 262.294019,90.8545672 269.170818,92.0368111 L269.170818,61.9894615 L317.491861,47.8322258 L190.590782,18.6027298 C188.019739,18.0116079 185.346178,18.0116079 182.772437,18.6027298" id="Orange-Hat" fill="#E24301"></path>
                        <path d="M186.631699,297.240343 L186.631699,161.266099 C186.631699,161.266099 205.473426,176.073839 232.44375,172.527107 C232.44375,172.527107 242.641591,171.101936 255.415872,165.142131 L255.415872,229.139855 C255.415872,231.639302 254.641591,234.06857 253.244109,236.141546 C227.04267,275.015237 186.631699,297.240343 186.631699,297.240343 Z" id="White-glare" fill-opacity="0.5" fill="#FFFFFF"></path>
                    </g>
                </g>
            </g>
        </g>
    </g>
</svg>