<?xml version="1.0" encoding="UTF-8"?>
<svg width="48px" height="48px" viewBox="0 0 48 48" version="1.1" xmlns="http://www.w3.org/2000/svg" xmlns:xlink="http://www.w3.org/1999/xlink">
    <title>app-icon-circle48</title>
    <defs>
        <linearGradient x1="50%" y1="0%" x2="50%" y2="98.8782728%" id="linearGradient-1">
            <stop stop-color="#FFFFFF" offset="0%"></stop>
            <stop stop-color="#E5E5E5" offset="100%"></stop>
        </linearGradient>
    </defs>
    <g id="App-icons" stroke="none" stroke-width="1" fill="none" fill-rule="evenodd">
        <g transform="translate(-803.000000, -1657.000000)" id="app-icon-circle">
            <g transform="translate(803.000000, 1657.000000)">
                <path d="M24,0 C37.254834,0 48,10.745166 48,24 C48,37.254834 37.254834,48 24,48 C10.745166,48 0,37.254834 0,24 C0,10.745166 10.745166,0 24,0 Z" id="Rectangle" fill="url(#linearGradient-1)"></path>
                <g id="Logo/mark-light" transform="translate(6.468750, 10.125000)" stroke-width="1">
                    <g id="Mark" transform="translate(0.000000, -0.000000)">
                        <path d="M23.0242201,10.0844684 C23.6211176,10.0844684 24.241284,10.1426696 24.9203813,10.2623617 L26.3868269,10.5169288 L24.2708759,11.9529806 C22.9875463,12.8323251 21.6746248,13.0631056 21.5714323,13.0800599 C21.3898339,13.1033404 21.2057062,13.1149806 21.0233489,13.1149806 C19.6317685,13.1149806 18.6332298,12.4279532 18.5386367,12.3603892 L18.1324429,12.0278831 L18.6084434,11.6214867 C19.8189312,10.5872763 21.2633725,10.0844684 23.0242201,10.0844684 Z M11.9990684,9.92656598 C13.661529,9.92656598 15.1193752,10.4756818 16.4543011,11.6161727 L16.9098148,11.9997946 L16.9100677,11.9997946 L16.503621,12.3606422 C16.3963818,12.4370629 15.4135243,13.1124501 14.0393955,13.1124501 C13.8570382,13.1124501 13.6724047,13.1018221 13.4903004,13.0785416 C13.3959602,13.0631056 12.0420652,12.8308068 10.737743,11.9129989 L8.64607263,10.4458221 L10.1223822,10.1355843 C10.7906039,9.99488915 11.4054589,9.92656598 11.9990684,9.92656598 Z M17.8691504,0.0419745203 C17.6273564,-0.0139492602 17.3762042,-0.0139492602 17.1341572,0.0417214715 L0.348185942,3.90830684 C-0.102522241,4.01205684 -0.120732673,4.64746233 0.323146599,4.7770233 L4.32362434,5.94484342 L4.32362434,10.0811788 C4.32362434,10.22238 4.41442358,10.3476392 4.54872551,10.3911635 L5.8510243,10.8157794 C6.06170887,10.8846087 6.27821067,10.7274654 6.27821067,10.5055416 L6.27821067,6.52204769 L8.10051845,7.05572757 L8.10051845,8.5120233 L8.10051845,9.95187086 L8.10051845,10.0761178 L8.10051845,10.5564044 L8.10051845,10.7459379 L8.10051845,13.2708587 L8.10051845,15.7702215 L8.10051845,21.6222276 C8.10051845,22.1399654 8.22192133,22.651377 8.45840402,23.1114196 C10.7992033,27.6673099 15.0885187,30.1251727 16.7800654,30.9539074 C17.2297619,31.1740599 17.7558411,31.1743129 18.2057905,30.9541605 C19.8986019,30.1259318 24.1934816,27.668069 26.5350396,23.1116727 C26.7715223,22.651377 26.8929252,22.1399654 26.8929252,21.6222276 L26.8929252,16.7525568 L26.8929252,13.3214684 L26.8929252,10.8570263 L26.8929252,10.6049898 L26.8929252,10.1743007 L26.8929252,10.0055172 L26.8929252,8.62842574 L26.8929252,7.05522147 L34.6708028,4.77778245 C35.1146821,4.64796842 35.0962188,4.01281598 34.6457635,3.90906598 L17.8691504,0.0419745203 Z" id="Black" fill="#000000"></path>
                        <path d="M17.5245433,13.6732821 C17.5245433,13.6732821 16.1279044,14.7740443 14.0395219,14.7740443 C13.7891285,14.7740443 13.5167308,14.7581023 13.247874,14.7229285 C13.247874,14.7229285 11.5090307,14.4827852 9.75880588,13.2709346 L9.75880588,15.7700443 L9.75880588,21.6493797 C9.75880588,21.8983797 9.81621933,22.1440901 9.92447023,22.3680382 C12.3120602,27.3045138 17.5022861,29.3602821 17.5022861,29.3602821 C17.5022861,29.3602821 22.5895725,27.3062852 25.0596152,22.3748706 C25.1741892,22.1458614 25.2348906,21.8930657 25.2348906,21.6372334 L25.2348906,16.7523797 L25.2348906,13.3215443 C23.4844129,14.4860748 21.8163879,14.7229285 21.8163879,14.7229285 C21.5475312,14.7581023 21.2738688,14.7740443 21.0234754,14.7740443 C18.9320579,14.7740443 17.5245433,13.6732821 17.5245433,13.6732821 Z" id="Orange-Shield" fill="#E24301"></path>
                        <path d="M17.1349159,1.74400592 L5.2237761,4.48427117 L9.75867942,5.81151202 L9.75867942,8.51204861 C10.4956961,8.36452117 11.2175373,8.26760348 11.9879398,8.26760348 C13.7586513,8.26760348 15.6745405,8.77876202 17.5254285,10.3598108 C19.3067628,8.83797543 21.3223035,8.42550592 23.0345899,8.42550592 C23.8441954,8.42550592 24.5900643,8.51761568 25.2347642,8.62845104 L25.2347642,5.81151202 L29.764862,4.48427117 L17.8678858,1.74400592 C17.6268505,1.68858824 17.3762042,1.68858824 17.1349159,1.74400592" id="Orange-Hat" fill="#E24301"></path>
                        <path d="M17.4967218,27.8662821 L17.4967218,15.1186968 C17.4967218,15.1186968 19.2631337,16.5069224 21.7916015,16.1744163 C21.7916015,16.1744163 22.7476492,16.0408065 23.945238,15.4820748 L23.945238,21.4818614 C23.945238,21.7161846 23.8726492,21.9439285 23.7416352,22.1382699 C21.2852504,25.7826785 17.4967218,27.8662821 17.4967218,27.8662821 Z" id="White-glare" fill-opacity="0.5" fill="#FFFFFF"></path>
                    </g>
                </g>
            </g>
        </g>
    </g>
</svg>