<?xml version="1.0" encoding="UTF-8"?>
<svg width="32px" height="32px" viewBox="0 0 32 32" version="1.1" xmlns="http://www.w3.org/2000/svg" xmlns:xlink="http://www.w3.org/1999/xlink">
    <title>app-icon-circle32</title>
    <defs>
        <linearGradient x1="50%" y1="0%" x2="50%" y2="98.8782728%" id="linearGradient-1">
            <stop stop-color="#FFFFFF" offset="0%"></stop>
            <stop stop-color="#E5E5E5" offset="100%"></stop>
        </linearGradient>
    </defs>
    <g id="App-icons" stroke="none" stroke-width="1" fill="none" fill-rule="evenodd">
        <g transform="translate(-803.000000, -1765.000000)" id="app-icon-circle">
            <g transform="translate(803.000000, 1765.000000)">
                <path d="M16,0 C24.836556,0 32,7.163444 32,16 C32,24.836556 24.836556,32 16,32 C7.163444,32 0,24.836556 0,16 C0,7.163444 7.163444,0 16,0 Z" id="Rectangle" fill="url(#linearGradient-1)"></path>
                <g id="Logo/mark-light" transform="translate(4.312500, 6.750000)" stroke-width="1">
                    <g id="Mark" transform="translate(0.000000, -0.000000)">
                        <path d="M15.3494801,6.72297895 C15.7474117,6.72297895 16.160856,6.76177976 16.6135875,6.84157448 L17.5912179,7.01128586 L16.1805839,7.96865375 C15.3250309,8.55488342 14.4497499,8.70873708 14.3809549,8.72003992 C14.2598892,8.73556025 14.1371375,8.74332041 14.015566,8.74332041 C13.0878456,8.74332041 12.4221532,8.28530212 12.3590911,8.24025944 L12.0882953,8.0185887 L12.4056289,7.74765781 C13.2126208,7.05818423 14.1755817,6.72297895 15.3494801,6.72297895 Z M7.99937891,6.61771066 C9.10768601,6.61771066 10.0795835,6.98378789 10.969534,7.74411513 L11.2733785,7.99986309 L11.002414,8.24042814 C10.9309212,8.29137529 10.2756829,8.74163342 9.35959698,8.74163342 C9.23802549,8.74163342 9.11493646,8.73454805 8.99353358,8.71902773 C8.93064015,8.70873708 8.02804348,8.55387122 7.15849536,7.94199927 L5.76404842,6.96388139 L6.74825481,6.75705618 C7.19373592,6.66325944 7.60363925,6.61771066 7.99937891,6.61771066 Z M11.9127669,0.0279830135 C11.7515709,-0.00929950682 11.5841361,-0.00929950682 11.4227714,0.0278143143 L0.232123962,2.60553789 C-0.0683481608,2.67470456 -0.0804884485,3.09830822 0.215431066,3.1846822 L2.88241623,3.96322895 L2.88241623,6.72078586 C2.88241623,6.81492001 2.94294905,6.8984261 3.03248367,6.92744236 L3.90068286,7.2105196 C4.04113925,7.25640578 4.18547378,7.15164358 4.18547378,7.0036944 L4.18547378,4.34803179 L5.40034563,4.70381838 L5.40034563,5.6746822 L5.40034563,6.63458057 L5.40034563,6.71741188 L5.40034563,7.03760293 L5.40034563,7.16395862 L5.40034563,8.84723911 L5.40034563,10.513481 L5.40034563,14.4148184 C5.40034563,14.7599769 5.48128089,15.100918 5.63893601,15.4076131 C7.19946884,18.4448733 10.0590125,20.0834485 11.1867103,20.6359383 C11.486508,20.7827066 11.8372274,20.7828753 12.1371937,20.636107 C13.2657346,20.0839546 16.1289877,18.4453794 17.6900264,15.4077818 C17.8476815,15.100918 17.9286168,14.7599769 17.9286168,14.4148184 L17.9286168,11.1683712 L17.9286168,8.88097895 L17.9286168,7.23801757 L17.9286168,7.06999318 L17.9286168,6.78286716 L17.9286168,6.6703448 L17.9286168,5.75228383 L17.9286168,4.70348098 L23.1138686,3.1851883 C23.4097881,3.09864562 23.3974792,2.67521066 23.0971757,2.60604399 L11.9127669,0.0279830135 Z" id="Black" fill="#000000"></path>
                        <path d="M11.6830289,9.11552143 C11.6830289,9.11552143 10.7519362,9.84936289 9.35968129,9.84936289 C9.19275233,9.84936289 9.01115386,9.83873484 8.831916,9.81528566 C8.831916,9.81528566 7.67268714,9.65519013 6.50587059,8.84728972 L6.50587059,10.5133629 L6.50587059,14.4329198 C6.50587059,14.5989198 6.54414622,14.7627267 6.61631348,14.9120255 C8.2080401,18.2030092 11.6681907,19.5735214 11.6681907,19.5735214 C11.6681907,19.5735214 15.059715,18.2041901 16.7064102,14.9165804 C16.7827928,14.7639076 16.8232604,14.5953771 16.8232604,14.4248222 L16.8232604,11.1682531 L16.8232604,8.88102956 C15.6562753,9.65738322 14.5442586,9.81528566 14.5442586,9.81528566 C14.3650208,9.83873484 14.1825792,9.84936289 14.0156503,9.84936289 C12.6213719,9.84936289 11.6830289,9.11552143 11.6830289,9.11552143 Z" id="Orange-Shield" fill="#E24301"></path>
                        <path d="M11.4232773,1.16267062 L3.4825174,2.98951411 L6.50578628,3.87434135 L6.50578628,5.67469907 C6.99713071,5.57634744 7.47835822,5.51173566 7.99195984,5.51173566 C9.17243421,5.51173566 10.4496937,5.85250801 11.683619,6.90654053 C12.8711752,5.89198362 14.214869,5.61700395 15.3563933,5.61700395 C15.8961303,5.61700395 16.3933762,5.67841045 16.8231761,5.7523007 L16.8231761,3.87434135 L19.8432413,2.98951411 L11.9119239,1.16267062 C11.7512337,1.12572549 11.5841361,1.12572549 11.4232773,1.16267062" id="Orange-Hat" fill="#E24301"></path>
                        <path d="M11.6644812,18.5775214 L11.6644812,10.0791312 C11.6644812,10.0791312 12.8420891,11.0046149 14.5277343,10.7829442 C14.5277343,10.7829442 15.1650995,10.693871 15.963492,10.3213832 L15.963492,14.3212409 C15.963492,14.4774564 15.9150995,14.6292857 15.8277568,14.7588466 C14.1901669,17.1884523 11.6644812,18.5775214 11.6644812,18.5775214 Z" id="White-glare" fill-opacity="0.5" fill="#FFFFFF"></path>
                    </g>
                </g>
            </g>
        </g>
    </g>
</svg>