<?xml version="1.0" encoding="UTF-8"?>
<svg width="48px" height="48px" viewBox="0 0 48 48" version="1.1" xmlns="http://www.w3.org/2000/svg" xmlns:xlink="http://www.w3.org/1999/xlink">
    <title>app-icon-tile48</title>
    <defs>
        <linearGradient x1="50%" y1="0%" x2="50%" y2="98.8782728%" id="linearGradient-1">
            <stop stop-color="#FFFFFF" offset="0%"></stop>
            <stop stop-color="#E5E5E5" offset="100%"></stop>
        </linearGradient>
    </defs>
    <g id="App-icons" stroke="none" stroke-width="1" fill="none" fill-rule="evenodd">
        <g transform="translate(-200.000000, -1657.000000)" id="app-icon-tile">
            <g transform="translate(200.000000, 1657.000000)">
                <rect id="Rectangle" fill="url(#linearGradient-1)" x="0" y="0" width="48" height="48"></rect>
                <g id="Logo/mark-light" transform="translate(4.500000, 7.687500)" stroke-width="1">
                    <g id="Mark" transform="translate(0.000000, -0.000000)">
                        <path d="M25.6029328,11.2083399 C26.2666828,11.2083399 26.9563078,11.2730274 27.711464,11.4060587 L29.3421515,11.6889962 L26.989214,13.2850899 C25.5621515,14.2624337 24.1021828,14.5189337 23.9874328,14.5377774 C23.7854953,14.5636524 23.5807453,14.5765899 23.377964,14.5765899 C21.8305265,14.5765899 20.7201515,13.8129962 20.614964,13.7379024 L20.1632765,13.3683399 L20.692589,12.9166524 C22.0386515,11.7671837 23.6448703,11.2083399 25.6029328,11.2083399 Z M13.342964,11.0328399 C15.1916203,11.0328399 16.8127453,11.6431524 18.2971828,12.9107462 L18.8039953,13.3371212 L18.3520265,13.7381837 C18.2327765,13.8231212 17.139839,14.5737774 15.6118078,14.5737774 C15.4090265,14.5737774 15.203714,14.5619649 15.001214,14.5360899 C14.8963078,14.5189337 13.3907765,14.2607462 11.9403703,13.2406524 L9.61443277,11.6099649 L11.256089,11.2651524 C11.9991515,11.1087774 12.6828703,11.0328399 13.342964,11.0328399 Z M19.8704953,0.0466524035 C19.6016203,-0.0155038465 19.322339,-0.0155038465 19.0531828,0.0463711535 L0.387182768,4.34387115 C-0.114004732,4.45918365 -0.134254732,5.1654024 0.359339018,5.3094024 L4.80787027,6.60737115 L4.80787027,11.2046837 C4.80787027,11.3616212 4.90883902,11.5008399 5.05818277,11.5492149 L6.50633902,12.0211524 C6.74062027,12.0976524 6.98137027,11.9229962 6.98137027,11.6763399 L6.98137027,7.2489024 L9.00777652,7.84205865 L9.00777652,9.4606524 L9.00777652,11.0609649 L9.00777652,11.1990587 L9.00777652,11.7328712 L9.00777652,11.9435274 L9.00777652,14.7498399 L9.00777652,17.5277462 L9.00777652,24.0319337 C9.00777652,24.6073712 9.14277652,25.1757774 9.40574527,25.6870899 C12.008714,30.7507149 16.7784328,33.4824962 18.6594328,34.4035899 C19.1594953,34.6482774 19.7444953,34.6485587 20.244839,34.4038712 C22.1272453,33.4833399 26.9031515,30.7515587 29.506964,25.6873712 C29.7699328,25.1757774 29.9049328,24.6073712 29.9049328,24.0319337 L29.9049328,18.6195587 L29.9049328,14.8060899 L29.9049328,12.0669962 L29.9049328,11.7868712 L29.9049328,11.3081837 L29.9049328,11.1205899 L29.9049328,9.5900274 L29.9049328,7.84149615 L38.5539328,5.31024615 C39.0475265,5.1659649 39.0269953,4.4600274 38.526089,4.3447149 L19.8704953,0.0466524035 Z" id="Black" fill="#000000"></path>
                        <path d="M19.4872921,15.1971118 C19.4872921,15.1971118 17.9342296,16.4205493 15.6119484,16.4205493 C15.3335109,16.4205493 15.0306046,16.4028305 14.7316359,16.3637368 C14.7316359,16.3637368 12.7980421,16.0968305 10.8517921,14.7499243 L10.8517921,17.5275493 L10.8517921,24.0621118 C10.8517921,24.3388618 10.9156359,24.6119555 11.0360109,24.8608618 C13.6910109,30.3474868 19.4625421,32.6323618 19.4625421,32.6323618 C19.4625421,32.6323618 25.1196046,30.3494555 27.8662921,24.8684555 C27.9936984,24.6139243 28.0611984,24.3329555 28.0611984,24.0486118 L28.0611984,18.6193618 L28.0611984,14.8061743 C26.1146671,16.1004868 24.2598234,16.3637368 24.2598234,16.3637368 C23.9608546,16.4028305 23.6565421,16.4205493 23.3781046,16.4205493 C21.0524484,16.4205493 19.4872921,15.1971118 19.4872921,15.1971118 Z" id="Orange-Shield" fill="#E24301"></path>
                        <path d="M19.0540265,1.93836803 L5.80883902,4.98402428 L10.8516515,6.45918053 L10.8516515,9.46068053 C11.671214,9.29671178 12.4739015,9.18899303 13.330589,9.18899303 C15.2996203,9.18899303 17.430089,9.75711803 19.4882765,11.514368 C21.4691203,9.82293053 23.7104015,9.36449303 25.614464,9.36449303 C26.5147453,9.36449303 27.3441515,9.46686803 28.0610578,9.59005553 L28.0610578,6.45918053 L33.0985265,4.98402428 L19.869089,1.93836803 C19.6010578,1.87677428 19.322339,1.87677428 19.0540265,1.93836803" id="Orange-Hat" fill="#E24301"></path>
                        <path d="M19.4563546,30.9718618 L19.4563546,16.8036118 C19.4563546,16.8036118 21.4206046,18.3465493 24.2322609,17.9769868 C24.2322609,17.9769868 25.2953859,17.8284868 26.6271046,17.2074868 L26.6271046,23.8759243 C26.6271046,24.1363618 26.5463859,24.3894868 26.4006984,24.6054868 C23.6691984,28.6560493 19.4563546,30.9718618 19.4563546,30.9718618 Z" id="White-glare" fill-opacity="0.5" fill="#FFFFFF"></path>
                    </g>
                </g>
            </g>
        </g>
    </g>
</svg>