<?xml version="1.0" encoding="UTF-8"?>
<svg width="128px" height="128px" viewBox="0 0 128 128" version="1.1" xmlns="http://www.w3.org/2000/svg" xmlns:xlink="http://www.w3.org/1999/xlink">
    <title>app-icon-tile128</title>
    <defs>
        <linearGradient x1="50%" y1="0%" x2="50%" y2="98.8782728%" id="linearGradient-1">
            <stop stop-color="#FFFFFF" offset="0%"></stop>
            <stop stop-color="#E5E5E5" offset="100%"></stop>
        </linearGradient>
    </defs>
    <g id="App-icons" stroke="none" stroke-width="1" fill="none" fill-rule="evenodd">
        <g transform="translate(-200.000000, -1337.000000)" id="app-icon-tile">
            <g transform="translate(200.000000, 1337.000000)">
                <rect id="Rectangle" fill="url(#linearGradient-1)" x="0" y="0" width="128" height="128"></rect>
                <g id="Logo/mark-light" transform="translate(12.000000, 20.500000)" stroke-width="1">
                    <g id="Mark" transform="translate(0.000000, -0.000000)">
                        <path d="M68.2744874,29.8889064 C70.0444874,29.8889064 71.8834874,30.0614064 73.8972374,30.4161564 L78.2457374,31.1706564 L71.9712374,35.4269064 C68.1657374,38.0331564 64.2724874,38.7171564 63.9664874,38.7674064 C63.4279874,38.8364064 62.8819874,38.8709064 62.3412374,38.8709064 C58.2147374,38.8709064 55.2537374,36.8346564 54.9732374,36.6344064 L53.7687374,35.6489064 L55.1802374,34.4444064 C58.7697374,31.3791564 63.0529874,29.8889064 68.2744874,29.8889064 Z M35.5812374,29.4209064 C40.5109874,29.4209064 44.8339874,31.0484064 48.7924874,34.4286564 L50.1439874,35.5656564 L48.9387374,36.6351564 C48.6207374,36.8616564 45.7062374,38.8634064 41.6314874,38.8634064 C41.0907374,38.8634064 40.5432374,38.8319064 40.0032374,38.7629064 C39.7234874,38.7171564 35.7087374,38.0286564 31.8409874,35.3084064 L25.6384874,30.9599064 L30.0162374,30.0404064 C31.9977374,29.6234064 33.8209874,29.4209064 35.5812374,29.4209064 Z M52.9879874,0.124406409 C52.2709874,-0.0413435906 51.5262374,-0.0413435906 50.8084874,0.123656409 L1.03248738,11.5836564 C-0.304012619,11.8911564 -0.358012619,13.7744064 0.958237381,14.1584064 L12.8209874,17.6196564 L12.8209874,29.8791564 C12.8209874,30.2976564 13.0902374,30.6689064 13.4884874,30.7979064 L17.3502374,32.0564064 C17.9749874,32.2604064 18.6169874,31.7946564 18.6169874,31.1369064 L18.6169874,19.3304064 L24.0207374,20.9121564 L24.0207374,25.2284064 L24.0207374,29.4959064 L24.0207374,29.8641564 L24.0207374,31.2876564 L24.0207374,31.8494064 L24.0207374,39.3329064 L24.0207374,46.7406564 L24.0207374,64.0851564 C24.0207374,65.6196564 24.3807374,67.1354064 25.0819874,68.4989064 C32.0232374,82.0019064 44.7424874,89.2866564 49.7584874,91.7429064 C51.0919874,92.3954064 52.6519874,92.3961564 53.9862374,91.7436564 C59.0059874,89.2889064 71.7417374,82.0041564 78.6852374,68.4996564 C79.3864874,67.1354064 79.7464874,65.6196564 79.7464874,64.0851564 L79.7464874,49.6521564 L79.7464874,39.4829064 L79.7464874,32.1786564 L79.7464874,31.4316564 L79.7464874,30.1551564 L79.7464874,29.6549064 L79.7464874,25.5734064 L79.7464874,20.9106564 L102.810487,14.1606564 C104.126737,13.7759064 104.071987,11.8934064 102.736237,11.5859064 L52.9879874,0.124406409 Z" id="Black" fill="#000000"></path>
                        <path d="M51.9661124,40.5256314 C51.9661124,40.5256314 47.8246124,43.7881314 41.6318624,43.7881314 C40.8893624,43.7881314 40.0816124,43.7408814 39.2843624,43.6366314 C39.2843624,43.6366314 34.1281124,42.9248814 28.9381124,39.3331314 L28.9381124,46.7401314 L28.9381124,64.1656314 C28.9381124,64.9036314 29.1083624,65.6318814 29.4293624,66.2956314 C36.5093624,80.9266314 51.9001124,87.0196314 51.9001124,87.0196314 C51.9001124,87.0196314 66.9856124,80.9318814 74.3101124,66.3158814 C74.6498624,65.6371314 74.8298624,64.8878814 74.8298624,64.1296314 L74.8298624,49.6516314 L74.8298624,39.4831314 C69.6391124,42.9346314 64.6928624,43.6366314 64.6928624,43.6366314 C63.8956124,43.7408814 63.0841124,43.7881314 62.3416124,43.7881314 C56.1398624,43.7881314 51.9661124,40.5256314 51.9661124,40.5256314 Z" id="Orange-Shield" fill="#E24301"></path>
                        <path d="M50.8107374,5.16898141 L15.4902374,13.2907314 L28.9377374,17.2244814 L28.9377374,25.2284814 C31.1232374,24.7912314 33.2637374,24.5039814 35.5482374,24.5039814 C40.7989874,24.5039814 46.4802374,26.0189814 51.9687374,30.7049814 C57.2509874,26.1944814 63.2277374,24.9719814 68.3052374,24.9719814 C70.7059874,24.9719814 72.9177374,25.2449814 74.8294874,25.5734814 L74.8294874,17.2244814 L88.2627374,13.2907314 L52.9842374,5.16898141 C52.2694874,5.00473141 51.5262374,5.00473141 50.8107374,5.16898141" id="Orange-Hat" fill="#E24301"></path>
                        <path d="M51.8836124,82.5916314 L51.8836124,44.8096314 C51.8836124,44.8096314 57.1216124,48.9241314 64.6193624,47.9386314 C64.6193624,47.9386314 67.4543624,47.5426314 71.0056124,45.8866314 L71.0056124,63.6691314 C71.0056124,64.3636314 70.7903624,65.0386314 70.4018624,65.6146314 C63.1178624,76.4161314 51.8836124,82.5916314 51.8836124,82.5916314 Z" id="White-glare" fill-opacity="0.5" fill="#FFFFFF"></path>
                    </g>
                </g>
            </g>
        </g>
    </g>
</svg>