<?xml version="1.0" encoding="UTF-8"?>
<svg width="64px" height="64px" viewBox="0 0 64 64" version="1.1" xmlns="http://www.w3.org/2000/svg" xmlns:xlink="http://www.w3.org/1999/xlink">
    <title>app-icon-tile64</title>
    <defs>
        <linearGradient x1="50%" y1="0%" x2="50%" y2="98.8782728%" id="linearGradient-1">
            <stop stop-color="#FFFFFF" offset="0%"></stop>
            <stop stop-color="#E5E5E5" offset="100%"></stop>
        </linearGradient>
    </defs>
    <g id="App-icons" stroke="none" stroke-width="1" fill="none" fill-rule="evenodd">
        <g transform="translate(-200.000000, -1525.000000)" id="app-icon-tile">
            <g transform="translate(200.000000, 1525.000000)">
                <rect id="Rectangle" fill="url(#linearGradient-1)" x="0" y="0" width="64" height="64"></rect>
                <g id="Logo/mark-light" transform="translate(6.000000, 10.250000)" stroke-width="1">
                    <g id="Mark" transform="translate(0.000000, -0.000000)">
                        <path d="M34.1372437,14.9444532 C35.0222437,14.9444532 35.9417437,15.0307032 36.9486187,15.2080782 L39.1228687,15.5853282 L35.9856187,17.7134532 C34.0828687,19.0165782 32.1362437,19.3585782 31.9832437,19.3837032 C31.7139937,19.4182032 31.4409937,19.4354532 31.1706187,19.4354532 C29.1073687,19.4354532 27.6268687,18.4173282 27.4866187,18.3172032 L26.8843687,17.8244532 L27.5901187,17.2222032 C29.3848687,15.6895782 31.5264937,14.9444532 34.1372437,14.9444532 Z M17.7906187,14.7104532 C20.2554937,14.7104532 22.4169937,15.5242032 24.3962437,17.2143282 L25.0719937,17.7828282 L24.4693687,18.3175782 C24.3103687,18.4308282 22.8531187,19.4317032 20.8157437,19.4317032 C20.5453687,19.4317032 20.2716187,19.4159532 20.0016187,19.3814532 C19.8617437,19.3585782 17.8543687,19.0143282 15.9204937,17.6542032 L12.8192437,15.4799532 L15.0081187,15.0202032 C15.9988687,14.8117032 16.9104937,14.7104532 17.7906187,14.7104532 Z M26.4939937,0.0622032047 C26.1354937,-0.0206717953 25.7631187,-0.0206717953 25.4042437,0.0618282047 L0.51624369,5.7918282 C-0.15200631,5.9455782 -0.17900631,6.8872032 0.47911869,7.0792032 L6.41049369,8.8098282 L6.41049369,14.9395782 C6.41049369,15.1488282 6.54511869,15.3344532 6.74424369,15.3989532 L8.67511869,16.0282032 C8.98749369,16.1302032 9.30849369,15.8973282 9.30849369,15.5684532 L9.30849369,9.6652032 L12.0103687,10.4560782 L12.0103687,12.6142032 L12.0103687,14.7479532 L12.0103687,14.9320782 L12.0103687,15.6438282 L12.0103687,15.9247032 L12.0103687,19.6664532 L12.0103687,23.3703282 L12.0103687,32.0425782 C12.0103687,32.8098282 12.1903687,33.5677032 12.5409937,34.2494532 C16.0116187,41.0009532 22.3712437,44.6433282 24.8792437,45.8714532 C25.5459937,46.1977032 26.3259937,46.1980782 26.9931187,45.8718282 C29.5029937,44.6444532 35.8708687,41.0020782 39.3426187,34.2498282 C39.6932437,33.5677032 39.8732437,32.8098282 39.8732437,32.0425782 L39.8732437,24.8260782 L39.8732437,19.7414532 L39.8732437,16.0893282 L39.8732437,15.7158282 L39.8732437,15.0775782 L39.8732437,14.8274532 L39.8732437,12.7867032 L39.8732437,10.4553282 L51.4052437,7.0803282 C52.0633687,6.8879532 52.0359937,5.9467032 51.3681187,5.7929532 L26.4939937,0.0622032047 Z" id="Black" fill="#000000"></path>
                        <path d="M25.9830562,20.2628157 C25.9830562,20.2628157 23.9123062,21.8940657 20.8159312,21.8940657 C20.4446812,21.8940657 20.0408062,21.8704407 19.6421812,21.8183157 C19.6421812,21.8183157 17.0640562,21.4624407 14.4690562,19.6665657 L14.4690562,23.3700657 L14.4690562,32.0828157 C14.4690562,32.4518157 14.5541812,32.8159407 14.7146812,33.1478157 C18.2546812,40.4633157 25.9500562,43.5098157 25.9500562,43.5098157 C25.9500562,43.5098157 33.4928062,40.4659407 37.1550562,33.1579407 C37.3249312,32.8185657 37.4149312,32.4439407 37.4149312,32.0648157 L37.4149312,24.8258157 L37.4149312,19.7415657 C34.8195562,21.4673157 32.3464312,21.8183157 32.3464312,21.8183157 C31.9478062,21.8704407 31.5420562,21.8940657 31.1708062,21.8940657 C28.0699312,21.8940657 25.9830562,20.2628157 25.9830562,20.2628157 Z" id="Orange-Shield" fill="#E24301"></path>
                        <path d="M25.4053687,2.5844907 L7.74511869,6.6453657 L14.4688687,8.6122407 L14.4688687,12.6142407 C15.5616187,12.3956157 16.6318687,12.2519907 17.7741187,12.2519907 C20.3994937,12.2519907 23.2401187,13.0094907 25.9843687,15.3524907 C28.6254937,13.0972407 31.6138687,12.4859907 34.1526187,12.4859907 C35.3529937,12.4859907 36.4588687,12.6224907 37.4147437,12.7867407 L37.4147437,8.6122407 L44.1313687,6.6453657 L26.4921187,2.5844907 C26.1347437,2.5023657 25.7631187,2.5023657 25.4053687,2.5844907" id="Orange-Hat" fill="#E24301"></path>
                        <path d="M25.9418062,41.2958157 L25.9418062,22.4048157 C25.9418062,22.4048157 28.5608062,24.4620657 32.3096812,23.9693157 C32.3096812,23.9693157 33.7271812,23.7713157 35.5028062,22.9433157 L35.5028062,31.8345657 C35.5028062,32.1818157 35.3951812,32.5193157 35.2009312,32.8073157 C31.5589312,38.2080657 25.9418062,41.2958157 25.9418062,41.2958157 Z" id="White-glare" fill-opacity="0.5" fill="#FFFFFF"></path>
                    </g>
                </g>
            </g>
        </g>
    </g>
</svg>