<?xml version="1.0" encoding="UTF-8"?>
<svg width="256px" height="256px" viewBox="0 0 256 256" version="1.1" xmlns="http://www.w3.org/2000/svg" xmlns:xlink="http://www.w3.org/1999/xlink">
    <title>app-icon-tile256</title>
    <defs>
        <linearGradient x1="50%" y1="0%" x2="50%" y2="98.8782728%" id="linearGradient-1">
            <stop stop-color="#FFFFFF" offset="0%"></stop>
            <stop stop-color="#E5E5E5" offset="100%"></stop>
        </linearGradient>
    </defs>
    <g id="App-icons" stroke="none" stroke-width="1" fill="none" fill-rule="evenodd">
        <g transform="translate(-200.000000, -1013.000000)" id="app-icon-tile">
            <g transform="translate(200.000000, 1013.000000)">
                <rect id="Rectangle" fill="url(#linearGradient-1)" x="0" y="0" width="256" height="256"></rect>
                <g id="Logo/mark-light" transform="translate(24.000000, 41.000000)" stroke-width="1">
                    <g id="Mark" transform="translate(0.000000, -0.000000)">
                        <path d="M136.548975,59.7778128 C140.088975,59.7778128 143.766975,60.1228128 147.794475,60.8323128 L156.491475,62.3413128 L143.942475,70.8538128 C136.331475,76.0663128 128.544975,77.4343128 127.932975,77.5348128 C126.855975,77.6728128 125.763975,77.7418128 124.682475,77.7418128 C116.429475,77.7418128 110.507475,73.6693128 109.946475,73.2688128 L107.537475,71.2978128 L110.360475,68.8888128 C117.539475,62.7583128 126.105975,59.7778128 136.548975,59.7778128 Z M71.1624748,58.8418128 C81.0219748,58.8418128 89.6679748,62.0968128 97.5849748,68.8573128 L100.286475,71.1313128 L100.287975,71.1313128 L97.8774748,73.2703128 C97.2414748,73.7233128 91.4124748,77.7268128 83.2629748,77.7268128 C82.1814748,77.7268128 81.0864748,77.6638128 80.0064748,77.5258128 C79.4469748,77.4343128 71.4174748,76.0573128 63.6819748,70.6168128 L51.2769748,61.9198128 L60.0324748,60.0808128 C63.9954748,59.2468128 67.6419748,58.8418128 71.1624748,58.8418128 Z M105.975975,0.248812819 C104.541975,-0.0826871811 103.052475,-0.0826871811 101.616975,0.247312819 L2.06497476,23.1673128 C-0.608025238,23.7823128 -0.716025238,27.5488128 1.91647476,28.3168128 L25.6419748,35.2393128 L25.6419748,59.7583128 C25.6419748,60.5953128 26.1804748,61.3378128 26.9769748,61.5958128 L34.7004748,64.1128128 C35.9499748,64.5208128 37.2339748,63.5893128 37.2339748,62.2738128 L37.2339748,38.6608128 L48.0414748,41.8243128 L48.0414748,50.4568128 L48.0414748,58.9918128 L48.0414748,59.7283128 L48.0414748,62.5753128 L48.0414748,63.6988128 L48.0414748,78.6658128 L48.0414748,93.4813128 L48.0414748,128.170313 C48.0414748,131.239313 48.7614748,134.270813 50.1639748,136.997813 C64.0464748,164.003813 89.4849748,178.573313 99.5169748,183.485813 C102.183975,184.790813 105.303975,184.792313 107.972475,183.487313 C118.011975,178.577813 143.483475,164.008313 157.370475,136.999313 C158.772975,134.270813 159.492975,131.239313 159.492975,128.170313 L159.492975,99.3043128 L159.492975,78.9658128 L159.492975,64.3573128 L159.492975,62.8633128 L159.492975,60.3103128 L159.492975,59.3098128 L159.492975,51.1468128 L159.492975,41.8213128 L205.620975,28.3213128 C208.253475,27.5518128 208.143975,23.7868128 205.472475,23.1718128 L105.975975,0.248812819 Z" id="Black" fill="#000000"></path>
                        <path d="M103.932225,81.0512628 C103.932225,81.0512628 95.6492248,87.5762628 83.2637248,87.5762628 C81.7787248,87.5762628 80.1632248,87.4817628 78.5687248,87.2732628 C78.5687248,87.2732628 68.2562248,85.8497628 57.8762248,78.6662628 L57.8762248,93.4802628 L57.8762248,128.331263 C57.8762248,129.807263 58.2167248,131.263763 58.8587248,132.591263 C73.0187248,161.853263 103.800225,174.039263 103.800225,174.039263 C103.800225,174.039263 133.971225,161.863763 148.620225,132.631763 C149.299725,131.274263 149.659725,129.775763 149.659725,128.259263 L149.659725,99.3032628 L149.659725,78.9662628 C139.278225,85.8692628 129.385725,87.2732628 129.385725,87.2732628 C127.791225,87.4817628 126.168225,87.5762628 124.683225,87.5762628 C112.279725,87.5762628 103.932225,81.0512628 103.932225,81.0512628 Z" id="Orange-Shield" fill="#E24301"></path>
                        <path d="M101.621475,10.3379628 L30.9804748,26.5814628 L57.8754748,34.4489628 L57.8754748,50.4569628 C62.2464748,49.5824628 66.5274748,49.0079628 71.0964748,49.0079628 C81.5979748,49.0079628 92.9604748,52.0379628 103.937475,61.4099628 C114.501975,52.3889628 126.455475,49.9439628 136.610475,49.9439628 C141.411975,49.9439628 145.835475,50.4899628 149.658975,51.1469628 L149.658975,34.4489628 L176.525475,26.5814628 L105.968475,10.3379628 C104.538975,10.0094628 103.052475,10.0094628 101.621475,10.3379628" id="Orange-Hat" fill="#E24301"></path>
                        <path d="M103.767225,165.183263 L103.767225,89.6192628 C103.767225,89.6192628 114.243225,97.8482628 129.238725,95.8772628 C129.238725,95.8772628 134.908725,95.0852628 142.011225,91.7732628 L142.011225,127.338263 C142.011225,128.727263 141.580725,130.077263 140.803725,131.229263 C126.235725,152.832263 103.767225,165.183263 103.767225,165.183263 Z" id="White-glare" fill-opacity="0.5" fill="#FFFFFF"></path>
                    </g>
                </g>
            </g>
        </g>
    </g>
</svg>