<?xml version="1.0" encoding="UTF-8"?>
<svg width="32px" height="32px" viewBox="0 0 32 32" version="1.1" xmlns="http://www.w3.org/2000/svg" xmlns:xlink="http://www.w3.org/1999/xlink">
    <title>app-icon-tile32</title>
    <defs>
        <linearGradient x1="50%" y1="0%" x2="50%" y2="98.8782728%" id="linearGradient-1">
            <stop stop-color="#FFFFFF" offset="0%"></stop>
            <stop stop-color="#E5E5E5" offset="100%"></stop>
        </linearGradient>
    </defs>
    <g id="App-icons" stroke="none" stroke-width="1" fill="none" fill-rule="evenodd">
        <g transform="translate(-200.000000, -1765.000000)" id="app-icon-tile">
            <g transform="translate(200.000000, 1765.000000)">
                <rect id="Rectangle" fill="url(#linearGradient-1)" x="0" y="0" width="32" height="32"></rect>
                <g id="Logo/mark-light" transform="translate(3.000000, 5.125000)" stroke-width="1">
                    <g id="Mark" transform="translate(0.000000, -0.000000)">
                        <path d="M17.0686218,7.4722266 C17.5111218,7.4722266 17.9708718,7.5153516 18.4743093,7.6040391 L19.5614343,7.7926641 L17.9928093,8.8567266 C17.0414343,9.5082891 16.0681218,9.6792891 15.9916218,9.6918516 C15.8569968,9.7091016 15.7204968,9.7177266 15.5853093,9.7177266 C14.5536843,9.7177266 13.8134343,9.2086641 13.7433093,9.1586016 L13.4421843,8.9122266 L13.7950593,8.6111016 C14.6924343,7.8447891 15.7632468,7.4722266 17.0686218,7.4722266 Z M8.89530935,7.3552266 C10.1277468,7.3552266 11.2084968,7.7621016 12.1981218,8.6071641 L12.5359968,8.8914141 L12.2346843,9.1587891 C12.1551843,9.2154141 11.4265593,9.7158516 10.4078718,9.7158516 C10.2726843,9.7158516 10.1358093,9.7079766 10.0008093,9.6907266 C9.93087185,9.6792891 8.92718435,9.5071641 7.96024685,8.8271016 L6.40905935,7.7397891 L7.50405935,7.5101016 C7.99943435,7.4058516 8.45524685,7.3552266 8.89530935,7.3552266 Z M13.2469968,0.0311016024 C13.0677468,-0.0103358976 12.8815593,-0.0103358976 12.7021218,0.0309141024 L0.258121845,2.8959141 C-0.0760031548,2.9727891 -0.0895031548,3.4436016 0.239559345,3.5396016 L3.20524685,4.4049141 L3.20524685,7.4697891 C3.20524685,7.5744141 3.27255935,7.6672266 3.37212185,7.6994766 L4.33755935,8.0141016 C4.49374685,8.0651016 4.65424685,7.9486641 4.65424685,7.7842266 L4.65424685,4.8326016 L6.00518435,5.2280391 L6.00518435,6.3071016 L6.00518435,7.3739766 L6.00518435,7.4660391 L6.00518435,7.8219141 L6.00518435,7.9623516 L6.00518435,9.8332266 L6.00518435,11.6851641 L6.00518435,16.0212891 C6.00518435,16.4049141 6.09518435,16.7838516 6.27049685,17.1247266 C8.00580935,20.5004766 11.1856218,22.3216641 12.4396218,22.9357266 C12.7729968,23.0988516 13.1629968,23.0990391 13.4965593,22.9359141 C14.7514968,22.3222266 17.9354343,20.5010391 19.6713093,17.1249141 C19.8466218,16.7838516 19.9366218,16.4049141 19.9366218,16.0212891 L19.9366218,12.4130391 L19.9366218,9.8707266 L19.9366218,8.0446641 L19.9366218,7.8579141 L19.9366218,7.5387891 L19.9366218,7.4137266 L19.9366218,6.3933516 L19.9366218,5.2276641 L25.7026218,3.5401641 C26.0316843,3.4439766 26.0179968,2.9733516 25.6840593,2.8964766 L13.2469968,0.0311016024 Z" id="Black" fill="#000000"></path>
                        <path d="M12.9915281,10.1314079 C12.9915281,10.1314079 11.9561531,10.9470329 10.4079656,10.9470329 C10.2223406,10.9470329 10.0204031,10.9352204 9.8210906,10.9091579 C9.8210906,10.9091579 8.5320281,10.7312204 7.2345281,9.83328285 L7.2345281,11.6850329 L7.2345281,16.0414079 C7.2345281,16.2259079 7.2770906,16.4079704 7.3573406,16.5739079 C9.1273406,20.2316579 12.9750281,21.7549079 12.9750281,21.7549079 C12.9750281,21.7549079 16.7464031,20.2329704 18.5775281,16.5789704 C18.6624656,16.4092829 18.7074656,16.2219704 18.7074656,16.0324079 L18.7074656,12.4129079 L18.7074656,9.87078285 C17.4097781,10.7336579 16.1732156,10.9091579 16.1732156,10.9091579 C15.9739031,10.9352204 15.7710281,10.9470329 15.5854031,10.9470329 C14.0349656,10.9470329 12.9915281,10.1314079 12.9915281,10.1314079 Z" id="Orange-Shield" fill="#E24301"></path>
                        <path d="M12.7026843,1.29224535 L3.87255935,3.32268285 L7.23443435,4.30612035 L7.23443435,6.30712035 C7.78080935,6.19780785 8.31593435,6.12599535 8.88705935,6.12599535 C10.1997468,6.12599535 11.6200593,6.50474535 12.9921843,7.67624535 C14.3127468,6.54862035 15.8069343,6.24299535 17.0763093,6.24299535 C17.6764968,6.24299535 18.2294343,6.31124535 18.7073718,6.39337035 L18.7073718,4.30612035 L22.0656843,3.32268285 L13.2460593,1.29224535 C13.0673718,1.25118285 12.8815593,1.25118285 12.7026843,1.29224535" id="Orange-Hat" fill="#E24301"></path>
                        <path d="M12.9709031,20.6479079 L12.9709031,11.2024079 C12.9709031,11.2024079 14.2804031,12.2310329 16.1548406,11.9846579 C16.1548406,11.9846579 16.8635906,11.8856579 17.7514031,11.4716579 L17.7514031,15.9172829 C17.7514031,16.0909079 17.6975906,16.2596579 17.6004656,16.4036579 C15.7794656,19.1040329 12.9709031,20.6479079 12.9709031,20.6479079 Z" id="White-glare" fill-opacity="0.5" fill="#FFFFFF"></path>
                    </g>
                </g>
            </g>
        </g>
    </g>
</svg>