<?xml version="1.0" encoding="UTF-8"?>
<svg width="256px" height="256px" viewBox="0 0 256 256" version="1.1" xmlns="http://www.w3.org/2000/svg" xmlns:xlink="http://www.w3.org/1999/xlink">
    <title>app-icon-circle256</title>
    <defs>
        <linearGradient x1="50%" y1="0%" x2="50%" y2="98.8782728%" id="linearGradient-1">
            <stop stop-color="#FFFFFF" offset="0%"></stop>
            <stop stop-color="#E5E5E5" offset="100%"></stop>
        </linearGradient>
    </defs>
    <g id="App-icons" stroke="none" stroke-width="1" fill="none" fill-rule="evenodd">
        <g transform="translate(-812.000000, -1013.000000)" id="app-icon-circle">
            <g transform="translate(812.000000, 1013.000000)">
                <path d="M128,0 C198.692448,0 256,57.307552 256,128 C256,198.692448 198.692448,256 128,256 C57.307552,256 0,198.692448 0,128 C0,57.307552 57.307552,0 128,0 Z" id="Rectangle" fill="url(#linearGradient-1)"></path>
                <g id="Logo/mark-light" transform="translate(34.500000, 54.000000)" stroke-width="1">
                    <g id="Mark" transform="translate(0.000000, -0.000000)">
                        <path d="M122.795841,53.7838316 C125.979294,53.7838316 129.286848,54.0942381 132.9087,54.7325958 L140.729743,56.0902869 L129.444672,63.74923 C122.600247,68.4390674 115.597999,69.6698966 115.047639,69.7603194 C114.079114,69.884482 113.0971,69.9465633 112.124528,69.9465633 C104.702765,69.9465633 99.3772255,66.282417 98.8727291,65.9220755 L96.7063622,64.1487096 L99.2450313,61.9812625 C105.700967,56.4654739 113.404654,53.7838316 122.795841,53.7838316 Z M63.9950313,52.9416852 C72.8614881,52.9416852 80.636668,55.8703031 87.7562723,61.952921 L90.1856787,63.9989048 L90.1870277,63.9989048 L88.0193118,65.9234251 C87.4473694,66.3310023 82.2054629,69.9330674 74.8767759,69.9330674 C73.9042039,69.9330674 72.9194917,69.8763844 71.9482687,69.7522218 C71.4451212,69.6698966 64.2243478,68.4309698 57.2679629,63.5359942 L46.1123874,55.7110511 L53.9860385,54.0564495 C57.5498874,53.3060755 60.829114,52.9416852 63.9950313,52.9416852 Z M95.3021356,0.223864108 C94.0125672,-0.0743960546 92.6730888,-0.0743960546 91.3821715,0.222514515 L1.85699169,20.8443031 C-0.546785286,21.3976365 -0.643907588,24.7864657 1.72344853,25.4774576 L23.0593298,31.7058316 L23.0593298,53.7662869 C23.0593298,54.51936 23.5435924,55.1874088 24.2598694,55.4195389 L31.2054629,57.6841568 C32.329114,58.0512462 33.4837903,57.2131487 33.4837903,56.0295552 L33.4837903,34.7842544 L43.2027651,37.630547 L43.2027651,45.3974576 L43.2027651,53.0766446 L43.2027651,53.739295 L43.2027651,56.3008235 L43.2027651,57.311669 L43.2027651,70.7779129 L43.2027651,84.1078478 L43.2027651,115.318547 C43.2027651,118.079815 43.8502471,120.807344 45.1114881,123.260905 C57.5957507,147.558986 80.4720996,160.667588 89.4936823,165.087506 C91.8920636,166.261653 94.697819,166.263002 97.0975492,165.088856 C106.125877,160.671636 129.031902,147.563035 141.520211,123.262254 C142.781452,120.807344 143.428934,118.079815 143.428934,115.318547 L143.428934,89.3469698 L143.428934,71.0478316 L143.428934,57.9041405 L143.428934,56.5599454 L143.428934,54.2629373 L143.428934,53.3627584 L143.428934,46.0182706 L143.428934,37.6278478 L184.910949,25.4815064 C187.278305,24.7891649 187.179833,21.4016852 184.777405,20.8483519 L95.3021356,0.223864108 Z" id="Black" fill="#000000"></path>
                        <path d="M93.4642309,72.9241714 C93.4642309,72.9241714 86.0154899,78.7949031 74.8774503,78.7949031 C73.5420187,78.7949031 72.0892309,78.7098787 70.655328,78.5222852 C70.655328,78.5222852 61.3814971,77.241521 52.0469647,70.7783178 L52.0469647,84.1069031 L52.0469647,115.463358 C52.0469647,116.791358 52.3531697,118.101814 52.9305079,119.296204 C65.6643208,145.624074 93.3455259,156.588171 93.3455259,156.588171 C93.3455259,156.588171 120.47772,145.633521 133.651281,119.332643 C134.262342,118.111261 134.586083,116.763017 134.586083,115.398578 L134.586083,89.3460251 L134.586083,71.0482365 C125.250202,77.2590657 116.354069,78.5222852 116.354069,78.5222852 C114.920166,78.7098787 113.460634,78.7949031 112.125202,78.7949031 C100.970976,78.7949031 93.4642309,72.9241714 93.4642309,72.9241714 Z" id="Orange-Shield" fill="#E24301"></path>
                        <path d="M91.3862183,9.30136492 L27.8601392,23.9161129 L52.0462903,30.9947308 L52.0462903,45.3975926 C55.9770456,44.6107796 59.8268658,44.0938852 63.9356787,44.0938852 C73.3794737,44.0938852 83.5975492,46.8200641 93.4689521,55.2523243 C102.969402,47.135869 113.718952,44.9360316 122.851146,44.9360316 C127.169042,44.9360316 131.14701,45.4272836 134.585409,46.0184056 L134.585409,30.9947308 L158.745931,23.9161129 L95.295391,9.30136492 C94.0098694,9.00580395 92.6730888,9.00580395 91.3862183,9.30136492" id="Orange-Hat" fill="#E24301"></path>
                        <path d="M93.3158496,148.620171 L93.3158496,80.6330495 C93.3158496,80.6330495 102.736713,88.0369194 116.221875,86.2635535 C116.221875,86.2635535 121.320796,85.5509682 127.707936,82.5710657 L127.707936,114.569928 C127.707936,115.819651 127.320796,117.034285 126.622055,118.070773 C113.521335,137.507619 93.3158496,148.620171 93.3158496,148.620171 Z" id="White-glare" fill-opacity="0.5" fill="#FFFFFF"></path>
                    </g>
                </g>
            </g>
        </g>
    </g>
</svg>