<?xml version="1.0" encoding="UTF-8"?>
<svg width="64px" height="64px" viewBox="0 0 64 64" version="1.1" xmlns="http://www.w3.org/2000/svg" xmlns:xlink="http://www.w3.org/1999/xlink">
    <title>app-icon-circle64</title>
    <defs>
        <linearGradient x1="50%" y1="0%" x2="50%" y2="98.8782728%" id="linearGradient-1">
            <stop stop-color="#FFFFFF" offset="0%"></stop>
            <stop stop-color="#E5E5E5" offset="100%"></stop>
        </linearGradient>
    </defs>
    <g id="App-icons" stroke="none" stroke-width="1" fill="none" fill-rule="evenodd">
        <g transform="translate(-803.000000, -1525.000000)" id="app-icon-circle">
            <g transform="translate(803.000000, 1525.000000)">
                <path d="M32,0 C49.673112,0 64,14.326888 64,32 C64,49.673112 49.673112,64 32,64 C14.326888,64 0,49.673112 0,32 C0,14.326888 14.326888,0 32,0 Z" id="Rectangle" fill="url(#linearGradient-1)"></path>
                <g id="Logo/mark-light" transform="translate(8.625000, 13.500000)" stroke-width="1">
                    <g id="Mark" transform="translate(0.000000, -0.000000)">
                        <path d="M30.6989602,13.4459579 C31.4948235,13.4459579 32.321712,13.5235595 33.2271751,13.683149 L35.1824359,14.0225717 L32.3611679,15.9373075 C30.6500618,17.1097668 28.8994997,17.4174742 28.7619098,17.4400798 C28.5197785,17.4711205 28.2742749,17.4866408 28.0311319,17.4866408 C26.1756913,17.4866408 24.8443064,16.5706042 24.7181823,16.4805189 L24.1765905,16.0371774 L24.8112578,15.4953156 C26.4252416,14.1163685 28.3511634,13.4459579 30.6989602,13.4459579 Z M15.9987578,13.2354213 C18.215372,13.2354213 20.159167,13.9675758 21.9390681,15.4882303 L22.5467569,15.9997262 L22.004828,16.4808563 C21.8618423,16.5827506 20.5513657,17.4832668 18.719194,17.4832668 C18.476051,17.4832668 18.2298729,17.4690961 17.9870672,17.4380555 C17.8612803,17.4174742 16.056087,17.1077424 14.3169907,15.8839985 L11.5280968,13.9277628 L13.4965096,13.5141124 C14.3874718,13.3265189 15.2072785,13.2354213 15.9987578,13.2354213 Z M23.8255339,0.055966027 C23.5031418,-0.0185990136 23.1682722,-0.0185990136 22.8455429,0.0556286286 L0.464247923,5.21107578 C-0.136696322,5.34940912 -0.160976897,6.19661643 0.430862132,6.3693644 L5.76483246,7.9264579 L5.76483246,13.4415717 C5.76483246,13.62984 5.8858981,13.7968522 6.06496735,13.8548847 L7.80136573,14.4210392 C8.0822785,14.5128116 8.37094756,14.3032872 8.37094756,14.0073888 L8.37094756,8.69606359 L10.8006913,9.40763676 L10.8006913,11.3493644 L10.8006913,13.2691611 L10.8006913,13.4348238 L10.8006913,14.0752059 L10.8006913,14.3279172 L10.8006913,17.6944782 L10.8006913,21.026962 L10.8006913,28.8296368 C10.8006913,29.5199538 10.9625618,30.2018359 11.277872,30.8152262 C14.3989377,36.8897465 20.1180249,40.1668969 22.3734206,41.2718766 C22.9730159,41.5654132 23.6744548,41.5657506 24.2743873,41.272214 C26.5314691,40.1679091 32.2579754,36.8907587 35.3800528,30.8155636 C35.695363,30.2018359 35.8572335,29.5199538 35.8572335,28.8296368 L35.8572335,22.3367424 L35.8572335,17.7619579 L35.8572335,14.4760351 L35.8572335,14.1399864 L35.8572335,13.5657343 L35.8572335,13.3406896 L35.8572335,11.5045677 L35.8572335,9.40696196 L46.2277371,6.3703766 C46.8195762,6.19729123 46.7949584,5.35042131 46.1943513,5.21208798 L23.8255339,0.055966027 Z" id="Black" fill="#000000"></path>
                        <path d="M23.3660577,18.2310429 C23.3660577,18.2310429 21.5038725,19.6987258 18.7193626,19.6987258 C18.3855047,19.6987258 18.0223077,19.6774697 17.663832,19.6305713 C17.663832,19.6305713 15.3453743,19.3103803 13.0117412,17.6945794 L13.0117412,21.0267258 L13.0117412,28.8658396 C13.0117412,29.1978396 13.0882924,29.5254534 13.232627,29.824051 C16.4160802,36.4060185 23.3363815,39.1470429 23.3363815,39.1470429 C23.3363815,39.1470429 30.11943,36.4083803 33.4128203,29.8331607 C33.5655856,29.5278152 33.6465209,29.1907542 33.6465209,28.8496445 L33.6465209,22.3365063 L33.6465209,17.7620591 C31.3125505,19.3147664 29.0885173,19.6305713 29.0885173,19.6305713 C28.7300415,19.6774697 28.3651584,19.6987258 28.0313005,19.6987258 C25.2427439,19.6987258 23.3660577,18.2310429 23.3660577,18.2310429 Z" id="Orange-Shield" fill="#E24301"></path>
                        <path d="M22.8465546,2.32534123 L6.96503479,5.97902822 L13.0115726,7.74868269 L13.0115726,11.3493981 C13.9942614,11.1526949 14.9567164,11.0234713 15.9839197,11.0234713 C18.3448684,11.0234713 20.8993873,11.705016 23.367238,13.8130811 C25.7423504,11.7839672 28.429738,11.2340079 30.7127866,11.2340079 C31.7922605,11.2340079 32.7867524,11.3568209 33.6463522,11.5046014 L33.6463522,7.74868269 L39.6864826,5.97902822 L23.8238477,2.32534123 C23.5024673,2.25145099 23.1682722,2.25145099 22.8465546,2.32534123" id="Orange-Hat" fill="#E24301"></path>
                        <path d="M23.3289624,37.1550429 L23.3289624,20.1582624 C23.3289624,20.1582624 25.6841782,22.0092298 29.0554687,21.5658884 C29.0554687,21.5658884 30.3301989,21.387742 31.926984,20.6427664 L31.926984,28.6424819 C31.926984,28.9549128 31.8301989,29.2585713 31.6555137,29.5176933 C28.3803338,34.3769046 23.3289624,37.1550429 23.3289624,37.1550429 Z" id="White-glare" fill-opacity="0.5" fill="#FFFFFF"></path>
                    </g>
                </g>
            </g>
        </g>
    </g>
</svg>