<?xml version="1.0" encoding="UTF-8"?>
<svg width="512px" height="512px" viewBox="0 0 512 512" version="1.1" xmlns="http://www.w3.org/2000/svg" xmlns:xlink="http://www.w3.org/1999/xlink">
    <title>app-icon-tile512</title>
    <defs>
        <linearGradient x1="50%" y1="0%" x2="50%" y2="98.8782728%" id="linearGradient-1">
            <stop stop-color="#FFFFFF" offset="0%"></stop>
            <stop stop-color="#E5E5E5" offset="100%"></stop>
        </linearGradient>
    </defs>
    <g id="App-icons" stroke="none" stroke-width="1" fill="none" fill-rule="evenodd">
        <g transform="translate(-200.000000, -441.000000)" id="app-icon-tile">
            <g transform="translate(200.000000, 441.000000)">
                <rect id="Rectangle" fill="url(#linearGradient-1)" x="0" y="0" width="512" height="512"></rect>
                <g id="Logo/mark-light" transform="translate(48.000000, 82.000000)" stroke-width="1">
                    <g id="Mark" transform="translate(0.000000, -0.000000)">
                        <path d="M273.09795,119.555626 C280.17795,119.555626 287.53395,120.245626 295.58895,121.664626 L312.98295,124.682626 L287.88495,141.707626 C272.66295,152.132626 257.08995,154.868626 255.86595,155.069626 C253.71195,155.345626 251.52795,155.483626 249.36495,155.483626 C232.85895,155.483626 221.01495,147.338626 219.89295,146.537626 L215.07495,142.595626 L220.72095,137.777626 C235.07895,125.516626 252.21195,119.555626 273.09795,119.555626 Z M142.32495,117.683626 C162.04395,117.683626 179.33595,124.193626 195.16995,137.714626 L200.57295,142.262626 L200.57595,142.262626 L195.75495,146.540626 C194.48295,147.446626 182.82495,155.453626 166.52595,155.453626 C164.36295,155.453626 162.17295,155.327626 160.01295,155.051626 C158.89395,154.868626 142.83495,152.114626 127.36395,141.233626 L102.55395,123.839626 L120.06495,120.161626 C127.99095,118.493626 135.28395,117.683626 142.32495,117.683626 Z M211.95195,0.497625638 C209.08395,-0.165374362 206.10495,-0.165374362 203.23395,0.494625638 L4.12994952,46.3346256 C-1.21605048,47.5646256 -1.43205048,55.0976256 3.83294952,56.6336256 L51.2839495,70.4786256 L51.2839495,119.516626 C51.2839495,121.190626 52.3609495,122.675626 53.9539495,123.191626 L69.4009495,128.225626 C71.8999495,129.041626 74.4679495,127.178626 74.4679495,124.547626 L74.4679495,77.3216256 L96.0829495,83.6486256 L96.0829495,100.913626 L96.0829495,117.983626 L96.0829495,119.456626 L96.0829495,125.150626 L96.0829495,127.397626 L96.0829495,157.331626 L96.0829495,186.962626 L96.0829495,256.340626 C96.0829495,262.478626 97.5229495,268.541626 100.32795,273.995626 C128.09295,328.007626 178.96995,357.146626 199.03395,366.971626 C204.36795,369.581626 210.60795,369.584626 215.94495,366.974626 C236.02395,357.155626 286.96695,328.016626 314.74095,273.998626 C317.54595,268.541626 318.98595,262.478626 318.98595,256.340626 L318.98595,198.608626 L318.98595,157.931626 L318.98595,128.714626 L318.98595,125.726626 L318.98595,120.620626 L318.98595,118.619626 L318.98595,102.293626 L318.98595,83.6426256 L411.24195,56.6426256 C416.50695,55.1036256 416.28795,47.5736256 410.94495,46.3436256 L211.95195,0.497625638 Z" id="Black" fill="#000000"></path>
                        <path d="M207.86445,162.102526 C207.86445,162.102526 191.29845,175.152526 166.52745,175.152526 C163.55745,175.152526 160.32645,174.963526 157.13745,174.546526 C157.13745,174.546526 136.51245,171.699526 115.75245,157.332526 L115.75245,186.960526 L115.75245,256.662526 C115.75245,259.614526 116.43345,262.527526 117.71745,265.182526 C146.03745,323.706526 207.60045,348.078526 207.60045,348.078526 C207.60045,348.078526 267.94245,323.727526 297.24045,265.263526 C298.59945,262.548526 299.31945,259.551526 299.31945,256.518526 L299.31945,198.606526 L299.31945,157.932526 C278.55645,171.738526 258.77145,174.546526 258.77145,174.546526 C255.58245,174.963526 252.33645,175.152526 249.36645,175.152526 C224.55945,175.152526 207.86445,162.102526 207.86445,162.102526 Z" id="Orange-Shield" fill="#E24301"></path>
                        <path d="M203.24295,20.6759256 L61.9609495,53.1629256 L115.75095,68.8979256 L115.75095,100.913926 C124.49295,99.1649256 133.05495,98.0159256 142.19295,98.0159256 C163.19595,98.0159256 185.92095,104.075926 207.87495,122.819926 C229.00395,104.777926 252.91095,99.8879256 273.22095,99.8879256 C282.82395,99.8879256 291.67095,100.979926 299.31795,102.293926 L299.31795,68.8979256 L353.05095,53.1629256 L211.93695,20.6759256 C209.07795,20.0189256 206.10495,20.0189256 203.24295,20.6759256" id="Orange-Hat" fill="#E24301"></path>
                        <path d="M207.53445,330.366526 L207.53445,179.238526 C207.53445,179.238526 228.48645,195.696526 258.47745,191.754526 C258.47745,191.754526 269.81745,190.170526 284.02245,183.546526 L284.02245,254.676526 C284.02245,257.454526 283.16145,260.154526 281.60745,262.458526 C252.47145,305.664526 207.53445,330.366526 207.53445,330.366526 Z" id="White-glare" fill-opacity="0.5" fill="#FFFFFF"></path>
                    </g>
                </g>
            </g>
        </g>
    </g>
</svg>