<?xml version="1.0" encoding="UTF-8"?>
<svg width="128px" height="128px" viewBox="0 0 128 128" version="1.1" xmlns="http://www.w3.org/2000/svg" xmlns:xlink="http://www.w3.org/1999/xlink">
    <title>app-icon-circle128</title>
    <defs>
        <linearGradient x1="50%" y1="0%" x2="50%" y2="98.8782728%" id="linearGradient-1">
            <stop stop-color="#FFFFFF" offset="0%"></stop>
            <stop stop-color="#E5E5E5" offset="100%"></stop>
        </linearGradient>
    </defs>
    <g id="App-icons" stroke="none" stroke-width="1" fill="none" fill-rule="evenodd">
        <g transform="translate(-803.000000, -1337.000000)" id="app-icon-circle">
            <g transform="translate(803.000000, 1337.000000)">
                <path d="M64,0 C99.346224,0 128,28.653776 128,64 C128,99.346224 99.346224,128 64,128 C28.653776,128 0,99.346224 0,64 C0,28.653776 28.653776,0 64,0 Z" id="Rectangle" fill="url(#linearGradient-1)"></path>
                <g id="Logo/mark-light" transform="translate(17.250000, 27.000000)" stroke-width="1">
                    <g id="Mark" transform="translate(0.000000, -0.000000)">
                        <path d="M61.3979203,26.8919158 C62.9896469,26.8919158 64.6434239,27.047119 66.4543502,27.3662979 L70.3648717,28.0451434 L64.7223358,31.874615 C61.3001235,34.2195337 57.7989994,34.8349483 57.5238196,34.8801597 C57.039557,34.942241 56.5485498,34.9732816 56.0622638,34.9732816 C52.3513825,34.9732816 49.6886128,33.1412085 49.4363646,32.9610377 L48.3531811,32.0743548 L49.6225156,30.9906312 C52.8504833,28.2327369 56.7023268,26.8919158 61.3979203,26.8919158 Z M31.9975156,26.4708426 C36.430744,26.4708426 40.318334,27.9351516 43.8781361,30.9764605 L45.0928394,31.9994524 L45.0935138,31.9994524 L44.0096559,32.9617125 C43.7236847,33.1655012 41.1027315,34.9665337 37.4383879,34.9665337 C36.952102,34.9665337 36.4597458,34.9381922 35.9741343,34.8761109 C35.7225606,34.8349483 32.1121739,34.2154849 28.6339815,31.7679971 L23.0561937,27.8555255 L26.9930192,27.0282247 C28.7749437,26.6530377 30.414557,26.4708426 31.9975156,26.4708426 Z M47.6510678,0.111932054 C47.0062836,-0.0371980273 46.3365444,-0.0371980273 45.6910858,0.111257257 L0.928495846,10.4221516 C-0.273392643,10.6988182 -0.321953794,12.3932329 0.861724263,12.7387288 L11.5296649,15.8529158 L11.5296649,26.8831434 C11.5296649,27.25968 11.7717962,27.5937044 12.1299347,27.7097695 L15.6027315,28.8420784 C16.164557,29.0256231 16.7418951,28.6065743 16.7418951,28.0147776 L16.7418951,17.3921272 L21.6013825,18.8152735 L21.6013825,22.6987288 L21.6013825,26.5383223 L21.6013825,26.8696475 L21.6013825,28.1504117 L21.6013825,28.6558345 L21.6013825,35.3889564 L21.6013825,42.0539239 L21.6013825,57.6592735 C21.6013825,59.0399077 21.9251235,60.4036719 22.555744,61.6304524 C28.7978753,73.779493 40.2360498,80.3337938 44.7468412,82.5437532 C45.9460318,83.1308264 47.3489095,83.1315012 48.5487746,82.544428 C53.0629383,80.3358182 64.5159509,73.7815174 70.7601056,61.6311272 C71.3907261,60.4036719 71.7144671,59.0399077 71.7144671,57.6592735 L71.7144671,44.6734849 L71.7144671,35.5239158 L71.7144671,28.9520703 L71.7144671,28.2799727 L71.7144671,27.1314686 L71.7144671,26.6813792 L71.7144671,23.0091353 L71.7144671,18.8139239 L92.4554743,12.7407532 C93.6391523,12.3945825 93.5899167,10.7008426 92.3887027,10.424176 L47.6510678,0.111932054 Z" id="Black" fill="#000000"></path>
                        <path d="M46.7321155,36.4620857 C46.7321155,36.4620857 43.0077449,39.3974516 37.4387252,39.3974516 C36.7710093,39.3974516 36.0446155,39.3549394 35.327664,39.2611426 C35.327664,39.2611426 30.6907485,38.6207605 26.0234824,35.3891589 L26.0234824,42.0534516 L26.0234824,57.7316792 C26.0234824,58.3956792 26.1765849,59.0509069 26.4652539,59.648102 C32.8321604,72.8120369 46.6727629,78.2940857 46.6727629,78.2940857 C46.6727629,78.2940857 60.2388601,72.8167605 66.8256406,59.6663215 C67.1311712,59.0556304 67.2930417,58.3815085 67.2930417,57.699289 L67.2930417,44.6730125 L67.2930417,35.5241182 C62.6251011,38.6295329 58.1770345,39.2611426 58.1770345,39.2611426 C57.4600831,39.3549394 56.7303169,39.3974516 56.0626011,39.3974516 C50.4854878,39.3974516 46.7321155,36.4620857 46.7321155,36.4620857 Z" id="Orange-Shield" fill="#E24301"></path>
                        <path d="M45.6931092,4.65068246 L13.9300696,11.9580564 L26.0231451,15.4973654 L26.0231451,22.6987963 C27.9885228,22.3053898 29.9134329,22.0469426 31.9678394,22.0469426 C36.6897369,22.0469426 41.7987746,23.4100321 46.7344761,27.6261621 C51.4847009,23.5679345 56.8594761,22.4680158 61.4255732,22.4680158 C63.584521,22.4680158 65.5735048,22.7136418 67.2927045,23.0092028 L67.2927045,15.4973654 L79.3729653,11.9580564 L47.6476955,4.65068246 C47.0049347,4.50290197 46.3365444,4.50290197 45.6931092,4.65068246" id="Orange-Hat" fill="#E24301"></path>
                        <path d="M46.6579248,74.3100857 L46.6579248,40.3165247 C46.6579248,40.3165247 51.3683565,44.0184597 58.1109374,43.1317768 C58.1109374,43.1317768 60.6603978,42.7754841 63.853968,41.2855329 L63.853968,57.2849638 C63.853968,57.9098255 63.6603978,58.5171426 63.3110273,59.0353865 C56.7606676,68.7538093 46.6579248,74.3100857 46.6579248,74.3100857 Z" id="White-glare" fill-opacity="0.5" fill="#FFFFFF"></path>
                    </g>
                </g>
            </g>
        </g>
    </g>
</svg>