<?xml version="1.0" encoding="UTF-8"?>
<svg width="540px" height="290px" viewBox="0 0 540 290" version="1.1" xmlns="http://www.w3.org/2000/svg" xmlns:xlink="http://www.w3.org/1999/xlink">
    <title>illustration/connect_institute</title>
    <defs>
        <polygon id="path-1" points="0 0.0218526489 245.978 0.0218526489 245.978 246 0 246"></polygon>
    </defs>
    <g id="illustration/connect_institute" stroke="none" stroke-width="1" fill="none" fill-rule="evenodd">
        <g id="Group-3" transform="translate(1.000000, 0.000000)">
            <g id="illustration/earth" transform="translate(263.000000, 8.000000)">
                <g id="Group-14">
                    <g id="Group-3" transform="translate(0.000000, 0.478500)">
                        <mask id="mask-2" fill="white">
                            <use xlink:href="#path-1"></use>
                        </mask>
                        <g id="Clip-2"></g>
                        <path d="M184.47325,229.50485 C125.65825,263.46185 50.45225,243.30985 16.49525,184.49485 C-17.46175,125.68035 2.68925,50.47335 61.50475,16.51685 C120.32025,-17.43965 195.52575,2.71185 229.48325,61.52585 C263.44025,120.34085 243.28825,195.54785 184.47325,229.50485" id="Fill-1" fill="#01B4D2" mask="url(#mask-2)"></path>
                    </g>
                    <path d="M131.66805,86.6906 C130.78255,86.8981 129.06805,87.3336 128.32605,87.9286 C127.40055,88.6711 128.84705,89.6366 128.31905,90.0596 C127.40655,90.7896 126.74455,92.1136 124.79155,91.9886 C120.71005,91.7281 114.43855,86.4491 110.70905,84.4536 C116.72055,78.2666 107.20955,77.3396 103.50205,77.6496 C98.70205,78.0511 90.39455,77.6181 86.05805,80.0596 C83.04855,81.7541 79.00355,88.7871 76.57905,91.5806 C73.20405,95.4686 69.80805,98.8441 67.60905,103.4991 C59.54155,120.5756 71.95855,140.1801 91.47355,137.8871 C96.89155,137.2506 102.57455,133.8441 107.37655,138.3391 C110.91555,141.6516 109.04305,144.7691 109.98055,148.6321 C110.79305,151.9751 114.49455,154.0316 115.77555,157.1016 C118.23155,162.9866 116.67655,166.6676 114.92305,172.0951 C112.62205,179.2176 118.57255,187.6741 120.88805,194.5476 C122.05405,198.0086 125.45255,207.7006 128.78905,209.2171 C134.03505,211.6021 142.25805,204.4496 145.39005,200.6026 C147.83955,197.5951 147.04005,194.5401 148.68455,191.7241 C150.46555,188.6766 152.71855,187.7616 153.96605,183.8326 C155.31055,179.5976 156.70755,178.5446 159.54705,175.4536 C164.11805,170.4801 163.40805,167.5711 161.58055,161.6731 C157.78305,149.4201 171.57655,143.6921 177.79005,134.6976 C184.27805,125.3051 171.73705,128.4361 166.82205,125.2236 C161.76805,121.9206 159.55955,115.6431 157.12505,110.4391 C154.68905,105.2346 152.67355,97.4136 148.63955,93.1386 C145.53255,89.8471 136.08005,88.3201 131.66805,86.6906" id="Fill-4" fill="#078B50"></path>
                    <path d="M195.14415,168.88715 C193.18315,175.49415 191.22315,182.10115 189.26265,188.70815 C187.89215,193.32715 183.04715,208.43715 176.24915,198.75865 C173.66515,195.08065 175.76615,190.26115 177.20815,186.87665 C179.02665,182.60665 176.56915,180.45665 177.83715,176.41415 C179.29115,171.78065 185.27315,171.62215 188.10365,168.36315 C190.07715,166.09115 191.29515,162.47865 192.73765,159.81865 C193.54065,162.84215 194.34215,165.86415 195.14415,168.88715" id="Fill-6" fill="#078B50"></path>
                    <path d="M229.483,62.0046 C208.303,25.3201 171.075,3.6796 131.786,0.8256 L115.7055,20.9976 L81.24,33.0806 L71.994,55.4946 L86.2565,75.4741 L87.7725,71.2501 C90.304,64.1976 96.9895,59.4941 104.482,59.4941 L127.9885,59.4941 L155.0085,68.9891 L164.315,77.8731 L164.315,83.5161 L177.2535,108.2996 L181.021,106.9101 C189.157,103.9101 196.5445,99.1811 202.6765,93.0496 L199.553,88.3636 C198.5595,86.8736 199.628,84.8781 201.4185,84.8781 L208.9585,84.8781 C211.1665,84.8781 213.2635,85.8451 214.6975,87.5241 L220.857,94.7356 C221.444,95.4226 221.9025,96.2096 222.2115,97.0586 L229.0085,115.7501 L232.2435,112.5146 C234.284,110.4741 235.317,107.6946 235.365,104.8096 C235.4035,102.4901 236.41,100.2896 238.1445,98.7426 L240.622,96.5326 C241.245,95.9771 241.9405,95.5256 242.6805,95.1841 C239.987,83.8166 235.6245,72.6421 229.483,62.0046" id="Fill-8" fill="#078B50"></path>
                    <path d="M45.5194,66.8083 L51.4009,60.5058 C55.6894,55.9103 56.9044,49.2353 54.5094,43.4233 C51.9774,37.2783 46.4259,33.2943 40.2809,32.4703 C18.5609,52.1693 5.0564,78.6538 1.1714,106.7073 C5.7634,110.7213 10.5689,115.0183 10.5414,115.3968 C10.4884,116.1213 27.7459,113.2278 27.7459,113.2278 L18.8619,100.1953 L31.6204,91.0728 L45.5194,66.8083 Z" id="Fill-10" fill="#078B50"></path>
                    <path d="M57.47835,189.3349 C63.02235,187.5334 66.05635,181.5789 64.25535,176.0354 L62.67185,171.1609 C61.97985,169.0319 61.98335,166.7379 62.68135,164.6104 C64.65985,158.5789 60.90585,152.1789 54.67685,150.9619 L42.25035,148.5329 L19.55085,131.2749 L0.78435,137.3709 C2.62735,153.6689 7.77085,169.8619 16.49485,184.9729 C24.56385,198.9489 34.96485,210.7359 46.91785,220.1379 L52.50985,190.9489 L57.47835,189.3349 Z" id="Fill-12" fill="#078B50"></path>
                </g>
            </g>
            <g id="Institute">
                <polygon id="Fill-1" fill="#9A2E00" points="238.040504 281.341249 318.246747 281.341249 318.246747 134.240941 238.040504 134.240941"></polygon>
                <polygon id="Fill-2" fill="#FFFFFF" points="119.616688 281.285721 160.423374 281.285721 160.423374 205.823371 119.616688 205.823371"></polygon>
                <polygon id="Fill-3" fill="#000000" points="156.916813 78.6090629 163.929231 78.6090629 163.929231 3.6035873 156.916813 3.6035873"></polygon>
                <g id="Group-30" transform="translate(0.000000, 0.225064)">
                    <polygon id="Fill-9" fill="#9A2E00" points="2.60000014 281.116185 82.1026803 281.116185 82.1026803 134.01658 2.60000014 134.01658"></polygon>
                    <polygon id="Fill-9" fill="#000000" points="0.202675776 139.21658 82.1026803 139.21658 82.1026803 134.01658 0.202675776 134.01658"></polygon>
                    <polygon id="Fill-9-Copy" fill="#000000" points="239.200013 139.21658 321.100018 139.21658 321.100018 134.01658 239.200013 134.01658"></polygon>
                    <polygon id="Path" fill="#9A2E00" points="74.1000041 118.374942 74.1000041 110.576856 159.900009 62.4749393 245.700014 110.576856 245.700014 118.374942"></polygon>
                    <path d="M160.423374,98.8722296 C150.507349,98.8722296 142.468432,106.903384 142.468432,116.809834 C142.468432,126.716284 150.507349,134.747439 160.423374,134.747439 C170.339398,134.747439 178.378315,126.716284 178.378315,116.809834 C178.347358,106.916036 170.326734,98.9031565 160.423374,98.8722296 L160.423374,98.8722296 Z M201.230059,281.060517 L201.230059,205.598166 L119.616688,205.598166 L119.616688,281.060517 L80.21713,281.060517 L80.21713,114.504374 L160.198233,69.5197855 L240.179337,114.504374 L240.179337,281.060517 L201.230059,281.060517 Z" id="Fill-4" fill="#E24301"></path>
                    <polygon id="Fill-6" fill="#EDEDED" points="160.423374 281.059954 201.230059 281.059954 201.230059 205.598307 160.423374 205.598307"></polygon>
                    <path d="M160.423374,97.8882621 C170.91521,97.8882621 179.419589,106.385174 179.419589,116.866135 C179.419589,127.347097 170.91521,135.844009 160.423374,135.844009 C149.932282,135.844009 141.427158,127.347097 141.427158,116.866135 C141.427158,106.385174 149.932282,97.8882621 160.423374,97.8882621" id="Fill-8" fill="#9A2E00"></path>
                    <path d="M160.423374,102.566135 C168.321434,102.566135 174.723374,108.968635 174.723374,116.866135 C174.723374,124.763636 168.321434,131.166136 160.423374,131.166136 C152.525873,131.166136 146.123373,124.763636 146.123373,116.866135 C146.123373,108.968635 152.525873,102.566135 160.423374,102.566135" id="Fill-8" fill="#EDEDED"></path>
                    <g id="Group-2" transform="translate(163.800009, 9.174936)">
                        <polygon id="Fill-10" fill="#004361" points="2.25384155e-13 23.6169076 36.7879282 23.6169076 36.7879282 2.58637555e-14 2.25384155e-13 2.58637555e-14"></polygon>
                        <polygon id="Fill-10" fill="#00283A" points="24.3079283 23.6169076 36.7879282 23.6169076 36.7879282 2.77111666e-14 24.3079283 8.82265815"></polygon>
                        <polygon id="Fill-11" fill="#004361" points="24.3322652 8.82265815 60.2196322 8.82265815 52.1950683 20.631112 60.2196322 32.4395658 24.3322652 32.4395658"></polygon>
                    </g>
                    <rect id="Rectangle" fill="#E24301" x="152.100008" y="0" width="15.6000009" height="5.20000029" rx="2.60000014"></rect>
                    <rect id="Rectangle-Copy" fill="#E24301" x="152.100008" y="243.174949" width="15.6000009" height="5.20000029" rx="2.60000014"></rect>
                    <polygon id="Fill-12" fill="#FFFFFF" points="22.0183539 174.50271 33.2753705 174.50271 33.2753705 152.010416 22.0183539 152.010416"></polygon>
                    <polygon id="Fill-13" fill="#FFFFFF" points="49.7668999 174.50271 61.0239166 174.50271 61.0239166 152.010416 49.7668999 152.010416"></polygon>
                    <polygon id="Fill-12" fill="#000000" points="22.0183539 174.50271 33.2753705 174.50271 33.2753705 170.60271 22.0183539 170.60271"></polygon>
                    <polygon id="Fill-13" fill="#000000" points="49.7668999 174.50271 61.0239166 174.50271 61.0239166 170.60271 49.7668999 170.60271"></polygon>
                    <polygon id="Fill-14" fill="#FFFFFF" points="102.956304 165.365215 125.470337 165.365215 125.470337 154.119068 102.956304 154.119068"></polygon>
                    <polygon id="Fill-15" fill="#FFFFFF" points="149.166357 165.365215 171.68039 165.365215 171.68039 154.119068 149.166357 154.119068"></polygon>
                    <polygon id="Fill-16" fill="#FFFFFF" points="195.37641 165.365215 217.890444 165.365215 217.890444 154.119068 195.37641 154.119068"></polygon>
                    <g id="Group" transform="translate(192.400011, 128.774943)" fill="#9A2E00" opacity="0.4">
                        <polygon id="Fill-16-Copy" points="0 9.1000005 13.0000007 9.1000005 13.0000007 5.20000029 0 5.20000029"></polygon>
                        <polygon id="Fill-16-Copy-2" points="14.3000008 9.1000005 27.3000015 9.1000005 27.3000015 5.20000029 14.3000008 5.20000029"></polygon>
                        <polygon id="Fill-16-Copy-3" points="6.50000036 3.90000021 20.8000011 3.90000021 20.8000011 0 6.50000036 0"></polygon>
                        <polygon id="Fill-16-Copy-4" points="6.50000036 14.3000008 20.8000011 14.3000008 20.8000011 10.4000006 6.50000036 10.4000006"></polygon>
                    </g>
                    <g id="Group-Copy" transform="translate(219.700012, 252.274950)" fill="#9A2E00" opacity="0.4">
                        <polygon id="Fill-16-Copy" points="0 9.1000005 13.0000007 9.1000005 13.0000007 5.20000029 0 5.20000029"></polygon>
                        <polygon id="Fill-16-Copy-2" points="14.3000008 9.1000005 27.3000015 9.1000005 27.3000015 5.20000029 14.3000008 5.20000029"></polygon>
                        <polygon id="Fill-16-Copy-3" points="6.50000036 3.90000021 20.8000011 3.90000021 20.8000011 0 6.50000036 0"></polygon>
                        <polygon id="Fill-16-Copy-4" points="6.50000036 14.3000008 20.8000011 14.3000008 20.8000011 10.4000006 6.50000036 10.4000006"></polygon>
                    </g>
                    <polygon id="Fill-16-Copy" fill="#9A2E00" opacity="0.4" points="100.100006 114.474942 113.100006 114.474942 113.100006 110.574942 100.100006 110.574942"></polygon>
                    <polygon id="Fill-16-Copy-5" fill="#471500" opacity="0.4" points="46.8000026 262.67495 59.8000033 262.67495 59.8000033 258.77495 46.8000026 258.77495"></polygon>
                    <polygon id="Fill-16-Copy-2" fill="#9A2E00" opacity="0.4" points="114.400006 114.474942 127.400007 114.474942 127.400007 110.574942 114.400006 110.574942"></polygon>
                    <polygon id="Fill-16-Copy-6" fill="#471500" opacity="0.4" points="61.1000034 262.67495 74.1000041 262.67495 74.1000041 258.77495 61.1000034 258.77495"></polygon>
                    <polygon id="Fill-16-Copy-4" fill="#9A2E00" opacity="0.4" points="106.600006 119.674942 120.900007 119.674942 120.900007 115.774942 106.600006 115.774942"></polygon>
                    <polygon id="Fill-16-Copy-7" fill="#471500" opacity="0.4" points="53.3000029 267.874951 67.6000037 267.874951 67.6000037 263.97495 53.3000029 263.97495"></polygon>
                    <polygon id="Fill-17" fill="#FFFFFF" points="102.956304 185.24278 125.470337 185.24278 125.470337 173.996633 102.956304 173.996633"></polygon>
                    <polygon id="Fill-18" fill="#FFFFFF" points="149.166357 185.24278 171.68039 185.24278 171.68039 173.996633 149.166357 173.996633"></polygon>
                    <polygon id="Fill-19" fill="#FFFFFF" points="195.37641 185.24278 217.890444 185.24278 217.890444 173.996633 195.37641 173.996633"></polygon>
                    <polygon id="Fill-14" fill="#000000" points="102.956304 165.365215 125.470337 165.365215 125.470337 162.765215 102.956304 162.765215"></polygon>
                    <polygon id="Fill-15" fill="#000000" points="149.166357 165.365215 171.68039 165.365215 171.68039 162.765215 149.166357 162.765215"></polygon>
                    <polygon id="Fill-16" fill="#000000" points="195.37641 165.365215 217.890444 165.365215 217.890444 162.765215 195.37641 162.765215"></polygon>
                    <polygon id="Fill-17" fill="#000000" points="102.956304 185.243363 125.470337 185.243363 125.470337 182.643363 102.956304 182.643363"></polygon>
                    <polygon id="Fill-18" fill="#000000" points="149.166357 185.243363 171.68039 185.243363 171.68039 182.643363 149.166357 182.643363"></polygon>
                    <polygon id="Fill-19" fill="#000000" points="195.37641 185.243363 217.890444 185.243363 217.890444 182.643363 195.37641 182.643363"></polygon>
                    <polygon id="Fill-20" fill="#FFFFFF" points="22.0183539 213.83611 33.2753705 213.83611 33.2753705 191.343815 22.0183539 191.343815"></polygon>
                    <polygon id="Fill-21" fill="#FFFFFF" points="49.7668999 213.83611 61.0239166 213.83611 61.0239166 191.343815 49.7668999 191.343815"></polygon>
                    <polygon id="Fill-12-Copy" fill="#000000" points="22.0183539 214.574948 33.2753705 214.574948 33.2753705 210.674947 22.0183539 210.674947"></polygon>
                    <polygon id="Fill-13-Copy" fill="#000000" points="49.7668999 214.574948 61.0239166 214.574948 61.0239166 210.674947 49.7668999 210.674947"></polygon>
                    <polygon id="Fill-22" fill="#FFFFFF" points="22.0183539 253.22574 33.2753705 253.22574 33.2753705 230.733446 22.0183539 230.733446"></polygon>
                    <polygon id="Fill-23" fill="#FFFFFF" points="49.7668999 253.22574 61.0239166 253.22574 61.0239166 230.733446 49.7668999 230.733446"></polygon>
                    <polygon id="Fill-12-Copy" fill="#000000" points="22.0183539 253.57495 33.2753705 253.57495 33.2753705 249.67495 22.0183539 249.67495"></polygon>
                    <polygon id="Fill-13-Copy" fill="#000000" points="49.7668999 253.57495 61.0239166 253.57495 61.0239166 249.67495 49.7668999 249.67495"></polygon>
                    <polygon id="Fill-24" fill="#FFFFFF" points="259.822831 174.50271 271.079847 174.50271 271.079847 152.010416 259.822831 152.010416"></polygon>
                    <polygon id="Fill-25" fill="#FFFFFF" points="287.571377 174.50271 298.828393 174.50271 298.828393 152.010416 287.571377 152.010416"></polygon>
                    <polygon id="Fill-26" fill="#FFFFFF" points="259.822831 213.83611 271.079847 213.83611 271.079847 191.343815 259.822831 191.343815"></polygon>
                    <polygon id="Fill-27" fill="#FFFFFF" points="287.571377 213.83611 298.828393 213.83611 298.828393 191.343815 287.571377 191.343815"></polygon>
                    <polygon id="Fill-28" fill="#FFFFFF" points="259.822831 253.22574 271.079847 253.22574 271.079847 230.733446 259.822831 230.733446"></polygon>
                    <polygon id="Fill-29" fill="#FFFFFF" points="287.571377 253.22574 298.828393 253.22574 298.828393 230.733446 287.571377 230.733446"></polygon>
                </g>
                <g id="Group-Copy" transform="translate(284.700016, 261.600014)" fill="#471500" opacity="0.4">
                    <polygon id="Fill-16-Copy" points="0 9.1000005 13.0000007 9.1000005 13.0000007 5.20000029 0 5.20000029"></polygon>
                    <polygon id="Fill-16-Copy-2" points="14.3000008 9.1000005 27.3000015 9.1000005 27.3000015 5.20000029 14.3000008 5.20000029"></polygon>
                    <polygon id="Fill-16-Copy-3" points="6.50000036 3.90000021 20.8000011 3.90000021 20.8000011 0 6.50000036 0"></polygon>
                    <polygon id="Fill-16-Copy-4" points="6.50000036 14.3000008 20.8000011 14.3000008 20.8000011 10.4000006 6.50000036 10.4000006"></polygon>
                </g>
            </g>
            <g id="Group" transform="translate(397.000000, 170.000000)">
                <path d="M119.905078,13.5228017 L61.8410814,0.146802471 C61.0058815,-0.0483975177 60.1354815,-0.0483975177 59.3002816,0.143602471 L1.20428505,13.5196017 C-0.354114853,13.8780017 -0.418114849,16.0764015 1.11788506,16.5244015 L14.9642842,20.5660013 L14.9642842,34.8732004 C14.9642842,35.3628004 15.2778842,35.7948003 15.7418842,35.9452003 L20.2506839,37.4140002 C20.9770839,37.6540002 21.7290838,37.1100003 21.7290838,36.3420003 L21.7290838,22.5628011 L28.0362835,24.406001 L28.0362835,29.4460007 L28.0362835,34.4252004 L28.0362835,34.8572004 L28.0362835,36.5180003 L28.0362835,37.1740003 L28.0362835,45.9067997 L28.0362835,54.5531992 L28.0362835,80.0475977 C28.0362835,81.8395976 28.4554834,83.6059975 29.2746834,85.1995974 C37.3738829,100.959596 52.218682,109.458796 58.0746817,112.325996 C59.6298816,113.087596 61.4506815,113.090796 63.0090814,112.325996 C68.868281,109.461996 83.7322801,100.962796 91.8346797,85.1995974 C92.6538796,83.6059975 93.0730796,81.8395976 93.0730796,80.0475977 L93.0730796,57.951599 L93.0730796,46.0827997 L93.0730796,37.5580002 L93.0730796,36.6844003 L93.0730796,35.1932004 L93.0730796,34.6108004 L93.0730796,29.8492007 L93.0730796,24.406001 L119.991478,16.5276015 C121.527478,16.0796015 121.463478,13.8812017 119.905078,13.5228017 L119.905078,13.5228017 Z M57.1178817,42.7579999 C56.7466817,43.0235999 53.3450819,45.3595998 48.5898822,45.3595998 C47.9594823,45.3595998 47.3194823,45.3243998 46.6890823,45.2411998 C46.3626824,45.1899998 41.6778826,44.3867998 37.1626829,41.2092 L29.9242833,36.1340003 L29.9210833,36.1340003 L29.9210833,36.1340003 L29.8922833,36.1404003 L29.9018833,36.1340003 L29.8474833,36.0828003 L29.9210833,36.1340003 L29.9242833,36.1340003 L35.034683,35.0620004 C37.3450829,34.5756004 39.4730828,34.3388004 41.5274827,34.3388004 C47.2810823,34.3388004 52.327482,36.2396003 56.9482817,40.1852001 L58.5226816,41.51 L58.5226816,41.51 L57.1178817,42.7579999 Z M91.3226797,36.3804003 L83.9978801,41.3468 C79.5562804,44.3899998 75.0122807,45.1899998 74.6570807,45.2475998 C74.0298807,45.3275998 73.3898808,45.3691998 72.7594808,45.3691998 C67.9434811,45.3691998 64.4874813,42.9915999 64.1610813,42.7579999 L62.7562814,41.606 L64.4010813,40.2012001 C68.589881,36.6236003 73.5882807,34.8860004 79.6842804,34.8860004 C81.7514803,34.8860004 83.8954801,35.0844004 86.24748,35.5004004 L91.3226797,36.3804003 L91.3226797,36.3804003 L91.3290797,36.3836003 L91.3226797,36.3804003 Z" id="Fill-25" fill="#000000"></path>
                <path d="M57.1178817,42.7579999 C56.7466817,43.0235999 53.3450819,45.3595998 48.5898822,45.3595998 C47.9594823,45.3595998 47.3194823,45.3243998 46.6890823,45.2411998 C46.3626824,45.1899998 41.6778826,44.3867998 37.1626829,41.2092 L29.9242833,36.1340003 L29.9210833,36.1340003 L29.9210833,36.1340003 L29.8922833,36.1404003 L29.9018833,36.1340003 L29.8474833,36.0828003 L29.9210833,36.1340003 L29.9242833,36.1340003 L35.034683,35.0620004 C37.3450829,34.5756004 39.4730828,34.3388004 41.5274827,34.3388004 C47.2810823,34.3388004 52.327482,36.2396003 56.9482817,40.1852001 L58.5226816,41.51 L58.5226816,41.51 L57.1178817,42.7579999 Z" id="Path" fill="#FFFFFF"></path>
                <path d="M91.3226797,36.3804003 L83.9978801,41.3468 C79.5562804,44.3899998 75.0122807,45.1899998 74.6570807,45.2475998 C74.0298807,45.3275998 73.3898808,45.3691998 72.7594808,45.3691998 C67.9434811,45.3691998 64.4874813,42.9915999 64.1610813,42.7579999 L62.7562814,41.606 L64.4010813,40.2012001 C68.589881,36.6236003 73.5882807,34.8860004 79.6842804,34.8860004 C81.7514803,34.8860004 83.8954801,35.0844004 86.24748,35.5004004 L91.3226797,36.3804003 L91.3226797,36.3804003 L91.3290797,36.3836003 L91.3226797,36.3804003 Z" id="Path" fill="#FFFFFF"></path>
                <path d="M72.7598008,51.1071194 C65.5214012,51.1071194 60.6510015,47.2991197 60.6510015,47.2991197 C60.6510015,47.2991197 55.8190018,51.1071194 48.5902022,51.1071194 C47.7230023,51.1071194 46.7790023,51.0495194 45.8478024,50.9279194 C45.8478024,50.9279194 39.8318028,50.0991195 33.7742031,45.9071197 L33.7742031,54.5535192 L33.7742031,54.5567192 L33.7742031,80.1407177 C33.7742031,81.0015177 33.9726031,81.8527176 34.3470031,82.6271176 C42.6126026,99.7055165 60.5742015,106.815916 60.5742015,106.815916 C60.5742015,106.815916 78.1806005,99.7087165 86.7278,82.6495176 C87.1245999,81.8591176 87.3357999,80.9823177 87.3357999,80.0991177 L87.3357999,57.948719 L87.3357999,46.0831197 C81.2782003,50.1087195 75.5022006,50.9279194 75.5022006,50.9279194 C74.5742007,51.0495194 73.6270007,51.1071194 72.7598008,51.1071194 M82.1678002,81.8335176 C73.6654007,94.4415169 60.5550015,101.644716 60.5550015,101.644716 L60.5550015,52.3007194 C60.5550015,52.3007194 66.6670012,57.1007191 75.4190006,55.9519191 C75.4190006,55.9519191 78.7278004,55.4879192 82.8718002,53.5551193 L82.8718002,79.5615177 C82.8718002,80.3743177 82.6222002,81.1615176 82.1678002,81.8335176" id="Fill-26" fill="#E24301"></path>
                <path d="M59.3022016,6.03384212 L18.079804,15.5122416 L33.7726031,20.1042413 L33.7726031,29.4450407 C36.323003,28.9362408 38.8222028,28.6002408 41.4910027,28.6002408 C47.6190023,28.6002408 54.2462019,30.3666407 60.6526015,35.8354403 C66.8190011,30.5714407 73.7950007,29.1474407 79.7214004,29.1474407 C82.5214002,29.1474407 85.1038001,29.4642407 87.3341999,29.8482407 L87.3341999,20.1042413 L103.014199,15.5122416 L61.8398014,6.03384212 C61.0046015,5.84184213 60.1374015,5.84184213 59.3022016,6.03384212" id="Fill-27" fill="#E24301"></path>
                <path d="M82.1678002,81.8322376 C73.6654007,94.4402369 60.5550015,101.646636 60.5550015,101.646636 L60.5550015,52.2994394 C60.5550015,52.2994394 66.6670012,57.0994391 75.4190006,55.9506391 C75.4190006,55.9506391 78.7278004,55.4898392 82.8718002,53.5570393 L82.8718002,79.5634377 C82.8718002,80.3730377 82.6222002,81.1602376 82.1678002,81.8322376" id="Fill-28" fill="#FFFFFF"></path>
            </g>
        </g>
    </g>
</svg>