<?xml version="1.0" encoding="UTF-8"?>
<svg width="675px" height="586px" viewBox="0 0 675 586" version="1.1" xmlns="http://www.w3.org/2000/svg" xmlns:xlink="http://www.w3.org/1999/xlink">
    <title>illustration/Desktop</title>
    <g id="illustration/Desktop" stroke="none" stroke-width="1" fill="none" fill-rule="evenodd">
        <polygon id="Fill-18" fill="#00283A" points="279 563 396 563 396 482 279 482"></polygon>
        <polygon id="Fill-18" fill="#004361" points="158 586 518 586 518 563 158 563"></polygon>
        <path d="M34.3299925,482 L640.658413,482 C659.626285,482 675,466.444041 675,447.249948 L675,34.7500517 C675,15.5559587 659.626285,0 640.658413,0 L34.3299925,0 C15.367918,0 0,15.5559587 0,34.7500517 L0,447.249948 C0,466.444041 15.367918,482 34.3299925,482" id="Fill-20" fill="#004361"></path>
        <path d="M356,445.996666 C356,455.938507 347.945175,464 337.996666,464 C328.061493,464 320,455.938507 320,445.996666 C320,436.054825 328.061493,428 337.996666,428 C347.945175,428 356,436.054825 356,445.996666" id="Fill-21" fill="#FFFFFF"></path>
        <path d="M633.006933,405 C641.28755,405 648,398.23636 648,389.892594 L648,42.1074056 C648,33.7636397 641.28755,27 633.006933,27 L41.9930673,27 C33.71245,27 27,33.7636397 27,42.1074056 L27,389.892594 C27,398.23636 33.71245,405 41.9930673,405 L633.006933,405 Z" id="Fill-23" fill="#EDEDED"></path>
        <path d="M603.006933,405 C611.28755,405 618,398.23636 618,389.892594 L618,42.1074056 C618,33.7636397 611.28755,27 603.006933,27 L41.9930673,27 C33.71245,27 27,33.7636397 27,42.1074056 L27,389.892594 C27,398.23636 33.71245,405 41.9930673,405 L603.006933,405 Z" id="Fill-23" fill="#FFFFFF"></path>
    </g>
</svg>