<?xml version="1.0" encoding="UTF-8"?>
<svg width="844px" height="395px" viewBox="0 0 844 395" version="1.1" xmlns="http://www.w3.org/2000/svg" xmlns:xlink="http://www.w3.org/1999/xlink">
    <title>illustration/devices</title>
    <g id="illustration/devices" stroke="none" stroke-width="1" fill="none" fill-rule="evenodd">
        <g id="illustration/Desktop" transform="translate(211.000000, 10.000000)">
            <polygon id="Fill-18" fill="#00283A" points="167.4 338.1843 237.6 338.1843 237.6 289.52901 167.4 289.52901"></polygon>
            <polygon id="Fill-18" fill="#004361" points="94.8 352 310.8 352 310.8 338.1843 94.8 338.1843"></polygon>
            <path d="M20.5979955,289.52901 L384.395048,289.52901 C395.775771,289.52901 405,280.184817 405,268.655259 L405,20.8737512 C405,9.3441936 395.775771,0 384.395048,0 L20.5979955,0 C9.22075078,0 0,9.3441936 0,20.8737512 L0,268.655259 C0,280.184817 9.22075078,289.52901 20.5979955,289.52901" id="Fill-20" fill="#004361"></path>
            <path d="M213.6,267.902434 C213.6,273.874325 208.767105,278.716724 202.798,278.716724 C196.836896,278.716724 192,273.874325 192,267.902434 C192,261.930543 196.836896,257.09215 202.798,257.09215 C208.767105,257.09215 213.6,261.930543 213.6,267.902434" id="Fill-21" fill="#FFFFFF"></path>
            <path d="M379.80416,243.276451 C384.77253,243.276451 388.8,239.21365 388.8,234.201695 L388.8,25.2931856 C388.8,20.2812307 384.77253,16.21843 379.80416,16.21843 L25.1958404,16.21843 C20.22747,16.21843 16.2,20.2812307 16.2,25.2931856 L16.2,234.201695 C16.2,239.21365 20.22747,243.276451 25.1958404,243.276451 L379.80416,243.276451 Z" id="Fill-23" fill="#EDEDED"></path>
            <path d="M361.80416,243.276451 C366.77253,243.276451 370.8,239.21365 370.8,234.201695 L370.8,25.2931856 C370.8,20.2812307 366.77253,16.21843 361.80416,16.21843 L25.1958404,16.21843 C20.22747,16.21843 16.2,20.2812307 16.2,25.2931856 L16.2,234.201695 C16.2,239.21365 20.22747,243.276451 25.1958404,243.276451 L361.80416,243.276451 Z" id="Fill-23" fill="#FFFFFF"></path>
        </g>
        <g id="illustration/Laptop" transform="translate(535.000000, 130.000000)">
            <g id="electric">
                <path d="M262.370221,0 L243.71831,0 L243.71831,218.39839 L262.370221,181.171392 C272.628773,181.171392 281.022133,172.795317 281.022133,162.557893 L281.022133,18.6134992 C281.022133,8.37607463 272.628773,0 262.370221,0 Z" id="Path" fill="#00283A" fill-rule="nonzero"></path>
                <path d="M262.370221,18.6134992 C262.370221,8.37607463 253.976861,0 243.71831,0 L46.6297787,0 C36.3712274,0 27.9778672,8.37607463 27.9778672,18.6134992 L27.9778672,162.557893 C27.9778672,172.795317 36.3712274,181.171392 46.6297787,181.171392 L154.5,218.39839 L243.71831,181.171392 C253.976861,181.171392 262.370221,172.795317 262.370221,162.557893 L215.740443,90.585696 L262.370221,18.6134992 Z" id="Path" fill="#004361" fill-rule="nonzero"></path>
                <path d="M270.104547,218.39839 L270.104547,264.932138 L290.348089,264.932138 C300.649539,264.932138 309,256.598875 309,246.318639 L270.104547,218.39839 Z" id="Path" fill="#000000" fill-rule="nonzero"></path>
                <path d="M48.8530865,227.70514 L0,246.318639 C0,256.598875 8.35046076,264.932138 18.6519115,264.932138 L270.104547,264.932138 C280.405998,264.932138 288.756459,256.598875 288.756459,246.318639 L288.756459,227.70514 L48.8530865,227.70514 Z" id="Path" fill="#00283A" fill-rule="nonzero"></path>
                <path d="M285.865412,192.451172 C282.930845,185.607609 276.18507,181.171392 268.724306,181.171392 L248.480765,181.171392 L288.756459,246.318639 L309,246.318639 L285.865412,192.451172 Z" id="Path" fill="#00283A" fill-rule="nonzero"></path>
                <path d="M265.621871,192.451172 L268.723062,199.784891 L254.10929,209.074268 L276.757684,218.39839 L288.756459,246.318639 L0,246.318639 L23.1345875,192.451172 C26.0691549,185.607609 32.8149296,181.171392 40.2756942,181.171392 L248.480765,181.171392 C255.941529,181.171392 262.681087,185.607609 265.621871,192.451172 Z" id="Path" fill="#004361" fill-rule="nonzero"></path>
                <polygon id="Path" fill="#EDEDED" fill-rule="nonzero" points="243.71831 18.6134992 190.871227 90.585696 243.71831 162.557893 262.370221 162.557893 262.370221 18.6134992"></polygon>
                <polygon id="Path" fill="#FFFFFF" fill-rule="nonzero" points="46.6297787 18.6134992 243.71831 18.6134992 243.71831 162.557893 46.6297787 162.557893"></polygon>
                <polygon id="Path" fill="#000000" fill-rule="nonzero" points="276.757684 218.39839 268.723062 199.784891 40.2769376 199.784891 32.2833501 218.39839"></polygon>
            </g>
        </g>
        <g id="illustration/Tablet" transform="translate(0.000000, 112.000000)">
            <g id="brands-and-logotypes" transform="translate(99.599894, 124.900087) scale(-1, 1) translate(-99.599894, -124.900087) translate(0.199787, 0.000000)">
                <path d="M175.067167,0 L23.3334349,0 C10.4674264,0 -5.45148933e-13,10.4650575 -5.45148933e-13,23.3281544 L-5.45148933e-13,226.072325 C-5.45148933e-13,238.935422 10.4674264,249.40048 23.3334349,249.40048 L175.067167,249.40048 C187.933176,249.40048 198.400602,238.935422 198.400602,226.072325 L198.400602,23.3281544 C198.400602,10.4650575 187.933663,0 175.067167,0 Z" id="Path" fill="#222222" fill-rule="nonzero"></path>
                <path d="M13.034441,226.071838 L13.034441,23.3281544 C13.034441,10.4650575 23.589243,0 36.563253,0 L23.5293033,0 C10.5552933,0 0,10.4650575 0,23.3281544 L0,226.072325 C0,238.935422 10.5552933,249.40048 23.5293033,249.40048 L36.563253,249.40048 C23.589243,249.40048 13.034441,238.934935 13.034441,226.071838 Z" id="Path" fill="#000000" fill-rule="nonzero"></path>
                <path d="M175.399864,236.211031 L35.5880877,236.211031 C29.8370027,236.211031 25.1746988,231.551822 25.1746988,225.804554 L25.1746988,22.9968927 C25.1746988,17.2496248 29.8370027,12.5899281 35.5880877,12.5899281 L175.399864,12.5899281 C181.150949,12.5899281 185.813253,17.2491375 185.813253,22.9964055 L185.813253,225.804554 C185.813253,231.551822 181.150949,236.211031 175.399864,236.211031 Z" id="Path" fill="#FFFFFF" fill-rule="nonzero"></path>
                <path d="M26.1772612,225.804216 L26.1772612,22.9994723 C26.1772612,17.5641309 30.3377856,13.1081742 35.6411777,12.6399211 C35.0376463,12.550266 35.6795975,12.6126348 24.1726227,12.5931446 C18.4364,12.5931446 13.7861446,17.252287 13.7861446,22.9994723 L13.7861446,225.804703 C13.7861446,231.551889 18.4364,236.211031 24.1726227,236.211031 L36.563253,236.211031 C30.8275166,236.211031 26.1772612,231.551889 26.1772612,225.804216 Z" id="Path" fill="#EDEDED" fill-rule="nonzero"></path>
            </g>
        </g>
        <g id="illustration/Phone" transform="translate(167.000000, 207.000000)">
            <g id="brands-and-logotypes" transform="translate(50.672769, 94.195920) scale(-1, 1) translate(-50.672769, -94.195920) translate(0.345538, 0.000000)">
                <path d="M83.1567023,0 L17.5217953,0 C7.88165013,0 0.0386963832,7.86816576 0.0386963832,17.5393003 L0.0386963832,169.972743 C0.0386963832,179.643878 7.88165013,187.512043 17.5217953,187.512043 L83.1567023,187.512043 C92.7968475,187.512043 100.639801,179.643878 100.639801,169.972743 L100.639801,17.5393003 C100.639801,7.86816576 92.7972125,0 83.1567023,0 Z" id="Path" fill="#222222" fill-rule="nonzero"></path>
                <path d="M9.723744,169.972377 L9.723744,17.5393003 C9.723744,7.86816576 17.5663327,0 27.2064779,0 L17.5217953,0 C7.88165013,0 0.0386963832,7.86816576 0.0386963832,17.5393003 L0.0386963832,169.972743 C0.0386963832,179.643878 7.88165013,187.512043 17.5217953,187.512043 L27.2064779,187.512043 C17.5663327,187.512043 9.723744,179.643511 9.723744,169.972377 Z" id="Path" fill="#000000" fill-rule="nonzero"></path>
                <path d="M90.9532934,169.972377 C90.9532934,174.292104 87.4625876,177.794031 83.1567023,177.794031 L17.5217953,177.794031 C13.2159101,177.794031 9.72520424,174.292104 9.72520424,169.972377 L9.72520424,17.5393003 C9.72520424,13.2195732 13.2159101,9.71727994 17.5217953,9.71727994 L25.7016997,9.71727994 C27.3130755,9.71727994 28.6192609,11.0280305 28.6192609,12.6445863 L28.6192609,14.5006589 C28.6192609,16.9910483 30.6500909,19.0284067 33.1325004,19.0284067 L67.5456321,19.0284067 C70.0280416,19.0284067 72.0588716,16.9910483 72.0588716,14.5006589 L72.0588716,11.8161655 C72.0588716,10.6570357 72.9956161,9.71727994 74.1510317,9.71727994 L83.1567023,9.71727994 C87.4625876,9.71727994 90.9532934,13.219207 90.9532934,17.538934 L90.9532934,169.972377 L90.9532934,169.972377 Z" id="Path" fill="#FFFFFF" fill-rule="nonzero"></path>
                <path d="M19.0265736,169.972377 L19.0265736,17.5393003 C19.0265736,13.4539628 22.1496637,10.1047552 26.1306454,9.75280461 C25.6776057,9.6854176 26.1594852,9.73229552 17.5217953,9.71764617 C13.2159101,9.71764617 9.72520424,13.2195732 9.72520424,17.5393003 L9.72520424,169.972743 C9.72520424,174.29247 13.2159101,177.794397 17.5217953,177.794397 L26.8227996,177.794397 C22.5172794,177.794397 19.0265736,174.29247 19.0265736,169.972377 Z" id="Path" fill="#EDEDED" fill-rule="nonzero"></path>
                <g id="Group" transform="translate(35.045781, 6.592207)" fill="#505050" fill-rule="nonzero">
                    <path d="M26.6457454,5.95532692 L11.918121,5.95532692 C10.360409,5.95532692 9.09730066,4.6885244 9.09730066,3.12543877 C9.09730066,1.56235315 10.360044,0.295550632 11.918121,0.295550632 L26.6457454,0.295550632 C28.2034574,0.295550632 29.4665657,1.56235315 29.4665657,3.12543877 C29.4662007,4.6885244 28.2034574,5.95532692 26.6457454,5.95532692 Z" id="Path"></path>
                    <path d="M1.48104931,5.47849058 C-0.538463823,4.14686469 -0.0489180694,0.891412934 2.49263118,0.350851927 C4.22155637,-0.00695844114 5.86651772,1.33638693 5.86651772,3.12397384 C5.86651772,4.43838675 4.96226356,5.6165607 3.59474798,5.90112432 C3.41440823,5.93481783 2.05528903,5.86816329 1.48104931,5.47849058 Z" id="Path"></path>
                </g>
            </g>
        </g>
    </g>
</svg>