<?xml version="1.0" encoding="UTF-8"?>
<svg width="407px" height="179px" viewBox="0 0 407 179" version="1.1" xmlns="http://www.w3.org/2000/svg" xmlns:xlink="http://www.w3.org/1999/xlink">
    <title>illustration/Institute-Access</title>
    <g id="illustration/Institute-Access" stroke="none" stroke-width="1" fill="none" fill-rule="evenodd">
        <g id="Group-5">
            <path d="M146.489073,61.2717276 C196.834961,19.9306641 264.681641,17 314.580078,59.4589844" id="Path-2" stroke="#01B4D2" stroke-width="8.10000032" stroke-dasharray="4,4"></path>
            <path d="M244.684948,4.91713394 C237.873959,4.91713394 233.290194,1.31620252 233.290194,1.31620252 C233.290194,1.31620252 228.741847,4.91713394 221.940742,4.91713394 C221.125301,4.91713394 220.2382,4.86498252 219.362631,4.74991827 C219.362631,4.74991827 213.699848,3.96433576 208,0 L208,8.17535602 L208,8.17949502 L208,32.3752708 C208,33.1898263 208.186975,33.9936204 208.539509,34.7262237 C216.315024,50.8749524 233.21771,57.6000023 233.21771,57.6000023 C233.21771,57.6000023 249.785159,50.880747 257.829194,34.7485743 C258.202319,33.999415 258.400002,33.1724425 258.400002,32.3355363 L258.400002,11.3888769 L258.400002,11.3880491 L258.400002,0.165560065 C252.69933,3.97509717 247.267177,4.74991827 247.267177,4.74991827 C246.391608,4.86498252 245.500389,4.91713394 244.684948,4.91713394" id="Orange-Shield-Copy" fill="#E24301"></path>
            <g id="illustration/Laptop" transform="translate(0.000000, 17.000000)">
                <g id="electric">
                    <path d="M140.610066,0 L130.61409,0 L130.61409,117.193405 L140.610066,97.2172565 C146.107853,97.2172565 150.606042,92.722623 150.606042,87.2291822 L150.606042,9.98807429 C150.606042,4.49463343 146.107853,0 140.610066,0 Z" id="Path" fill="#00283A" fill-rule="nonzero"></path>
                    <path d="M140.610066,9.98807429 C140.610066,4.49463343 136.111877,0 130.61409,0 L24.9899406,0 C19.4921537,0 14.9939644,4.49463343 14.9939644,9.98807429 L14.9939644,87.2291822 C14.9939644,92.722623 19.4921537,97.2172565 24.9899406,97.2172565 L82.8000033,117.193405 L130.61409,97.2172565 C136.111877,97.2172565 140.610066,92.722623 140.610066,87.2291822 L115.620125,48.6086282 L140.610066,9.98807429 Z" id="Path" fill="#004361" fill-rule="nonzero"></path>
                    <path d="M144.755064,117.193405 L144.755064,142.163591 L155.60403,142.163591 C161.124808,142.163591 165.600007,137.69193 165.600007,132.175517 L144.755064,117.193405 Z" id="Path" fill="#000000" fill-rule="nonzero"></path>
                    <path d="M26.181461,122.187442 L0,132.175517 C0,137.69193 4.47519857,142.163591 9.99597625,142.163591 L144.755064,142.163591 C150.275842,142.163591 154.75104,137.69193 154.75104,132.175517 L154.75104,122.187442 L26.181461,122.187442 Z" id="Path" fill="#00283A" fill-rule="nonzero"></path>
                    <path d="M153.201664,103.270029 C151.628964,99.5977475 148.013752,97.2172565 144.015362,97.2172565 L133.166396,97.2172565 L154.75104,132.175517 L165.600007,132.175517 L153.201664,103.270029 Z" id="Path" fill="#00283A" fill-rule="nonzero"></path>
                    <path d="M142.352698,103.270029 L144.014695,107.205331 L136.182848,112.190046 L148.320629,117.193405 L154.75104,132.175517 L0,132.175517 L12.3983425,103.270029 C13.9710428,99.5977475 17.5862542,97.2172565 21.5846447,97.2172565 L133.166396,97.2172565 C137.164786,97.2172565 140.776666,99.5977475 142.352698,103.270029 Z" id="Path" fill="#004361" fill-rule="nonzero"></path>
                    <polygon id="Path" fill="#EDEDED" fill-rule="nonzero" points="130.61409 9.98807429 102.292157 48.6086282 130.61409 87.2291822 140.610066 87.2291822 140.610066 9.98807429"></polygon>
                    <polygon id="Path" fill="#FFFFFF" fill-rule="nonzero" points="24.9899406 9.98807429 130.61409 9.98807429 130.61409 87.2291822 24.9899406 87.2291822"></polygon>
                    <polygon id="Path" fill="#000000" fill-rule="nonzero" points="148.320629 117.193405 144.014695 107.205331 21.5853111 107.205331 17.3013689 117.193405"></polygon>
                </g>
            </g>
            <g id="illustration/Phone" transform="translate(109.800004, 34.000000)">
                <g id="brands-and-logotypes" transform="translate(33.865466, 62.680373) scale(-1, 1) translate(-33.865466, -62.680373) translate(0.230929, 0.000000)">
                    <path d="M55.575026,0 L11.7101112,0 C5.26743965,0 0.0258614453,5.2356786 0.0258614453,11.6710987 L0.0258614453,113.104207 C0.0258614453,119.539628 5.26743965,124.775306 11.7101112,124.775306 L55.575026,124.775306 C62.0176976,124.775306 67.2592758,119.539628 67.2592758,113.104207 L67.2592758,11.6710987 C67.2592758,5.2356786 62.0179415,0 55.575026,0 Z" id="Path" fill="#222222" fill-rule="nonzero"></path>
                    <path d="M6.49854204,113.103964 L6.49854204,11.6710987 C6.49854204,5.2356786 11.7398763,0 18.1825478,0 L11.7101112,0 C5.26743965,0 0.0258614453,5.2356786 0.0258614453,11.6710987 L0.0258614453,113.104207 C0.0258614453,119.539628 5.26743965,124.775306 11.7101112,124.775306 L18.1825478,124.775306 C11.7398763,124.775306 6.49854204,119.539384 6.49854204,113.103964 Z" id="Path" fill="#000000" fill-rule="nonzero"></path>
                    <path d="M60.7856193,113.103964 C60.7856193,115.978421 58.4527217,118.308692 55.575026,118.308692 L11.7101112,118.308692 C8.83241549,118.308692 6.49951794,115.978421 6.49951794,113.103964 L6.49951794,11.6710987 C6.49951794,8.7966419 8.83241549,6.46612643 11.7101112,6.46612643 L17.1768792,6.46612643 C18.2537888,6.46612643 19.1267346,7.33833336 19.1267346,8.41403087 L19.1267346,9.64910903 C19.1267346,11.3062778 20.4839725,12.6619881 22.1430086,12.6619881 L45.1418846,12.6619881 C46.8009208,12.6619881 48.1581587,11.3062778 48.1581587,9.64910903 L48.1581587,7.86277855 C48.1581587,7.09146395 48.7842008,6.46612643 49.5563846,6.46612643 L55.575026,6.46612643 C58.4527217,6.46612643 60.7856193,8.7963982 60.7856193,11.670855 L60.7856193,113.103964 L60.7856193,113.103964 Z" id="Path" fill="#FFFFFF" fill-rule="nonzero"></path>
                    <path d="M12.7157799,113.103964 L12.7157799,11.6710987 C12.7157799,8.95261073 14.8029937,6.7239624 17.4635509,6.48976546 C17.1607768,6.44492442 17.482825,6.47611818 11.7101112,6.46637013 C8.83241549,6.46637013 6.49951794,8.7966419 6.49951794,11.6710987 L6.49951794,113.104207 C6.49951794,115.978664 8.83241549,118.308936 11.7101112,118.308936 L17.9261292,118.308936 C15.0486774,118.308936 12.7157799,115.978664 12.7157799,113.103964 Z" id="Path" fill="#EDEDED" fill-rule="nonzero"></path>
                    <g id="Group" transform="translate(23.421686, 4.386623)" fill="#505050" fill-rule="nonzero">
                        <path d="M17.8078009,3.96282674 L7.96508117,3.96282674 C6.92403601,3.96282674 6.0798794,3.11986396 6.0798794,2.07974684 C6.0798794,1.03962972 6.92379203,0.196666944 7.96508117,0.196666944 L17.8078009,0.196666944 C18.848846,0.196666944 19.6930026,1.03962972 19.6930026,2.07974684 C19.6927586,3.11986396 18.848846,3.96282674 17.8078009,3.96282674 Z" id="Path"></path>
                        <path d="M0.989810221,3.64552765 C-0.359864451,2.75942975 -0.0326927704,0.593168949 1.66586744,0.23346584 C2.82133729,-0.00463032458 3.92069269,0.889266021 3.92069269,2.07877204 C3.92069269,2.95341598 3.31636439,3.73740304 2.40243068,3.92675895 C2.28190658,3.94917947 1.37358431,3.90482583 0.989810221,3.64552765 Z" id="Path"></path>
                    </g>
                </g>
            </g>
            <g id="illustration/Institute" transform="translate(244.400008, 16.000000)">
                <polygon id="Fill-1" fill="#9A2E00" points="120.738713 142.790376 161.870118 142.790376 161.870118 67.3543251 120.738713 67.3543251"></polygon>
                <polygon id="Fill-2" fill="#FFFFFF" points="60.0085547 142.7619 80.9350589 142.7619 80.9350589 104.063261 60.0085547 104.063261"></polygon>
                <polygon id="Fill-3" fill="#000000" points="79.1368227 38.8251582 82.7329342 38.8251582 82.7329342 0.360813868 79.1368227 0.360813868"></polygon>
                <g id="Group-30" stroke-width="1" transform="translate(0.000000, 3.294905)">
                    <polygon id="Fill-9" fill="#9A2E00" points="0 139.495472 40.770603 139.495472 40.770603 64.0597809 0 64.0597809"></polygon>
                    <path d="M80.9350589,46.0370381 C75.8499184,46.0370381 71.7273971,50.1555788 71.7273971,55.2358092 C71.7273971,60.3160396 75.8499184,64.4345803 80.9350589,64.4345803 C86.0201994,64.4345803 90.1427207,60.3160396 90.1427207,55.2358092 C90.1268455,50.1620669 86.013705,46.052898 80.9350589,46.0370381 L80.9350589,46.0370381 Z M101.861563,139.466924 L101.861563,100.768285 L60.0085547,100.768285 L60.0085547,139.466924 L39.8036541,139.466924 L39.8036541,54.053522 L80.8196023,30.9845034 L121.83555,54.053522 L121.83555,139.466924 L101.861563,139.466924 Z" id="Fill-4" fill="#E24301"></path>
                    <polygon id="Fill-6" fill="#EDEDED" points="80.9350589 139.466635 101.861563 139.466635 101.861563 100.768357 80.9350589 100.768357"></polygon>
                    <path d="M80.9350589,45.5324393 C86.3154874,45.5324393 90.6767074,49.8898296 90.6767074,55.2646815 C90.6767074,60.6395335 86.3154874,64.9969237 80.9350589,64.9969237 C75.5550121,64.9969237 71.1934104,60.6395335 71.1934104,55.2646815 C71.1934104,49.8898296 75.5550121,45.5324393 80.9350589,45.5324393" id="Fill-8" fill="#9A2E00"></path>
                    <polygon id="Fill-10" fill="#ED1556" points="82.560471 15.1534616 106.142476 15.1534616 106.142476 0.0144181366 82.560471 0.0144181366"></polygon>
                    <polygon id="Fill-11" fill="#B10F40" points="98.158077 5.66996826 121.162799 5.66996826 116.018848 13.23949 121.162799 20.8090117 98.158077 20.8090117"></polygon>
                    <polygon id="Fill-12" fill="#FFFFFF" points="9.95812957 84.8218976 15.7309583 84.8218976 15.7309583 73.2873883 9.95812957 73.2873883"></polygon>
                    <polygon id="Fill-13" fill="#FFFFFF" points="24.1881524 84.8218976 29.9609811 84.8218976 29.9609811 73.2873883 24.1881524 73.2873883"></polygon>
                    <polygon id="Fill-14" fill="#FFFFFF" points="51.4647682 80.1360032 63.0104257 80.1360032 63.0104257 74.3687485 51.4647682 74.3687485"></polygon>
                    <polygon id="Fill-15" fill="#FFFFFF" points="75.1622302 80.1360032 86.7078876 80.1360032 86.7078876 74.3687485 75.1622302 74.3687485"></polygon>
                    <polygon id="Fill-16" fill="#FFFFFF" points="98.8596921 80.1360032 110.40535 80.1360032 110.40535 74.3687485 98.8596921 74.3687485"></polygon>
                    <polygon id="Fill-17" fill="#FFFFFF" points="51.4647682 90.3296258 63.0104257 90.3296258 63.0104257 84.5623711 51.4647682 84.5623711"></polygon>
                    <polygon id="Fill-18" fill="#FFFFFF" points="75.1622302 90.3296258 86.7078876 90.3296258 86.7078876 84.5623711 75.1622302 84.5623711"></polygon>
                    <polygon id="Fill-19" fill="#FFFFFF" points="98.8596921 90.3296258 110.40535 90.3296258 110.40535 84.5623711 98.8596921 84.5623711"></polygon>
                    <polygon id="Fill-20" fill="#FFFFFF" points="9.95812957 104.992871 15.7309583 104.992871 15.7309583 93.4583614 9.95812957 93.4583614"></polygon>
                    <polygon id="Fill-21" fill="#FFFFFF" points="24.1881524 104.992871 29.9609811 104.992871 29.9609811 93.4583614 24.1881524 93.4583614"></polygon>
                    <polygon id="Fill-22" fill="#FFFFFF" points="9.95812957 125.19268 15.7309583 125.19268 15.7309583 113.658171 9.95812957 113.658171"></polygon>
                    <polygon id="Fill-23" fill="#FFFFFF" points="24.1881524 125.19268 29.9609811 125.19268 29.9609811 113.658171 24.1881524 113.658171"></polygon>
                    <polygon id="Fill-24" fill="#FFFFFF" points="131.909137 84.8218976 137.681965 84.8218976 137.681965 73.2873883 131.909137 73.2873883"></polygon>
                    <polygon id="Fill-25" fill="#FFFFFF" points="146.139159 84.8218976 151.911988 84.8218976 151.911988 73.2873883 146.139159 73.2873883"></polygon>
                    <polygon id="Fill-26" fill="#FFFFFF" points="131.909137 104.992871 137.681965 104.992871 137.681965 93.4583614 131.909137 93.4583614"></polygon>
                    <polygon id="Fill-27" fill="#FFFFFF" points="146.139159 104.992871 151.911988 104.992871 151.911988 93.4583614 146.139159 93.4583614"></polygon>
                    <polygon id="Fill-28" fill="#FFFFFF" points="131.909137 125.19268 137.681965 125.19268 137.681965 113.658171 131.909137 113.658171"></polygon>
                    <polygon id="Fill-29" fill="#FFFFFF" points="146.139159 125.19268 151.911988 125.19268 151.911988 113.658171 146.139159 113.658171"></polygon>
                </g>
            </g>
        </g>
    </g>
</svg>