<?xml version="1.0" encoding="UTF-8"?>
<svg width="512px" height="440px" viewBox="0 0 512 440" version="1.1" xmlns="http://www.w3.org/2000/svg" xmlns:xlink="http://www.w3.org/1999/xlink">
    <title>illustration/Laptop</title>
    <g id="illustration/Laptop" stroke="none" stroke-width="1" fill="none" fill-rule="evenodd">
        <g id="electric" fill-rule="nonzero">
            <path d="M434.736419,0 L403.830986,0 L403.830986,362.623742 L434.736419,300.812877 C451.734406,300.812877 465.641851,286.905433 465.641851,269.907445 L465.641851,30.9054326 C465.641851,13.9074447 451.734406,0 434.736419,0 Z" id="Path" fill="#00283A"></path>
            <path d="M434.736419,30.9054326 C434.736419,13.9074447 420.828974,0 403.830986,0 L77.2635815,0 C60.2655936,0 46.3581489,13.9074447 46.3581489,30.9054326 L46.3581489,269.907445 C46.3581489,286.905433 60.2655936,300.812877 77.2635815,300.812877 L256,362.623742 L403.830986,300.812877 C420.828974,300.812877 434.736419,286.905433 434.736419,269.907445 L357.472837,150.406439 L434.736419,30.9054326 Z" id="Path" fill="#004361"></path>
            <path d="M447.551871,362.623742 L447.551871,439.887324 L481.094567,439.887324 C498.163638,439.887324 512,426.050962 512,408.981891 L447.551871,362.623742 Z" id="Path" fill="#000000"></path>
            <path d="M80.9475091,378.076459 L0,408.981891 C0,426.050962 13.8363622,439.887324 30.9054326,439.887324 L447.551871,439.887324 C464.620942,439.887324 478.457304,426.050962 478.457304,408.981891 L478.457304,378.076459 L80.9475091,378.076459 Z" id="Path" fill="#00283A"></path>
            <path d="M473.666962,319.541569 C468.804507,308.178672 457.627042,300.812877 445.264869,300.812877 L411.722173,300.812877 L478.457304,408.981891 L512,408.981891 L473.666962,319.541569 Z" id="Path" fill="#00283A"></path>
            <path d="M440.124266,319.541569 L445.262809,331.71831 L421.048402,347.142181 L458.575839,362.623742 L478.457304,408.981891 L0,408.981891 L38.3330382,319.541569 C43.195493,308.178672 54.3729577,300.812877 66.7351308,300.812877 L411.722173,300.812877 C424.084346,300.812877 435.251509,308.178672 440.124266,319.541569 Z" id="Path" fill="#004361"></path>
            <polygon id="Path" fill="#EDEDED" points="403.830986 30.9054326 316.265594 150.406439 403.830986 269.907445 434.736419 269.907445 434.736419 30.9054326"></polygon>
            <polygon id="Path" fill="#FFFFFF" points="77.2635815 30.9054326 403.830986 30.9054326 403.830986 269.907445 77.2635815 269.907445"></polygon>
            <polygon id="Path" fill="#000000" points="458.575839 362.623742 445.262809 331.71831 66.7371911 331.71831 53.4921529 362.623742"></polygon>
        </g>
    </g>
</svg>