<?xml version="1.0" encoding="UTF-8"?>
<svg width="460px" height="390px" viewBox="0 0 460 390" version="1.1" xmlns="http://www.w3.org/2000/svg" xmlns:xlink="http://www.w3.org/1999/xlink">
    <title>illustration/main-header</title>
    <defs>
        <path d="M199.1846,112.2381 C211.0506,110.1841 223.5406,107.2351 223.5406,107.2351 L245.6386,106.3491 C245.6386,106.3491 265.9186,110.7461 273.9056,114.2991 C274.6636,114.6351 274.6656,132.1181 276.7476,136.7031 L270.1246,150.4621 C270.1246,150.4621 269.7936,177.0141 268.9996,189.1371 C268.6336,194.7011 273.9996,242.7431 273.9996,242.7431 C273.9996,242.7431 257.9996,248.7431 238.9996,245.7431 C219.9996,242.7431 224.9996,217.7431 201.9996,218.7431 C201.7596,216.9881 204.6666,201.0361 204.9996,197.7431 C205.5126,192.6901 202.6176,146.8571 202.6176,146.8571 C199.7756,150.6161 192.5316,167.5931 184.9786,175.6711 C180.5376,180.4211 158.5446,183.3361 154.3996,183.4721 C145.3756,183.7671 133.9126,185.5371 133.4316,184.6721 C133.0476,184.1551 131.9976,170.2811 133.0296,169.9431 C133.9336,169.6461 159.5016,167.9131 167.3326,163.8201 C170.1976,162.3231 178.7636,143.9281 178.7636,143.9281 C178.7636,143.9281 192.6386,115.1351 199.1846,112.2381" id="path-1"></path>
    </defs>
    <g id="illustration/main-header" stroke="none" stroke-width="1" fill="none" fill-rule="evenodd">
        <g id="Group-77" transform="translate(10.000000, 10.000000)">
            <path d="M439,355.743 C439,351.877 340.727,348.743 219.5,348.743 C98.273,348.743 0,351.877 0,355.743 C0,359.609 98.273,362.743 219.5,362.743 C340.727,362.743 439,359.609 439,355.743" id="Fill-1" fill="#000000" opacity="0.1"></path>
            <g id="Group-5" transform="translate(259.000000, 0.743000)">
                <path d="M168.3643,125.814 L13.1523,126.614156 C6.6923,126.647 1.4283,121.438 1.3953,114.978 L0.868153349,12.814 C0.8363,6.354 6.0453,1.09 12.5053,1.057 L167.7183,0.256844096 C174.1763,0.224 179.4403,5.434 179.4743,11.894 L180.000465,114.058 C180.0343,120.517 174.8233,125.781 168.3643,125.814" id="Fill-3" fill="#FFFFFF"></path>
                <path d="M51.5908,43 L33.5908,43 C33.5908,43 37.9998,34 36.4088,25 L54.4088,25 C55.9998,34 51.5908,43 51.5908,43" id="Fill-6" fill="#FF9900"></path>
                <path d="M77.5908,48 L59.5908,48 C59.5908,48 63.9998,39 62.4088,30 L80.4088,30 C81.9998,39 77.5908,48 77.5908,48" id="Fill-8" fill="#FF9900"></path>
                <path d="M131.5908,81 L113.5908,81 C113.5908,81 117.9998,72 116.4088,63 L134.4088,63 C135.9998,72 131.5908,81 131.5908,81" id="Fill-10" fill="#ED1556"></path>
                <path d="M153.5908,85 L135.5908,85 C135.5908,85 139.9998,76 138.4088,67 L156.4088,67 C157.9998,76 153.5908,85 153.5908,85" id="Fill-12" fill="#16A566"></path>
                <path d="M53.5908,67 L35.5908,67 C35.5908,67 39.9998,58 38.4088,49 L56.4088,49 C57.9998,58 53.5908,67 53.5908,67" id="Fill-14" fill="#FF9900"></path>
            </g>
            <polygon id="Fill-16" fill="#000000" points="393.7695 130.491 305.2025 130.716 305.0995 120.881 393.6665 120.656"></polygon>
            <polygon id="Fill-18" fill="#B3B3B3" points="138.038 184.232 151.522 184.232 151.522 142.427 138.038 142.427"></polygon>
            <path d="M92.4829,162.1556 L197.0759,162.1556 C200.3479,162.1556 202.9999,159.5046 202.9999,156.2336 L202.9999,85.9366 C202.9999,82.6656 200.3479,80.0146 197.0759,80.0146 L92.4829,80.0146 C89.2119,80.0146 86.5609,82.6656 86.5609,85.9366 L86.5609,156.2336 C86.5609,159.5046 89.2119,162.1556 92.4829,162.1556" id="Fill-20" fill="#B3B3B3"></path>
            <path d="M147.7759,155.6981 C147.7759,157.1891 146.5679,158.3981 145.0759,158.3981 C143.5859,158.3981 142.3769,157.1891 142.3769,155.6981 C142.3769,154.2071 143.5859,152.9991 145.0759,152.9991 C146.5679,152.9991 147.7759,154.2071 147.7759,155.6981" id="Fill-21" fill="#FFFFFF"></path>
            <path d="M93.7119,149.2835 L195.8469,149.2835 C197.2779,149.2835 198.4379,148.1235 198.4379,146.6925 L198.4379,87.0455 C198.4379,85.6145 197.2779,84.4545 195.8469,84.4545 L93.7119,84.4545 C92.2809,84.4545 91.1209,85.6145 91.1209,87.0455 L91.1209,146.6925 C91.1209,148.1235 92.2809,149.2835 93.7119,149.2835" id="Fill-22" fill="#000000"></path>
            <path d="M93.7119,149.2835 L195.8469,149.2835 C197.2779,149.2835 198.4379,148.1235 198.4379,146.6925 L198.4379,87.0455 C198.4379,85.6145 197.2779,84.4545 195.8469,84.4545 L93.7119,84.4545 C92.2809,84.4545 91.1209,85.6145 91.1209,87.0455 L91.1209,146.6925 C91.1209,148.1235 92.2809,149.2835 93.7119,149.2835" id="Fill-23" fill="#000000"></path>
            <path d="M107.1206,149.2835 L185.4376,149.2835 L185.4376,95.0455 C185.4376,93.6145 184.2786,92.4545 182.8476,92.4545 L109.7116,92.4545 C108.2806,92.4545 107.1206,93.6145 107.1206,95.0455 L107.1206,149.2835 Z" id="Fill-24" fill="#FFFFFF"></path>
            <g id="Group" transform="translate(126.153161, 103.329124)">
                <path d="M37.4703391,4.22587577 L19.3253391,0.0458757748 C19.0643391,-0.0151242252 18.7923391,-0.0151242252 18.5313391,0.0448757748 L0.376339102,4.22487577 C-0.110660898,4.33687577 -0.130660898,5.02387577 0.349339102,5.16387577 L4.6763391,6.42687577 L4.6763391,10.8978758 C4.6763391,11.0508758 4.7743391,11.1858758 4.9193391,11.2328758 L6.3283391,11.6918758 C6.5553391,11.7668758 6.7903391,11.5968758 6.7903391,11.3568758 L6.7903391,7.05087577 L8.7613391,7.62687577 L8.7613391,9.20187577 L8.7613391,10.7578758 L8.7613391,10.8928758 L8.7613391,11.4118758 L8.7613391,11.6168758 L8.7613391,14.3458758 L8.7613391,17.0478758 L8.7613391,25.0148758 C8.7613391,25.5748758 8.8923391,26.1268758 9.1483391,26.6248758 C11.6793391,31.5498758 16.3183391,34.2058758 18.1483391,35.1018758 C18.6343391,35.3398758 19.2033391,35.3408758 19.6903391,35.1018758 C21.5213391,34.2068758 26.1663391,31.5508758 28.6983391,26.6248758 C28.9543391,26.1268758 29.0853391,25.5748758 29.0853391,25.0148758 L29.0853391,18.1098758 L29.0853391,14.4008758 L29.0853391,11.7368758 L29.0853391,11.4638758 L29.0853391,10.9978758 L29.0853391,10.8158758 L29.0853391,9.32787577 L29.0853391,7.62687577 L37.4973391,5.16487577 C37.9773391,5.02487577 37.9573391,4.33787577 37.4703391,4.22587577 L37.4703391,4.22587577 Z M17.8493391,13.3618758 C17.7333391,13.4448758 16.6703391,14.1748758 15.1843391,14.1748758 C14.9873391,14.1748758 14.7873391,14.1638758 14.5903391,14.1378758 C14.4883391,14.1218758 13.0243391,13.8708758 11.6133391,12.8778758 L9.3513391,11.2918758 L9.3503391,11.2918758 L9.3503391,11.2918758 L9.3413391,11.2938758 L9.3443391,11.2918758 L9.3273391,11.2758758 L9.3503391,11.2918758 L9.3513391,11.2918758 L10.9483391,10.9568758 C11.6703391,10.8048758 12.3353391,10.7308758 12.9773391,10.7308758 C14.7753391,10.7308758 16.3523391,11.3248758 17.7963391,12.5578758 L18.2883391,12.9718758 L18.2883391,12.9718758 L17.8493391,13.3618758 Z M28.5383391,11.3688758 L26.2493391,12.9208758 C24.8613391,13.8718758 23.4413391,14.1218758 23.3303391,14.1398758 C23.1343391,14.1648758 22.9343391,14.1778758 22.7373391,14.1778758 C21.2323391,14.1778758 20.1523391,13.4348758 20.0503391,13.3618758 L19.6113391,13.0018758 L20.1253391,12.5628758 C21.4343391,11.4448758 22.9963391,10.9018758 24.9013391,10.9018758 C25.5473391,10.9018758 26.2173391,10.9638758 26.9523391,11.0938758 L28.5383391,11.3688758 L28.5383391,11.3688758 L28.5403391,11.3698758 L28.5383391,11.3688758 Z" id="Fill-25" fill="#000000"></path>
                <path d="M22.7374391,15.9709758 C20.4754391,15.9709758 18.9534391,14.7809758 18.9534391,14.7809758 C18.9534391,14.7809758 17.4434391,15.9709758 15.1844391,15.9709758 C14.9134391,15.9709758 14.6184391,15.9529758 14.3274391,15.9149758 C14.3274391,15.9149758 12.4474391,15.6559758 10.5544391,14.3459758 L10.5544391,17.0479758 L10.5544391,17.0489758 L10.5544391,25.0439758 C10.5544391,25.3129758 10.6164391,25.5789758 10.7334391,25.8209758 C13.3164391,31.1579758 18.9294391,33.3799758 18.9294391,33.3799758 C18.9294391,33.3799758 24.4314391,31.1589758 27.1024391,25.8279758 C27.2264391,25.5809758 27.2924391,25.3069758 27.2924391,25.0309758 L27.2924391,18.1089758 L27.2924391,14.4009758 C25.3994391,15.6589758 23.5944391,15.9149758 23.5944391,15.9149758 C23.3044391,15.9529758 23.0084391,15.9709758 22.7374391,15.9709758 M25.6774391,25.5729758 C23.0204391,29.5129758 18.9234391,31.7639758 18.9234391,31.7639758 L18.9234391,16.3439758 C18.9234391,16.3439758 20.8334391,17.8439758 23.5684391,17.4849758 C23.5684391,17.4849758 24.6024391,17.3399758 25.8974391,16.7359758 L25.8974391,24.8629758 C25.8974391,25.1169758 25.8194391,25.3629758 25.6774391,25.5729758" id="Fill-26" fill="#E24301"></path>
                <path d="M18.5319391,1.88557577 L5.6499391,4.84757577 L10.5539391,6.28257577 L10.5539391,9.20157577 C11.3509391,9.04257577 12.1319391,8.93757577 12.9659391,8.93757577 C14.8809391,8.93757577 16.9519391,9.48957577 18.9539391,11.1985758 C20.8809391,9.55357577 23.0609391,9.10857577 24.9129391,9.10857577 C25.7879391,9.10857577 26.5949391,9.20757577 27.2919391,9.32757577 L27.2919391,6.28257577 L32.1919391,4.84757577 L19.3249391,1.88557577 C19.0639391,1.82557577 18.7929391,1.82557577 18.5319391,1.88557577" id="Fill-27" fill="#E24301"></path>
                <path d="M25.6774391,25.5725758 C23.0204391,29.5125758 18.9234391,31.7645758 18.9234391,31.7645758 L18.9234391,16.3435758 C18.9234391,16.3435758 20.8334391,17.8435758 23.5684391,17.4845758 C23.5684391,17.4845758 24.6024391,17.3405758 25.8974391,16.7365758 L25.8974391,24.8635758 C25.8974391,25.1165758 25.8194391,25.3625758 25.6774391,25.5725758" id="Fill-28" fill="#FFFFFF"></path>
            </g>
            <path d="M120.6748,183.5399 L120.6748,182.0779 C120.6748,182.0779 122.7298,172.9869 137.2658,172.9869 C151.8018,172.9869 151.5068,183.5399 151.5068,183.5399 L120.6748,183.5399" id="Fill-29" fill="#505050"></path>
            <polygon id="Fill-30" fill="#D0D0D0" points="24.3545 356.0037 30.0005 356.0037 76.0005 193.0167 56.3545 193.0167"></polygon>
            <polygon id="Fill-31" fill="#D0D0D0" points="384.6455 193.0164 364.9995 193.0164 410.9995 356.0034 416.6455 356.0034"></polygon>
            <path d="M19.2603,199.5745 L419.9553,199.5745 C425.5863,199.5745 430.8243,196.6885 433.8323,191.9285 L439.0003,183.7485 L0.2153,183.7485 L5.3833,191.9285 C8.3913,196.6885 13.6293,199.5745 19.2603,199.5745" id="Fill-32" fill="#515151"></path>
            <path d="M261.4897,128.9759 C261.4897,128.9759 264.9687,155.3869 257.9997,159.5899 C253.6357,162.2229 241.9997,167.4689 232.9997,171.4089 C233.5167,173.0729 245.9997,188.1519 245.9997,188.1519 C245.9997,188.1519 282.9227,165.4389 283.9997,158.6049 C285.0517,151.9299 278.5007,116.3599 273.9057,114.2989 C270.4657,112.7549 268.6477,114.0319 264.3107,117.2039 C258.2227,121.6549 261.4897,128.9759 261.4897,128.9759" id="Fill-33" fill="#004361"></path>
            <path d="M200.5591,139.0042 L197.6131,137.9312 C197.6131,137.9312 201.2891,129.4352 202.8921,129.6422 C204.7401,129.8802 207.0461,130.4802 207.0461,130.4802 L200.5591,139.0042" id="Fill-34" fill="#EAD8CF"></path>
            <path d="M199.8887,140.4701 C200.2647,140.1941 206.1507,129.0711 206.1507,129.0711 L218.7277,130.7541 L211.9307,143.9281 L199.8887,140.4701" id="Fill-35" fill="#DA9B5B"></path>
            <path d="M220.3584,331.953 C220.3584,331.953 221.3974,339.061 221.5254,340.127 C221.6564,341.196 233.0914,339.499 233.0914,339.499 L234.0184,331.038 C234.0184,331.038 221.7864,330.95 220.3584,331.953" id="Fill-36" fill="#EDEDED"></path>
            <path d="M221.4053,339.2244 C221.4053,339.2244 219.5053,343.8664 216.0003,345.7354 C212.4953,347.6004 201.0713,350.6984 199.0003,352.6294 C197.5053,354.0264 197.7483,357.3094 212.3023,357.1884 C226.8553,357.0684 235.4413,357.8864 237.0003,355.5834 C238.5593,353.2824 233.1743,338.7434 233.1743,338.7434 C233.1743,338.7434 229.7283,339.9634 221.4053,339.2244" id="Fill-37" fill="#000000"></path>
            <path d="M147.0962,332.0213 C147.0962,332.0213 148.1362,339.1263 148.2662,340.1953 C148.3962,341.2623 159.8292,339.5643 159.8292,339.5643 L160.7562,331.1053 C160.7562,331.1053 148.5252,331.0173 147.0962,332.0213" id="Fill-38" fill="#EDEDED"></path>
            <path d="M147,339.8255 C147,339.8255 146.505,343.8695 143,345.7355 C139.498,347.6035 124,350.6595 122,352.6295 C120,354.5985 118.563,357.7815 139.04,357.2575 C153.588,356.8845 162.441,356.9015 164,354.5985 C165.559,352.2975 159.914,338.8105 159.914,338.8105 C159.914,338.8105 156.666,340.1145 148.143,339.2905" id="Fill-39" fill="#000000"></path>
            <path d="M257.2378,209.1898 C257.2378,209.1898 215.6658,216.1178 206.2758,217.5708 C196.8878,219.0228 150.3668,232.6098 143.9998,236.4118 C138.9308,239.4378 142.2678,311.0108 144.0728,338.7428 L164.1258,338.7428 L169.9998,258.0798 C194.0638,258.6718 205.9998,253.1548 224.3368,252.6368 C243.9998,253.1548 256.3968,258.5338 267.9998,243.7428 C267.9998,243.7428 268.0178,212.4038 257.2378,209.1898" id="Fill-40" fill="#9A2E00"></path>
            <path d="M216.2622,338.8109 L235.8052,337.6209 L225.7102,261.4689 C236.0682,261.7239 251.6182,255.1659 260.0022,254.1649 L266.0002,216.7139 C252.1732,219.4369 205.6502,237.6829 199.7412,241.2099 C194.6722,244.2379 214.4572,311.0789 216.2622,338.8109" id="Fill-41" fill="#9A2E00"></path>
            <path d="M238.1016,55.7157 C238.1016,55.7157 222.8616,51.5687 217.0486,63.2197 C211.2346,74.8717 212.3176,96.4487 219.9996,98.5267 C227.6806,100.6047 240.8096,96.9147 243.9996,89.6627 C247.1866,82.4107 249.1966,73.9147 248.4346,67.2417 C247.6686,60.5687 242.1486,57.3107 238.1016,55.7157" id="Fill-42" fill="#EEA886"></path>
            <path d="M225.5322,96.7132 C225.5322,96.7132 225.7012,105.5742 224.7072,107.4632 C223.7172,109.3522 245.9282,108.8792 245.9282,108.8792 C245.9282,108.8792 242.4282,98.2372 244.4142,89.1722 C246.3782,80.1982 225.5322,96.7132 225.5322,96.7132" id="Fill-43" fill="#EEA886"></path>
            <path d="M245.6104,85.8162 C245.6104,85.8162 244.4224,88.1942 238.6724,87.8102 C232.9224,87.4262 225.3394,80.5952 222.9004,79.9842 C220.4584,79.3742 221.8724,77.0502 221.8724,77.0502 L221.1674,81.6102 L218.7274,81.1022 C218.7274,81.1022 221.0004,67.2272 213.0004,70.9492 C209.2984,68.5382 207.0464,48.1492 232.0004,48.7432 C232.0004,48.7432 249.4344,54.1782 249.4344,64.6902 C249.6244,72.5592 248.3874,81.6482 245.6104,85.8162" id="Fill-44" fill="#9A2E00"></path>
            <path d="M232,48.743 C231.484,49.859 229.859,51.505 229.859,51.505 C229.859,51.505 218.755,47.234 211.745,55.609 C215.234,49.109 222.391,46.252 232,48.743" id="Fill-45" fill="#9A2E00"></path>
            <path d="M221,108.3758 C221,108.3758 221.338,103.7968 223,103.4508 C224.662,103.1048 243.962,100.6918 246,101.4808 L248,107.3908 C248,107.3908 241.708,108.7308 223.541,107.2358" id="Fill-46" fill="#E2D2CA"></path>
            <path d="M222.04,75.7284 C223.17,72.9604 229.098,72.0174 228.086,77.9134 C227.076,83.8104 224.069,86.0964 222.027,85.2164 C219.986,84.3374 220.507,79.4834 222.04,75.7284" id="Fill-47" fill="#EEA886"></path>
            <path d="M157.3643,149.8812 C157.3723,149.8782 157.3803,149.8772 157.3903,149.8792 C157.2773,149.9282 157.2593,149.9332 157.3643,149.8812" id="Fill-48" fill="#323657"></path>
            <path d="M242.5459,57.8289 C242.5459,57.8289 264.9999,52.2369 245.7899,85.5359 L242.5459,57.8289" id="Fill-49" fill="#9A2E00"></path>
            <path d="M102,183.743 L102,182.02 C102,182.02 104.422,171.306 121.552,171.306 C138.683,171.306 138.334,183.743 138.334,183.743 L102,183.743" id="Fill-50" fill="#505050"></path>
            <path d="M139.4365,173.659 C139.4365,173.659 135.7145,173.377 134.3505,172.565 C132.9885,171.755 124.8305,166.352 122.9145,167.217 C120.9985,168.081 108.2475,171.93 108.6895,173.765 C109.1325,175.6 110.3125,175.424 111.2125,175.098 C112.1115,174.773 118.9995,171.409 121.9995,172.394 C121.9995,172.394 112.0365,177.888 111.9995,180.273 C111.9635,182.656 115.1375,183.312 115.9995,184.212 C116.8625,185.115 119.6565,185.026 121.9995,185.197 C124.3435,185.369 133.8435,182.267 136.1985,182.088 C138.5535,181.909 142.9105,182.232 143.2055,181.853 C143.5015,181.478 139.4365,173.659 139.4365,173.659" id="Fill-51" fill="#EEA886"></path>
            <mask id="mask-2" fill="white">
                <use xlink:href="#path-1"></use>
            </mask>
            <use id="Fill-52" fill="#004361" xlink:href="#path-1"></use>
            <path d="M202.9999,146.978027 C204.111899,143.298014 205.460633,142.281372 207.0461,143.9281 C212.349677,169.704934 215.001465,184.446201 215.001465,188.1519 C215.001465,191.857599 214.353027,197.804362 213.056152,205.992188 L203.865234,205.992188 L204.657461,195.43457 C204.12931,178.141156 203.57679,167.439466 202.9999,163.3295 C202.134566,157.164551 201.331901,152.498047 202.9999,146.978027 Z" id="Path-3" fill="#00283A" mask="url(#mask-2)"></path>
            <polygon id="Fill-53" fill="#505050" points="269 348.5946 267.805 352.4836 217.306 334.3866 219.725 326.5146"></polygon>
            <polygon id="Fill-54" fill="#808080" points="215.158 331.617 221.796 331.617 221.796 268.121 215.158 268.121"></polygon>
            <polygon id="Fill-55" fill="#505050" points="212.954 331.617 224 331.617 224 294.743 212.954 294.743"></polygon>
            <polygon id="Fill-56" fill="#5E5854" points="198.902 269.812 238.055 269.812 238.055 264.747 198.902 264.747"></polygon>
            <polygon id="Fill-57" fill="#505050" points="167.4395 348.5946 168.6345 352.4836 219.1365 334.3866 216.9165 326.0206"></polygon>
            <polygon id="Fill-58" fill="#505050" points="203.021 352.0682 203.021 356.5892 219.136 334.3862 216.916 326.0202"></polygon>
            <path d="M163.0356,354.0037 C163.0356,357.0167 165.4806,359.4617 168.4936,359.4617 C171.5096,359.4617 173.9516,357.0167 173.9516,354.0037 C173.9516,350.9877 171.5096,348.5457 168.4936,348.5457 C165.4806,348.5457 163.0356,350.9877 163.0356,354.0037" id="Fill-59" fill="#000000"></path>
            <path d="M202.1792,354.0037 C202.1792,357.0167 204.6242,359.4617 207.6372,359.4617 C210.6532,359.4617 213.0952,357.0167 213.0952,354.0037 C213.0952,350.9877 210.6532,348.5457 207.6372,348.5457 C204.6242,348.5457 202.1792,350.9877 202.1792,354.0037" id="Fill-60" fill="#000000"></path>
            <path d="M262.4883,354.0037 C262.4883,357.0167 264.9333,359.4617 267.9463,359.4617 C270.9623,359.4617 273.4043,357.0167 273.4043,354.0037 C273.4043,350.9877 270.9623,348.5457 267.9463,348.5457 C264.9333,348.5457 262.4883,350.9877 262.4883,354.0037" id="Fill-61" fill="#000000"></path>
            <path d="M178.8394,264.7469 L260.5444,264.7469 C262.7824,264.7469 264.5964,262.9329 264.5964,260.6939 L264.5964,254.6269 C264.5964,252.3889 262.7824,250.5749 260.5444,250.5749 L175.8954,250.5749 C173.6574,250.5749 171.8424,252.3889 171.8424,254.6269 L171.8424,257.7499 C171.8424,261.6129 174.9764,264.7469 178.8394,264.7469" id="Fill-62" fill="#000000"></path>
            <path d="M170.7769,212.5438 L216.7209,212.5438 C217.9799,212.5438 218.9999,211.5238 218.9999,210.2648 L218.9999,206.8538 C218.9999,205.5948 217.9799,204.5748 216.7209,204.5748 L169.1219,204.5748 C167.8629,204.5748 166.8429,205.5948 166.8429,206.8538 L166.8429,208.6098 C166.8429,210.7818 168.6049,212.5438 170.7769,212.5438" id="Fill-63" fill="#000000"></path>
            <path d="M243.5034,240.7489 L280.5144,240.7509 C287.9154,240.7509 294.6314,234.7239 295.5144,227.2879 L302.8654,165.4199 C303.7494,157.9829 298.4654,151.9549 291.0644,151.9549 L254.0534,151.9529 C246.6494,151.9519 239.9334,157.9799 239.0494,165.4169 L231.6994,227.2849 C230.8154,234.7209 236.0994,240.7489 243.5034,240.7489" id="Fill-64" fill="#000000"></path>
            <path d="M233.6362,261.2191 C243.0642,261.2191 250.7142,258.0521 256.3712,251.8061 C269.1582,237.6871 266.8602,212.8711 266.7572,211.8211 C266.5632,209.8651 264.8172,208.4371 262.8642,208.6321 C260.9102,208.8261 259.4822,210.5671 259.6742,212.5231 C259.7022,212.8041 261.7372,235.2991 251.0822,247.0421 C246.7712,251.7931 241.0652,254.1021 233.6362,254.1021 C231.6702,254.1021 230.0772,255.6951 230.0772,257.6601 C230.0772,259.6271 231.6702,261.2191 233.6362,261.2191" id="Fill-65" fill="#000000"></path>
            <path d="M381.4155,133.9154 C391.0335,133.9154 398.8315,127.2124 398.8315,118.9454 C398.8315,116.7124 398.2635,114.5964 397.2445,112.6944 C394.4895,107.5474 388.4385,97.2314 381.4155,97.2314 C371.7975,97.2314 363.9995,110.6774 363.9995,118.9454 C363.9995,121.7834 364.9185,124.4384 366.5175,126.7004 C369.5695,131.0244 375.0995,133.9154 381.4155,133.9154" id="Fill-66" fill="#10814F"></path>
            <path d="M399.1025,132.5731 C405.8325,132.5731 411.2905,127.8821 411.2905,122.0971 C411.2905,121.7631 411.2725,121.4331 411.2365,121.1071 C410.6565,115.7851 405.4445,103.2321 399.1025,103.2321 C392.3735,103.2321 386.9155,116.3121 386.9155,122.0971 C386.9155,125.7641 389.1095,128.9921 392.4295,130.8631 C394.3465,131.9441 396.6395,132.5731 399.1025,132.5731" id="Fill-67" fill="#10814F"></path>
            <path d="M381.1313,119.7323 C381.1313,119.7323 380.1613,126.6853 379.8383,136.1403 C379.5143,145.5963 385.9233,150.2323 385.9233,150.2323 L385.9233,180.2323 L394.3133,180.2323 C394.3133,180.2323 395.6993,148.0753 398.7193,145.2323 C401.7393,142.3883 400.2093,125.7433 400.2093,125.7433 L398.4833,124.8783 C398.4833,124.8783 402.3673,138.8833 390.5763,141.2323 C378.7843,143.5803 381.9463,120.4283 381.9463,120.4283 L381.1313,119.7323" id="Fill-68" fill="#9A2E00"></path>
            <polygon id="Fill-69" fill="#184390" points="408.8721 153.4442 372.5441 153.4442 372.3301 159.9822 408.6641 159.9822"></polygon>
            <polygon id="Fill-70" fill="#184390" points="406.0781 159.9823 375.6631 159.9823 379.8881 183.2323 402.2091 183.2323"></polygon>
            <path d="M396.0034,159.9823 L375.6634,159.9823 L379.8884,183.2323 L386.5484,183.2323 C382.7844,164.5243 396.0034,159.9823 396.0034,159.9823" id="Fill-71" fill="#000000" opacity="0.2"></path>
            <polygon id="Fill-72" fill="#505050" points="193 250.743 202 250.743 202 212.743 193 212.743"></polygon>
            <path d="M214.0166,77.0501 C213.2446,81.8451 209.9606,85.8261 210.8616,87.0281 C211.7626,88.2301 214.6566,88.9821 214.6566,88.9821 L214.0166,77.0501 Z" id="Fill-73" fill="#EEA886"></path>
            <polygon id="Fill-74" fill="#103A84" points="57.2837 164.6634 54.9547 165.5734 43.0707 135.1724 45.3987 134.2624"></polygon>
            <polygon id="Fill-75" fill="#FFFFFF" points="46.234 183.54 67.234 183.54 67.234 150.898 46.234 150.898"></polygon>
            <polygon id="Fill-76" fill="#B10F40" points="56.734 183.54 77.734 183.54 77.734 162.54 56.734 162.54"></polygon>
        </g>
    </g>
</svg>