<?xml version="1.0" encoding="UTF-8"?>
<svg width="166px" height="308px" viewBox="0 0 166 308" version="1.1" xmlns="http://www.w3.org/2000/svg" xmlns:xlink="http://www.w3.org/1999/xlink">
    <title>illustration/Phone</title>
    <g id="illustration/Phone" stroke="none" stroke-width="1" fill="none" fill-rule="evenodd">
        <g id="brands-and-logotypes" transform="translate(83.000000, 154.000000) scale(-1, 1) translate(-83.000000, -154.000000) " fill-rule="nonzero">
            <path d="M136.673392,0 L28.7981983,0 C12.9539992,0 0.0635999962,12.8903992 0.0635999962,28.7345983 L0.0635999962,278.465983 C0.0635999962,294.310182 12.9539992,307.200582 28.7981983,307.200582 L136.673392,307.200582 C152.517591,307.200582 165.40799,294.310182 165.40799,278.465983 L165.40799,28.7345983 C165.40799,12.8903992 152.518191,0 136.673392,0 Z" id="Path" fill="#222222"></path>
            <path d="M15.981599,278.465383 L15.981599,28.7345983 C15.981599,12.8903992 28.8713983,0 44.7155973,0 L28.7981983,0 C12.9539992,0 0.0635999962,12.8903992 0.0635999962,28.7345983 L0.0635999962,278.465983 C0.0635999962,294.310182 12.9539992,307.200582 28.7981983,307.200582 L44.7155973,307.200582 C28.8713983,307.200582 15.981599,294.309582 15.981599,278.465383 Z" id="Path" fill="#000000"></path>
            <path d="M149.487591,278.465383 C149.487591,285.542383 143.750391,291.279583 136.673392,291.279583 L28.7981983,291.279583 C21.7211987,291.279583 15.983999,285.542383 15.983999,278.465383 L15.983999,28.7345983 C15.983999,21.6575987 21.7211987,15.9197991 28.7981983,15.9197991 L42.2423975,15.9197991 C44.8907973,15.9197991 47.0375972,18.0671989 47.0375972,20.7155988 L47.0375972,23.7563986 C47.0375972,27.8363983 50.375397,31.1741981 54.4553968,31.1741981 L111.015593,31.1741981 C115.095593,31.1741981 118.433393,27.8363983 118.433393,23.7563986 L118.433393,19.3583988 C118.433393,17.459399 119.972993,15.9197991 121.871993,15.9197991 L136.673392,15.9197991 C143.750391,15.9197991 149.487591,21.6569987 149.487591,28.7339983 L149.487591,278.465383 L149.487591,278.465383 Z" id="Path" fill="#FFFFFF"></path>
            <path d="M31.2713981,278.465383 L31.2713981,28.7345983 C31.2713981,22.0415987 36.4043978,16.554599 42.9473974,15.977999 C42.2027975,15.8675991 42.9947974,15.944399 28.7981983,15.9203991 C21.7211987,15.9203991 15.983999,21.6575987 15.983999,28.7345983 L15.983999,278.465983 C15.983999,285.542983 21.7211987,291.280183 28.7981983,291.280183 L44.0849974,291.280183 C37.0085978,291.280183 31.2713981,285.542983 31.2713981,278.465383 Z" id="Path" fill="#EDEDED"></path>
            <g id="Group" transform="translate(57.599997, 10.799999)" fill="#505050">
                <path d="M43.7939974,9.75659942 L19.5881988,9.75659942 C17.027999,9.75659942 14.9519991,7.68119954 14.9519991,5.12039969 C14.9519991,2.55959985 17.027399,0.484199971 19.5881988,0.484199971 L43.7939974,0.484199971 C46.3541972,0.484199971 48.4301971,2.55959985 48.4301971,5.12039969 C48.4295971,7.68119954 46.3541972,9.75659942 43.7939974,9.75659942 Z" id="Path"></path>
                <path d="M2.43419985,8.97539947 C-0.884999947,6.7937996 -0.0803999952,1.46039991 4.09679976,0.574799966 C6.93839959,-0.0113999993 9.64199943,2.18939987 9.64199943,5.11799969 C9.64199943,7.27139957 8.15579951,9.20159945 5.90819965,9.66779942 C5.61179967,9.72299942 3.3779998,9.61379943 2.43419985,8.97539947 Z" id="Path"></path>
            </g>
        </g>
    </g>
</svg>