<?xml version="1.0" encoding="UTF-8"?>
<svg width="424px" height="162px" viewBox="0 0 424 162" version="1.1" xmlns="http://www.w3.org/2000/svg" xmlns:xlink="http://www.w3.org/1999/xlink">
    <title>illustration/Secure-Internet</title>
    <defs>
        <polygon id="path-1" points="0 0.012474589 140.98739 0.012474589 140.98739 140.42915 0 140.42915"></polygon>
    </defs>
    <g id="illustration/Secure-Internet" stroke="none" stroke-width="1" fill="none" fill-rule="evenodd">
        <g id="Group-6" transform="translate(0.000000, -1.000000)">
            <path d="M328,63.1000025 C289.949722,29.3775483 199.330304,13.2220195 130,49.4867143" id="Path-2" stroke="#01B4D2" stroke-width="8.10000032" stroke-dasharray="4,4"></path>
            <g id="illustration/earth" transform="translate(283.000000, 1.000000)">
                <g id="Group-14">
                    <g id="Group-3" transform="translate(0.000000, 0.273152)">
                        <mask id="mask-2" fill="white">
                            <use xlink:href="#path-1"></use>
                        </mask>
                        <g id="Clip-2"></g>
                        <path d="M105.734668,131.01289 C72.0236311,150.39725 28.917753,138.893477 9.45459451,105.318922 C-10.008564,71.7446532 1.54139939,28.8127221 35.2527226,9.42864717 C68.9640457,-9.95542773 112.069637,1.54806012 131.533082,35.1220439 C150.996241,68.6965986 139.445704,111.62853 105.734668,131.01289" id="Fill-1" fill="#01B4D2" mask="url(#mask-2)"></path>
                    </g>
                    <path d="M75.4682726,49.4873466 C74.9607299,49.605798 73.9780287,49.8544032 73.552736,50.1940591 C73.0222665,50.6179154 73.8513579,51.1690713 73.5487238,51.4105409 C73.0257055,51.8272615 72.6462665,52.5830672 71.526864,52.5117109 C69.1874677,52.3630045 65.5928274,49.3494862 63.4551872,48.2103547 C66.900803,44.6785045 61.4493762,44.1493263 59.3243457,44.3262899 C56.5731262,44.5554862 51.8115104,44.3083081 49.3259555,45.7020389 C47.6009982,46.6693445 45.2825226,50.684134 43.8928701,52.278804 C41.9584189,54.4982696 40.0119311,56.4251745 38.7515287,59.0824822 C34.1274738,68.8306057 41.2445348,80.0218385 52.4299616,78.7128789 C55.5354006,78.3495328 58.7927299,76.4049316 61.5450957,78.9709032 C63.573547,80.8618445 62.5002848,82.64147 63.0376323,84.8466644 C63.5033335,86.7550166 65.624925,87.92897 66.3591567,89.6814802 C67.766864,93.0409336 66.8755835,95.1422332 65.8705287,98.2405227 C64.5516628,102.306403 67.9623152,107.133798 69.2894921,111.057537 C69.9578091,113.033249 71.9057299,118.56593 73.818114,119.431624 C76.8249677,120.793102 81.5381506,116.710096 83.3333213,114.514035 C84.737303,112.797203 84.279053,111.053255 85.2216323,109.445741 C86.2424494,107.706075 87.533803,107.183747 88.2488335,104.940877 C89.0194616,102.523326 89.8201811,101.922221 91.4476994,100.157723 C94.0676628,97.3185996 93.6607116,95.6579964 92.6132421,92.2911219 C90.4366262,85.2964943 98.3426567,82.0266644 101.904053,76.8921522 C105.622785,71.5304417 98.4346506,73.3177737 95.6175165,71.4839174 C92.7207116,69.5983992 91.454864,66.014887 90.0594799,63.0441826 C88.663236,60.0731927 87.5080104,55.6085733 85.1958396,53.1681887 C83.4149982,51.2892352 77.9971018,50.417547 75.4682726,49.4873466" id="Fill-4" fill="#078B50"></path>
                    <path d="M111.850915,96.4092638 C110.726927,100.180871 109.603513,103.952478 108.479812,107.724086 C107.694281,110.360843 104.917269,118.986389 101.020854,113.461416 C99.5397811,111.361829 100.744013,108.610616 101.570525,106.678573 C102.612836,104.241043 101.204269,103.013715 101.931049,100.706053 C102.76444,98.0610188 106.193147,97.9705391 107.815507,96.1101383 C108.946659,94.8131666 109.644781,92.7509702 110.47158,91.2325087 C110.931836,92.9584743 111.391232,94.6835836 111.850915,96.4092638" id="Fill-6" fill="#078B50"></path>
                    <path d="M131.532939,35.3953385 C119.393183,14.4539842 98.0551829,2.1005004 75.535878,0.471293927 L66.3190061,11.9864842 L46.5643902,18.8840672 L41.2648537,31.6791036 L49.4397012,43.0844053 L50.308628,40.673134 C51.7596098,36.647213 55.5915427,33.962219 59.8860244,33.962219 L73.3592622,33.962219 L88.8463354,39.3824417 L94.1805488,44.4538749 L94.1805488,47.6751826 L101.596518,61.8228486 L103.755939,61.0296522 C108.419256,59.3171016 112.653555,56.617551 116.168238,53.117383 L114.377939,50.4423789 C113.808494,49.5918121 114.420927,48.4526806 115.447189,48.4526806 L119.768896,48.4526806 C121.034457,48.4526806 122.236396,49.0046927 123.058323,49.9631502 L126.588768,54.0798364 C126.92522,54.4720105 127.188018,54.9212696 127.365128,55.4059215 L131.26097,66.075968 L133.115177,64.2289822 C134.284732,63.0641623 134.876817,61.4774842 134.904329,59.8305814 C134.926396,58.5064943 135.503293,57.2503385 136.497457,56.3672332 L137.917488,55.1056543 C138.274573,54.788547 138.673213,54.5308081 139.09736,54.3358628 C137.553524,47.8467231 135.053067,41.4677575 131.532939,35.3953385" id="Fill-8" fill="#078B50"></path>
                    <path d="M26.0903878,38.1375316 L29.4614915,34.5397482 C31.9195341,31.9164061 32.6159366,28.105981 31.2431927,24.7881996 C29.7919244,21.2803251 26.6099671,19.0060579 23.0878329,18.5356773 C10.6385646,29.7808555 2.89818049,44.8995377 0.671412195,60.9138838 C3.3034122,63.2052765 6.05778415,65.6582198 6.04202195,65.8742866 C6.0116439,66.2878676 15.9031378,64.6361126 15.9031378,64.6361126 L10.811089,57.1965073 L18.1238878,51.9889263 L26.0903878,38.1375316 Z" id="Fill-10" fill="#078B50"></path>
                    <path d="M32.9449079,108.081866 C36.1225665,107.053479 37.8615665,103.654352 36.829286,100.489844 L35.9216701,97.7072344 C35.525036,96.4918943 35.5270421,95.182364 35.9271152,93.9678802 C37.0611335,90.5247972 34.9094506,86.8713559 31.3391701,86.1766312 L24.216664,84.790036 L11.205975,74.9383032 L0.449566463,78.4182061 C1.50592012,87.7219227 4.45402378,96.9657 9.45436524,105.591817 C14.0792799,113.57002 20.0408287,120.298631 26.8919384,125.665765 L30.0971091,109.003218 L32.9449079,108.081866 Z" id="Fill-12" fill="#078B50"></path>
                </g>
            </g>
            <g id="illustration/Laptop" transform="translate(-0.000000, 0.000000)">
                <g id="electric">
                    <path d="M140.610066,0 L130.61409,0 L130.61409,117.193405 L140.610066,97.2172565 C146.107853,97.2172565 150.606042,92.722623 150.606042,87.2291822 L150.606042,9.98807429 C150.606042,4.49463343 146.107853,0 140.610066,0 Z" id="Path" fill="#00283A" fill-rule="nonzero"></path>
                    <path d="M140.610066,9.98807429 C140.610066,4.49463343 136.111877,0 130.61409,0 L24.9899406,0 C19.4921537,0 14.9939644,4.49463343 14.9939644,9.98807429 L14.9939644,87.2291822 C14.9939644,92.722623 19.4921537,97.2172565 24.9899406,97.2172565 L82.8000033,117.193405 L130.61409,97.2172565 C136.111877,97.2172565 140.610066,92.722623 140.610066,87.2291822 L115.620125,48.6086282 L140.610066,9.98807429 Z" id="Path" fill="#004361" fill-rule="nonzero"></path>
                    <path d="M144.755064,117.193405 L144.755064,142.163591 L155.60403,142.163591 C161.124808,142.163591 165.600007,137.69193 165.600007,132.175517 L144.755064,117.193405 Z" id="Path" fill="#000000" fill-rule="nonzero"></path>
                    <path d="M26.181461,122.187442 L0,132.175517 C0,137.69193 4.47519857,142.163591 9.99597625,142.163591 L144.755064,142.163591 C150.275842,142.163591 154.75104,137.69193 154.75104,132.175517 L154.75104,122.187442 L26.181461,122.187442 Z" id="Path" fill="#00283A" fill-rule="nonzero"></path>
                    <path d="M153.201664,103.270029 C151.628964,99.5977475 148.013752,97.2172565 144.015362,97.2172565 L133.166396,97.2172565 L154.75104,132.175517 L165.600007,132.175517 L153.201664,103.270029 Z" id="Path" fill="#00283A" fill-rule="nonzero"></path>
                    <path d="M142.352698,103.270029 L144.014695,107.205331 L136.182848,112.190046 L148.320629,117.193405 L154.75104,132.175517 L0,132.175517 L12.3983425,103.270029 C13.9710428,99.5977475 17.5862542,97.2172565 21.5846447,97.2172565 L133.166396,97.2172565 C137.164786,97.2172565 140.776666,99.5977475 142.352698,103.270029 Z" id="Path" fill="#004361" fill-rule="nonzero"></path>
                    <polygon id="Path" fill="#EDEDED" fill-rule="nonzero" points="130.61409 9.98807429 102.292157 48.6086282 130.61409 87.2291822 140.610066 87.2291822 140.610066 9.98807429"></polygon>
                    <polygon id="Path" fill="#FFFFFF" fill-rule="nonzero" points="24.9899406 9.98807429 130.61409 9.98807429 130.61409 87.2291822 24.9899406 87.2291822"></polygon>
                    <polygon id="Path" fill="#000000" fill-rule="nonzero" points="148.320629 117.193405 144.014695 107.205331 21.5853111 107.205331 17.3013689 117.193405"></polygon>
                </g>
            </g>
            <g id="illustration/Phone" transform="translate(107.000000, 19.000000)">
                <g id="brands-and-logotypes" transform="translate(33.865466, 62.680373) scale(-1, 1) translate(-33.865466, -62.680373) translate(0.230929, 0.000000)">
                    <path d="M55.575026,0 L11.7101112,0 C5.26743965,0 0.0258614453,5.2356786 0.0258614453,11.6710987 L0.0258614453,113.104207 C0.0258614453,119.539628 5.26743965,124.775306 11.7101112,124.775306 L55.575026,124.775306 C62.0176976,124.775306 67.2592758,119.539628 67.2592758,113.104207 L67.2592758,11.6710987 C67.2592758,5.2356786 62.0179415,0 55.575026,0 Z" id="Path" fill="#222222" fill-rule="nonzero"></path>
                    <path d="M6.49854204,113.103964 L6.49854204,11.6710987 C6.49854204,5.2356786 11.7398763,0 18.1825478,0 L11.7101112,0 C5.26743965,0 0.0258614453,5.2356786 0.0258614453,11.6710987 L0.0258614453,113.104207 C0.0258614453,119.539628 5.26743965,124.775306 11.7101112,124.775306 L18.1825478,124.775306 C11.7398763,124.775306 6.49854204,119.539384 6.49854204,113.103964 Z" id="Path" fill="#000000" fill-rule="nonzero"></path>
                    <path d="M60.7856193,113.103964 C60.7856193,115.978421 58.4527217,118.308692 55.575026,118.308692 L11.7101112,118.308692 C8.83241549,118.308692 6.49951794,115.978421 6.49951794,113.103964 L6.49951794,11.6710987 C6.49951794,8.7966419 8.83241549,6.46612643 11.7101112,6.46612643 L17.1768792,6.46612643 C18.2537888,6.46612643 19.1267346,7.33833336 19.1267346,8.41403087 L19.1267346,9.64910903 C19.1267346,11.3062778 20.4839725,12.6619881 22.1430086,12.6619881 L45.1418846,12.6619881 C46.8009208,12.6619881 48.1581587,11.3062778 48.1581587,9.64910903 L48.1581587,7.86277855 C48.1581587,7.09146395 48.7842008,6.46612643 49.5563846,6.46612643 L55.575026,6.46612643 C58.4527217,6.46612643 60.7856193,8.7963982 60.7856193,11.670855 L60.7856193,113.103964 L60.7856193,113.103964 Z" id="Path" fill="#FFFFFF" fill-rule="nonzero"></path>
                    <path d="M12.7157799,113.103964 L12.7157799,11.6710987 C12.7157799,8.95261073 14.8029937,6.7239624 17.4635509,6.48976546 C17.1607768,6.44492442 17.482825,6.47611818 11.7101112,6.46637013 C8.83241549,6.46637013 6.49951794,8.7966419 6.49951794,11.6710987 L6.49951794,113.104207 C6.49951794,115.978664 8.83241549,118.308936 11.7101112,118.308936 L17.9261292,118.308936 C15.0486774,118.308936 12.7157799,115.978664 12.7157799,113.103964 Z" id="Path" fill="#EDEDED" fill-rule="nonzero"></path>
                    <g id="Group" transform="translate(23.421686, 4.386623)" fill="#505050" fill-rule="nonzero">
                        <path d="M17.8078009,3.96282674 L7.96508117,3.96282674 C6.92403601,3.96282674 6.0798794,3.11986396 6.0798794,2.07974684 C6.0798794,1.03962972 6.92379203,0.196666944 7.96508117,0.196666944 L17.8078009,0.196666944 C18.848846,0.196666944 19.6930026,1.03962972 19.6930026,2.07974684 C19.6927586,3.11986396 18.848846,3.96282674 17.8078009,3.96282674 Z" id="Path"></path>
                        <path d="M0.989810221,3.64552765 C-0.359864451,2.75942975 -0.0326927704,0.593168949 1.66586744,0.23346584 C2.82133729,-0.00463032458 3.92069269,0.889266021 3.92069269,2.07877204 C3.92069269,2.95341598 3.31636439,3.73740304 2.40243068,3.92675895 C2.28190658,3.94917947 1.37358431,3.90482583 0.989810221,3.64552765 Z" id="Path"></path>
                    </g>
                </g>
            </g>
            <path d="M230.490196,2.31620252 C230.490196,2.31620252 225.941849,5.91713394 219.140744,5.91713394 C218.325304,5.91713394 217.438203,5.86498252 216.562634,5.74991827 C216.562634,5.74991827 210.899851,4.96433576 205.200003,1 L205.200003,9.17535602 L205.200003,33.3752708 C205.200003,34.1898263 205.386978,34.9936204 205.739512,35.7262237 C213.515027,51.8749524 230.417713,58.6000023 230.417713,58.6000023 C230.417713,58.6000023 246.985162,51.880747 255.029196,35.7485743 C255.402322,34.999415 255.600005,34.1724425 255.600005,33.3355363 L255.600005,12.3888769 L255.600005,1.16556007 C249.899333,4.97509717 244.46718,5.74991827 244.46718,5.74991827 C243.591611,5.86498252 242.700392,5.91713394 241.884951,5.91713394 C235.073962,5.91713394 230.490196,2.31620252 230.490196,2.31620252 Z" id="Orange-Shield" fill="#E24301"></path>
        </g>
    </g>
</svg>