<?xml version="1.0" encoding="UTF-8"?>
<svg width="332px" height="417px" viewBox="0 0 332 417" version="1.1" xmlns="http://www.w3.org/2000/svg" xmlns:xlink="http://www.w3.org/1999/xlink">
    <title>illustration/Tablet</title>
    <g id="illustration/Tablet" stroke="none" stroke-width="1" fill="none" fill-rule="evenodd">
        <g id="brands-and-logotypes" transform="translate(166.500000, 208.000000) scale(-1, 1) translate(-166.500000, -208.000000) translate(1.000000, 0.000000)" fill-rule="nonzero">
            <path d="M292.071857,0 L38.9281427,0 C17.463244,0 -9.09494702e-13,17.4557159 -9.09494702e-13,38.9113615 L-9.09494702e-13,377.088638 C-9.09494702e-13,398.544284 17.463244,416 38.9281427,416 L292.071857,416 C313.536756,416 331,398.544284 331,377.088638 L331,38.9113615 C331,17.4557159 313.537569,0 292.071857,0 Z" id="Path" fill="#222222"></path>
            <path d="M21.7459016,377.087826 L21.7459016,38.9113615 C21.7459016,17.4557159 39.354918,0 61,0 L39.254918,0 C17.6098361,0 0,17.4557159 0,38.9113615 L0,377.088638 C0,398.544284 17.6098361,416 39.254918,416 L61,416 C39.354918,416 21.7459016,398.543472 21.7459016,377.087826 Z" id="Path" fill="#000000"></path>
            <path d="M292.626909,394 L59.3730911,394 C49.7783161,394 42,386.228439 42,376.641996 L42,38.3588171 C42,28.7723742 49.7783161,21 59.3730911,21 L292.626909,21 C302.221684,21 310,28.7715614 310,38.3580043 L310,376.641996 C310,386.228439 302.221684,394 292.626909,394 Z" id="Path" fill="#FFFFFF"></path>
            <path d="M43.6726166,376.641433 L43.6726166,38.3631198 C43.6726166,29.2969704 50.6137931,21.8644346 59.4616633,21.0833885 C58.4547667,20.9338437 59.5257606,21.0378748 40.3281947,21.0053651 C30.758215,21.0053651 23,28.7768148 23,38.3631198 L23,376.642245 C23,386.22855 30.758215,394 40.3281947,394 L61,394 C51.4308316,394 43.6726166,386.22855 43.6726166,376.641433 Z" id="Path" fill="#EDEDED"></path>
        </g>
    </g>
</svg>