<?xml version="1.0" encoding="UTF-8"?>
<svg width="338px" height="246px" viewBox="0 0 338 246" version="1.1" xmlns="http://www.w3.org/2000/svg" xmlns:xlink="http://www.w3.org/1999/xlink">
    <title>illustration/woman-laptop</title>
    <defs>
        <polygon id="path-1" points="0 0.174 337.284 0.174 337.284 16 0 16"></polygon>
    </defs>
    <g id="illustration/woman-laptop" stroke="none" stroke-width="1" fill="none" fill-rule="evenodd">
        <g id="Group-57">
            <path d="M257.2628,121.7248 C257.2628,176.6118 212.7688,221.1058 157.8818,221.1058 C102.9938,221.1058 58.4998,176.6118 58.4998,121.7248 C58.4998,66.8378 102.9938,22.3438 157.8818,22.3438 C212.7688,22.3438 257.2628,66.8378 257.2628,121.7248" id="Fill-1" fill="#000000" opacity="0.1"></path>
            <path d="M241.2813,20.0778 C263.8463,56.1778 270.4303,92.7398 287.4863,106.4588 C269.3653,146.2038 241.2083,105.5308 207.1853,113.9118 C174.2973,122.0118 163.7363,47.9278 170.6643,26.2928 C178.0803,3.1328 218.7173,-16.0222 241.2813,20.0778" id="Fill-3" fill="#603813"></path>
            <path d="M232.3331,86.8044 L212.6911,89.4904 C212.6911,89.4904 193.7911,93.7744 193.0351,94.3624 C192.2791,94.9464 178.4521,119.0574 176.1851,142.4934 C173.9161,165.9294 183.4591,232.6644 183.4591,232.6644 L265.8621,232.6644 C265.8621,232.6644 253.5151,211.4584 254.2701,187.0144 C255.0261,162.5704 263.8471,98.5624 263.8471,98.5624 L232.3331,86.8044" id="Fill-5" fill="#004361"></path>
            <path d="M176.2882,163.2448 L193.0352,226.8308 L122.7272,222.0398 C122.7272,222.0398 174.0682,203.7638 175.3792,202.2518 C176.6892,200.7398 176.2882,163.2448 176.2882,163.2448" id="Fill-7" fill="#9A2E00"></path>
            <path d="M193.0352,94.362 C193.0352,94.362 179.4282,126.282 181.2642,116.795 C183.1012,107.304 185.2232,94.53 193.0352,94.362" id="Fill-9" fill="#E24301"></path>
            <path d="M206.3917,144.9309 C202.1077,160.3029 206.3917,232.6639 206.3917,232.6639 L243.3697,232.6639 L254.8237,177.1969 C256.9337,148.7279 263.8467,98.5629 263.8467,98.5629 L233.6927,86.7539 C233.6927,86.7539 210.6757,129.5589 206.3917,144.9309" id="Fill-11" fill="#E24301"></path>
            <polygon id="Fill-13" fill="#9A2E00" points="248.9474 208.3728 217.7324 226.8308 219.9744 202.2518"></polygon>
            <path d="M231.9532,213.7268 C226.4092,221.2338 198.8312,234.1388 198.8312,234.1388 L265.8622,232.6638 C265.8622,232.6638 253.5152,211.4588 254.2702,187.0148 C254.7872,170.3068 259.0712,135.1128 261.7312,114.5118 C260.8582,105.7898 260.3182,100.3268 260.3182,100.3268 C243.9382,101.0828 235.5422,126.0308 233.6922,141.6548 C231.8432,157.2788 232.3572,163.4678 237.6382,180.7148 C242.9202,197.9618 237.4972,206.2218 231.9532,213.7268" id="Fill-15" fill="#9A2E00"></path>
            <path d="M171.6339,144.386 C170.6769,150.421 175.4109,158.971 176.2879,163.245 C181.9409,190.769 183.4589,232.664 183.4589,232.664 L188.2249,232.664 C188.2249,232.664 189.0029,170.886 188.2469,153.048 C187.5269,136.053 204.8389,94.795 206.4799,90.922 C200.8979,92.225 193.5019,93.999 193.0349,94.362 C192.2799,94.947 174.0879,128.923 171.6339,144.386" id="Fill-17" fill="#E24301"></path>
            <path d="M83.6114,229.1716 L83.6114,221.0726 L201.7174,221.0726 C206.1894,221.0726 209.8164,224.6976 209.8164,229.1716 L83.6114,229.1716" id="Fill-19" fill="#000000"></path>
            <path d="M83.463,229.1716 L54.757,166.0196 C54.151,164.6886 55.126,163.1766 56.587,163.1766 L117.56,163.1766 C119.578,163.1766 121.411,164.3566 122.245,166.1936 L150.871,229.1716 L83.463,229.1716" id="Fill-21" fill="#000000"></path>
            <path d="M56.587,163.177 C55.126,163.177 54.151,164.689 54.757,166.019 L83.463,229.172 L145.556,229.172 L116.93,166.194 C116.096,164.357 114.263,163.177 112.244,163.177 L56.587,163.177" id="Fill-23" fill="#004361"></path>
            <path d="M235.4601,82.7351 L237.3121,90.0641 L226.3581,86.4001 L225.3121,82.7351 C225.3121,82.7351 230.3861,80.8831 235.4601,82.7351" id="Fill-25" fill="#000000"></path>
            <path d="M221.9298,49.5544 L216.4178,39.1744 C216.4178,39.1744 195.8268,52.3834 203.4758,70.1164 C211.1238,87.8474 206.6058,90.6294 206.6058,90.6294 C206.6058,90.6294 198.8418,106.6114 207.1858,113.9114 C215.5308,121.2154 239.6348,92.7134 232.3328,86.8044 C225.0328,80.8944 221.9298,49.5544 221.9298,49.5544" id="Fill-27" fill="#F09959"></path>
            <path d="M216.4181,39.174 C216.4181,39.174 195.8271,52.383 203.4761,70.117 C206.7191,77.634 207.7741,82.465 207.9131,85.534 C212.6871,80.028 218.0221,71.369 220.8771,58.051 C219.3461,51.862 218.4261,47.17 218.4261,47.17 L216.4181,39.174" id="Fill-29" fill="#E38540"></path>
            <path d="M176.6554,60.0066 C171.7414,46.4596 171.8014,30.2606 182.1514,27.3346 C192.4984,24.4086 216.4294,25.8496 218.7084,48.7486 C220.6424,68.1936 211.7594,77.0976 200.5074,80.8026 C193.6174,83.0706 181.0924,72.2486 176.6554,60.0066" id="Fill-31" fill="#F09959"></path>
            <path d="M205.1349,205.591 C205.1069,204.298 206.0849,177.493 210.6549,153.048 C212.1629,144.977 221.2849,135.889 221.2849,135.889 L217.7329,132.829 L244.3359,90.922 L235.4599,82.735 C235.4599,82.735 210.6759,129.559 206.3919,144.931 C203.8449,154.069 204.3259,183.347 205.1349,205.591" id="Fill-33" fill="#9A2E00"></path>
            <path d="M207.9132,85.5344 C207.9132,85.5344 199.8022,92.5094 198.9442,92.7214 C198.0882,92.9304 188.9762,129.4464 188.9762,129.4464 L184.7852,131.1664 C184.7852,131.1664 184.5122,136.0024 184.2162,138.1264 C182.4512,150.2224 188.5582,191.1094 188.5582,191.1094 C188.5582,191.1094 188.9852,144.2154 191.0932,134.6184 C193.1992,125.0224 206.4792,90.9224 206.4792,90.9224" id="Fill-35" fill="#9A2E00"></path>
            <path d="M214.0372,225.9294 L211.3252,217.3924 C206.7882,214.6544 194.2352,203.7014 190.2832,204.0234 C186.3322,204.3464 166.6812,210.7884 167.4862,213.3664 C168.2922,215.9434 186.9862,214.6474 190.2832,214.9734 C193.5802,215.2994 194.8692,223.8354 201.4732,225.9294 C208.0772,228.0234 208.2382,226.2514 214.0372,225.9294" id="Fill-37" fill="#F09959"></path>
            <path d="M214.9581,214.7346 C214.9581,214.7346 221.0071,225.8226 221.7631,226.8306 C222.5191,227.8386 212.3871,229.3426 212.3871,229.3426 L210.0561,216.0956 L214.9581,214.7346" id="Fill-39" fill="#FFFFFF"></path>
            <path d="M263.8468,98.5627 L258.3028,98.5627 C252.7588,98.5627 241.7048,112.0197 244.1908,134.5987 C246.6758,157.1777 261.0748,191.5507 261.0748,191.5507 L211.3258,213.7267 C211.3258,213.7267 215.9668,229.343135 218.9908,229.1717 C225.6208,231.1897 280.2798,214.7977 287.7858,211.2067 C296.8588,206.8697 293.5558,191.8477 285.3398,158.8357 C277.1238,125.8237 273.9268,116.2027 263.8468,98.5627" id="Fill-41" fill="#E24301"></path>
            <path d="M211.6134,49.3899 C210.1564,44.8159 216.1474,41.4649 219.5164,42.1779 C222.8864,42.8929 224.8104,47.2809 223.8144,51.9779 C222.8184,56.6729 219.7414,60.0189 216.3714,59.3039 C213.0014,58.5909 214.0474,57.0309 211.6134,49.3899" id="Fill-43" fill="#F09959"></path>
            <g id="Group-47" transform="translate(0.000000, 228.511000)">
                <mask id="mask-2" fill="white">
                    <use xlink:href="#path-1"></use>
                </mask>
                <g id="Clip-46"></g>
                <path d="M19.045,16 L318.239,16 C323.87,16 329.108,13.114 332.116,8.354 L337.284,0.174 L0,0.174 L5.168,8.354 C8.176,13.114 13.414,16 19.045,16" id="Fill-45" fill="#603813" mask="url(#mask-2)"></path>
            </g>
            <path d="M174.088,29.259 C171.918,34.528 177.712,46.897 193.035,48.225 C197.849,48.588 203.797,50.279 203.481,56.078 C205.218,52.816 205.811,47.984 204.487,44.48 C208.601,45.447 209.886,48.015 211.324,50.741 C212.764,53.467 213.815,60.064 211.389,63.688 C208.963,67.313 209.325,71.541 212.225,74.198 C211.565,71.136 210.904,68.215 213.262,65.259 C215.619,62.302 218.507,55.594 215.124,47.501 C215.608,43.997 217.902,42.703 221.285,42.082 C221.164,36.145 218.035,24.064 211.324,20.802 C204.614,17.541 197.97,13.313 189.634,15.729 C181.299,18.145 175.778,25.152 174.088,29.259" id="Fill-48" fill="#603813"></path>
            <path d="M177.6143,60.3952 C178.8663,65.0872 177.4933,70.0622 178.8063,70.7922 C180.1203,71.5212 183.0683,71.0262 183.0683,71.0262 L177.6143,60.3952 Z" id="Fill-50" fill="#F09959"></path>
            <polygon id="Fill-52" fill="#103A84" points="36.711 209.8093 34.382 210.7193 22.497 180.3183 24.826 179.4083"></polygon>
            <polygon id="Fill-54" fill="#ED1556" points="25.661 228.685 46.661 228.685 46.661 196.044 25.661 196.044"></polygon>
            <polygon id="Fill-56" fill="#B10F40" points="36.161 228.685 57.161 228.685 57.161 207.685 36.161 207.685"></polygon>
        </g>
    </g>
</svg>