<?xml version="1.0" encoding="UTF-8"?>
<svg width="24px" height="18px" viewBox="0 0 24 18" version="1.1" xmlns="http://www.w3.org/2000/svg" xmlns:xlink="http://www.w3.org/1999/xlink">
    <title>AL</title>
    <g id="Design-3" stroke="none" stroke-width="1" fill="none" fill-rule="evenodd">
        <g id="11-Flags" transform="translate(-148.000000, -30.000000)">
            <g id="AL" transform="translate(148.000000, 30.000000)">
                <g id="Albania">
                    <rect id="Rectangle-77" fill="#E41E20" x="0" y="0" width="24" height="18"></rect>
                    <path d="M12.6874762,14.6710101 C12.52799,14.5243801 12.3346617,14.2274351 12.3373846,13.9412151 C12.3516476,13.7277877 12.4896874,13.6037902 12.57887,13.8643252 C12.7049549,14.1518926 12.9753812,14.6274226 13.3480343,14.3484626 C13.5108399,14.2217426 13.5082985,14.0351826 13.2850697,14.0565776 C13.0094049,14.0365576 12.8400643,13.8757102 12.7167024,13.4615877 C12.6942706,13.2338327 12.7836088,13.2395252 12.9082673,13.3860452 C13.0685315,13.5810202 13.387452,13.8757102 13.7393071,13.7177777 C13.9348397,13.6308777 13.9900245,13.4515777 13.694625,13.4074402 C13.4149666,13.4117577 13.186681,13.2195052 12.9594326,12.9262452 C12.8348259,12.7639952 13.018611,12.6002053 13.1289547,12.7383102 C13.2273694,12.8279602 13.3652018,12.9931252 13.4833253,13.0158952 C13.6199129,13.0443302 13.7892276,13.0301952 13.9768248,12.9248702 C14.1790481,12.7453777 14.1133865,12.6158803 13.8679074,12.5860703 C13.6776132,12.5960803 13.5739601,12.6727777 13.328507,12.4991703 C12.8872878,12.1829203 12.5365219,11.7603828 12.4817261,11.2521279 C12.4457315,10.9178379 12.6152277,10.8166104 12.7561461,10.8550829 C13.1394316,10.9596379 13.390175,11.7191878 13.6553629,12.1364453 C13.7421856,12.2567028 13.8219546,12.2586553 13.8783842,12.2215853 C13.9847602,12.1248678 14.0697158,12.0453653 14.1760918,11.9372353 C14.1760918,11.9372353 14.9562774,12.0859003 15.3811331,12.2327503 L14.9080685,12.4110328 C14.7289513,12.3061478 14.5127762,12.4192278 14.5127762,12.6011953 C14.34328,12.7254952 14.3569206,12.8712177 14.4300508,13.0118527 C14.452353,12.9139252 14.4713876,12.7867377 14.6052782,12.7698252 C14.7963763,12.8536452 15.0190346,12.7340202 15.0190346,12.5757578 L15.5770807,12.3431628 L16.1408579,12.6816327 C16.1408579,12.9104327 16.3452854,12.9829227 16.5579855,12.9211577 C16.6582155,12.9871577 16.7226583,13.1016677 16.7566042,13.2241252 C16.8193614,13.0475202 16.8062653,12.9228352 16.7079804,12.8361827 C16.764384,12.6078503 16.4626569,12.3882903 16.2290809,12.5345078 L15.8234933,12.2875578 L16.517712,12.2669328 C16.598285,12.4181828 16.8895094,12.4265153 16.9744649,12.2669328 C17.0470765,12.2458403 17.1084333,12.2324203 17.25,12.3440153 C17.2053957,12.1634503 17.118573,12.0862578 16.9883389,12.0862578 C16.8893797,11.9003303 16.5312489,11.9011828 16.4795391,12.1105128 L15.7565091,12.1318253 L16.185514,11.8079303 C16.3456485,11.9081953 16.5703555,11.7967378 16.6153487,11.6146053 C16.679195,11.5341128 16.7579268,11.4963003 16.9129007,11.5509153 C16.8330279,11.4009029 16.7204799,11.3561329 16.5172193,11.4579653 C16.3318004,11.3089704 16.0874105,11.4896728 16.1244943,11.6396853 L15.5537153,12.0514978 C15.1394143,11.9204053 14.3890771,11.7162728 14.3890771,11.7162728 C14.4784153,11.6166128 14.5690502,11.5240203 14.6582328,11.4229853 C14.6904412,11.3638054 14.6412209,11.2948904 14.5728363,11.2805354 C13.9033574,11.1340154 13.520046,10.8478229 13.2877926,10.1204205 C13.1906487,9.81577548 13.4006777,9.72475049 13.4728484,9.91109047 C13.5726894,10.1702505 13.6828516,10.4535004 13.9834636,10.6728404 C14.0871426,10.7497304 14.3957678,10.6869479 14.2132274,10.5033304 C14.0241779,10.3381654 13.9428011,10.2671604 13.8496508,9.86560547 C13.8496508,9.66216049 14.0451834,9.570943 14.1542564,9.76594548 C14.2709536,10.165933 14.2828827,10.3381654 14.4941565,10.5958954 C14.6542391,10.7909254 14.8629975,10.9219629 14.9666505,10.9190204 C15.1531586,10.9162704 15.3409114,10.7025954 15.0914647,10.5474679 C14.7251651,10.3923129 14.5913004,10.1802604 14.5373863,9.97799797 C14.4784153,9.62509049 14.5428322,9.45423301 14.7436033,9.62784049 C15.0283445,9.97093047 15.5718941,10.6100579 15.8566353,10.9076354 C16.1757374,11.1667954 16.5418554,11.1752104 16.8332613,10.9119529 C17.0000605,10.7083429 16.9408821,10.4892229 16.6797137,10.5361104 C16.0903669,10.5888554 15.6440908,10.2785179 15.1544293,9.43990551 C15.0585561,9.25059552 15.0322862,8.97870305 15.2437675,9.18096553 C15.4877943,9.531123 15.8435912,9.82870048 16.1744926,9.95679547 C16.5065869,10.0833505 16.7807994,10.0134455 16.8871495,9.90267547 C17.0153349,9.76677048 16.9816224,9.42439551 16.7598199,9.5069505 C16.5773054,9.5752605 16.3200788,9.5923105 16.0523754,9.48266801 C15.7844646,9.37162301 15.5062325,9.13251053 15.2108589,8.72683057 C15.1097213,8.49770059 15.1426559,8.3040731 15.3473946,8.42213059 C15.8318177,8.85786806 16.4566664,9.21077553 16.775561,8.99872304 C17.0105633,8.84354056 17.014531,8.44492809 16.71659,8.47061309 C16.1165848,8.55732058 15.8895699,8.41649309 15.3132412,7.87702564 C15.1820736,7.77304814 15.19115,7.50959816 15.3998565,7.67770565 C15.8842796,8.00943812 16.5458231,8.13888061 16.8057726,7.96530063 C17.0395042,7.81011814 17.0052989,7.33596318 16.6115107,7.50390567 C16.2964023,7.70751565 15.9485409,7.70182315 15.2515473,7.17374069 C15.0757235,7.0185857 15.2068653,6.81632322 15.3512327,6.90322321 C15.9118201,7.24202319 16.7283635,7.38716817 16.940908,6.69823823 C17.0235815,6.43495325 16.8740016,6.28117326 16.6547405,6.46338825 C16.1730144,6.93597571 15.6268974,6.70390323 15.3212026,6.46613825 C15.2336537,6.41141325 15.0730265,6.13443328 15.3551744,6.18583077 C16.0851025,6.36238076 16.8070433,6.20860077 16.9383666,5.66049831 C17.014531,5.48257333 16.8647177,5.16791835 16.5983109,5.43136833 C16.2479081,5.7986033 15.8763442,5.8113358 15.4091145,5.8085858 C15.1714152,5.75584081 15.1688998,5.47825583 15.3684001,5.43706083 C15.7372411,5.44547583 16.1008437,5.27461835 16.3922755,5.10101086 C16.6771723,4.92740337 16.9134193,4.68394589 16.988313,4.34654842 C17.0342139,4.04481844 16.7598458,3.72449847 16.5944988,4.04481844 C16.3502904,4.51308841 15.8094378,4.95446337 15.208136,5.03413086 C15.1768352,4.97858087 15.0979738,4.83618588 15.0008298,4.87619838 C14.8242799,4.94879837 14.6139138,5.04592836 14.3973237,5.15502085 C13.9304312,5.39011834 13.735858,5.50341833 13.7919246,5.90962079 C13.8504547,6.33347826 13.5422963,6.60132824 13.2877926,6.52735324 C13.0658086,6.46399325 12.9433543,6.25136327 12.9831351,5.8825608 C13.0150064,5.58869582 13.2932125,5.23323085 13.6067131,5.04683586 C13.8096625,4.92638587 14.1160835,4.86049588 14.4849244,4.77359589 C14.709398,4.72670839 14.8237353,4.6341159 14.8367795,4.5372059 C14.8367795,4.5372059 14.6833356,4.6562809 14.4377269,4.6384059 C14.3216002,4.6296059 14.2438021,4.5754309 14.2144981,4.52015591 C14.2998945,4.50173091 14.4547388,4.52309841 14.5938418,4.52309841 C14.7788718,4.52153091 15.208499,4.47758591 15.3224733,4.20134843 C15.3579233,4.01913345 15.2450123,3.98638095 15.1399589,4.10309094 C15.0270738,4.22923343 14.9805764,4.34261592 14.7540801,4.38496592 C14.6162736,4.41067841 14.4784153,4.44051591 14.3011393,4.39500342 C14.4009803,4.26924593 14.5596366,4.14057344 14.6949535,4.16427843 C14.739454,4.17214343 14.7986065,4.21570343 14.8459856,4.29396842 C14.8749265,4.09464844 14.8235538,3.86964346 14.3208482,3.96361095 C14.3288354,3.81277346 14.0294163,3.74724097 13.8496508,3.7500888 C13.7472684,3.75293347 13.5385101,3.81709096 13.3876336,3.89378846 C13.1486895,3.97224595 12.9124425,4.02914345 12.6340289,4.05053844 C12.7955897,4.19705843 12.8258013,4.20569343 12.9871287,4.32947092 C12.7431019,4.42618841 12.5540524,4.6255084 12.4687079,4.75654589 C12.4687079,4.75654589 12.7536046,4.74810339 12.8258013,4.78223088 C12.5276788,4.87463088 12.3937883,4.93015337 12.236273,5.10101086 C12.2914318,5.11102086 12.3740794,5.12807086 12.4095553,5.14239836 C12.4464576,5.15653335 12.4368625,5.18221835 12.4070139,5.20636335 C12.3428045,5.25833835 12.077461,5.58514832 12.0000259,5.66341331 C11.9225909,5.58514832 11.6572473,5.25833835 11.5930379,5.20636335 C11.5631894,5.18221835 11.5535943,5.15653335 11.5904965,5.14239836 C11.6259465,5.12809836 11.70862,5.11102086 11.7637789,5.10101086 C11.6062377,4.93015337 11.472373,4.87463088 11.1742505,4.78223088 C11.2464472,4.74810339 11.531344,4.75654589 11.531344,4.75654589 C11.4459476,4.6255084 11.256924,4.42618841 11.0128972,4.32947092 C11.1742505,4.20569343 11.2044622,4.19705843 11.365997,4.05051094 C11.0876093,4.02914345 10.8513623,3.97224595 10.6123924,3.89376096 C10.4615418,3.81709096 10.2527834,3.75293347 10.1504011,3.7500888 C9.97060959,3.74724097 9.67121642,3.81277346 9.67920369,3.96358345 C9.17649805,3.86964346 9.12512534,4.09464844 9.15406625,4.29396842 C9.20144532,4.21570343 9.26059784,4.17214343 9.30509837,4.16430593 C9.44041527,4.14057344 9.59904568,4.26924593 9.69891255,4.39500342 C9.52163653,4.44051591 9.38377822,4.41067841 9.24594585,4.38499342 C9.01947547,4.34264342 8.97297811,4.22923343 8.86006708,4.10311844 C8.75501366,3.98638095 8.64212856,4.01913345 8.67757858,4.20137593 C8.79155285,4.47758591 9.22112825,4.52153091 9.40621002,4.52309841 C9.54531309,4.52309841 9.70015733,4.50170341 9.78555375,4.52015591 C9.75624978,4.5754859 9.67845164,4.6296059 9.56232495,4.6384059 C9.31669029,4.6562809 9.16327236,4.5372059 9.16327236,4.5372059 C9.17631652,4.6341159 9.29060198,4.72668089 9.51512742,4.77359589 C9.8839684,4.86049588 10.1903893,4.92641337 10.3933388,5.04686336 C10.7068393,5.23323085 10.9850455,5.58869582 11.0168908,5.8825608 C11.0566716,6.25133577 10.9342174,6.46399325 10.7122593,6.52735324 C10.4577556,6.60132824 10.1495972,6.33347826 10.2081273,5.90962079 C10.2641938,5.50341833 10.0696207,5.39011834 9.60272812,5.15502085 C9.3861381,5.04592836 9.17577193,4.94877087 8.99922202,4.87617088 C8.90207807,4.83618588 8.82321669,4.97860837 8.79191591,5.03413086 C8.19061409,4.95446337 7.64976142,4.51308841 7.40555306,4.04481844 C7.24020608,3.72449847 6.96581204,4.04481844 7.01173887,4.34654842 C7.08663255,4.68397339 7.32287957,4.92740337 7.60777636,5.10101086 C7.89920819,5.27461835 8.26281076,5.44547583 8.63165174,5.43706083 C8.8311521,5.47825583 8.82863663,5.75584081 8.59093738,5.8085858 C8.12368175,5.8113358 7.75214377,5.7986033 7.40174095,5.43136833 C7.13530825,5.16791835 6.9855209,5.48257333 7.06168528,5.66049831 C7.19300854,6.20857327 7.91494934,6.36238076 8.64485149,6.18583077 C8.92699941,6.13440578 8.76639812,6.41144075 8.67882335,6.46616575 C8.37315446,6.70390323 7.82703745,6.93597571 7.34531137,6.46341575 C7.12607621,6.28117326 6.97644445,6.43495325 7.05914387,6.69823823 C7.27168839,7.38716817 8.08823173,7.24202319 8.6488192,6.90322321 C8.79318661,6.81632322 8.92432834,7.0185857 8.74850455,7.17374069 C8.05151101,7.70182315 7.70367553,7.70751565 7.3885412,7.50390567 C6.99475295,7.33596318 6.9605477,7.81011814 7.19427924,7.96530063 C7.45420283,8.13890811 8.11574634,8.00943812 8.60016943,7.67770565 C8.80892777,7.50959816 8.81795235,7.77304814 8.68678469,7.87702564 C8.110482,8.41649309 7.88346703,8.55732058 7.28346184,8.47061309 C6.98549497,8.44492809 6.98948861,8.84351306 7.22449085,8.99872304 C7.54338543,9.21074803 8.16818229,8.85786806 8.65260537,8.42215809 C8.85739601,8.3040731 8.89030462,8.49770059 8.78919297,8.72683057 C8.49381937,9.13251053 8.21556136,9.37162301 7.94767643,9.48266801 C7.67997303,9.5923105 7.42274645,9.5752605 7.24023201,9.506978 C7.01842951,9.42439551 6.98471699,9.76677048 7.11287646,9.90267547 C7.21927838,10.0134455 7.49346496,10.0833505 7.82558521,9.95679547 C8.15643477,9.82870048 8.51225753,9.5310955 8.75628436,9.18096553 C8.9677397,8.97870305 8.9414958,9.25059552 8.84562256,9.43990551 C8.35596107,10.2785179 7.90971094,10.5888554 7.32033816,10.5361104 C7.05914387,10.4892229 6.99999136,10.7083429 7.16676463,10.9119529 C7.45819647,11.1752104 7.82431451,11.1667954 8.14339062,10.9076354 C8.42813181,10.6100579 8.97168148,9.97093047 9.25642267,9.62784049 C9.45721967,9.45423301 9.52163653,9.62509049 9.46266554,9.97799797 C9.40872549,10.1802604 9.27491269,10.3923129 8.90858719,10.5474679 C8.65911448,10.7026504 8.84686733,10.9162429 9.03340133,10.9189929 C9.13705439,10.9219629 9.34581273,10.7909254 9.50589537,10.5959229 C9.71716919,10.3381654 9.72912417,10.165933 9.84579544,9.76594548 C9.95486843,9.570943 10.1504011,9.66216049 10.1504011,9.86557797 C10.0572508,10.2671604 9.975848,10.3381654 9.78682445,10.5033029 C9.60425815,10.6869479 9.9129093,10.7497029 10.0165624,10.6728404 C10.3172003,10.4535004 10.4273365,10.1702505 10.5271775,9.91109047 C10.5993742,9.72475049 10.8094032,9.81577548 10.7122593,10.1204205 C10.4800059,10.8477954 10.0966944,11.1340154 9.42721552,11.2805629 C9.35883095,11.2948629 9.30961066,11.3638054 9.34179316,11.4229853 C9.43100169,11.5240203 9.52163653,11.6165853 9.61097472,11.7162728 C9.61097472,11.7162728 8.86061167,11.9204053 8.44631064,12.0514978 L7.87553162,11.6396853 C7.9126154,11.4896728 7.66825144,11.3089704 7.48280661,11.4579103 C7.27952007,11.3561329 7.16699803,11.4009029 7.08712527,11.5509153 C7.24209917,11.4963003 7.32083088,11.5341128 7.38467722,11.6145778 C7.42967048,11.7967378 7.65437744,11.9081953 7.81451195,11.8079028 L8.24351682,12.1318528 L7.52051278,12.1105128 C7.46877701,11.9012103 7.11064624,11.9003303 7.01166108,12.0862578 C6.88147886,12.0862578 6.79460427,12.1634503 6.75,12.3440153 C6.89159261,12.2324203 6.95297535,12.2458403 7.02556101,12.2669328 C7.11051658,12.4265153 7.40174095,12.4181828 7.48228796,12.2669328 L8.17653262,12.2875578 L7.77094499,12.5345078 C7.53736904,12.3882903 7.23564192,12.6078503 7.29204557,12.8361827 C7.19376059,12.9228077 7.18063864,13.0475202 7.24342174,13.2241252 C7.27734172,13.1016677 7.34181045,12.9871577 7.44206632,12.9211302 C7.65471457,12.9829227 7.85916808,12.9104602 7.85916808,12.6816052 L8.42294526,12.3431628 L8.98101725,12.5757578 C8.98101725,12.7340202 9.2036496,12.8536452 9.39474776,12.7698252 C9.52863836,12.7867377 9.54767297,12.9139252 9.5699751,13.0118252 C9.64310536,12.8712177 9.65674596,12.7254952 9.48724975,12.6011953 C9.48724975,12.4192278 9.27107465,12.3061203 9.0919574,12.4110328 L8.61889285,12.2327503 C9.04374849,12.0859003 9.8239601,11.9372628 9.8239601,11.9372628 C9.93031016,12.0453378 10.0152657,12.1248678 10.1216676,12.2216128 C10.1780972,12.2586553 10.2578663,12.2567028 10.344689,12.1364453 C10.6098769,11.7191878 10.8605944,10.9596379 11.2439058,10.8550829 C11.3848242,10.8165829 11.5543204,10.9178379 11.5183258,11.2521279 C11.463504,11.7603828 11.1127381,12.1829478 10.6715708,12.4991703 C10.4260918,12.6727777 10.3224387,12.5960803 10.1321445,12.5860703 C9.8866654,12.6158803 9.82100377,12.7453777 10.0232271,12.9248702 C10.2108243,13.0301952 10.380139,13.0443302 10.5167266,13.0158952 C10.6348501,12.9931252 10.7726825,12.8279602 10.8710971,12.7383102 C10.9814408,12.6002053 11.165226,12.7639952 11.0405933,12.9262452 C10.8133709,13.2195052 10.5850852,13.4117577 10.3054009,13.4074402 C10.0100273,13.4515777 10.0652121,13.6308777 10.2607448,13.7177777 C10.6125998,13.8757102 10.9314944,13.5810477 11.0917845,13.3860452 C11.2164171,13.2395252 11.3057813,13.2338327 11.2833495,13.4615877 C11.1599616,13.8757102 10.9906469,14.0365576 10.7149822,14.0565776 C10.4917534,14.0351826 10.489212,14.2217426 10.6520176,14.3484626 C11.0246707,14.6274226 11.295097,14.1518926 11.4211818,13.8643252 C11.5103644,13.6038177 11.6483524,13.7277877 11.6626673,13.9412151 C11.6653902,14.2274351 11.4720618,14.5243801 11.3125756,14.6710101 C11.1531413,14.8176951 12,15.75 12,15.75 C12,15.75 12.8468846,14.8176401 12.6874503,14.6709826 L12.6874762,14.6710101 Z M13.8223696,4.11266094 C13.6905536,4.11266094 13.6091249,4.16161094 13.6091249,4.22101093 C13.6091249,4.28134593 13.6905536,4.33051592 13.8223696,4.33051592 C13.9534076,4.33051592 14.0366256,4.27689093 14.0366256,4.21647343 C14.0366256,4.15707344 13.9533816,4.11263344 13.8223696,4.11263344 L13.8223696,4.11266094 Z M10.1776823,4.11266094 C10.3094983,4.11266094 10.390927,4.16161094 10.390927,4.22101093 C10.390927,4.28134593 10.3094983,4.33051592 10.1776823,4.33051592 C10.0466443,4.33051592 9.96342623,4.27689093 9.96342623,4.21647343 C9.96342623,4.15707344 10.0466702,4.11263344 10.1776823,4.11263344 L10.1776823,4.11266094 Z" id="Shape" fill="#000000" fill-rule="nonzero"></path>
                    <g id="Overlay" opacity="0" stroke="#000000" stroke-opacity="0.503742351">
                        <g>
                            <rect stroke-width="2.25" style="mix-blend-mode: multiply;" x="1.125" y="1.125" width="21.75" height="15.75"></rect>
                        </g>
                    </g>
                </g>
            </g>
        </g>
    </g>
</svg>