<?xml version="1.0" encoding="UTF-8"?>
<svg width="16px" height="12px" viewBox="0 0 16 12" version="1.1" xmlns="http://www.w3.org/2000/svg" xmlns:xlink="http://www.w3.org/1999/xlink">
    <title>BB</title>
    <defs>
        <rect id="path-1" x="0" y="0" width="16" height="12"></rect>
    </defs>
    <g id="BB" stroke="none" stroke-width="1" fill="none" fill-rule="evenodd">
        <g id="Barbados">
            <mask id="mask-2" fill="white">
                <use xlink:href="#path-1"></use>
            </mask>
            <use id="Rectangle-77" fill="#FFFFFF" xlink:href="#path-1"></use>
            <rect id="Rectangle-119" fill="#00267F" mask="url(#mask-2)" x="0" y="0" width="16" height="12"></rect>
            <rect id="Rectangle-119-Copy-2" fill="#FFC726" mask="url(#mask-2)" x="4" y="0" width="8" height="12"></rect>
            <path d="M5,2 L6,2 L6,5.96485757 L7.5,6 L7.5,2 L8.5,2 L8.5,6 L10,5.96485757 L10,2 L11,2 C11,1.30448621 11,6 11,6 L10,7 L8.5,7 L8.5,10 L7.5,10 L7.5,7 L6,7 L5,6 L5,2 Z" id="Rectangle-475" fill="#000000" mask="url(#mask-2)"></path>
            <g id="Overlay" mask="url(#mask-2)" opacity="0" stroke="#000000" stroke-opacity="0.503742351">
                <g>
                    <rect style="mix-blend-mode: multiply;" x="0.5" y="0.5" width="15" height="11"></rect>
                </g>
            </g>
        </g>
    </g>
</svg>