<?xml version="1.0" encoding="UTF-8"?>
<svg width="16px" height="12px" viewBox="0 0 16 12" version="1.1" xmlns="http://www.w3.org/2000/svg" xmlns:xlink="http://www.w3.org/1999/xlink">
    <title>BN</title>
    <defs>
        <rect id="path-1" x="0" y="0" width="15.9565217" height="12"></rect>
    </defs>
    <g id="BN" stroke="none" stroke-width="1" fill="none" fill-rule="evenodd">
        <g id="Brunei-Darussalam">
            <mask id="mask-2" fill="white">
                <use xlink:href="#path-1"></use>
            </mask>
            <use id="Rectangle-77" fill="#FFFFFF" xlink:href="#path-1"></use>
            <rect id="Rectangle-119-Copy" fill="#F7E017" mask="url(#mask-2)" x="0" y="0" width="16" height="12"></rect>
            <g id="Group-6" mask="url(#mask-2)">
                <g transform="translate(8.000000, 6.000000) rotate(21.000000) translate(-8.000000, -6.000000) translate(-4.000000, 4.000000)">
                    <rect id="Rectangle-25" fill="#FFFFFF" x="0" y="-2.96e-14" width="24" height="2"></rect>
                    <rect id="Rectangle-25-Copy" fill="#000000" x="0" y="2" width="24" height="2"></rect>
                </g>
            </g>
            <circle id="Oval-32" stroke="#CF1126" mask="url(#mask-2)" cx="8" cy="6" r="2.5"></circle>
            <path d="M9.97160319,8.95201068 C8.72115941,10.0390049 6.82629155,9.9065028 5.73929736,8.65605903 L6.49400694,8 C7.21866974,8.83362918 8.48191498,8.9219639 9.31554416,8.1973011 C9.38497291,8.13694761 9.44956968,8.07265257 9.5091969,8.00473019 L10.2607026,8.66445675 C10.1721293,8.76535217 10.0757432,8.86148312 9.97160319,8.95201068 Z" id="Oval-32-Copy" fill="#CF1126" fill-rule="nonzero" mask="url(#mask-2)"></path>
            <rect id="Rectangle-26" fill="#CF1126" mask="url(#mask-2)" x="4" y="4" width="1" height="3"></rect>
            <rect id="Rectangle-26-Copy-2" fill="#CF1126" mask="url(#mask-2)" x="7.5" y="2" width="1" height="5"></rect>
            <rect id="Rectangle-26-Copy" fill="#CF1126" mask="url(#mask-2)" x="11" y="4" width="1" height="3"></rect>
            <g id="Overlay" mask="url(#mask-2)" opacity="0" stroke="#000000" stroke-opacity="0.503742351">
                <g>
                    <rect style="mix-blend-mode: multiply;" x="0.5" y="0.5" width="15" height="11"></rect>
                </g>
            </g>
        </g>
    </g>
</svg>