<?xml version="1.0" encoding="UTF-8"?>
<svg width="16px" height="12px" viewBox="0 0 16 12" version="1.1" xmlns="http://www.w3.org/2000/svg" xmlns:xlink="http://www.w3.org/1999/xlink">
    <title>BT</title>
    <defs>
        <rect id="path-1" x="0" y="0" width="16" height="12"></rect>
    </defs>
    <g id="BT" stroke="none" stroke-width="1" fill="none" fill-rule="evenodd">
        <g id="Bhutan">
            <mask id="mask-2" fill="white">
                <use xlink:href="#path-1"></use>
            </mask>
            <use id="Rectangle-77" fill="#FFFFFF" xlink:href="#path-1"></use>
            <rect id="Rectangle-119-Copy" fill="#FFD520" mask="url(#mask-2)" x="0" y="0" width="16" height="12"></rect>
            <polygon id="Rectangle-119-Copy-85" fill="#FF4E12" mask="url(#mask-2)" points="16 0 16 12 0 12"></polygon>
            <path d="M9.74084173,1.13756026 C10.4022255,0.984933235 11.5833245,1.20365526 13.3793934,1.77314054 L13.3793934,1.77314054 L13.0771496,2.72637118 C11.634311,2.26888578 10.6287784,2.06180328 10.1277742,2.09059605 C10.1291421,2.12697783 10.1324865,2.17020315 10.1383325,2.21950586 C10.1643467,2.438897 10.2147906,2.66289777 10.3425455,3.13723571 C11.4894031,3.21990105 12.2164846,3.21781153 12.2967789,3.17766433 L12.2967789,3.17766433 L12.7439925,4.07209153 C12.453253,4.21746128 11.8037306,4.23551374 10.6154138,4.16077935 C10.8633424,5.1737883 10.8362794,5.55366192 10.415619,5.89019026 C10.2991805,5.98334108 10.1682555,6.05165825 10.0073019,6.09939233 C9.93805106,6.17182878 9.88321839,6.2370142 9.84127293,6.29404765 C9.8602161,6.30101032 9.88152755,6.30899415 9.90508885,6.31728423 C10.159526,6.40680841 10.5444805,6.50304704 11.054093,6.60297105 L11.054093,6.60297105 L10.8616785,7.5842848 C9.53831674,7.3248021 8.94922294,7.11752836 8.79604409,6.65799181 C8.74304659,6.49899929 8.74043159,6.34228269 8.78296867,6.18289612 C8.53640275,6.1737384 8.25115032,6.15629192 7.92236793,6.13278906 C7.82827054,6.12601921 7.82827054,6.12601921 7.73474622,6.11919055 C6.64863275,6.03980741 6.14098625,6.03712644 6.06812158,6.08570288 C6.00297093,6.12913665 5.94381084,6.25254989 5.85575809,6.59037229 C5.84739907,6.62244242 5.7712211,6.92503385 5.744572,7.02499522 C5.69348396,7.21662759 5.64300406,7.38434966 5.58363894,7.55287261 C5.51612158,7.74453777 5.43933513,7.92983818 5.35073623,8.11101136 C5.64452549,9.13584177 5.71242394,9.82875647 5.50472731,10.2738207 L5.50472731,10.2738207 L4.59854417,9.8509352 C4.639134,9.76395699 4.63950543,9.56142785 4.59096747,9.25804699 C4.00503293,9.9636977 3.44360553,10.3097366 2.862027,10.246859 L2.862027,10.246859 L2.96951597,9.25265272 C3.19234602,9.27674407 3.60561573,8.95884429 4.13204911,8.21175235 C4.52466057,7.65457481 4.60272999,7.43295496 4.88808848,6.3381511 C5.03534736,5.77317901 5.17682064,5.47805309 5.51342139,5.25365259 C5.88356637,5.00688927 6.26209678,5.00888835 7.80764095,5.12185091 C7.90075156,5.1286493 7.90075156,5.1286493 7.99367054,5.13533433 C9.08052338,5.21302752 9.68275353,5.1958578 9.79092396,5.10932145 C9.7791906,5.11870814 9.70963811,4.61127901 9.46583179,3.72318991 L9.46583179,3.72318991 L9.4542054,3.68086037 C9.25366361,2.95097836 9.18433002,2.66650724 9.1452892,2.33725528 C9.07216503,1.72056034 9.20076907,1.26219241 9.74084173,1.13756026 Z" id="Combined-Shape" fill="#FFFFFF" fill-rule="nonzero" mask="url(#mask-2)"></path>
            <g id="Overlay" mask="url(#mask-2)" opacity="0" stroke="#000000" stroke-opacity="0.503742351">
                <g>
                    <rect style="mix-blend-mode: multiply;" x="0.5" y="0.5" width="15" height="11"></rect>
                </g>
            </g>
        </g>
    </g>
</svg>