<?xml version="1.0" encoding="UTF-8"?>
<svg width="16px" height="12px" viewBox="0 0 16 12" version="1.1" xmlns="http://www.w3.org/2000/svg" xmlns:xlink="http://www.w3.org/1999/xlink">
    <title>CA-AB</title>
    <defs>
        <rect id="path-1" x="0" y="0" width="16" height="12"></rect>
    </defs>
    <g id="CA-AB" stroke="none" stroke-width="1" fill="none" fill-rule="evenodd">
        <g id="Alberta">
            <mask id="mask-2" fill="white">
                <use xlink:href="#path-1"></use>
            </mask>
            <use id="Rectangle-77" fill="#0D3692" xlink:href="#path-1"></use>
            <g id="Group-26" mask="url(#mask-2)">
                <g transform="translate(6.000000, 3.000000)">
                    <polygon id="Rectangle-119-Copy-7" fill="#FFFFFF" points="0 0 4 0 4 4 2 6 0 4"></polygon>
                    <g id="England-Symbol" fill="none">
                        <rect id="Rectangle-77" fill="#FFFFFF" x="0" y="0" width="4" height="1"></rect>
                        <polygon id="Rectangle-112" fill="#CE1124" points="2.25 0.416666667 4 0.416666667 4 0.583333333 2.25 0.583333333 2.25 1 1.75 1 1.75 0.583333333 0 0.583333333 0 0.416666667 1.75 0.416666667 1.75 0 2.25 0"></polygon>
                    </g>
                    <polygon id="Rectangle-119-Copy-8" fill="#FEBA35" points="4 4 2 6 0 4"></polygon>
                    <rect id="Rectangle-506-Copy-3" fill="#BDBDBD" x="0" y="3" width="4" height="1"></rect>
                    <rect id="Rectangle-506-Copy-10" fill="#0D6826" x="0" y="2" width="4" height="1"></rect>
                    <rect id="Rectangle-506-Copy-11" fill="#0D3692" x="0" y="1" width="4" height="1"></rect>
                </g>
            </g>
            <g id="Overlay" mask="url(#mask-2)" opacity="0" stroke="#000000" stroke-opacity="0.503742351">
                <g>
                    <rect style="mix-blend-mode: multiply;" x="0.5" y="0.5" width="15" height="11"></rect>
                </g>
            </g>
        </g>
    </g>
</svg>