<?xml version="1.0" encoding="UTF-8"?>
<svg width="16px" height="12px" viewBox="0 0 16 12" version="1.1" xmlns="http://www.w3.org/2000/svg" xmlns:xlink="http://www.w3.org/1999/xlink">
    <title>CX</title>
    <defs>
        <rect id="path-1" x="0" y="0" width="16" height="12"></rect>
    </defs>
    <g id="CX" stroke="none" stroke-width="1" fill="none" fill-rule="evenodd">
        <g id="Christmas-Island-">
            <mask id="mask-2" fill="white">
                <use xlink:href="#path-1"></use>
            </mask>
            <use id="Rectangle-77" fill="#FFFFFF" xlink:href="#path-1"></use>
            <rect id="Rectangle-119-Copy" fill="#0021AD" mask="url(#mask-2)" x="0" y="0" width="16" height="12"></rect>
            <rect id="Rectangle-28-Copy" fill="#FFFFFF" mask="url(#mask-2)" x="2" y="5" width="1" height="1"></rect>
            <rect id="Rectangle-28-Copy-4" fill="#FFFFFF" mask="url(#mask-2)" x="1" y="7" width="1" height="1"></rect>
            <rect id="Rectangle-28-Copy-5" fill="#FFFFFF" mask="url(#mask-2)" x="4" y="7" width="1" height="1"></rect>
            <rect id="Rectangle-28-Copy-7" fill="#FFFFFF" mask="url(#mask-2)" x="3" y="8" width="1" height="1"></rect>
            <rect id="Rectangle-28-Copy-6" fill="#FFFFFF" mask="url(#mask-2)" x="2" y="10" width="1" height="1"></rect>
            <polygon id="Rectangle-119-Copy-86" fill="#1C8A42" mask="url(#mask-2)" points="0 0 16 0 16 12"></polygon>
            <path d="M13.2498886,3.80871143 C12.3170337,4.41326791 11.3458228,4.87498075 10.8604805,4.87498075 L10.8604805,5.87498075 C12.0590607,5.87498075 14.6701005,4.28974081 15.8404805,2.97297601 L15.0927462,2.3087412 C14.9574074,2.46100745 14.7968147,2.61911062 14.6181612,2.77867539 C14.493134,1.64363025 14.1445279,0.720401425 13.5420936,0.400515688 L13.0728835,1.28367239 C13.2825197,1.3949868 13.4815918,1.95019029 13.5888938,2.66940277 C12.8943007,1.85342961 12.7768479,1.75900817 12.3492281,1.65213328 L12.1066242,2.62227578 C12.2501957,2.65815854 12.3859128,2.79592355 13.008449,3.53121737 C13.0949091,3.63333762 13.1745374,3.72510736 13.2498886,3.80871143 Z" id="Combined-Shape" fill="#FFC639" fill-rule="nonzero" mask="url(#mask-2)"></path>
            <circle id="Oval-34" fill="#FFC639" mask="url(#mask-2)" cx="8" cy="6" r="2"></circle>
            <g id="Overlay" mask="url(#mask-2)" opacity="0" stroke="#000000" stroke-opacity="0.503742351">
                <g>
                    <rect style="mix-blend-mode: multiply;" x="0.5" y="0.5" width="15" height="11"></rect>
                </g>
            </g>
        </g>
    </g>
</svg>