<?xml version="1.0" encoding="UTF-8"?>
<svg width="16px" height="12px" viewBox="0 0 16 12" version="1.1" xmlns="http://www.w3.org/2000/svg" xmlns:xlink="http://www.w3.org/1999/xlink">
    <title>FK</title>
    <defs>
        <rect id="path-1" x="0" y="0" width="16" height="12"></rect>
        <rect id="path-3" x="0" y="0" width="8" height="6"></rect>
        <polygon id="path-5" points="1 0 5 0 5 4 3 6 1 4"></polygon>
        <linearGradient x1="0%" y1="70.7763672%" x2="100%" y2="70.7763672%" id="linearGradient-7">
            <stop stop-color="#E7C3A3" offset="0%"></stop>
            <stop stop-color="#A43907" offset="100%"></stop>
        </linearGradient>
    </defs>
    <g id="FK" stroke="none" stroke-width="1" fill="none" fill-rule="evenodd">
        <g id="Falkland-Islands">
            <mask id="mask-2" fill="white">
                <use xlink:href="#path-1"></use>
            </mask>
            <use id="Rectangle-77" fill="#FFFFFF" xlink:href="#path-1"></use>
            <rect id="Rectangle-119-Copy" fill="#00247D" mask="url(#mask-2)" x="0" y="0" width="16" height="12"></rect>
            <g id="GB-Symbol" mask="url(#mask-2)">
                <g id="UK">
                    <mask id="mask-4" fill="white">
                        <use xlink:href="#path-3"></use>
                    </mask>
                    <use id="Rectangle-77" fill="#FFFFFF" xlink:href="#path-3"></use>
                    <g id="St-Andrew" mask="url(#mask-4)">
                        <g transform="translate(-1.000000, -1.000000)">
                            <rect id="Rectangle-77" fill="#00247D" x="1" y="1" width="8" height="6"></rect>
                            <polygon id="Rectangle-3" fill="#FFFFFF" transform="translate(4.925570, 3.865111) rotate(36.000000) translate(-4.925570, -3.865111) " points="-0.61786254 3.11511086 10.4690033 3.11511086 10.4690033 4.61511086 -0.61786254 4.61511086"></polygon>
                            <polygon id="Rectangle-3-Copy" fill="#FFFFFF" transform="translate(4.925570, 3.865111) scale(-1, 1) rotate(36.000000) translate(-4.925570, -3.865111) " points="-0.61786254 3.11511086 10.4690033 3.11511086 10.4690033 4.61511086 -0.61786254 4.61511086"></polygon>
                        </g>
                    </g>
                    <g id="St-Patrick" mask="url(#mask-4)">
                        <g transform="translate(-1.000000, -3.000000)">
                            <g id="Group-2" transform="translate(0.500000, 2.500000)">
                                <polygon id="Rectangle-2" fill="#CF142B" transform="translate(2.216811, 2.056099) rotate(36.000000) translate(-2.216811, -2.056099) " points="-0.341682342 1.80609861 4.77530337 1.80609861 4.77530337 2.30609861 -0.341682342 2.30609861"></polygon>
                                <polygon id="Rectangle-2-Copy" fill="#CF142B" transform="translate(6.716811, 4.856099) rotate(36.000000) translate(-6.716811, -4.856099) " points="4.15831766 4.60609871 9.27530337 4.60609871 9.27530337 5.10609871 4.15831766 5.10609871"></polygon>
                            </g>
                            <g id="Group-2-Copy" transform="translate(5.077254, 5.762236) rotate(-72.000000) translate(-5.077254, -5.762236) translate(0.327254, 2.262236)">
                                <polygon id="Rectangle-2-Copy" fill="#CF142B" transform="translate(6.895677, 4.831826) rotate(36.000000) translate(-6.895677, -4.831826) " points="4.1210618 4.58182621 9.67029292 4.58182621 9.67029292 5.08182621 4.1210618 5.08182621"></polygon>
                                <polygon id="Rectangle-2" fill="#CF142B" transform="translate(2.516875, 2.108602) rotate(36.000000) translate(-2.516875, -2.108602) " points="-0.0416182034 1.85860187 5.07536751 1.85860187 5.07536751 2.35860187 -0.0416182034 2.35860187"></polygon>
                            </g>
                        </g>
                    </g>
                    <g id="St-George" mask="url(#mask-4)">
                        <path d="M5,0 L5,2 L8,2 L8,4 L5,4 L5,6 L3,6 L3,4 L0,4 L0,2 L3,2 L3,0 L5,0 Z" id="Combined-Shape" fill="#FFFFFF"></path>
                        <polygon id="Rectangle-112" fill="#CF142B" points="8 2.5 8 3.5 4.5 3.5 4.5 6 3.5 6 3.5 3.5 0 3.5 0 2.5 3.5 2.5 3.5 0 4.5 0 4.5 2.5"></polygon>
                    </g>
                </g>
            </g>
            <g id="Group-20" mask="url(#mask-2)">
                <g transform="translate(9.000000, 3.000000)">
                    <mask id="mask-6" fill="white">
                        <use xlink:href="#path-5"></use>
                    </mask>
                    <use id="Rectangle-119-Copy-7" stroke="none" fill="#0072C4" fill-rule="evenodd" xlink:href="#path-5"></use>
                    <path d="M4.5,4 C4.83481687,4 4.97467201,4.13296711 5.47587226,4.73379105 C5.76559187,5.0810983 5.92098768,5.21639921 6,5.21639921 L6,5.21639921 L6,6 C5.63415938,6 5.39999071,5.79611268 4.95795127,5.26620895 C4.65584269,4.90405018 4.52915372,4.78360079 4.5,4.78360079 C4.46383353,4.78360079 4.30715498,4.92116872 4.02172498,5.24706328 C4.01040639,5.25999 4.01040639,5.25999 3.99903408,5.27298642 C3.50191016,5.84113395 3.32593149,6 3,6 L3,6 L2.90323478,5.99485318 C2.58986532,5.96023523 2.35980531,5.74793961 1.95795127,5.26620895 C1.65584269,4.90405018 1.52915372,4.78360079 1.5,4.78360079 C1.46383353,4.78360079 1.30715498,4.92116872 1.02172498,5.24706328 C1.01040639,5.25999 1.01040639,5.25999 0.999034078,5.27298642 C0.501910157,5.84113395 0.325931485,6 0,6 L0,6 L0,5.21639921 C0.0320648385,5.21639921 0.186380642,5.07708948 0.492693863,4.72701358 C0.504129929,4.7139443 0.504129929,4.7139443 0.515621957,4.70081951 C0.974665166,4.17669909 1.17591089,4 1.5,4 C1.83481687,4 1.97467201,4.13296711 2.47587226,4.73379105 C2.76559187,5.0810983 2.92098768,5.21639921 3,5.21639921 C3.03206484,5.21639921 3.18638064,5.07708948 3.49269386,4.72701358 C3.50412993,4.7139443 3.50412993,4.7139443 3.51562196,4.70081951 C3.97466517,4.17669909 4.17591089,4 4.5,4 Z M2.90323478,3.99485318 C2.58986532,3.96023523 2.35980531,3.74793961 1.95795127,3.26620895 C1.65584269,2.90405018 1.52915372,2.78360079 1.5,2.78360079 C1.46383353,2.78360079 1.30715498,2.92116872 1.02172498,3.24706328 C1.01040639,3.25999 1.01040639,3.25999 0.999034078,3.27298642 C0.501910157,3.84113395 0.325931485,4 0,4 L0,4 L0,3.21639921 C0.0320648385,3.21639921 0.186380642,3.07708948 0.492693863,2.72701358 C0.504129929,2.7139443 0.504129929,2.7139443 0.515621957,2.70081951 C0.974665166,2.17669909 1.17591089,2 1.5,2 C1.83481687,2 1.97467201,2.13296711 2.47587226,2.73379105 C2.76559187,3.0810983 2.92098768,3.21639921 3,3.21639921 C3.03206484,3.21639921 3.18638064,3.07708948 3.49269386,2.72701358 C3.50412993,2.7139443 3.50412993,2.7139443 3.51562196,2.70081951 C3.97466517,2.17669909 4.17591089,2 4.5,2 C4.83481687,2 4.97467201,2.13296711 5.47587226,2.73379105 C5.76559187,3.0810983 5.92098768,3.21639921 6,3.21639921 L6,3.21639921 L6,4 C5.63415938,4 5.39999071,3.79611268 4.95795127,3.26620895 C4.65584269,2.90405018 4.52915372,2.78360079 4.5,2.78360079 C4.46383353,2.78360079 4.30715498,2.92116872 4.02172498,3.24706328 C4.01040639,3.25999 4.01040639,3.25999 3.99903408,3.27298642 C3.50191016,3.84113395 3.32593149,4 3,4 L3,4 Z" id="waves-white" stroke="none" fill="#FFFFFF" fill-rule="nonzero" mask="url(#mask-6)"></path>
                </g>
            </g>
            <path d="M12,9 C13.1045695,9 14,8.1045695 14,7 L15,7 C15,8.65685425 13.6568542,10 12,10 C10.3431458,10 9,8.65685425 9,7 L9,7 L10,7 C10,8.1045695 10.8954305,9 12,9 Z" id="Combined-Shape" fill="url(#linearGradient-7)" fill-rule="nonzero" mask="url(#mask-2)"></path>
            <rect id="Rectangle-155" fill="#FFFFFF" mask="url(#mask-2)" x="11" y="4" width="2" height="1" rx="0.5"></rect>
            <g id="Overlay" mask="url(#mask-2)" opacity="0" stroke="#000000" stroke-opacity="0.503742351">
                <g>
                    <rect style="mix-blend-mode: multiply;" x="0.5" y="0.5" width="15" height="11"></rect>
                </g>
            </g>
        </g>
    </g>
</svg>