<?xml version="1.0" encoding="UTF-8"?>
<svg width="16px" height="12px" viewBox="0 0 16 12" version="1.1" xmlns="http://www.w3.org/2000/svg" xmlns:xlink="http://www.w3.org/1999/xlink">
    <title>FM</title>
    <defs>
        <rect id="path-1" x="0" y="0" width="16" height="12"></rect>
    </defs>
    <g id="FM" stroke="none" stroke-width="1" fill="none" fill-rule="evenodd">
        <g id="Micronesia,-Federated-States-of">
            <mask id="mask-2" fill="white">
                <use xlink:href="#path-1"></use>
            </mask>
            <use id="Rectangle-77" fill="#FFFFFF" xlink:href="#path-1"></use>
            <rect id="Rectangle-119-Copy" fill="#75B2DD" mask="url(#mask-2)" x="0" y="0" width="16" height="12"></rect>
            <polygon id="Star-2" fill="#FFFFFF" mask="url(#mask-2)" points="8 3.19229876 7.07294902 3.85316955 7.41499998 2.76727137 6.5 2.08981379 7.6384501 2.07956259 8 1 8.3615499 2.07956259 9.5 2.08981379 8.58500002 2.76727137 8.92705098 3.85316955"></polygon>
            <polygon id="Star-2-Copy-4" fill="#FFFFFF" mask="url(#mask-2)" transform="translate(8.000000, 9.576609) rotate(180.000000) translate(-8.000000, -9.576609) " points="8 10.3423232 7.07294902 11.003194 7.41499998 9.91729578 6.5 9.23983821 7.6384501 9.22958701 8 8.15002441 8.3615499 9.22958701 9.5 9.23983821 8.58500002 9.91729578 8.92705098 11.003194"></polygon>
            <polygon id="Star-2-Copy-5" fill="#FFFFFF" mask="url(#mask-2)" transform="translate(4.426585, 6.000000) rotate(270.000000) translate(-4.426585, -6.000000) " points="4.42658477 6.76571399 3.49953379 7.42658477 3.84158475 6.34068659 2.92658477 5.66322902 4.06503488 5.65297782 4.42658477 4.57341523 4.78813467 5.65297782 5.92658477 5.66322902 5.0115848 6.34068659 5.35363576 7.42658477"></polygon>
            <polygon id="Star-2-Copy-6" fill="#FFFFFF" mask="url(#mask-2)" transform="translate(11.576609, 6.000000) rotate(90.000000) translate(-11.576609, -6.000000) " points="11.5766092 6.76571399 10.6495582 7.42658477 10.9916092 6.34068659 10.0766092 5.66322902 11.2150593 5.65297782 11.5766092 4.57341523 11.9381591 5.65297782 13.0766092 5.66322902 12.1616092 6.34068659 12.5036602 7.42658477"></polygon>
            <g id="Overlay" mask="url(#mask-2)" opacity="0" stroke="#000000" stroke-opacity="0.503742351">
                <g>
                    <rect style="mix-blend-mode: multiply;" x="0.5" y="0.5" width="15" height="11"></rect>
                </g>
            </g>
        </g>
    </g>
</svg>