<?xml version="1.0" encoding="UTF-8"?>
<svg width="16px" height="12px" viewBox="0 0 16 12" version="1.1" xmlns="http://www.w3.org/2000/svg" xmlns:xlink="http://www.w3.org/1999/xlink">
    <title>FR-MQ</title>
    <defs>
        <rect id="path-1" x="0" y="0" width="16" height="12"></rect>
    </defs>
    <g id="FR-MQ" stroke="none" stroke-width="1" fill="none" fill-rule="evenodd">
        <g id="Martinique">
            <mask id="mask-2" fill="white">
                <use xlink:href="#path-1"></use>
            </mask>
            <use id="Rectangle-77" fill="#FFFFFF" xlink:href="#path-1"></use>
            <rect id="Rectangle-119-Copy" fill="#19317D" mask="url(#mask-2)" x="0" y="0" width="16" height="12"></rect>
            <path d="M9,0 L9,5 L16,5 L16,7 L9,7 L9,12 L7,12 L7,7 L-1,7 L-1,5 L7,5 L7,0 L9,0 Z" id="Rectangle-119-Copy-21" fill="#FFFFFF" mask="url(#mask-2)"></path>
            <polyline id="Path-64" stroke="#FFFFFF" opacity="0.7" mask="url(#mask-2)" points="11.9104626 1.11787684 13.9999999 1.50490195 11.3683364 2.49226415 13.8965227 3.67057282 11.1121323 3.67057282"></polyline>
            <polyline id="Path-64-Copy" stroke="#FFFFFF" opacity="0.7" mask="url(#mask-2)" points="2.91046262 1.11787684 4.99999994 1.50490195 2.36833638 2.49226415 4.8965227 3.67057282 2.11213234 3.67057282"></polyline>
            <polyline id="Path-64-Copy-2" stroke="#FFFFFF" opacity="0.7" mask="url(#mask-2)" points="2.91046262 8.11787684 4.99999994 8.50490195 2.36833638 9.49226415 4.8965227 10.6705728 2.11213234 10.6705728"></polyline>
            <polyline id="Path-64-Copy-3" stroke="#FFFFFF" opacity="0.7" mask="url(#mask-2)" points="11.9104626 8.11787684 13.9999999 8.50490195 11.3683364 9.49226415 13.8965227 10.6705728 11.1121323 10.6705728"></polyline>
            <g id="Overlay" mask="url(#mask-2)" opacity="0" stroke="#000000" stroke-opacity="0.503742351">
                <g>
                    <rect style="mix-blend-mode: multiply;" x="0.5" y="0.5" width="15" height="11"></rect>
                </g>
            </g>
        </g>
    </g>
</svg>