<?xml version="1.0" encoding="UTF-8"?>
<svg width="16px" height="12px" viewBox="0 0 16 12" version="1.1" xmlns="http://www.w3.org/2000/svg" xmlns:xlink="http://www.w3.org/1999/xlink">
    <title>GD</title>
    <defs>
        <rect id="path-1" x="0" y="0" width="16" height="12"></rect>
    </defs>
    <g id="GD" stroke="none" stroke-width="1" fill="none" fill-rule="evenodd">
        <g id="Grenada">
            <mask id="mask-2" fill="white">
                <use xlink:href="#path-1"></use>
            </mask>
            <use id="Rectangle-77" fill="#FFFFFF" xlink:href="#path-1"></use>
            <rect id="Rectangle-119-Copy" fill="#CE1126" mask="url(#mask-2)" x="0" y="0" width="16" height="12"></rect>
            <rect id="Rectangle-156" fill="#FCD116" mask="url(#mask-2)" x="2" y="2" width="12" height="8"></rect>
            <polygon id="Rectangle-156-Copy" fill="#007A5E" mask="url(#mask-2)" points="2 2 8 6 14 2 14 10 8 6 2 10"></polygon>
            <polygon id="Star-2" fill="#FCD116" mask="url(#mask-2)" points="8 1.46153251 7.38196601 1.90211303 7.60999998 1.17818091 7 0.726542528 7.75896673 0.719708396 8 0 8.24103327 0.719708396 9 0.726542528 8.39000002 1.17818091 8.61803399 1.90211303"></polygon>
            <circle id="Oval-70-Copy-6" fill="#CE1126" mask="url(#mask-2)" cx="8" cy="6" r="1"></circle>
            <circle id="Oval-38" fill="#CE1126" mask="url(#mask-2)" cx="8" cy="6" r="2"></circle>
            <polygon id="Star-2" fill="#FCD116" mask="url(#mask-2)" points="8 6.77691173 6.82573544 7.61401472 7.25899998 6.2385437 6.10000002 5.38043079 7.5420368 5.36744593 8 4 8.4579632 5.36744593 9.89999998 5.38043079 8.74100002 6.2385437 9.17426456 7.61401472"></polygon>
            <polygon id="Star-2" fill="#FCD116" mask="url(#mask-2)" points="8 11.4615325 7.38196601 11.902113 7.60999998 11.1781809 7 10.7265425 7.75896673 10.7197084 8 10 8.24103327 10.7197084 9 10.7265425 8.39000002 11.1781809 8.61803399 11.902113"></polygon>
            <polygon id="Star-2" fill="#FCD116" mask="url(#mask-2)" points="12 1.46153251 11.381966 1.90211303 11.61 1.17818091 11 0.726542528 11.7589667 0.719708396 12 0 12.2410333 0.719708396 13 0.726542528 12.39 1.17818091 12.618034 1.90211303"></polygon>
            <polygon id="Star-2" fill="#FCD116" mask="url(#mask-2)" points="12 11.4615325 11.381966 11.902113 11.61 11.1781809 11 10.7265425 11.7589667 10.7197084 12 10 12.2410333 10.7197084 13 10.7265425 12.39 11.1781809 12.618034 11.902113"></polygon>
            <polygon id="Star-2" fill="#FCD116" mask="url(#mask-2)" points="4 1.46153251 3.38196601 1.90211303 3.60999998 1.17818091 3 0.726542528 3.75896673 0.719708396 4 0 4.24103327 0.719708396 5 0.726542528 4.39000002 1.17818091 4.61803399 1.90211303"></polygon>
            <polygon id="Star-2" fill="#FCD116" mask="url(#mask-2)" points="4 11.4615325 3.38196601 11.902113 3.60999998 11.1781809 3 10.7265425 3.75896673 10.7197084 4 10 4.24103327 10.7197084 5 10.7265425 4.39000002 11.1781809 4.61803399 11.902113"></polygon>
            <circle id="Oval-70" fill="#FCD116" mask="url(#mask-2)" cx="4" cy="6" r="1"></circle>
            <rect id="Rectangle-157" fill="#CE1126" mask="url(#mask-2)" x="4" y="6" width="1" height="1"></rect>
            <g id="Overlay" mask="url(#mask-2)" opacity="0" stroke="#000000" stroke-opacity="0.503742351">
                <g>
                    <rect style="mix-blend-mode: multiply;" x="0.5" y="0.5" width="15" height="11"></rect>
                </g>
            </g>
        </g>
    </g>
</svg>