<?xml version="1.0" encoding="UTF-8"?>
<svg width="16px" height="12px" viewBox="0 0 16 12" version="1.1" xmlns="http://www.w3.org/2000/svg" xmlns:xlink="http://www.w3.org/1999/xlink">
    <title>IL</title>
    <defs>
        <rect id="path-1" x="0" y="0" width="16" height="12"></rect>
    </defs>
    <g id="IL" stroke="none" stroke-width="1" fill="none" fill-rule="evenodd">
        <g id="Israel">
            <mask id="mask-2" fill="white">
                <use xlink:href="#path-1"></use>
            </mask>
            <use id="Rectangle-77" fill="#FFFFFF" xlink:href="#path-1"></use>
            <rect id="Rectangle-119-Copy" fill="#FFFFFF" mask="url(#mask-2)" x="0" y="0" width="16" height="12"></rect>
            <rect id="Rectangle-119-Copy-108" fill="#0038B8" mask="url(#mask-2)" x="0" y="1" width="16" height="2"></rect>
            <rect id="Rectangle-119-Copy-109" fill="#0038B8" mask="url(#mask-2)" x="0" y="9" width="16" height="2"></rect>
            <g id="Star-of-David" mask="url(#mask-2)" fill="#0038B8" fill-rule="nonzero">
                <g transform="translate(5.000000, 3.500000)">
                    <path d="M1.68898789,3.4208494 L4.31101211,3.4208494 L3,1.15560175 L1.68898789,3.4208494 Z M3,0 L5.31500006,4 L0.684999943,4 L3,0 Z" id="Triangle-2"></path>
                    <path d="M1.68808047,4.4208494 L4.31191953,4.4208494 L3,2.15560175 L1.68808047,4.4208494 Z M3,1 L5.31660239,5 L0.683397607,5 L3,1 Z" id="Triangle-2-Copy" transform="translate(3.000000, 3.000000) scale(1, -1) translate(-3.000000, -3.000000) "></path>
                </g>
            </g>
            <g id="Overlay" mask="url(#mask-2)" opacity="0" stroke="#000000" stroke-opacity="0.503742351">
                <g>
                    <rect style="mix-blend-mode: multiply;" x="0.5" y="0.5" width="15" height="11"></rect>
                </g>
            </g>
        </g>
    </g>
</svg>