<?xml version="1.0" encoding="UTF-8"?>
<svg width="16px" height="12px" viewBox="0 0 16 12" version="1.1" xmlns="http://www.w3.org/2000/svg" xmlns:xlink="http://www.w3.org/1999/xlink">
    <title>KI</title>
    <defs>
        <rect id="path-1" x="0" y="0" width="16" height="12"></rect>
    </defs>
    <g id="KI" stroke="none" stroke-width="1" fill="none" fill-rule="evenodd">
        <g id="Kiribati">
            <mask id="mask-2" fill="white">
                <use xlink:href="#path-1"></use>
            </mask>
            <g id="Rectangle-77"></g>
            <rect id="Rectangle-119-Copy-129" fill="#CE1126" mask="url(#mask-2)" x="0" y="0" width="16" height="6"></rect>
            <path d="M0,10.749939 C0.694417318,10.9166463 1.22043864,11 1.57806396,11 C1.68683791,11 2.30225032,10.7692083 3.23431396,10.749939 C3.60096037,10.742359 4.09658533,11.0175257 4.84368896,11 C5.22130681,10.9911417 5.71115694,10.7541288 6.40618896,10.749939 C6.77930147,10.7476897 7.31100615,10.9871162 8,11 C8.37472872,11.0070072 8.93192674,10.7475587 9.64056396,10.749939 C10.0072923,10.7511708 10.4963256,10.9753066 11.203064,11 C11.5599492,11.0124696 12.0859391,10.7491762 12.812439,10.749939 C13.1612752,10.7503052 13.6390868,10.9324127 14.406189,11 C14.69736,11.0256543 15.2286304,10.9423006 16,10.749939 L16,12 L0,12 L0,10.749939 Z" id="Rectangle-56" fill="#00247D" mask="url(#mask-2)"></path>
            <circle id="Oval-55" fill="#FCD116" mask="url(#mask-2)" cx="8" cy="6" r="3"></circle>
            <rect id="Rectangle-57" fill="#FCD116" mask="url(#mask-2)" x="5" y="1" width="6" height="1"></rect>
            <path d="M12.8000244,10 C13.1571624,10 13.3063412,10.1329671 13.8409548,10.7337911 C14.1499891,11.0810983 14.3157446,11.2163992 14.4000244,11.2163992 L14.4000244,11.2163992 L14.4000244,12 C14.0097944,12 13.7600145,11.7961127 13.2885058,11.2662089 C12.9662566,10.9040502 12.8311217,10.7836008 12.8000244,10.7836008 C12.7614468,10.7836008 12.5943231,10.9211687 12.2898644,11.2470633 C12.2777912,11.25999 12.2777912,11.25999 12.2656608,11.2729864 C11.7353952,11.841134 11.5476847,12 11.2000244,12 L11.2000244,12 L11.0968082,11.9948532 C10.7625474,11.9602352 10.5171501,11.7479396 10.0885058,11.2662089 C9.76625662,10.9040502 9.63112171,10.7836008 9.60002441,10.7836008 C9.56144684,10.7836008 9.39432306,10.9211687 9.08986439,11.2470633 C9.07779123,11.25999 9.07779123,11.25999 9.06566076,11.2729864 C8.53539525,11.841134 8.34768466,12 8.00002441,12 L8.00002441,12 L7.89680817,11.9948532 C7.56254742,11.9602352 7.31715007,11.7479396 6.88850576,11.2662089 C6.56625662,10.9040502 6.43112171,10.7836008 6.40002441,10.7836008 C6.36144684,10.7836008 6.19432306,10.9211687 5.88986439,11.2470633 C5.87779123,11.25999 5.87779123,11.25999 5.86566076,11.2729864 C5.33539525,11.841134 5.14768466,12 4.80002441,12 L4.80002441,12 L4.69680817,11.9948532 C4.36254742,11.9602352 4.11715007,11.7479396 3.68850576,11.2662089 C3.36625662,10.9040502 3.23112171,10.7836008 3.20002441,10.7836008 C3.16144684,10.7836008 2.99432306,10.9211687 2.68986439,11.2470633 C2.67779123,11.25999 2.67779123,11.25999 2.66566076,11.2729864 C2.13539525,11.841134 1.94768466,12 1.60002441,12 L1.60002441,12 L1.49680817,11.9948532 C1.16254742,11.9602352 0.917150073,11.7479396 0.488505765,11.2662089 C0.16625662,10.9040502 0.0311217123,10.7836008 2.44140625e-05,10.7836008 C-0.0385531561,10.7836008 -0.205676943,10.9211687 -0.510135605,11.2470633 C-0.522208774,11.25999 -0.522208774,11.25999 -0.534339236,11.2729864 C-1.06460475,11.841134 -1.25231534,12 -1.59997559,12 L-1.59997559,12 L-1.59997559,11.2163992 C-1.56577309,11.2163992 -1.40116957,11.0770895 -1.07443547,10.7270136 C-1.062237,10.7139443 -1.062237,10.7139443 -1.04997883,10.7008195 C-0.560332742,10.1766991 -0.345670638,10 2.44140625e-05,10 C0.35716241,10 0.506341228,10.1329671 1.04095483,10.7337911 C1.34998908,11.0810983 1.51574461,11.2163992 1.60002441,11.2163992 C1.63422691,11.2163992 1.79883043,11.0770895 2.12556453,10.7270136 C2.137763,10.7139443 2.137763,10.7139443 2.15002117,10.7008195 C2.63966726,10.1766991 2.85432936,10 3.20002441,10 C3.55716241,10 3.70634123,10.1329671 4.24095483,10.7337911 C4.54998908,11.0810983 4.71574461,11.2163992 4.80002441,11.2163992 C4.83422691,11.2163992 4.99883043,11.0770895 5.32556453,10.7270136 C5.337763,10.7139443 5.337763,10.7139443 5.35002117,10.7008195 C5.83966726,10.1766991 6.05432936,10 6.40002441,10 C6.75716241,10 6.90634123,10.1329671 7.44095483,10.7337911 C7.74998908,11.0810983 7.91574461,11.2163992 8.00002441,11.2163992 C8.03422691,11.2163992 8.19883043,11.0770895 8.52556453,10.7270136 C8.537763,10.7139443 8.537763,10.7139443 8.55002117,10.7008195 C9.03966726,10.1766991 9.25432936,10 9.60002441,10 C9.95716241,10 10.1063412,10.1329671 10.6409548,10.7337911 C10.9499891,11.0810983 11.1157446,11.2163992 11.2000244,11.2163992 C11.2342269,11.2163992 11.3988304,11.0770895 11.7255645,10.7270136 C11.737763,10.7139443 11.737763,10.7139443 11.7500212,10.7008195 C12.2396673,10.1766991 12.4543294,10 12.8000244,10 Z M16.0000244,10 C16.3571624,10 16.5063412,10.1329671 17.0409548,10.7337911 C17.3499891,11.0810983 17.5157446,11.2163992 17.6000244,11.2163992 L17.6000244,11.2163992 L17.6000244,12 C17.2097944,12 16.9600145,11.7961127 16.4885058,11.2662089 C16.1662566,10.9040502 16.0311217,10.7836008 16.0000244,10.7836008 C15.9614468,10.7836008 15.7943231,10.9211687 15.4898644,11.2470633 C15.4777912,11.25999 15.4777912,11.25999 15.4656608,11.2729864 C14.9353952,11.841134 14.7476847,12 14.4000244,12 L14.4000244,12 L14.4000244,11.2163992 C14.4342269,11.2163992 14.5988304,11.0770895 14.9255645,10.7270136 C14.937763,10.7139443 14.937763,10.7139443 14.9500212,10.7008195 C15.4396673,10.1766991 15.6543294,10 16.0000244,10 Z M12.8000244,8 C13.1571624,8 13.3063412,8.13296711 13.8409548,8.73379105 C14.1499891,9.0810983 14.3157446,9.21639921 14.4000244,9.21639921 L14.4000244,9.21639921 L14.4000244,10 C14.0097944,10 13.7600145,9.79611268 13.2885058,9.26620895 C12.9662566,8.90405018 12.8311217,8.78360079 12.8000244,8.78360079 C12.7614468,8.78360079 12.5943231,8.92116872 12.2898644,9.24706328 C12.2777912,9.25999 12.2777912,9.25999 12.2656608,9.27298642 C11.7353952,9.84113395 11.5476847,10 11.2000244,10 L11.2000244,10 L11.0968082,9.99485318 C10.7625474,9.96023523 10.5171501,9.74793961 10.0885058,9.26620895 C9.76625662,8.90405018 9.63112171,8.78360079 9.60002441,8.78360079 C9.56144684,8.78360079 9.39432306,8.92116872 9.08986439,9.24706328 C9.07779123,9.25999 9.07779123,9.25999 9.06566076,9.27298642 C8.53539525,9.84113395 8.34768466,10 8.00002441,10 L8.00002441,10 L7.89680817,9.99485318 C7.56254742,9.96023523 7.31715007,9.74793961 6.88850576,9.26620895 C6.56625662,8.90405018 6.43112171,8.78360079 6.40002441,8.78360079 C6.36144684,8.78360079 6.19432306,8.92116872 5.88986439,9.24706328 C5.87779123,9.25999 5.87779123,9.25999 5.86566076,9.27298642 C5.33539525,9.84113395 5.14768466,10 4.80002441,10 L4.80002441,10 L4.69680817,9.99485318 C4.36254742,9.96023523 4.11715007,9.74793961 3.68850576,9.26620895 C3.36625662,8.90405018 3.23112171,8.78360079 3.20002441,8.78360079 C3.16144684,8.78360079 2.99432306,8.92116872 2.68986439,9.24706328 C2.67779123,9.25999 2.67779123,9.25999 2.66566076,9.27298642 C2.13539525,9.84113395 1.94768466,10 1.60002441,10 L1.60002441,10 L1.49680817,9.99485318 C1.16254742,9.96023523 0.917150073,9.74793961 0.488505765,9.26620895 C0.16625662,8.90405018 0.0311217123,8.78360079 2.44140625e-05,8.78360079 C-0.0385531561,8.78360079 -0.205676943,8.92116872 -0.510135605,9.24706328 C-0.522208774,9.25999 -0.522208774,9.25999 -0.534339236,9.27298642 C-1.06460475,9.84113395 -1.25231534,10 -1.59997559,10 L-1.59997559,10 L-1.59997559,9.21639921 C-1.56577309,9.21639921 -1.40116957,9.07708948 -1.07443547,8.72701358 C-1.062237,8.7139443 -1.062237,8.7139443 -1.04997883,8.70081951 C-0.560332742,8.17669909 -0.345670638,8 2.44140625e-05,8 C0.35716241,8 0.506341228,8.13296711 1.04095483,8.73379105 C1.34998908,9.0810983 1.51574461,9.21639921 1.60002441,9.21639921 C1.63422691,9.21639921 1.79883043,9.07708948 2.12556453,8.72701358 C2.137763,8.7139443 2.137763,8.7139443 2.15002117,8.70081951 C2.63966726,8.17669909 2.85432936,8 3.20002441,8 C3.55716241,8 3.70634123,8.13296711 4.24095483,8.73379105 C4.54998908,9.0810983 4.71574461,9.21639921 4.80002441,9.21639921 C4.83422691,9.21639921 4.99883043,9.07708948 5.32556453,8.72701358 C5.337763,8.7139443 5.337763,8.7139443 5.35002117,8.70081951 C5.83966726,8.17669909 6.05432936,8 6.40002441,8 C6.75716241,8 6.90634123,8.13296711 7.44095483,8.73379105 C7.74998908,9.0810983 7.91574461,9.21639921 8.00002441,9.21639921 C8.03422691,9.21639921 8.19883043,9.07708948 8.52556453,8.72701358 C8.537763,8.7139443 8.537763,8.7139443 8.55002117,8.70081951 C9.03966726,8.17669909 9.25432936,8 9.60002441,8 C9.95716241,8 10.1063412,8.13296711 10.6409548,8.73379105 C10.9499891,9.0810983 11.1157446,9.21639921 11.2000244,9.21639921 C11.2342269,9.21639921 11.3988304,9.07708948 11.7255645,8.72701358 C11.737763,8.7139443 11.737763,8.7139443 11.7500212,8.70081951 C12.2396673,8.17669909 12.4543294,8 12.8000244,8 Z M16.0000244,8 C16.3571624,8 16.5063412,8.13296711 17.0409548,8.73379105 C17.3499891,9.0810983 17.5157446,9.21639921 17.6000244,9.21639921 L17.6000244,9.21639921 L17.6000244,10 C17.2097944,10 16.9600145,9.79611268 16.4885058,9.26620895 C16.1662566,8.90405018 16.0311217,8.78360079 16.0000244,8.78360079 C15.9614468,8.78360079 15.7943231,8.92116872 15.4898644,9.24706328 C15.4777912,9.25999 15.4777912,9.25999 15.4656608,9.27298642 C14.9353952,9.84113395 14.7476847,10 14.4000244,10 L14.4000244,10 L14.4000244,9.21639921 C14.4342269,9.21639921 14.5988304,9.07708948 14.9255645,8.72701358 C14.937763,8.7139443 14.937763,8.7139443 14.9500212,8.70081951 C15.4396673,8.17669909 15.6543294,8 16.0000244,8 Z M1.49680817,7.99485318 C1.16254742,7.96023523 0.917150073,7.74793961 0.488505765,7.26620895 C0.16625662,6.90405018 0.0311217123,6.78360079 2.44140625e-05,6.78360079 C-0.0385531561,6.78360079 -0.205676943,6.92116872 -0.510135605,7.24706328 C-0.522208774,7.25999 -0.522208774,7.25999 -0.534339236,7.27298642 C-1.06460475,7.84113395 -1.25231534,8 -1.59997559,8 L-1.59997559,8 L-1.59997559,7.21639921 C-1.56577309,7.21639921 -1.40116957,7.07708948 -1.07443547,6.72701358 C-1.062237,6.7139443 -1.062237,6.7139443 -1.04997883,6.70081951 C-0.560332742,6.17669909 -0.345670638,6 2.44140625e-05,6 C0.35716241,6 0.506341228,6.13296711 1.04095483,6.73379105 C1.34998908,7.0810983 1.51574461,7.21639921 1.60002441,7.21639921 C1.63422691,7.21639921 1.79883043,7.07708948 2.12556453,6.72701358 C2.137763,6.7139443 2.137763,6.7139443 2.15002117,6.70081951 C2.63966726,6.17669909 2.85432936,6 3.20002441,6 C3.55716241,6 3.70634123,6.13296711 4.24095483,6.73379105 C4.54998908,7.0810983 4.71574461,7.21639921 4.80002441,7.21639921 C4.83422691,7.21639921 4.99883043,7.07708948 5.32556453,6.72701358 C5.337763,6.7139443 5.337763,6.7139443 5.35002117,6.70081951 C5.83966726,6.17669909 6.05432936,6 6.40002441,6 C6.75716241,6 6.90634123,6.13296711 7.44095483,6.73379105 C7.74998908,7.0810983 7.91574461,7.21639921 8.00002441,7.21639921 C8.03422691,7.21639921 8.19883043,7.07708948 8.52556453,6.72701358 C8.537763,6.7139443 8.537763,6.7139443 8.55002117,6.70081951 C9.03966726,6.17669909 9.25432936,6 9.60002441,6 C9.95716241,6 10.1063412,6.13296711 10.6409548,6.73379105 C10.9499891,7.0810983 11.1157446,7.21639921 11.2000244,7.21639921 C11.2342269,7.21639921 11.3988304,7.07708948 11.7255645,6.72701358 C11.737763,6.7139443 11.737763,6.7139443 11.7500212,6.70081951 C12.2396673,6.17669909 12.4543294,6 12.8000244,6 C13.1571624,6 13.3063412,6.13296711 13.8409548,6.73379105 C14.1499891,7.0810983 14.3157446,7.21639921 14.4000244,7.21639921 L14.4000244,7.21639921 L14.4000244,8 C14.0097944,8 13.7600145,7.79611268 13.2885058,7.26620895 C12.9662566,6.90405018 12.8311217,6.78360079 12.8000244,6.78360079 C12.7614468,6.78360079 12.5943231,6.92116872 12.2898644,7.24706328 C12.2777912,7.25999 12.2777912,7.25999 12.2656608,7.27298642 C11.7353952,7.84113395 11.5476847,8 11.2000244,8 L11.2000244,8 L11.0968082,7.99485318 C10.7625474,7.96023523 10.5171501,7.74793961 10.0885058,7.26620895 C9.76625662,6.90405018 9.63112171,6.78360079 9.60002441,6.78360079 C9.56144684,6.78360079 9.39432306,6.92116872 9.08986439,7.24706328 C9.07779123,7.25999 9.07779123,7.25999 9.06566076,7.27298642 C8.53539525,7.84113395 8.34768466,8 8.00002441,8 L8.00002441,8 L7.89680817,7.99485318 C7.56254742,7.96023523 7.31715007,7.74793961 6.88850576,7.26620895 C6.56625662,6.90405018 6.43112171,6.78360079 6.40002441,6.78360079 C6.36144684,6.78360079 6.19432306,6.92116872 5.88986439,7.24706328 C5.87779123,7.25999 5.87779123,7.25999 5.86566076,7.27298642 C5.33539525,7.84113395 5.14768466,8 4.80002441,8 L4.80002441,8 L4.69680817,7.99485318 C4.36254742,7.96023523 4.11715007,7.74793961 3.68850576,7.26620895 C3.36625662,6.90405018 3.23112171,6.78360079 3.20002441,6.78360079 C3.16144684,6.78360079 2.99432306,6.92116872 2.68986439,7.24706328 C2.67779123,7.25999 2.67779123,7.25999 2.66566076,7.27298642 C2.13539525,7.84113395 1.94768466,8 1.60002441,8 L1.60002441,8 Z M16.0000244,6 C16.3571624,6 16.5063412,6.13296711 17.0409548,6.73379105 C17.3499891,7.0810983 17.5157446,7.21639921 17.6000244,7.21639921 L17.6000244,7.21639921 L17.6000244,8 C17.2097944,8 16.9600145,7.79611268 16.4885058,7.26620895 C16.1662566,6.90405018 16.0311217,6.78360079 16.0000244,6.78360079 C15.9614468,6.78360079 15.7943231,6.92116872 15.4898644,7.24706328 C15.4777912,7.25999 15.4777912,7.25999 15.4656608,7.27298642 C14.9353952,7.84113395 14.7476847,8 14.4000244,8 L14.4000244,8 L14.4000244,7.21639921 C14.4342269,7.21639921 14.5988304,7.07708948 14.9255645,6.72701358 C14.937763,6.7139443 14.937763,6.7139443 14.9500212,6.70081951 C15.4396673,6.17669909 15.6543294,6 16.0000244,6 Z" id="blue" fill="#00247D" fill-rule="nonzero" mask="url(#mask-2)"></path>
            <path d="M12.8000244,9 C13.1571624,9 13.3063412,9.13296711 13.8409548,9.73379105 C14.1499891,10.0810983 14.3157446,10.2163992 14.4000244,10.2163992 L14.4000244,10.2163992 L14.4000244,11 C14.0097944,11 13.7600145,10.7961127 13.2885058,10.2662089 C12.9662566,9.90405018 12.8311217,9.78360079 12.8000244,9.78360079 C12.7614468,9.78360079 12.5943231,9.92116872 12.2898644,10.2470633 C12.2777912,10.25999 12.2777912,10.25999 12.2656608,10.2729864 C11.7353952,10.841134 11.5476847,11 11.2000244,11 L11.2000244,11 L11.0968082,10.9948532 C10.7625474,10.9602352 10.5171501,10.7479396 10.0885058,10.2662089 C9.76625662,9.90405018 9.63112171,9.78360079 9.60002441,9.78360079 C9.56144684,9.78360079 9.39432306,9.92116872 9.08986439,10.2470633 C9.07779123,10.25999 9.07779123,10.25999 9.06566076,10.2729864 C8.53539525,10.841134 8.34768466,11 8.00002441,11 L8.00002441,11 L7.89680817,10.9948532 C7.56254742,10.9602352 7.31715007,10.7479396 6.88850576,10.2662089 C6.56625662,9.90405018 6.43112171,9.78360079 6.40002441,9.78360079 C6.36144684,9.78360079 6.19432306,9.92116872 5.88986439,10.2470633 C5.87779123,10.25999 5.87779123,10.25999 5.86566076,10.2729864 C5.33539525,10.841134 5.14768466,11 4.80002441,11 L4.80002441,11 L4.69680817,10.9948532 C4.36254742,10.9602352 4.11715007,10.7479396 3.68850576,10.2662089 C3.36625662,9.90405018 3.23112171,9.78360079 3.20002441,9.78360079 C3.16144684,9.78360079 2.99432306,9.92116872 2.68986439,10.2470633 C2.67779123,10.25999 2.67779123,10.25999 2.66566076,10.2729864 C2.13539525,10.841134 1.94768466,11 1.60002441,11 L1.60002441,11 L1.49680817,10.9948532 C1.16254742,10.9602352 0.917150073,10.7479396 0.488505765,10.2662089 C0.16625662,9.90405018 0.0311217123,9.78360079 2.44140625e-05,9.78360079 C-0.0385531561,9.78360079 -0.205676943,9.92116872 -0.510135605,10.2470633 C-0.522208774,10.25999 -0.522208774,10.25999 -0.534339236,10.2729864 C-1.06460475,10.841134 -1.25231534,11 -1.59997559,11 L-1.59997559,11 L-1.59997559,10.2163992 C-1.56577309,10.2163992 -1.40116957,10.0770895 -1.07443547,9.72701358 C-1.062237,9.7139443 -1.062237,9.7139443 -1.04997883,9.70081951 C-0.560332742,9.17669909 -0.345670638,9 2.44140625e-05,9 C0.35716241,9 0.506341228,9.13296711 1.04095483,9.73379105 C1.34998908,10.0810983 1.51574461,10.2163992 1.60002441,10.2163992 C1.63422691,10.2163992 1.79883043,10.0770895 2.12556453,9.72701358 C2.137763,9.7139443 2.137763,9.7139443 2.15002117,9.70081951 C2.63966726,9.17669909 2.85432936,9 3.20002441,9 C3.55716241,9 3.70634123,9.13296711 4.24095483,9.73379105 C4.54998908,10.0810983 4.71574461,10.2163992 4.80002441,10.2163992 C4.83422691,10.2163992 4.99883043,10.0770895 5.32556453,9.72701358 C5.337763,9.7139443 5.337763,9.7139443 5.35002117,9.70081951 C5.83966726,9.17669909 6.05432936,9 6.40002441,9 C6.75716241,9 6.90634123,9.13296711 7.44095483,9.73379105 C7.74998908,10.0810983 7.91574461,10.2163992 8.00002441,10.2163992 C8.03422691,10.2163992 8.19883043,10.0770895 8.52556453,9.72701358 C8.537763,9.7139443 8.537763,9.7139443 8.55002117,9.70081951 C9.03966726,9.17669909 9.25432936,9 9.60002441,9 C9.95716241,9 10.1063412,9.13296711 10.6409548,9.73379105 C10.9499891,10.0810983 11.1157446,10.2163992 11.2000244,10.2163992 C11.2342269,10.2163992 11.3988304,10.0770895 11.7255645,9.72701358 C11.737763,9.7139443 11.737763,9.7139443 11.7500212,9.70081951 C12.2396673,9.17669909 12.4543294,9 12.8000244,9 Z M16.0000244,9 C16.3571624,9 16.5063412,9.13296711 17.0409548,9.73379105 C17.3499891,10.0810983 17.5157446,10.2163992 17.6000244,10.2163992 L17.6000244,10.2163992 L17.6000244,11 C17.2097944,11 16.9600145,10.7961127 16.4885058,10.2662089 C16.1662566,9.90405018 16.0311217,9.78360079 16.0000244,9.78360079 C15.9614468,9.78360079 15.7943231,9.92116872 15.4898644,10.2470633 C15.4777912,10.25999 15.4777912,10.25999 15.4656608,10.2729864 C14.9353952,10.841134 14.7476847,11 14.4000244,11 L14.4000244,11 L14.4000244,10.2163992 C14.4342269,10.2163992 14.5988304,10.0770895 14.9255645,9.72701358 C14.937763,9.7139443 14.937763,9.7139443 14.9500212,9.70081951 C15.4396673,9.17669909 15.6543294,9 16.0000244,9 Z M16.0000244,7 C16.3571624,7 16.5063412,7.13296711 17.0409548,7.73379105 C17.3499891,8.0810983 17.5157446,8.21639921 17.6000244,8.21639921 L17.6000244,8.21639921 L17.6000244,9 C17.2097944,9 16.9600145,8.79611268 16.4885058,8.26620895 C16.1662566,7.90405018 16.0311217,7.78360079 16.0000244,7.78360079 C15.9614468,7.78360079 15.7943231,7.92116872 15.4898644,8.24706328 C15.4777912,8.25999 15.4777912,8.25999 15.4656608,8.27298642 C14.9353952,8.84113395 14.7476847,9 14.4000244,9 L14.4000244,9 L14.4000244,8.21639921 C14.4342269,8.21639921 14.5988304,8.07708948 14.9255645,7.72701358 C14.937763,7.7139443 14.937763,7.7139443 14.9500212,7.70081951 C15.4396673,7.17669909 15.6543294,7 16.0000244,7 Z M9.60002441,6.78121948 C9.95716241,6.78121948 10.1063412,7.13296711 10.6409548,7.73379105 C10.9499891,8.0810983 11.1157446,8.21639921 11.2000244,8.21639921 C11.2342269,8.21639921 11.3988304,8.07708948 11.7255645,7.72701358 C11.737763,7.7139443 11.737763,7.7139443 11.7500212,7.70081951 C12.2396673,7.17669909 12.4543294,7 12.8000244,7 C13.1571624,7 13.3063412,7.13296711 13.8409548,7.73379105 C14.1499891,8.0810983 14.3157446,8.21639921 14.4000244,8.21639921 L14.4000244,8.21639921 L14.4000244,9 C14.0097944,9 13.7600145,8.79611268 13.2885058,8.26620895 C12.9662566,7.90405018 12.8311217,7.78360079 12.8000244,7.78360079 C12.7614468,7.78360079 12.5943231,7.92116872 12.2898644,8.24706328 C12.2777912,8.25999 12.2777912,8.25999 12.2656608,8.27298642 C11.7353952,8.84113395 11.5476847,9 11.2000244,9 L11.2000244,9 L11.0968082,8.99485318 C10.7625474,8.96023523 10.5171501,8.74793961 10.0885058,8.26620895 C9.76625662,7.90405018 9.63112171,7.78360079 9.60002441,7.78360079 C9.56144684,7.78360079 9.39432306,7.92116872 9.08986439,8.24706328 C9.07779123,8.25999 9.07779123,8.25999 9.06566076,8.27298642 C8.53539525,8.84113395 8.34768466,9 8.00002441,9 L8.00002441,9 L7.89680817,8.99485318 C7.56254742,8.96023523 7.31715007,8.74793961 6.88850576,8.26620895 C6.56625662,7.90405018 6.43112171,7.78360079 6.40002441,7.78360079 C6.36144684,7.78360079 6.19432306,7.92116872 5.88986439,8.24706328 C5.87779123,8.25999 5.87779123,8.25999 5.86566076,8.27298642 C5.33539525,8.84113395 5.14768466,9 4.80002441,9 L4.80002441,9 L4.69680817,8.99485318 C4.36254742,8.96023523 4.11715007,8.74793961 3.68850576,8.26620895 C3.36625662,7.90405018 3.23112171,7.78360079 3.20002441,7.78360079 C3.16144684,7.78360079 2.99432306,7.92116872 2.68986439,8.24706328 C2.67779123,8.25999 2.67779123,8.25999 2.66566076,8.27298642 C2.13539525,8.84113395 1.94768466,9 1.60002441,9 L1.60002441,9 L1.49680817,8.99485318 C1.16254742,8.96023523 0.917150073,8.74793961 0.488505765,8.26620895 C0.16625662,7.90405018 0.0311217123,7.78360079 2.44140625e-05,7.78360079 C-0.0385531561,7.78360079 -0.205676943,7.92116872 -0.510135605,8.24706328 C-0.522208774,8.25999 -0.522208774,8.25999 -0.534339236,8.27298642 C-1.06460475,8.84113395 -1.25231534,9 -1.59997559,9 L-1.59997559,9 L-1.59997559,8.21639921 C-1.56577309,8.21639921 -1.40116957,8.07708948 -1.07443547,7.72701358 C-1.062237,7.7139443 -1.062237,7.7139443 -1.04997883,7.70081951 C-0.560332742,7.17669909 -0.345670638,7 2.44140625e-05,7 C0.35716241,7 0.506341228,7.13296711 1.04095483,7.73379105 C1.34998908,8.0810983 1.51574461,8.21639921 1.60002441,8.21639921 C1.63422691,8.21639921 1.79883043,8.07708948 2.12556453,7.72701358 C2.137763,7.7139443 2.137763,7.7139443 2.15002117,7.70081951 C2.63966726,7.17669909 2.85432936,7 3.20002441,7 C3.55716241,7 3.70634123,7.13296711 4.24095483,7.73379105 C4.54998908,8.0810983 4.71574461,8.21639921 4.80002441,8.21639921 C4.83422691,8.21639921 4.99883043,8.07708948 5.32556453,7.72701358 C5.337763,7.7139443 5.337763,7.7139443 5.35002117,7.70081951 C5.83966726,7.17669909 6.05432936,6.78121948 6.40002441,6.78121948 C6.75716241,6.78121948 6.90634123,7.13296711 7.44095483,7.73379105 C7.74998908,8.0810983 7.91574461,8.21639921 8.00002441,8.21639921 C8.03422691,8.21639921 8.19883043,8.07708948 8.52556453,7.72701358 C8.537763,7.7139443 8.537763,7.7139443 8.55002117,7.70081951 C9.03966726,7.17669909 9.25432936,6.78121948 9.60002441,6.78121948 Z M1.49680817,6.99485318 C1.16254742,6.96023523 0.917150073,6.74793961 0.488505765,6.26620895 C0.16625662,5.90405018 0.0311217123,6 2.44140624e-05,6 C-0.0385531561,6 -0.205676943,5.92116872 -0.510135605,6.24706328 C-0.522208774,6.25999 -0.522208774,6.25999 -0.534339236,6.27298642 C-1.06460475,6.84113395 -1.25231534,7 -1.59997559,7 L-1.59997559,7 L-1.59997559,6.21639921 C-1.56577309,6.21639921 -1.40116957,6.07708948 -1.07443547,5.72701358 C-1.062237,5.7139443 -1.062237,5.7139443 -1.04997883,5.70081951 C-0.560332742,5.17669909 -0.345670638,5 2.44140625e-05,5 C0.35716241,5 0.506341228,5.13296711 1.04095483,5.73379105 C1.34998908,6.0810983 1.51574461,6.21639921 1.60002441,6.21639921 C1.63422691,6.21639921 1.79883043,6.07708948 2.12556453,5.72701358 C2.137763,5.7139443 2.137763,5.7139443 2.15002117,5.70081951 C2.63966726,5.17669909 2.85432936,5 3.20002441,5 C3.55716241,5 3.70634123,5.13296711 4.24095483,5.73379105 C4.54998908,6.0810983 4.71574461,6.21639921 4.80002441,6.21639921 C4.83422691,6.21639921 4.99883043,6.07708948 5.32556453,5.72701358 C5.337763,5.7139443 5.337763,5.7139443 5.35002117,5.70081951 C5.83966726,5.17669909 6.05432936,5 6.40002441,5 C6.75716241,5 6.90634123,5.13296711 7.44095483,5.73379105 C7.74998908,6.0810983 7.91574461,6.21639921 8.00002441,6.21639921 L8.00002441,6.21639921 L8.01629844,6.21114157 C8.07280708,6.18283944 8.23513422,6.03819216 8.52556453,5.72701358 C8.537763,5.7139443 8.537763,5.7139443 8.55002117,5.70081951 C9.03966726,5.17669909 9.25432936,5 9.60002441,5 C9.95716241,5 10.1063412,5.13296711 10.6409548,5.73379105 C10.9499891,6.0810983 11.1157446,6.21639921 11.2000244,6.21639921 C11.2342269,6.21639921 11.3988304,6.07708948 11.7255645,5.72701358 C11.737763,5.7139443 11.737763,5.7139443 11.7500212,5.70081951 C12.2396673,5.17669909 12.4543294,5 12.8000244,5 C13.1571624,5 13.3063412,5.13296711 13.8409548,5.73379105 C14.1499891,6.0810983 14.3157446,6.21639921 14.4000244,6.21639921 L14.4000244,6.21639921 L14.4000244,7 C14.0097944,7 13.7600145,6.79611268 13.2885058,6.26620895 C12.9662566,5.90405018 12.8311217,6 12.8000244,6 C12.7614468,6 12.5943231,5.92116872 12.2898644,6.24706328 C12.2777912,6.25999 12.2777912,6.25999 12.2656608,6.27298642 C11.7353952,6.84113395 11.5476847,7 11.2000244,7 L11.2000244,7 L11.0968082,6.99485318 C10.7625474,6.96023523 10.5171501,6.74793961 10.0885058,6.26620895 C9.76625662,5.90405018 9.63112171,6 9.60002441,6 C9.56144684,6 9.39432306,5.92116872 9.08986439,6.24706328 C9.07779123,6.25999 9.07779123,6.25999 9.06566076,6.27298642 C8.53539525,6.84113395 8.34768466,7.22653198 8.00002441,7.22653198 L8.00002441,7.22653198 C7.60979442,7.23434448 7.3600145,6.79611268 6.88850576,6.26620895 C6.56625662,5.90405018 6.43112171,6 6.40002441,6 C6.36144684,6 6.19432306,5.92116872 5.88986439,6.24706328 C5.87779123,6.25999 5.87779123,6.25999 5.86566076,6.27298642 C5.33539525,6.84113395 5.14768466,7 4.80002441,7 L4.80002441,7 L4.69680817,6.99485318 C4.36254742,6.96023523 4.11715007,6.74793961 3.68850576,6.26620895 C3.36625662,5.90405018 3.23112171,6 3.20002441,6 C3.16144684,6 2.99432306,5.92116872 2.68986439,6.24706328 C2.67779123,6.25999 2.67779123,6.25999 2.66566076,6.27298642 C2.13539525,6.84113395 1.94768466,7 1.60002441,7 L1.60002441,7 Z M16.0000244,5 C16.3571624,5 16.5063412,5.13296711 17.0409548,5.73379105 C17.3499891,6.0810983 17.5157446,6.21639921 17.6000244,6.21639921 L17.6000244,6.21639921 L17.6000244,7 C17.2097944,7 16.9600145,6.79611268 16.4885058,6.26620895 C16.1662566,5.90405018 16.0311217,6 16.0000244,6 C15.9614468,6 15.7943231,5.92116872 15.4898644,6.24706328 C15.4777912,6.25999 15.4777912,6.25999 15.4656608,6.27298642 C14.9353952,6.84113395 14.7476847,7 14.4000244,7 L14.4000244,7 L14.4000244,6.21639921 C14.4342269,6.21639921 14.5988304,6.07708948 14.9255645,5.72701358 C14.937763,5.7139443 14.937763,5.7139443 14.9500212,5.70081951 C15.4396673,5.17669909 15.6543294,5 16.0000244,5 Z" id="waves-white" fill="#FFFFFF" fill-rule="nonzero" mask="url(#mask-2)"></path>
            <g id="Overlay" mask="url(#mask-2)" opacity="0" stroke="#000000" stroke-opacity="0.503742351">
                <g>
                    <rect style="mix-blend-mode: multiply;" x="0.5" y="0.5" width="15" height="11"></rect>
                </g>
            </g>
        </g>
    </g>
</svg>