<?xml version="1.0" encoding="UTF-8"?>
<svg width="24px" height="18px" viewBox="0 0 24 18" version="1.1" xmlns="http://www.w3.org/2000/svg" xmlns:xlink="http://www.w3.org/1999/xlink">
    <title>LK</title>
    <g id="Design-3" stroke="none" stroke-width="1" fill="none" fill-rule="evenodd">
        <g id="11-Flags" transform="translate(-148.000000, -447.000000)">
            <g id="LK" transform="translate(148.000000, 447.000000)">
                <g id="Sri-Lanka">
                    <rect id="Rectangle-119-Copy" fill="#FFBE29" x="0" y="0" width="24" height="18"></rect>
                    <rect id="Rectangle-42" fill="#00534E" x="1.5" y="1.5" width="3" height="15"></rect>
                    <rect id="Rectangle-42-Copy" fill="#EB7400" x="4.5" y="1.5" width="3" height="15"></rect>
                    <rect id="Rectangle-43" fill="#8D153A" x="9" y="1.5" width="13.5" height="15"></rect>
                    <g id="lion" transform="translate(10.500000, 4.500000)" fill="#FFBE29" fill-rule="nonzero">
                        <path d="M2.60609126,8.44307376 L2.70357482,8.38678809 L2.74527809,8.44317439 C2.80083922,8.51830022 2.95457714,8.51745045 3.05658233,8.44144579 L3.13458617,8.3833376 L3.1999017,8.44144579 C3.28577703,8.51785297 3.44615429,8.5179536 3.54855082,8.44171861 C3.62024405,8.3883132 3.63023995,8.38723981 3.67764335,8.42786657 C3.70590247,8.45208707 3.78878798,8.4796619 3.86183188,8.48914348 C3.99338426,8.50622082 3.99537673,8.50528295 4.0723452,8.38981057 C4.13680649,8.29310522 4.14688961,8.25396465 4.13150665,8.1601731 C4.12131105,8.09799051 4.1103274,7.99790847 4.1070983,7.93777203 C4.10125752,7.82888151 4.10188589,7.82820394 4.26049855,7.77297377 C4.34809354,7.74247172 4.44949048,7.70156454 4.48582012,7.6820647 C4.54916777,7.64806968 4.72382105,7.44281148 4.72382105,7.40235825 C4.72382105,7.39163826 4.65559173,7.37521724 4.57220307,7.36586313 C4.2405045,7.32865914 4.18433065,7.15054194 4.39996491,6.81971103 C4.75161057,6.28015577 4.96382788,5.75471106 4.9652367,5.41999359 C4.96587402,5.27037702 4.9743929,5.22014257 4.99361881,5.25267958 C5.07218841,5.38564301 4.93143399,5.94315735 4.7182059,6.34350789 L4.63235293,6.50471478 L4.71427687,6.48585517 C4.75933447,6.47548313 5.02423938,6.36371505 5.30296189,6.23747817 C6.06584848,5.89195976 6.32788879,5.824247 6.82160153,5.84504385 C7.23523521,5.86246647 7.4113823,5.94327431 7.70343268,6.24957612 C7.85814559,6.41184746 8.0071785,6.5279632 8.27981849,6.69860918 C8.86067674,7.06219626 8.88489501,7.09368224 8.91251233,7.52126994 C8.94049863,7.95449292 8.92657122,7.9779956 8.59890478,8.05038205 C8.31884054,8.11225604 8.14327487,8.24281776 8.09618007,8.42421102 C8.07103377,8.52107961 8.12395393,8.52386818 8.26515112,8.43312124 L8.36863222,8.36661381 L8.41464469,8.43312124 C8.47513669,8.52055746 8.60371713,8.52090631 8.71049665,8.43391733 L8.79115041,8.36821494 L8.87359762,8.43391733 C9.00170174,8.53600079 9.17206596,8.51124583 9.2201447,8.38355765 C9.22938811,8.35901513 9.25405474,8.36687835 9.30400296,8.41028719 C9.39759326,8.49162747 9.63751287,8.52651698 9.66340831,8.46256108 C9.6732971,8.43815944 9.65451262,8.3778933 9.62166702,8.32864055 C9.48208437,8.11933926 9.43841994,8.0195278 9.43660189,7.90559237 C9.43408256,7.74712709 9.4813576,7.67067742 9.66158802,7.54180404 C9.88053189,7.38525072 9.94818203,7.18327082 9.78168648,7.18327082 C9.67888295,7.18327082 9.57524532,7.09240424 9.5091583,6.94430831 C9.37480841,6.64329068 9.4011399,6.30582266 9.6027799,5.74441952 C9.80759085,5.17418332 9.83031532,5.06903624 9.83112036,4.68767121 C9.83179123,4.37931878 9.82402036,4.32598492 9.75386342,4.15692666 C9.71096824,4.05356184 9.62393454,3.8996495 9.56045496,3.81491911 L9.44503468,3.66083682 L9.59322229,3.53806832 C10.0456991,3.16321069 9.95314197,2.54970362 9.4084434,2.31331276 C9.2418092,2.24099787 9.20017525,2.23461122 8.90815617,2.23657462 C8.73296619,2.23775311 8.46583178,2.26080631 8.3145291,2.28780867 C8.1602612,2.31533878 7.89915116,2.33746394 7.72002991,2.33818177 C7.43547086,2.33932671 7.3871685,2.33231191 7.27750425,2.27394187 C7.16316183,2.21307865 7.14355689,2.18418221 7.12117008,2.04349935 C7.11656906,2.01458279 7.09635027,1.98573554 7.07624665,1.97939586 C7.03735431,1.9671322 6.85774556,2.12301264 6.83120162,2.19206042 C6.81811012,2.22612924 6.80742389,2.2237745 6.7690168,2.17834814 C6.74350824,2.14818153 6.70789419,2.0788654 6.68987025,2.02431057 C6.64454878,1.88711174 6.70020249,1.78425231 6.86147334,1.70719215 L6.98659434,1.64739338 L6.91281472,1.60160901 C6.76056613,1.50713317 6.5016856,1.57176217 6.40805505,1.72762003 C6.38157149,1.77170711 6.352684,1.80785785 6.34386211,1.80795401 C6.33504156,1.80802109 6.2847029,1.76599133 6.23199518,1.71449118 C6.03542246,1.5224155 6.1030413,1.23824332 6.36596267,1.15147797 C6.50616475,1.1052128 6.6302392,1.14050528 6.65604518,1.2339945 C6.69545633,1.3767235 6.81796767,1.18911132 6.7959968,1.01967513 C6.78138757,0.907027768 6.78358265,0.903123327 6.86152924,0.903123327 C6.96992555,0.903123327 7.20065207,1.04538943 7.27200986,1.15624111 C7.35489313,1.28498703 7.34886205,1.48771607 7.25765265,1.63881748 L7.18603322,1.75746015 L7.27971744,1.73869916 C7.4170974,1.71118917 7.55056846,1.62587513 7.61807995,1.52240968 C7.6894601,1.4130272 7.69713481,1.20003615 7.63383837,1.08511678 C7.57250108,0.973730645 7.57953399,0.95604885 7.67021497,0.993688912 C7.82444485,1.05770743 7.90689654,1.12831162 7.96875039,1.24931127 C8.02445017,1.35828005 8.02755852,1.38535844 7.99740532,1.49878401 C7.97880041,1.56875759 7.93740529,1.66082055 7.90541392,1.70336687 C7.85560435,1.76961714 7.85390482,1.78072445 7.8935908,1.78072445 C7.96750236,1.78072445 8.12181946,1.71077324 8.17665158,1.65242577 C8.2043427,1.62294792 8.24471542,1.55036467 8.26636874,1.49112943 L8.30574187,1.38342858 L8.35098061,1.46552471 C8.41495664,1.58161138 8.53932628,1.68607642 8.69097556,1.75109005 C8.85406312,1.82100549 8.92197713,1.82494571 8.83669663,1.75954118 C8.77918551,1.7154362 8.67320879,1.4044741 8.70532539,1.3740615 C8.72422324,1.35616481 8.945652,1.52654043 9.19847908,1.75350338 C9.43764285,1.96820067 9.58791686,2.03853204 9.80758079,2.03853204 C10.0881817,2.03853383 10.25156,1.79426968 10.1254372,1.56331284 C10.0519102,1.42865659 9.88810709,1.40995061 9.79232977,1.52527249 C9.74828517,1.57830222 9.73619393,1.62048405 9.74909468,1.67610556 C9.76489582,1.74424319 9.75873056,1.75332225 9.69665308,1.75332225 C9.61509141,1.75332225 9.45431387,1.64897126 9.16877089,1.41071092 C8.73335641,1.04736983 8.20428903,0.739397556 7.82225313,0.626915669 C7.57709629,0.554719293 7.05337347,0.526547389 6.80414671,0.572146159 C6.5344138,0.621499543 6.21537224,0.775863602 6.04157319,0.941100164 C5.73360091,1.23391086 5.72870359,1.62354991 6.02857158,1.978371 L6.11446704,2.08001169 L6.05631413,2.17034158 C5.97171567,2.30175307 5.97896103,2.47860456 6.0742797,2.6088644 C6.1162625,2.66623687 6.15861204,2.71315501 6.16839104,2.7131237 C6.17816958,2.71310134 6.18889248,2.67620817 6.19221573,2.63115728 C6.20063376,2.51718607 6.24954795,2.44082585 6.33350684,2.41059439 C6.40912687,2.38336617 6.45801065,2.39622622 6.8042536,2.53442733 C7.16851154,2.6798152 7.76755026,2.68980887 8.40451528,2.56112333 C8.7167811,2.49803731 9.08499715,2.5017472 9.24698896,2.56961247 C9.54393667,2.69401564 9.61276753,3.01766159 9.39447888,3.26333276 C9.29998515,3.36968517 9.20885469,3.41299628 8.90289054,3.49697307 C8.67005527,3.56087307 8.61491008,3.56511518 8.08570852,3.55983099 C7.63358948,3.5553174 7.4711057,3.56399975 7.28655043,3.60253385 C7.08618956,3.64436683 6.96294698,3.64858658 6.37439613,3.63375373 L5.6938919,3.61660527 L5.76935539,3.67909198 C5.81085964,3.71345821 5.86949782,3.7557429 5.89966219,3.77305796 C5.95098792,3.80251793 5.94927722,3.80647604 5.87299079,3.83476199 C5.82815681,3.85138605 5.72864724,3.86498674 5.6518599,3.86498674 L5.51224819,3.86498674 L5.49346058,3.98363389 C5.48312589,4.04889127 5.4839108,4.1250793 5.49519589,4.15294037 C5.51184656,4.19403539 5.50564083,4.19993678 5.4623324,4.18419602 C5.43297082,4.173525 5.35119224,4.15253562 5.28060594,4.13755518 C5.21001965,4.12257362 5.11500488,4.09206598 5.06946201,4.06976192 C4.99287594,4.03225379 4.98436488,4.03326233 4.95615496,4.08318282 C4.93096618,4.12776187 4.69447245,4.30377254 4.65976631,4.30377254 C4.65416547,4.30377254 4.64693532,4.26983566 4.64370063,4.22835601 C4.64046616,4.18687636 4.60634904,4.07889375 4.56788381,3.9883872 C4.52941635,3.89788736 4.48925383,3.79916046 4.47862955,3.76899385 C4.46260211,3.72348677 4.45534602,3.72115215 4.43601613,3.75528157 C4.42320259,3.77790765 4.40449437,3.83961168 4.39444256,3.89240213 C4.38439142,3.94519259 4.34875658,4.03095388 4.31525352,4.08298178 L4.25433888,4.17757614 L4.21548679,4.09669205 C4.17377904,4.00986408 4.10453671,3.91982491 4.07946868,3.91982491 C4.07100749,3.91982491 4.05659662,3.94759205 4.047446,3.98152893 C4.02833683,4.05239923 3.86414302,4.24891381 3.82404088,4.24891381 C3.80927265,4.24891381 3.79719058,4.19337951 3.79719058,4.12550575 C3.79719058,4.05763199 3.78416012,4.00209769 3.76823376,4.00209769 C3.7523074,4.00209769 3.73927694,4.01966208 3.73927694,4.04112868 C3.73927694,4.09331088 3.59905251,4.24891381 3.55202479,4.24891381 C3.53150277,4.24891381 3.49848967,4.26742502 3.47866111,4.29004908 C3.42696416,4.34904058 3.384675,4.34076209 3.40640883,4.27590678 C3.41659884,4.24550313 3.40997314,4.17454338 3.39168421,4.11821746 C3.37339461,4.06189154 3.35394799,4.00194294 3.34846925,3.9849991 C3.34156581,3.96365907 3.29131593,3.96931962 3.18496576,4.00341706 C3.01310775,4.05851529 2.95550718,4.04876761 3.04388932,3.97954317 C3.07620047,3.9542381 3.12534365,3.86658273 3.15310185,3.78475272 C3.18085782,3.70292494 3.22181196,3.6303171 3.24411155,3.62340718 C3.2753359,3.61372837 3.27367439,3.62568902 3.23687224,3.6754485 C3.21058994,3.71098428 3.18900817,3.75890648 3.18890978,3.78194626 C3.18890978,3.80498604 3.16903336,3.8596102 3.14495463,3.90333278 C3.12087948,3.94705536 3.10574474,3.98715303 3.11132411,3.99243498 C3.11690147,3.99771828 3.18229057,3.97287879 3.25662924,3.93723612 L3.39179088,3.87243269 L3.39234099,3.9304067 C3.39265853,3.96229297 3.40893643,4.04641063 3.42853645,4.11733684 L3.4641751,4.24629072 L3.55617991,4.20400379 C3.65021074,4.1607866 3.73926822,4.00671996 3.73926822,3.88726554 C3.73926822,3.8282159 3.77309329,3.8372793 3.78694444,3.90004062 C3.79101011,3.91845813 3.81224057,3.98758194 3.83412645,4.05365107 L3.87392,4.17377412 L3.93691433,4.09793047 C3.97156232,4.05621601 4.01499643,3.97439271 4.03343631,3.91610339 C4.0654478,3.81491218 4.11571356,3.77140651 4.11571356,3.84489095 C4.11571356,3.89784465 4.2602226,4.08776685 4.28809932,4.07144244 C4.30157322,4.06355708 4.32840272,3.992278 4.34771919,3.91304424 C4.38789737,3.7482661 4.45271422,3.63620015 4.49390092,3.66030661 C4.5093872,3.66937113 4.51541895,3.68696235 4.50730237,3.69940021 C4.49918556,3.71183651 4.53246879,3.81896645 4.58126536,3.93746824 C4.63006192,4.05596779 4.67905975,4.17526791 4.69015364,4.20259453 C4.70797631,4.24649601 4.72408605,4.24011831 4.82868078,4.14774675 C4.89377716,4.090258 4.95286034,4.02590181 4.95997599,4.00473375 C4.97073087,3.97273343 4.98525199,3.97390521 5.04612415,4.01167855 C5.13125035,4.06450255 5.41744854,4.14961534 5.4395424,4.12867984 C5.44782111,4.12083988 5.45630847,4.04567581 5.45840492,3.96164759 L5.46221589,3.80887125 L5.54451774,3.82593876 C5.58978332,3.83532596 5.68496357,3.83474902 5.75602842,3.82465293 L5.88523499,3.80630318 L5.77008753,3.72730422 C5.7067533,3.68385446 5.64271689,3.62762693 5.62778341,3.6023554 C5.61187449,3.57543131 5.55550877,3.55257043 5.49165797,3.54714312 C5.31914027,3.53248291 5.01337515,3.36099119 5.01337515,3.27888612 C5.01337515,3.26347297 5.05572469,3.28968058 5.10748648,3.33712401 C5.22231416,3.4423762 5.38184836,3.50843862 5.52116489,3.50843862 L5.62541973,3.50843862 L5.56092713,3.42266168 C5.52387967,3.3733888 5.4906539,3.27991926 5.48285173,3.20302458 C5.47041745,3.08045734 5.45747957,3.06096868 5.32949621,2.97200065 C5.25262389,2.91855722 5.15740339,2.83845357 5.11790056,2.7939908 L5.0460754,2.71315143 L5.00943045,2.80913225 C4.98927339,2.8619227 4.96463896,2.90511306 4.95469001,2.90511306 C4.94474017,2.90511306 4.90599184,2.87425993 4.86858882,2.83655278 C4.83118132,2.79884563 4.79307613,2.76813338 4.78390986,2.76830781 C4.77473912,2.76846434 4.74160281,2.81927351 4.71027336,2.88117879 L4.65330788,2.99373448 L4.60929012,2.92885725 C4.58507856,2.89317388 4.5278917,2.83004091 4.48220795,2.78856125 C4.4365242,2.7470816 4.41249601,2.71314472 4.42881371,2.71314472 C4.44512828,2.71314472 4.50151324,2.75635521 4.55411585,2.80916803 L4.64974782,2.90519133 L4.68866923,2.83483984 C4.71176492,2.79309184 4.72042133,2.72896374 4.70995828,2.6771125 C4.69470658,2.60153496 4.69684955,2.59714302 4.72582717,2.64458444 C4.74425541,2.67475105 4.80020162,2.73258642 4.85015431,2.77310674 L4.94098064,2.84678125 L5.00365743,2.73197146 C5.06603679,2.61771402 5.06647509,2.61749039 5.09485497,2.68572195 C5.1328081,2.77697092 5.40747858,3.00212478 5.64132015,3.13368162 C5.67736355,3.15395743 5.66216619,3.08423432 5.59560286,2.92390402 C5.57797384,2.88144267 5.56355111,2.80489461 5.56355111,2.75379474 C5.56355111,2.67798686 5.54168244,2.64424677 5.4447273,2.57046715 C5.3047578,2.4639515 5.25948999,2.38820624 5.23311377,2.21636165 C5.22242843,2.14675258 5.19793355,2.06933239 5.17867745,2.04431803 C5.15011421,2.00720572 5.14539355,2.02797551 5.15303695,2.1571689 C5.15818831,2.24425179 5.14686319,2.35252287 5.12786605,2.39776385 L5.0933321,2.48003663 L5.0666361,2.41147635 C5.05195464,2.3737692 4.98701547,2.30819204 4.92232162,2.26575081 C4.85763,2.22330959 4.81222578,2.18145872 4.82142559,2.17274864 C4.83062227,2.16403789 4.89717532,2.20271847 4.96931579,2.25870225 C5.07921931,2.34399169 5.10342864,2.35322728 5.11865059,2.31566102 C5.13653476,2.27152026 5.11862823,2.07947142 5.08407638,1.94527583 C5.06683222,1.87826078 5.068341,1.87862081 5.15101093,1.961278 C5.21198372,2.02223961 5.24569698,2.09495031 5.27181827,2.22179768 C5.30499931,2.38295761 5.32173965,2.40978778 5.47075691,2.54063798 C5.56024598,2.6192143 5.63812459,2.6790891 5.64382024,2.67369757 C5.64951321,2.6683047 5.6608068,2.46504255 5.66891511,2.22200341 C5.68446489,1.75595272 5.66688909,1.64505855 5.55464872,1.50106831 L5.49698107,1.42708296 L5.58763744,1.32929528 C5.70590219,1.20173009 5.7602021,1.09947891 5.78375621,0.95998348 L5.80291681,0.846499767 L5.70060749,0.94339296 C5.61683421,1.02273182 5.57682822,1.04028615 5.47979638,1.04028615 C5.38371717,1.04028615 5.34618445,1.02418514 5.28143916,0.955193496 C5.2037551,0.872415325 5.06610232,0.792767863 4.93372925,0.754002982 C4.88482982,0.739684239 4.86857473,0.745921281 4.86857473,0.77900169 C4.86857473,0.803244555 4.84156343,0.873220364 4.8085501,0.934503984 L4.74852771,1.04593037 L4.62276715,0.921625591 C4.54562425,0.84537942 4.45407563,0.786032367 4.38597377,0.768122478 C4.21197793,0.722364936 4.2025545,0.726908936 4.2025545,0.856542632 C4.2025545,1.05317797 4.11860008,1.08980278 3.96750537,0.95911359 C3.85232213,0.859481026 3.75677514,0.837818759 3.53835232,0.861826821 L3.36966303,0.880368666 L3.40001525,0.956520916 C3.42536728,1.02013244 3.41965374,1.04692013 3.36533594,1.1191657 C3.27723333,1.23634141 3.1626807,1.28710138 2.98634131,1.28710138 C2.90512402,1.28710138 2.80349004,1.30390792 2.76048305,1.3244485 C2.71747606,1.34498952 2.6106205,1.3686541 2.5230188,1.37703769 C2.43542381,1.3854215 2.34205937,1.40038383 2.31554675,1.41028805 C2.27405591,1.4257864 2.26950297,1.41301378 2.28286662,1.31864774 C2.30332178,1.17423039 2.20244095,1.06769909 2.04522348,1.06769909 C1.84124216,1.06769909 1.74715766,1.25015678 1.82703993,1.49083671 C1.84241372,1.53715778 1.86253098,1.61020839 1.87174197,1.65317066 C1.88130092,1.697743 1.9731814,1.81602341 2.08572143,1.92862829 C2.19419825,2.03716772 2.29671777,2.15010579 2.31354756,2.1795993 C2.33037781,2.20909729 2.38601676,2.2564336 2.43718819,2.28479111 L2.53023285,2.33635388 L2.51796047,2.23679959 C2.50447204,2.12738579 2.52831305,2.11022057 2.58652746,2.18743055 C2.60733616,2.21503222 2.66019974,2.25964481 2.70399836,2.28656891 C2.77299246,2.3289833 2.78363016,2.32984648 2.78363016,2.29301861 C2.78363016,2.26964117 2.79769487,2.21577285 2.81488358,2.1733115 L2.84613923,2.09611046 L2.90036981,2.20115021 C2.93019652,2.25892296 3.02719482,2.39022264 3.1159191,2.49293225 C3.28807676,2.69221974 3.39296445,2.9149294 3.33883226,2.96618357 C3.31687392,2.98697774 3.25751658,2.98536833 3.13449538,2.96064356 C3.03912953,2.94147714 2.92117337,2.93134683 2.87236563,2.93812929 C2.77269505,2.95198335 2.76484368,2.93911546 2.82614295,2.86236391 C2.89083904,2.78135459 2.88054796,2.76799317 2.7534479,2.76799317 C2.60640075,2.76799317 2.24133106,2.69750303 2.10118713,2.64205147 C1.96492528,2.58813173 1.93348625,2.60155799 1.89337964,2.73079812 C1.87532775,2.78896221 1.8422753,2.89435975 1.81993322,2.96501984 L1.77931004,3.09347729 L1.92673734,3.07927952 C2.00782269,3.07147064 2.1121133,3.05371729 2.15849922,3.03982812 C2.20488067,3.02593851 2.24703343,3.01855675 2.25217226,3.0234241 C2.25731221,3.02829213 2.23663947,3.07848656 2.20623358,3.13496678 L2.15095198,3.23765849 L2.24286735,3.2189212 C2.29342382,3.20861558 2.36948215,3.18339884 2.41188983,3.16288375 C2.48568063,3.12718697 2.49160661,3.12977875 2.54981096,3.22320133 C2.62138343,3.33808939 2.67864185,3.33336872 2.69134582,3.2115325 C2.70448093,3.08557739 2.74591184,3.10420734 2.82385306,3.2711166 C2.89879999,3.43161461 2.97677699,3.48828043 2.99175967,3.39313596 C2.99673124,3.36154711 3.03710575,3.31012299 3.08147683,3.27886286 C3.17122978,3.2156315 3.2388665,3.23460359 3.2776448,3.3338806 C3.31778495,3.4366461 3.2282601,3.54257139 2.96786118,3.70041948 C2.44621805,4.01662105 2.14300892,4.44908371 2.05644483,5.00028968 C1.9783672,5.49746856 2.2222248,6.01121784 2.71143379,6.38021657 C2.9455437,6.55680195 3.31744952,6.7431775 3.29381267,6.67206569 C3.19344662,6.37006413 3.19675176,5.79381249 3.29940993,5.69660399 C3.31481547,5.68201399 3.3095163,5.74214238 3.28763332,5.83022263 C3.20612309,6.15832089 3.24153364,6.41975742 3.45047489,7.03248181 C3.63944893,7.58666195 3.61329186,7.82350005 3.34583319,7.98005784 C3.25993102,8.03033702 3.20462482,8.03862222 2.97365903,8.03582023 C2.72304581,8.03277607 2.69574156,8.03782165 2.61528235,8.10193185 C2.53728075,8.16409431 2.43614321,8.36817625 2.43614321,8.46341688 C2.43614321,8.51501096 2.49343517,8.50818154 2.60601992,8.44317774 L2.60609126,8.44307376 Z" id="Path"></path>
                        <path d="M6.6739998,8.43189266 L6.77912676,8.36432973 L6.8504689,8.43189266 C6.94393396,8.52040897 7.05342602,8.51842992 7.1432796,8.42659975 C7.18249396,8.38652668 7.21770772,8.35876177 7.22153166,8.36489572 C7.22535403,8.37103057 7.24284127,8.40073115 7.26038822,8.43089776 C7.28260149,8.46908346 7.32827316,8.48828365 7.41071143,8.49410006 C7.51003763,8.50110703 7.53670903,8.49149486 7.57617609,8.43445112 L7.62322169,8.36644766 L7.72670726,8.43295509 C8.01001403,8.61504157 8.16098127,8.4240064 8.03436647,8.04360675 C7.96998568,7.85018487 8.00538505,7.74144865 8.21288394,7.49526315 C8.30038277,7.39145109 8.37204916,7.28064637 8.37213638,7.24903292 C8.37213638,7.19863075 8.35594927,7.19187736 8.2394972,7.19418514 C8.12805739,7.19640794 8.09545553,7.18443857 8.03679724,7.11986883 C7.94138889,7.01484474 7.94705771,6.89456962 8.05370821,6.76108963 L8.1389082,6.6544644 L7.98774865,6.55188226 C7.90461045,6.49546018 7.75468976,6.36197348 7.65457417,6.25524763 C7.42974457,6.01554716 7.20869419,5.90188008 6.91718049,5.87609646 L6.72172589,5.85881092 L6.72201436,6.00675479 C6.72239004,6.19720921 6.81176954,6.38042722 7.05574789,6.69076989 C7.33315103,7.0436231 7.3525167,7.09825397 7.36376489,7.55945206 L7.37326279,7.94949363 L7.29299142,8.02565259 C7.22045738,8.0944678 7.18775042,8.10324943 6.9536897,8.11674726 C6.73086152,8.12959815 6.68404624,8.14109523 6.61865916,8.19902005 C6.5318133,8.27595497 6.50584407,8.3178036 6.47902956,8.4240509 C6.46340128,8.48596738 6.46973403,8.49946744 6.51441774,8.49946744 C6.54435179,8.49946744 6.61615012,8.46906155 6.67396983,8.43190227 L6.6739998,8.43189266 Z" id="Path"></path>
                        <path d="M0.711565333,7.4238045 C0.736356072,7.39028132 0.756643064,7.33614913 0.756643064,7.30350926 C0.756643064,7.25419613 0.77867945,7.24103597 0.88704602,7.2256463 L1.01744898,7.20712682 L0.930482366,7.13781964 C0.827160038,7.05548424 0.817602432,6.99115936 0.90866893,6.99101848 C0.99937003,6.99101848 1.15297601,6.89683335 1.17632215,6.82715048 C1.18717587,6.7947633 1.18035025,6.7514902 1.16088239,6.72927335 C1.11003521,6.67125238 1.01444126,6.68000047 0.996683434,6.74430165 C0.977597741,6.81342322 0.94564394,6.81360659 0.87320158,6.74498593 C0.764226087,6.64177765 0.761779662,6.42813586 0.86814884,6.30373492 C0.918280429,6.24510569 0.917833185,6.2412594 0.853922006,6.18073162 C0.785169409,6.11561735 0.736068718,5.98674397 0.768364213,5.956148 C0.778641211,5.94641508 0.832959676,5.95417118 0.889073154,5.97339239 C0.968807829,6.00069888 1.00028487,6.00111258 1.03313271,5.97528424 C1.13263557,5.8970769 1.0248332,5.79651183 0.865264116,5.8186929 C0.801044338,5.82761989 0.774513819,5.8186929 0.765291646,5.78537993 C0.758315757,5.76011511 0.702145254,5.72712638 0.638857981,5.71112846 C0.525774551,5.68254062 0.52497622,5.68288947 0.52497622,5.76080163 C0.52497622,5.84617829 0.476240033,5.86228578 0.383633673,5.80751404 C0.308384857,5.76300654 0.235403568,5.79755883 0.235403568,5.87769334 C0.235403568,5.95245913 0.310592006,5.98933217 0.445344412,5.98064893 C0.548700283,5.97398745 0.552546582,6.05084612 0.45438478,6.16132659 L0.38379401,6.24077727 L0.43971741,6.32112019 C0.522540305,6.44010948 0.51556777,6.63772428 0.425085149,6.73587199 L0.354150002,6.8128181 L0.307614255,6.75111407 C0.242944997,6.66536396 0.154486827,6.67111105 0.130230544,6.76264022 C0.114347118,6.8225754 0.127476639,6.84996463 0.202529786,6.91347329 C0.252967737,6.95615379 0.326606475,6.99107461 0.366171923,6.99107461 C0.464082597,6.99107461 0.460254188,7.06807438 0.358475523,7.14585908 L0.278843714,7.20672005 L0.401911868,7.22580977 C0.469600024,7.23631061 0.524980022,7.25606359 0.524980022,7.2697023 C0.524980022,7.3220075 0.610271704,7.48471042 0.637687767,7.48471042 C0.653524232,7.48471042 0.686768332,7.45728318 0.711559071,7.42376 L0.711565333,7.4238045 Z" id="Path"></path>
                        <path d="M2.31404087,6.72923444 C2.42585413,6.68516077 2.66783331,6.48025366 2.66783331,6.42962563 C2.66783331,6.4137033 2.60103964,6.3402439 2.51940641,6.26637931 C2.34761102,6.11094186 2.16073902,5.84916767 2.11232485,5.69612074 C2.08708016,5.61631674 1.96508539,5.47970157 1.62145211,5.1464354 L1.16418976,4.70294817 L1.03240035,4.73632823 C0.959915499,4.7546885 0.871477454,4.77015554 0.835870116,4.77069894 C0.774505992,4.77163145 0.77561963,4.77515528 0.857199858,4.83829094 L0.943269745,4.904899 L1.06393396,4.83792867 C1.180895,4.77301343 1.18505884,4.77261315 1.19948246,4.8248555 C1.20792934,4.85543805 1.18970928,4.90844095 1.15737219,4.94737802 C1.12602262,4.98511871 1.1081664,5.02793339 1.11768376,5.04252025 C1.127202,5.05710399 1.0970866,5.08760246 1.05076039,5.11029115 C0.964896232,5.15234327 0.905298722,5.29076979 0.973058437,5.29076979 C1.03402004,5.29076979 1.16844372,5.12491156 1.15295566,5.0688115 C1.14502133,5.04008501 1.14885823,5.01053783 1.16148036,5.00314936 C1.21383475,4.97250643 1.21056316,5.10272378 1.15737152,5.16676913 C1.12602195,5.20450982 1.10816573,5.2473245 1.11768308,5.26191137 C1.12720133,5.27649555 1.09708593,5.30699357 1.05075972,5.32968226 C0.96545238,5.37146157 0.905255563,5.5101609 0.972427152,5.5101609 C1.03826148,5.5101609 1.17048025,5.35166878 1.15410664,5.29237987 C1.14554125,5.26135455 1.14885689,5.22992894 1.16147901,5.22254047 C1.19673974,5.20190105 1.21576326,5.30470144 1.18599693,5.35506784 C1.17005313,5.38205007 1.17019781,5.41888062 1.18637262,5.44809013 C1.21565816,5.50100581 1.18596563,5.60262861 1.13199668,5.63421746 C1.10886298,5.64775688 1.12452905,5.67432631 1.18064119,5.71670045 C1.26183835,5.77802433 1.26341265,5.7844624 1.26341265,6.0550406 C1.26341265,6.28116721 1.27254247,6.33953256 1.31408764,6.37889004 C1.36070836,6.42306434 1.36476263,6.42322311 1.36476263,6.38086686 C1.36476263,6.33459946 1.44597768,6.27804321 1.51241579,6.27804321 C1.53201403,6.27804321 1.65445604,6.38180831 1.78449673,6.50864226 C1.91533575,6.63623652 2.0522394,6.74480949 2.09101546,6.75171941 C2.12955001,6.75859199 2.17126894,6.76589504 2.18372468,6.76794878 C2.19617931,6.77000611 2.2548186,6.75258863 2.31403148,6.72924875 L2.31404087,6.72923444 Z" id="Path"></path>
                        <path d="M0.915955878,5.63527542 C0.915955878,5.56237911 0.765590182,5.48456758 0.585733211,5.46439464 C0.440528711,5.44810713 0.438151609,5.44902867 0.438151609,5.52156361 C0.438151609,5.58160613 0.460985655,5.60522733 0.561219763,5.64886717 C0.722281301,5.71898833 0.915955878,5.71157079 0.915955878,5.63527587 L0.915955878,5.63527542 Z" id="Path"></path>
                        <path d="M1.08076532,5.62856676 C1.15411111,5.56201684 1.18886198,5.48286358 1.14473464,5.48286358 C1.09398362,5.48286358 0.959284884,5.60373577 0.959284884,5.6492764 C0.959284884,5.7203569 0.984303718,5.71609019 1.08076532,5.62856542 L1.08076532,5.62856676 Z" id="Path"></path>
                        <path d="M0.924453515,5.41299511 C0.930667525,5.37186655 0.905228729,5.34441918 0.828973613,5.30998138 C0.664481712,5.2356919 0.467824017,5.20128542 0.420460869,5.23851178 C0.333225911,5.30707877 0.391349752,5.39913725 0.532334504,5.4156987 C0.58909425,5.42236532 0.666060484,5.43967546 0.703365113,5.45416617 C0.811723409,5.49625183 0.914770681,5.47706283 0.924453515,5.41299511 L0.924453515,5.41299511 Z" id="Path"></path>
                        <path d="M0.924453515,5.1927274 C0.933308501,5.13405569 0.895794115,5.11305981 0.589512423,5.0052561 C0.360858887,4.92477676 0.259625189,4.96272766 0.332704872,5.10154328 C0.358162005,5.14989931 0.400887232,5.17199093 0.49670704,5.18633852 C0.567975384,5.197012 0.665378437,5.21787817 0.713157522,5.23271326 C0.840803219,5.27233908 0.914547059,5.25838507 0.924455752,5.19272964 L0.924453515,5.1927274 Z" id="Path"></path>
                        <path d="M1.07785824,4.98632426 C1.12407197,4.93948215 1.16187751,4.88419607 1.16187751,4.86347525 C1.16187751,4.79625223 0.979370616,4.91517891 0.956107215,4.99755679 C0.928203657,5.09636866 0.973438147,5.09219811 1.07786718,4.98632359 L1.07785824,4.98632426 Z" id="Path"></path>
                        <path d="M0.924453515,4.97245969 C0.934527912,4.90562801 0.823380826,4.84527242 0.604808171,4.79887979 C0.444446569,4.76484452 0.373717154,4.78414757 0.385723421,4.85866738 C0.392278902,4.89934647 0.445685435,4.92906584 0.59719384,4.97635072 C0.839667219,5.05201547 0.912590366,5.05115005 0.924442334,4.97245902 L0.924453515,4.97245969 Z" id="Path"></path>
                        <path d="M1.13823619,4.66140143 C1.41832279,4.53672097 1.44254106,4.22231956 1.17843448,4.13978066 C1.06877694,4.10550611 0.998774301,4.12397371 0.956798207,4.19825112 C0.924659248,4.25512715 0.946153798,4.35853445 0.990115655,4.35853445 C1.00496796,4.35853445 1.01712025,4.3776756 1.01712025,4.4010696 C1.01712025,4.51023964 0.589487825,4.55970484 0.414123421,4.47081731 C0.352513312,4.43959073 0.325689848,4.35853445 0.376966382,4.35853445 C0.415281783,4.35853445 0.441774286,4.27593965 0.422196176,4.21752063 C0.395522539,4.13792907 0.315307077,4.11035647 0.198952057,4.14078025 C-0.0635802186,4.20942998 -0.0562006912,4.51791882 0.21108959,4.64882717 C0.430268261,4.75616798 0.910735869,4.76269327 1.13822657,4.66141507 L1.13823619,4.66140143 Z" id="Path"></path>
                        <path d="M0.964034617,4.41966601 C0.9802537,4.40430452 0.97320558,4.38069987 0.946014705,4.35932831 C0.886470865,4.31252869 0.889646298,4.24291962 0.954959587,4.16323638 C1.00400661,4.10339736 1.01013385,4.01384791 1.02701732,3.11055798 C1.05610607,1.5539026 1.17186402,0.383039957 1.32443463,0.102170674 C1.38517709,-0.00966047215 1.37665932,-0.01010548 1.2196923,0.0966921577 C1.01749773,0.234268909 0.863551842,0.413408054 0.727142397,0.66985781 C0.469619255,1.15402189 0.380125714,1.80541053 0.380125714,3.19589238 C0.380125714,3.98538999 0.385504048,4.08868101 0.430474217,4.16290117 C0.473192735,4.23339354 0.475462499,4.25942762 0.445456446,4.33471669 C0.426005578,4.38351997 0.417179439,4.43016305 0.425842781,4.43836774 C0.483338244,4.49281971 0.902202451,4.47837373 0.964033946,4.41980868 L0.964034617,4.41966601 Z" id="Path"></path>
                        <path d="M3.31720935,2.9352629 C3.32598338,2.92181875 3.30659669,2.85394498 3.2741308,2.78442984 C3.22351395,2.67604471 3.20312409,2.6580409 3.13101269,2.6580409 C2.90510971,2.6580409 2.54196988,2.55708896 2.16758186,2.39023114 C1.95139078,2.29387017 1.87671667,2.27172488 1.85079887,2.29628081 C1.78465147,2.35892629 1.89458854,2.50762153 2.06483871,2.58578191 C2.21587304,2.65512039 2.63809381,2.74032039 2.83069947,2.74032039 C2.94243446,2.74032039 2.94507544,2.74536262 2.88149075,2.83726949 L2.83472243,2.90486596 L2.96112256,2.90811027 C3.03063994,2.90989701 3.12661181,2.92077577 3.17439313,2.93229052 C3.29848771,2.96219549 3.29964831,2.96222009 3.31723395,2.93527095 L3.31720935,2.9352629 Z" id="Path"></path>
                        <path d="M4.63680301,3.63676524 C4.63680301,3.59653117 4.51864783,3.48749306 4.39891388,3.41723549 C4.30488976,3.36205899 4.28935697,3.36038182 4.28914677,3.40538441 C4.28882699,3.47370542 4.22807335,3.64535323 4.20421512,3.64535323 C4.19076157,3.64535323 4.1708686,3.61181216 4.1600028,3.57081553 C4.14913768,3.52982113 4.10355836,3.44902649 4.0587132,3.3912761 L3.97717613,3.28627213 L3.9136876,3.38356114 C3.85450155,3.47425553 3.75197532,3.56308044 3.70647494,3.56308044 C3.69560714,3.56308044 3.69348183,3.51531701 3.70174891,3.45693824 C3.71073159,3.39351008 3.70380624,3.34319736 3.68451369,3.33191116 C3.66676861,3.32152391 3.65224951,3.32514771 3.65224951,3.33996379 C3.65224951,3.37413994 3.50986935,3.53565543 3.47974299,3.53565543 C3.46732906,3.53565543 3.44995206,3.48937685 3.44112346,3.43281389 C3.43229733,3.37625093 3.4172943,3.28677976 3.40778589,3.2339893 C3.39827614,3.18119661 3.41855195,3.21699783 3.45284573,3.31354508 L3.5152005,3.48908391 L3.58357741,3.38210536 C3.62118393,3.32326593 3.65202141,3.25897236 3.65210191,3.23922653 C3.65210191,3.21948204 3.66490383,3.21073484 3.68036998,3.21978572 C3.69583322,3.22883727 3.71735706,3.29956512 3.72819602,3.37695624 L3.74790719,3.51767041 L3.82314706,3.43517624 C3.86453055,3.38980556 3.91302076,3.32906311 3.93090605,3.30019126 C3.96281691,3.24867769 3.96462378,3.24872018 4.0280989,3.30255137 C4.06367045,3.33271798 4.11835946,3.40487411 4.14962629,3.46289732 C4.1808976,3.52092053 4.21066617,3.56411313 4.21578264,3.55888261 C4.22089643,3.55365008 4.23235482,3.49383543 4.24124872,3.42595943 C4.25013859,3.35808567 4.25807583,3.30003339 4.25888355,3.29695635 C4.26330814,3.28013773 4.48552449,3.42458192 4.56775031,3.49771974 C4.62059444,3.54472957 4.67078193,3.57660913 4.67927733,3.56856544 C4.6877734,3.56051974 4.69472313,3.49116538 4.69472313,3.4144429 C4.69472313,3.29554976 4.68212091,3.26368362 4.60940014,3.19868117 C4.52578562,3.12394221 4.52344654,3.12353075 4.49255315,3.17820209 C4.45245548,3.24915736 4.40515271,3.25018155 4.40515271,3.18009393 C4.40515271,3.12894039 4.24714362,2.93232071 4.20603741,2.93232071 C4.19538115,2.93232071 4.16210463,2.97551331 4.13208337,3.028306 C4.10206435,3.08109645 4.06978227,3.12423985 4.06034542,3.12418171 C4.01981392,3.12393349 3.79705283,2.87558109 3.79716464,2.83074487 C3.79716464,2.79508833 3.81217616,2.80420541 3.8512275,2.86375372 C3.88089991,2.90900364 3.94017764,2.97655538 3.98294983,3.01386896 C4.06956088,3.08942414 4.10104687,3.07105135 4.13446942,2.92545775 C4.14399057,2.8839781 4.16053927,2.85004121 4.17124182,2.85004121 C4.20826916,2.85004121 4.4021763,3.05599041 4.42945819,3.12429129 L4.45683848,3.19285157 L4.47757741,3.11743503 C4.50293615,3.0252133 4.53091574,3.02178294 4.57140474,3.10593527 C4.58831638,3.14108865 4.67185129,3.21417728 4.75703564,3.26835196 L4.91191626,3.36685076 L4.94299972,3.26777949 C4.96009585,3.21329174 4.98274407,3.18198018 4.9933281,3.19819725 C5.00911246,3.22238198 4.96885267,3.38654739 4.93847809,3.42186402 C4.93392604,3.42715804 4.88373765,3.39792528 4.82694659,3.35690405 L4.72369583,3.28231939 L4.72328883,3.41583964 C4.72300036,3.48927488 4.71503606,3.57712704 4.70543127,3.61106392 C4.68665239,3.67742152 4.63681061,3.69608725 4.63681061,3.63676256 L4.63680301,3.63676524 Z" id="Path"></path>
                        <path d="M3.8646361,2.57232433 C3.68056386,2.41864008 3.65262005,2.38347328 3.65669668,2.31064182 L3.66103472,2.23311653 L3.67304322,2.30799637 C3.68005668,2.35171895 3.72907844,2.41724245 3.79086073,2.46547548 L3.89667421,2.54807476 L3.96169455,2.47286843 C3.99745843,2.43150506 4.02718674,2.38223665 4.02776145,2.36338308 C4.02926643,2.31421977 4.03808742,2.31834784 4.16271064,2.42648027 C4.2734371,2.52255501 4.27516346,2.52301344 4.29163099,2.46076153 C4.30081045,2.42605763 4.29755272,2.36072198 4.28439189,2.31557269 C4.24821208,2.19146469 4.2553009,2.17273411 4.31012408,2.24758488 C4.33743728,2.28487832 4.38135665,2.33759946 4.40772168,2.36474046 C4.45361564,2.41198956 4.45641538,2.41140591 4.4734934,2.35102796 C4.48330414,2.31634418 4.49150772,2.25286236 4.49172486,2.209956 L4.49213185,2.13194545 L4.59196791,2.24511385 C4.68522277,2.35082446 4.69381433,2.35472891 4.72227694,2.30436028 C4.73903742,2.27470352 4.75294894,2.20334796 4.75319045,2.14579436 C4.753508,2.0714445 4.76133902,2.05268485 4.78024872,2.0809954 C4.81182639,2.1282691 4.78990293,2.25698595 4.73159304,2.36667256 L4.68974888,2.44538528 L4.63480271,2.35981854 C4.56454737,2.25040475 4.54115874,2.25216242 4.49607654,2.3702353 C4.45347207,2.48181823 4.42576754,2.4903114 4.38425434,2.40451656 C4.35739062,2.34899345 4.35227639,2.35579603 4.33320814,2.47243952 L4.31201413,2.60206651 L4.18503036,2.50352075 L4.05804435,2.40497499 L4.00095811,2.46987681 C3.96955934,2.5055736 3.94343805,2.55020632 3.94290807,2.5690599 C3.94175194,2.60992459 3.91120741,2.61119923 3.86465153,2.5723297 L3.8646361,2.57232433 Z" id="Path"></path>
                        <path d="M5.50199668,1.99985191 C5.43499505,1.93948961 5.38883946,1.88190023 5.39942796,1.87187301 C5.41001468,1.86184625 5.42193552,1.85897427 5.42591823,1.86549039 C5.42990004,1.87200652 5.48466598,1.92959836 5.54762229,1.99346929 C5.69257857,2.14053432 5.6627787,2.14470264 5.50199668,1.99985213 L5.50199668,1.99985191 Z" id="Path"></path>
                        <path d="M3.32101092,1.77444089 C3.26006274,1.6920317 3.2642713,1.63743438 3.33846015,1.54811302 C3.3920713,1.48356676 3.41656015,1.47480748 3.51017504,1.4866997 C3.57022651,1.49432767 3.69944427,1.54738625 3.79732811,1.60460442 C3.91038023,1.67068921 4.02732337,1.71495966 4.1178903,1.72596411 C4.19631231,1.73549242 4.26047842,1.73908468 4.26047842,1.73394719 C4.26047842,1.72880992 4.22790116,1.6757339 4.18808526,1.61599998 C4.09353115,1.47414981 4.0967692,1.45892562 4.203415,1.54391094 C4.31288693,1.63115037 4.44383105,1.65666341 4.73644049,1.64776996 L4.87940206,1.64342476 L4.79646512,1.56143821 C4.68047461,1.44678049 4.71617139,1.43650058 4.84426433,1.54767338 C4.96439856,1.6519394 4.95687592,1.65928314 4.70401977,1.68452113 C4.59657385,1.69524559 4.48102611,1.68746623 4.3849782,1.66304268 C4.24128763,1.62649836 4.23571049,1.62705518 4.26292977,1.67522359 C4.27861864,1.70298403 4.30402703,1.72569732 4.31938986,1.72569732 C4.33475739,1.72569732 4.34733143,1.73976494 4.34733143,1.75695745 C4.34733143,1.80983064 4.0369664,1.76333604 3.88866027,1.6882451 C3.54985051,1.51670017 3.50720579,1.50184495 3.42656768,1.52725736 C3.38169345,1.5413981 3.33677672,1.58278942 3.32129984,1.62426684 C3.26966328,1.7626285 3.46588938,1.870184 3.54682267,1.74786945 C3.57028062,1.71241865 3.56480188,1.68817131 3.52357269,1.64503015 C3.46711259,1.58594249 3.47240796,1.57752312 3.54862954,1.60522319 C3.60274383,1.62488963 3.61002497,1.75480844 3.55968519,1.80248466 C3.50208686,1.85703278 3.37064406,1.84159168 3.32099102,1.77444246 L3.32101092,1.77444089 Z" id="Path"></path>
                        <path d="M4.65558726,1.43274641 C4.61321983,1.39261967 4.64643396,1.38279372 4.83637897,1.37925155 C5.07136101,1.37487012 5.2140766,1.33571234 5.38246399,1.22941136 C5.51738188,1.1442382 5.55395974,1.16099867 5.42590034,1.24931283 C5.30907571,1.32987714 5.12687295,1.3918115 4.95094949,1.41074782 C4.86576514,1.41991766 4.76868634,1.43262029 4.7352146,1.43897563 C4.70174509,1.44533119 4.66591189,1.44252831 4.65558279,1.43274731 L4.65558726,1.43274641 Z" id="Path"></path>
                    </g>
                    <circle id="Oval-48" fill="#FFBE29" cx="9.75" cy="2.25" r="1"></circle>
                    <circle id="Oval-48-Copy" fill="#FFBE29" cx="21.75" cy="2.25" r="1"></circle>
                    <circle id="Oval-48-Copy-3" fill="#FFBE29" cx="9.75" cy="15.75" r="1"></circle>
                    <circle id="Oval-48-Copy-2" fill="#FFBE29" cx="21.75" cy="15.75" r="1"></circle>
                    <g id="Overlay" opacity="0" stroke="#000000" stroke-opacity="0.503742351">
                        <g>
                            <rect stroke-width="2.25" style="mix-blend-mode: multiply;" x="1.125" y="1.125" width="21.75" height="15.75"></rect>
                        </g>
                    </g>
                </g>
            </g>
        </g>
    </g>
</svg>