<?xml version="1.0" encoding="UTF-8"?>
<svg width="24px" height="18px" viewBox="0 0 24 18" version="1.1" xmlns="http://www.w3.org/2000/svg" xmlns:xlink="http://www.w3.org/1999/xlink">
    <title>MA</title>
    <g id="Design-3" stroke="none" stroke-width="1" fill="none" fill-rule="evenodd">
        <g id="11-Flags" transform="translate(-148.000000, -333.000000)">
            <g id="MA" transform="translate(148.000000, 333.000000)">
                <g id="Morocco">
                    <rect id="Rectangle-119-Copy" fill="#C1272D" x="0" y="0" width="24" height="18"></rect>
                    <path d="M11.173987,8.57378353 L10.3786045,8.57378353 L9.98770982,8.45774656 L10.3731377,8.59036872 L11.0166124,9.0512153 L11.173987,8.57378353 L11.173987,8.57378353 Z M11.6104831,8.57378353 L11.3697485,9.30412588 L12,9.75550228 L12.6302515,9.30412588 L12.3895169,8.57378353 L11.6104831,8.57378353 Z M11.3088775,8.16456237 L11.9804646,6.12714934 L11.977671,6 L12.0000232,6.06781389 L12.022372,6 L12.0195752,6.12713238 L12.6911369,8.16457263 L14.8643881,8.16458877 L14.9861999,8.12267848 L14.9276795,8.16458924 L15,8.16458977 L14.8764903,8.20124961 L13.1182686,9.4604408 L13.7898246,11.4978638 L13.867902,11.5991112 L13.8093823,11.5571995 L13.83173,11.625 L13.7581936,11.5205384 L12,10.2613211 L10.2417844,11.5205016 L10.168227,11.625 L10.1905802,11.5571727 L10.1320714,11.5990751 L10.2101331,11.4978545 L10.8817259,9.4604242 L9.1235384,8.20121756 L9,8.16454523 L9.07233482,8.16454577 L9.01382663,8.12264245 L9.13560787,8.16454624 L11.3088775,8.16456237 L11.3088775,8.16456237 Z M11.7453691,8.16456939 L12.2546321,8.16456939 L12.0088455,7.41890017 L12.0000061,7.01657988 L11.9911545,7.41890017 L11.7453691,8.16456939 L11.7453691,8.16456939 Z M10.7563301,10.7896147 L11.0033893,10.4692594 L11.6468639,10.0084129 L11.2348637,9.71334002 L10.989077,10.4590092 L10.7563301,10.7896147 L10.7563301,10.7896147 Z M13.2436599,10.7896219 L13.010923,10.4590092 L12.7651375,9.71334381 L12.3531328,10.0084105 L12.9966107,10.4692594 L13.2436599,10.7896219 Z M12.9833843,9.05121764 L13.6268623,8.59036872 L14.012294,8.45775807 L13.6213955,8.57378353 L12.8260171,8.57378353 L12.9833843,9.05121764 Z" id="Rectangle-13-Copy" fill="#006233"></path>
                    <g id="Overlay" opacity="0" stroke="#000000" stroke-opacity="0.503742351">
                        <g>
                            <rect stroke-width="2.25" style="mix-blend-mode: multiply;" x="1.125" y="1.125" width="21.75" height="15.75"></rect>
                        </g>
                    </g>
                </g>
            </g>
        </g>
    </g>
</svg>