<?xml version="1.0" encoding="UTF-8"?>
<svg width="16px" height="12px" viewBox="0 0 16 12" version="1.1" xmlns="http://www.w3.org/2000/svg" xmlns:xlink="http://www.w3.org/1999/xlink">
    <title>MK</title>
    <defs>
        <rect id="path-1" x="0" y="0" width="16" height="12"></rect>
    </defs>
    <g id="MK" stroke="none" stroke-width="1" fill="none" fill-rule="evenodd">
        <g id="Macedonia">
            <mask id="mask-2" fill="white">
                <use xlink:href="#path-1"></use>
            </mask>
            <use id="Rectangle-77" fill="#FFFFFF" xlink:href="#path-1"></use>
            <rect id="Rectangle-77" fill="#D20000" mask="url(#mask-2)" x="0" y="0" width="16" height="12"></rect>
            <g id="Rectangle-218-+-Rectangle-219" mask="url(#mask-2)" fill="#FFE600">
                <polygon id="Rectangle-218" points="0 0 1 0 8 6 0 1"></polygon>
                <polygon id="Rectangle-219" transform="translate(12.000000, 3.000000) scale(-1, 1) translate(-12.000000, -3.000000) " points="8 0 9 0 16 6 8 1"></polygon>
            </g>
            <g id="Rectangle-218-+-Rectangle-220" mask="url(#mask-2)" fill="#FFE600">
                <g transform="translate(8.000000, 9.000000) scale(1, -1) translate(-8.000000, -9.000000) translate(0.000000, 6.000000)">
                    <polygon id="Rectangle-218" points="0 0 1 0 8 6 0 1"></polygon>
                    <polygon id="Rectangle-219" transform="translate(12.000000, 3.000000) scale(-1, 1) translate(-12.000000, -3.000000) " points="8 0 9 0 16 6 8 1"></polygon>
                </g>
            </g>
            <polygon id="Rectangle-222" fill="#FFE600" mask="url(#mask-2)" points="7 0 9 0 8 4"></polygon>
            <polygon id="Rectangle-223" fill="#FFE600" mask="url(#mask-2)" transform="translate(8.000000, 10.000000) scale(1, -1) translate(-8.000000, -10.000000) " points="7 8 9 8 8 12"></polygon>
            <polygon id="Rectangle-224" fill="#FFE600" mask="url(#mask-2)" points="10 6 16 5 16 7"></polygon>
            <polygon id="Rectangle-225" fill="#FFE600" mask="url(#mask-2)" transform="translate(3.000000, 6.000000) scale(-1, 1) translate(-3.000000, -6.000000) " points="0 6 6 5 6 7"></polygon>
            <circle id="Oval-10" stroke="#D20000" stroke-width="0.5" fill="#FFF800" mask="url(#mask-2)" cx="8" cy="6" r="2.25"></circle>
            <g id="Overlay" mask="url(#mask-2)" opacity="0" stroke="#000000" stroke-opacity="0.503742351">
                <g>
                    <rect style="mix-blend-mode: multiply;" x="0.5" y="0.5" width="15" height="11"></rect>
                </g>
            </g>
        </g>
    </g>
</svg>