<?xml version="1.0" encoding="UTF-8"?>
<svg width="16px" height="12px" viewBox="0 0 16 12" version="1.1" xmlns="http://www.w3.org/2000/svg" xmlns:xlink="http://www.w3.org/1999/xlink">
    <title>MY</title>
    <defs>
        <rect id="path-1" x="0" y="0" width="16" height="12"></rect>
    </defs>
    <g id="MY" stroke="none" stroke-width="1" fill="none" fill-rule="evenodd">
        <g id="Malaysia">
            <mask id="mask-2" fill="white">
                <use xlink:href="#path-1"></use>
            </mask>
            <use id="Rectangle-77" fill="#FFFFFF" xlink:href="#path-1"></use>
            <rect id="Rectangle-119-Copy" fill="#CC0001" mask="url(#mask-2)" x="0" y="0" width="16" height="12"></rect>
            <rect id="Rectangle-37" fill="#FFFFFF" mask="url(#mask-2)" x="1.137e-13" y="1" width="16" height="1"></rect>
            <rect id="Rectangle-37-Copy" fill="#FFFFFF" mask="url(#mask-2)" x="1.137e-13" y="3" width="16" height="1"></rect>
            <rect id="Rectangle-37-Copy-2" fill="#FFFFFF" mask="url(#mask-2)" x="1.137e-13" y="5" width="16" height="1"></rect>
            <rect id="Rectangle-37-Copy-3" fill="#FFFFFF" mask="url(#mask-2)" x="1.137e-13" y="7" width="16" height="1"></rect>
            <rect id="Rectangle-37-Copy-4" fill="#FFFFFF" mask="url(#mask-2)" x="1.137e-13" y="9" width="16" height="1"></rect>
            <rect id="Rectangle-37-Copy-5" fill="#FFFFFF" mask="url(#mask-2)" x="1.137e-13" y="11" width="16" height="1"></rect>
            <rect id="Rectangle-36" fill="#010066" mask="url(#mask-2)" x="0" y="0" width="8" height="6"></rect>
            <circle id="Oval-34" fill="#FFCC00" mask="url(#mask-2)" cx="5" cy="3" r="1"></circle>
            <path d="M3,1 C3.69718242,1 4.31104628,1.35672919 4.66902019,1.89761619 C4.37171831,1.5761007 3.946847,1.375 3.4750061,1.375 C2.57754339,1.375 1.8500061,2.10253728 1.8500061,3 C1.8500061,3.89746272 2.57754339,4.625 3.4750061,4.625 C3.9473549,4.625 4.37263294,4.42346613 4.66954385,4.10169476 L4.59742065,4.20362046 C4.23237451,4.68733935 3.65270016,5 3,5 C1.8954305,5 1,4.1045695 1,3 C1,1.8954305 1.8954305,1 3,1 Z" id="Combined-Shape" fill="#FFCC00" mask="url(#mask-2)"></path>
            <g id="Overlay" mask="url(#mask-2)" opacity="0" stroke="#000000" stroke-opacity="0.503742351">
                <g>
                    <rect style="mix-blend-mode: multiply;" x="0.5" y="0.5" width="15" height="11"></rect>
                </g>
            </g>
        </g>
    </g>
</svg>