<?xml version="1.0" encoding="UTF-8"?>
<svg width="16px" height="12px" viewBox="0 0 16 12" version="1.1" xmlns="http://www.w3.org/2000/svg" xmlns:xlink="http://www.w3.org/1999/xlink">
    <title>NA</title>
    <defs>
        <rect id="path-1" x="0" y="0" width="16" height="12"></rect>
    </defs>
    <g id="NA" stroke="none" stroke-width="1" fill="none" fill-rule="evenodd">
        <g id="Namibia">
            <mask id="mask-2" fill="white">
                <use xlink:href="#path-1"></use>
            </mask>
            <use id="Rectangle-77" fill="#FFFFFF" xlink:href="#path-1"></use>
            <rect id="Rectangle-119-Copy" fill="#009543" mask="url(#mask-2)" x="0" y="0" width="16" height="12"></rect>
            <polygon id="Rectangle-119-Copy-69" fill="#003580" mask="url(#mask-2)" points="0 0 16 0 0 12"></polygon>
            <g id="Group-3" mask="url(#mask-2)">
                <g transform="translate(8.262872, 6.707686) rotate(-35.000000) translate(-8.262872, -6.707686) translate(-2.237128, 4.207686)">
                    <rect id="Rectangle-3" fill="#D21034" x="0" y="0.666666667" width="20.6852551" height="2.66666667"></rect>
                    <polygon id="Rectangle-3-Copy" fill="#FFFFFF" points="0 0 20.6852551 0 20.6852551 0.666666667 0 0.666666667"></polygon>
                    <polygon id="Rectangle-3-Copy-2" fill="#FFFFFF" points="0 3.33333333 20.6852551 3.33333333 20.6852551 4 0 4"></polygon>
                </g>
            </g>
            <circle id="Oval-24" fill="#FFCE00" mask="url(#mask-2)" cx="3" cy="3" r="1"></circle>
            <path d="M3,1 L3.25,2 L2.75,2 L3,1 Z M4,1.26794919 L3.71650635,2.2589746 L3.28349365,2.0089746 L4,1.26794919 Z M4.73205081,2 L3.9910254,2.71650635 L3.7410254,2.28349365 L4.73205081,2 Z M5,3 L4,3.25 L4,2.75 L5,3 Z M4.73205081,4 L3.7410254,3.71650635 L3.9910254,3.28349365 L4.73205081,4 Z M4,4.73205081 L3.28349365,3.9910254 L3.71650635,3.7410254 L4,4.73205081 Z M3,5 L2.75,4 L3.25,4 L3,5 Z M2,4.73205081 L2.28349365,3.7410254 L2.71650635,3.9910254 L2,4.73205081 Z M1.26794919,4 L2.0089746,3.28349365 L2.2589746,3.71650635 L1.26794919,4 Z M1,3 L2,2.75 L2,3.25 L1,3 Z M1.26794919,2 L2.2589746,2.28349365 L2.0089746,2.71650635 L1.26794919,2 Z M2,1.26794919 L2.71650635,2.0089746 L2.28349365,2.2589746 L2,1.26794919 Z" id="sun" fill="#FFCE00" mask="url(#mask-2)"></path>
            <g id="Overlay" mask="url(#mask-2)" opacity="0" stroke="#000000" stroke-opacity="0.503742351">
                <g>
                    <rect style="mix-blend-mode: multiply;" x="0.5" y="0.5" width="15" height="11"></rect>
                </g>
            </g>
        </g>
    </g>
</svg>