<?xml version="1.0" encoding="UTF-8"?>
<svg width="16px" height="12px" viewBox="0 0 16 12" version="1.1" xmlns="http://www.w3.org/2000/svg" xmlns:xlink="http://www.w3.org/1999/xlink">
    <title>NP</title>
    <defs>
        <polygon id="path-1" points="1.137e-13 0 12 7 7 7 12 12 1.137e-13 12"></polygon>
        <polygon id="path-3" points="1.137e-13 0 12 7 7 7 12 12 1.137e-13 12"></polygon>
    </defs>
    <g id="NP" stroke="none" stroke-width="1" fill="none" fill-rule="evenodd">
        <g id="Nepal">
            <mask id="mask-2" fill="white">
                <use xlink:href="#path-1"></use>
            </mask>
            <path stroke="#003893" d="M0.5,0.8705185 L0.5,11.5 L10.7928932,11.5 L5.79289322,6.5 L10.1505397,6.5 L0.5,0.8705185 Z"></path>
            <circle id="Oval-44-Copy" fill="#FFFFFF" mask="url(#mask-2)" cx="2.58928571" cy="8.5" r="1.5"></circle>
            <path d="M2.58928571,3.37493896 C3.14157046,3.37493896 3.58928571,3.82265422 3.58928571,4.37493896 C3.58928571,4.56364303 3.53701742,4.74013919 3.44616863,4.89073964 C3.76979631,4.66647799 4.00041808,4.31631023 4.06849745,3.91100409 C4.08215471,3.99164849 4.08928571,4.07534862 4.08928571,4.16071429 C4.08928571,4.98914141 3.41771284,5.66071429 2.58928571,5.66071429 C1.76085859,5.66071429 1.08928571,4.98914141 1.08928571,4.16071429 C1.08928571,4.07534862 1.09641672,3.99164849 1.11011555,3.91017709 C1.17815335,4.31631023 1.40877511,4.66647799 1.73260969,4.8921778 C1.64155401,4.74013919 1.58928571,4.56364303 1.58928571,4.37493896 C1.58928571,3.82265422 2.03700096,3.37493896 2.58928571,3.37493896 Z" id="Combined-Shape" fill="#FFFFFF" mask="url(#mask-2)"></path>
            <mask id="mask-4" fill="white">
                <use xlink:href="#path-3"></use>
            </mask>
            <g id="Overlay"></g>
        </g>
    </g>
</svg>