<?xml version="1.0" encoding="UTF-8"?>
<svg width="16px" height="12px" viewBox="0 0 16 12" version="1.1" xmlns="http://www.w3.org/2000/svg" xmlns:xlink="http://www.w3.org/1999/xlink">
    <title>PF</title>
    <defs>
        <rect id="path-1" x="0" y="0" width="16" height="12"></rect>
    </defs>
    <g id="PF" stroke="none" stroke-width="1" fill="none" fill-rule="evenodd">
        <g id="French-Polynesia-">
            <mask id="mask-2" fill="white">
                <use xlink:href="#path-1"></use>
            </mask>
            <use id="Rectangle-77" fill="#FFFFFF" xlink:href="#path-1"></use>
            <rect id="Rectangle-119-Copy" fill="#FFFFFF" mask="url(#mask-2)" x="0" y="0" width="16" height="12"></rect>
            <rect id="Rectangle-119-Copy-127" fill="#CE1126" mask="url(#mask-2)" x="0" y="9" width="16" height="3"></rect>
            <rect id="Rectangle-119-Copy-128" fill="#CE1126" mask="url(#mask-2)" x="0" y="0" width="16" height="3"></rect>
            <path d="M5,6 C5,7.65685425 6.34314575,9 8,9 C9.65685425,9 11,7.65685425 11,6 L5,6 Z" id="Combined-Shape" fill="#083D9C" mask="url(#mask-2)"></path>
            <path d="M5,6 C5,4.34314575 6.34314575,3 8,3 C9.65685425,3 11,4.34314575 11,6 L5,6 Z" id="Combined-Shape" fill="#FF9C10" mask="url(#mask-2)"></path>
            <polygon id="Combined-Shape" fill="#CE1126" mask="url(#mask-2)" points="9 6 9 3 7 3 7 6 6 6 6 7 10 7 10 6"></polygon>
            <g id="Overlay" mask="url(#mask-2)" opacity="0" stroke="#000000" stroke-opacity="0.503742351">
                <g>
                    <rect style="mix-blend-mode: multiply;" x="0.5" y="0.5" width="15" height="11"></rect>
                </g>
            </g>
        </g>
    </g>
</svg>