<?xml version="1.0" encoding="UTF-8"?>
<svg width="16px" height="12px" viewBox="0 0 16 12" version="1.1" xmlns="http://www.w3.org/2000/svg" xmlns:xlink="http://www.w3.org/1999/xlink">
    <title>PK</title>
    <defs>
        <rect id="path-1" x="0" y="0" width="16" height="12"></rect>
    </defs>
    <g id="PK" stroke="none" stroke-width="1" fill="none" fill-rule="evenodd">
        <g id="Pakistan">
            <mask id="mask-2" fill="white">
                <use xlink:href="#path-1"></use>
            </mask>
            <use id="Rectangle-77" fill="#FFFFFF" xlink:href="#path-1"></use>
            <rect id="Rectangle-119-Copy" fill="#FFFFFF" mask="url(#mask-2)" x="0" y="0" width="16" height="12"></rect>
            <polygon id="Rectangle-119-Copy-92" fill="#01411C" mask="url(#mask-2)" points="4 0 16 0 16 12 4 12"></polygon>
            <g id="Group-9" mask="url(#mask-2)" fill="#FFFFFF">
                <g transform="translate(10.031250, 5.750000) rotate(-41.000000) translate(-10.031250, -5.750000) translate(6.531250, 2.250000)">
                    <polygon id="Star-2" points="5 4.1042161 4.07294902 4.76508689 4.41499998 3.67918871 3.5 3.00173113 4.6384501 2.99147993 5 1.91191734 5.3615499 2.99147993 6.5 3.00173113 5.58500002 3.67918871 5.92705098 4.76508689"></polygon>
                    <path d="M3.5,0 C4.06052949,0 4.59028329,0.131766398 5.05997616,0.366013955 C4.84991329,0.322735102 4.63259218,0.299999952 4.40996099,0.299999952 C2.64264976,0.299999952 1.20996094,1.73268877 1.20996094,3.5 C1.20996094,5.26731123 2.64264976,6.70000005 4.40996099,6.70000005 C4.63259218,6.70000005 4.84991329,6.6772649 5.05972926,6.63398966 C4.59028329,6.8682336 4.06052949,7 3.5,7 C1.56700338,7 0,5.43299662 0,3.5 C0,1.56700338 1.56700338,0 3.5,0 Z" id="Combined-Shape"></path>
                </g>
            </g>
            <g id="Overlay" mask="url(#mask-2)" opacity="0" stroke="#000000" stroke-opacity="0.503742351">
                <g>
                    <rect style="mix-blend-mode: multiply;" x="0.5" y="0.5" width="15" height="11"></rect>
                </g>
            </g>
        </g>
    </g>
</svg>