<?xml version="1.0" encoding="UTF-8"?>
<svg width="16px" height="12px" viewBox="0 0 16 12" version="1.1" xmlns="http://www.w3.org/2000/svg" xmlns:xlink="http://www.w3.org/1999/xlink">
    <title>RW</title>
    <defs>
        <rect id="path-1" x="0" y="0" width="16" height="12"></rect>
    </defs>
    <g id="RW" stroke="none" stroke-width="1" fill="none" fill-rule="evenodd">
        <g id="Rwanda">
            <mask id="mask-2" fill="white">
                <use xlink:href="#path-1"></use>
            </mask>
            <use id="Rectangle-77" fill="#FFFFFF" xlink:href="#path-1"></use>
            <rect id="Rectangle-119-Copy" fill="#00A1DE" mask="url(#mask-2)" x="0" y="0" width="16" height="12"></rect>
            <circle id="Combined-Shape" fill="#E5BE01" mask="url(#mask-2)" cx="13" cy="3" r="1"></circle>
            <path d="M12.8354344,1.75 L12.517518,1.83518543 L12.232482,1.99975106 L11.9997511,2.23248199 L11.8351854,2.51751801 L11.75,2.83543438 L11.75,3.16456562 L11.8351854,3.48248199 L11.9997511,3.76751801 L12.232482,4.00024894 L12.517518,4.16481457 L12.8354344,4.25 L13.1645656,4.25 L13.482482,4.16481457 L13.767518,4.00024894 L14.0002489,3.76751801 L14.1648146,3.48248199 L14.25,3.16456562 L14.25,2.83543438 L14.1648146,2.51751801 L14.0002489,2.23248199 L13.767518,1.99975106 L13.482482,1.83518543 L13.1645656,1.75 L12.8354344,1.75 Z M12.7844038,1.36238462 L13,0.5 L13.2155962,1.36238462 L13.6470476,0.585185434 L13.6320959,1.4739854 L14.25,0.834936491 L14.0055194,1.68958156 L14.767767,1.23223305 L14.3104184,1.99448056 L15.1650635,1.75 L14.5260146,2.36790406 L15.4148146,2.35295239 L14.6376154,2.78440385 L15.5,3 L14.6376154,3.21559615 L15.4148146,3.64704761 L14.5260146,3.63209594 L15.1650635,4.25 L14.3104184,4.00551944 L14.767767,4.76776695 L14.0055194,4.31041844 L14.25,5.16506351 L13.6320959,4.5260146 L13.6470476,5.41481457 L13.2155962,4.63761538 L13,5.5 L12.7844038,4.63761538 L12.3529524,5.41481457 L12.3679041,4.5260146 L11.75,5.16506351 L11.9944806,4.31041844 L11.232233,4.76776695 L11.6895816,4.00551944 L10.8349365,4.25 L11.4739854,3.63209594 L10.5851854,3.64704761 L11.3623846,3.21559615 L10.5,3 L11.3623846,2.78440385 L10.5851854,2.35295239 L11.4739854,2.36790406 L10.8349365,1.75 L11.6895816,1.99448056 L11.232233,1.23223305 L11.9944806,1.68958156 L11.75,0.834936491 L12.3679041,1.4739854 L12.3529524,0.585185434 L12.7844038,1.36238462 Z" id="Triangle" fill="#E5BE01" mask="url(#mask-2)"></path>
            <rect id="Rectangle-119-Copy-70" fill="#20603D" mask="url(#mask-2)" x="0" y="9" width="16" height="3"></rect>
            <rect id="Rectangle-119-Copy-71" fill="#FAD201" mask="url(#mask-2)" x="0" y="6" width="16" height="3"></rect>
            <g id="Overlay" mask="url(#mask-2)" opacity="0" stroke="#000000" stroke-opacity="0.503742351">
                <g>
                    <rect style="mix-blend-mode: multiply;" x="0.5" y="0.5" width="15" height="11"></rect>
                </g>
            </g>
        </g>
    </g>
</svg>