<?xml version="1.0" encoding="UTF-8"?>
<svg width="16px" height="12px" viewBox="0 0 16 12" version="1.1" xmlns="http://www.w3.org/2000/svg" xmlns:xlink="http://www.w3.org/1999/xlink">
    <title>SG</title>
    <defs>
        <rect id="path-1" x="0" y="0" width="16" height="12"></rect>
    </defs>
    <g id="SG" stroke="none" stroke-width="1" fill="none" fill-rule="evenodd">
        <g id="Singapore">
            <mask id="mask-2" fill="white">
                <use xlink:href="#path-1"></use>
            </mask>
            <use id="Rectangle-77" fill="#FFFFFF" xlink:href="#path-1"></use>
            <rect id="Rectangle-119-Copy" fill="#FFFFFF" mask="url(#mask-2)" x="0" y="0" width="16" height="12"></rect>
            <rect id="Rectangle-119-Copy-94" fill="#ED2939" mask="url(#mask-2)" x="0" y="0" width="16" height="6"></rect>
            <path d="M5.87936005,3.667101 C6.05966288,3.53610333 6.31202179,3.57607305 6.44301945,3.75637587 C6.57401712,3.9366787 6.5340474,4.1890376 6.35374457,4.32003527 C6.17344175,4.45103294 5.92108284,4.41106322 5.79008518,4.23076039 C5.65908751,4.05045757 5.69905723,3.79809866 5.87936005,3.667101 Z M4.36693161,3.75637587 C4.49792928,3.57607305 4.75028819,3.53610333 4.93059101,3.667101 C5.11089383,3.79809866 5.15086356,4.05045757 5.01986589,4.23076039 C4.88886822,4.41106322 4.63650931,4.45103294 4.45620649,4.32003527 C4.27590367,4.1890376 4.23593395,3.9366787 4.36693161,3.75637587 Z M6.4316316,2.25628353 C6.64359028,2.18741398 6.87124654,2.30341064 6.94011609,2.51536931 C7.00898564,2.72732799 6.89298898,2.95498425 6.6810303,3.0238538 C6.46907162,3.09272335 6.24141536,2.9767267 6.17254581,2.76476802 C6.10367626,2.55280934 6.21967292,2.32515308 6.4316316,2.25628353 Z M3.86983498,2.51536931 C3.93870453,2.30341064 4.16636079,2.18741398 4.37831947,2.25628353 C4.59027815,2.32515308 4.70627481,2.55280934 4.63740526,2.76476802 C4.56853571,2.9767267 4.34087944,3.09272335 4.12892077,3.0238538 C3.91696209,2.95498425 3.80096543,2.72732799 3.86983498,2.51536931 Z M5.40497553,1.40002441 C5.62784208,1.40002441 5.80851111,1.58069345 5.80851111,1.80355999 C5.80851111,2.02642653 5.62784208,2.20709557 5.40497553,2.20709557 C5.18210899,2.20709557 5.00143996,2.02642653 5.00143996,1.80355999 C5.00143996,1.58069345 5.18210899,1.40002441 5.40497553,1.40002441 Z" id="Oval-47" fill="#FFFFFF" opacity="0.5" mask="url(#mask-2)"></path>
            <path d="M4,1 C4.27480095,1 4.53665739,1.05542201 4.77500154,1.15569823 C4.75959244,1.15519162 4.74411653,1.15499997 4.72859587,1.15499997 C3.70963049,1.15499997 2.88359584,1.98103462 2.88359584,3 C2.88359584,4.01896538 3.70963049,4.84500003 4.72859587,4.84500003 L4.77500154,4.84430177 C4.53665739,4.94457799 4.27480095,5 4,5 C2.8954305,5 2,4.1045695 2,3 C2,1.8954305 2.8954305,1 4,1 Z" id="Combined-Shape" fill="#FFFFFF" mask="url(#mask-2)"></path>
            <g id="Overlay" mask="url(#mask-2)" opacity="0" stroke="#000000" stroke-opacity="0.503742351">
                <g>
                    <rect style="mix-blend-mode: multiply;" x="0.5" y="0.5" width="15" height="11"></rect>
                </g>
            </g>
        </g>
    </g>
</svg>