<?xml version="1.0" encoding="UTF-8"?>
<svg width="16px" height="12px" viewBox="0 0 16 12" version="1.1" xmlns="http://www.w3.org/2000/svg" xmlns:xlink="http://www.w3.org/1999/xlink">
    <title>SK</title>
    <defs>
        <rect id="path-1" x="0" y="0" width="16" height="12"></rect>
    </defs>
    <g id="SK" stroke="none" stroke-width="1" fill="none" fill-rule="evenodd">
        <g id="Slovakia">
            <mask id="mask-2" fill="white">
                <use xlink:href="#path-1"></use>
            </mask>
            <use id="Rectangle-77" fill="#FFFFFF" xlink:href="#path-1"></use>
            <rect id="Rectangle-74" fill="#EE1C25" mask="url(#mask-2)" x="0" y="8" width="16" height="4"></rect>
            <rect id="Rectangle-77" fill="#FFFFFF" mask="url(#mask-2)" x="0" y="0" width="16" height="4"></rect>
            <rect id="Rectangle-78" fill="#0B4EA2" mask="url(#mask-2)" x="0" y="4" width="16" height="4"></rect>
            <polygon id="Rectangle-46" fill="#EE1C25" mask="url(#mask-2)" points="2 3 4.5 3 7 3 7 7.8 4.5 11 2 7.8"></polygon>
            <path d="M3,6 L4,4 L5,4 L6,6 L5,6 L5,7 L4,7 L4,6 L3,6 Z" id="Rectangle-258" fill="#FFFFFF" mask="url(#mask-2)"></path>
            <polygon id="Rectangle-47" fill="#0B4EA2" mask="url(#mask-2)" points="2 8 4.5 8 7 8 7 9 4.5 11 2 9"></polygon>
            <g id="Overlay" mask="url(#mask-2)" opacity="0" stroke="#000000" stroke-opacity="0.503742351">
                <g>
                    <rect style="mix-blend-mode: multiply;" x="0.5" y="0.5" width="15" height="11"></rect>
                </g>
            </g>
        </g>
    </g>
</svg>