<?xml version="1.0" encoding="UTF-8"?>
<svg width="16px" height="12px" viewBox="0 0 16 12" version="1.1" xmlns="http://www.w3.org/2000/svg" xmlns:xlink="http://www.w3.org/1999/xlink">
    <title>TN</title>
    <defs>
        <rect id="path-1" x="0" y="0" width="16" height="12"></rect>
    </defs>
    <g id="TN" stroke="none" stroke-width="1" fill="none" fill-rule="evenodd">
        <g id="Tunisia">
            <mask id="mask-2" fill="white">
                <use xlink:href="#path-1"></use>
            </mask>
            <use id="Rectangle-77" fill="#FFFFFF" xlink:href="#path-1"></use>
            <rect id="Rectangle-119-Copy" fill="#E70013" mask="url(#mask-2)" x="0" y="0" width="16" height="12"></rect>
            <circle id="Oval-27" fill="#FFFFFF" mask="url(#mask-2)" cx="8" cy="6" r="3.5"></circle>
            <polygon id="Star-2" fill="#E70013" mask="url(#mask-2)" points="9.04433773 6.55636808 8.40003729 7.42658477 8.39028782 6.34385439 7.36356278 6 8.39028782 5.65614561 8.40003729 4.57341523 9.04433773 5.44363192 10.0770883 5.11832212 9.44856281 6 10.0770883 6.88167788"></polygon>
            <path d="M7.9947988,3.5052012 C8.86489892,3.5052012 9.63096346,3.95063042 10.0774037,4.62590013 C9.70734807,4.22452455 9.17671076,3.97297597 8.58732113,3.97297597 C7.46782668,3.97297597 6.56029711,4.88050554 6.56029711,6 C6.56029711,7.11949446 7.46782668,8.02702403 8.58732113,8.02702403 C9.17740432,8.02702403 9.70859682,7.77488309 10.0790369,7.37246303 C9.63249167,8.0484805 8.86576685,8.4947988 7.9947988,8.4947988 C6.61695947,8.4947988 5.5,7.37783933 5.5,6 C5.5,4.62216067 6.61695947,3.5052012 7.9947988,3.5052012 Z" id="Combined-Shape" fill="#E70013" mask="url(#mask-2)"></path>
            <g id="Overlay" mask="url(#mask-2)" opacity="0" stroke="#000000" stroke-opacity="0.503742351">
                <g>
                    <rect style="mix-blend-mode: multiply;" x="0.5" y="0.5" width="15" height="11"></rect>
                </g>
            </g>
        </g>
    </g>
</svg>