<svg xmlns="http://www.w3.org/2000/svg" xmlns:xlink="http://www.w3.org/1999/xlink" width="75" height="75" viewBox="0 0 75 75">
    <defs>
        <linearGradient id="prefix__c" x1="50%" x2="50%" y1="0%" y2="100%">
            <stop offset="0%" stop-color="#FFF"/>
            <stop offset="100%" stop-color="#ECECEC"/>
        </linearGradient>
        <filter id="prefix__a" width="114.7%" height="114.7%" x="-7.3%" y="-4.7%" filterUnits="objectBoundingBox">
            <feOffset dy="2" in="SourceAlpha" result="shadowOffsetOuter1"/>
            <feGaussianBlur in="shadowOffsetOuter1" result="shadowBlurOuter1" stdDeviation="1.5"/>
            <feColorMatrix in="shadowBlurOuter1" values="0 0 0 0 0 0 0 0 0 0 0 0 0 0 0 0 0 0 0.5 0"/>
        </filter>
        <rect id="prefix__b" width="75" height="75" x="0" y="0" rx="37.5"/>
        <path id="prefix__d" d="M0 0.008L47.437 0.008 47.437 44.654 0 44.654z"/>
    </defs>
    <g fill="none" fill-rule="evenodd">
        <use fill="#000" filter="url(#prefix__a)" xlink:href="#prefix__b"/>
        <use fill="url(#prefix__c)" xlink:href="#prefix__b"/>
        <g>
            <g transform="translate(14 17) translate(0 .338)">
                <mask id="prefix__e" fill="#fff">
                    <use xlink:href="#prefix__d"/>
                </mask>
                <path fill="#000" d="M35.77 14.394L32.9 16.36c-1.74 1.203-3.52 1.518-3.66 1.542-.245.032-.495.047-.742.047-1.887 0-3.24-.94-3.368-1.032l-.551-.455.645-.556c1.641-1.414 3.6-2.102 5.986-2.102.81 0 1.65.08 2.57.243l1.988.348h.003-.003zm-13.398 2.523c-.145.104-1.478 1.028-3.34 1.028-.248 0-.498-.015-.745-.046-.128-.022-1.963-.34-3.731-1.595l-2.836-2.007-.012.003.004-.003-.021-.02.028.02h.001l2.002-.424c.906-.193 1.739-.286 2.544-.286 2.253 0 4.23.751 6.04 2.311l.617.525-.551.494zM46.965 5.355L24.223.065c-.328-.076-.668-.076-.996 0L.472 5.355c-.611.141-.636 1.01-.034 1.188L5.861 8.14v5.658c0 .194.123.365.305.424l1.766.581c.285.094.579-.12.579-.424v-5.45l2.47.73v22.004c0 .708.164 1.408.485 2.037 3.173 6.232 8.988 9.594 11.28 10.728.61.301 1.323.301 1.933 0 2.295-1.133 8.117-4.495 11.291-10.728.32-.63.486-1.329.486-2.037V9.659l10.543-3.115c.602-.178.577-1.047-.034-1.189z" mask="url(#prefix__e)"/>
            </g>
            <path fill="#E24301" d="M32.184 32.706c-3.33 4.986-8.466 7.836-8.466 7.836V21.027s2.395 1.9 5.822 1.444c0 0 1.296-.182 2.92-.947V31.81c0 .32-.099.632-.276.897m-3.685-12.15c-2.835 0-4.743-1.506-4.743-1.506s-1.893 1.506-4.724 1.506c-.34 0-.709-.022-1.073-.07 0 0-2.358-.329-4.73-1.986v13.538c0 .34.078.676.224.983 3.237 6.753 10.273 9.565 10.273 9.565s6.896-2.81 10.244-9.556c.156-.313.238-.659.238-1.009V18.57c-2.373 1.593-4.634 1.917-4.634 1.917-.365.048-.736.07-1.075.07M23.228 2.732L7.08 6.48l6.148 1.816v3.694c.999-.202 1.977-.335 3.022-.335 2.4 0 4.997.7 7.506 2.862 2.415-2.081 5.147-2.646 7.468-2.646 1.098 0 2.109.126 2.983.278V8.296l6.14-1.816-16.127-3.748c-.326-.076-.666-.076-.993 0" transform="translate(14 17)"/>
            <path fill="#FFF" d="M32.184 32.706c-3.33 4.986-8.466 7.836-8.466 7.836V21.027s2.395 1.9 5.822 1.444c0 0 1.296-.182 2.92-.947V31.81c0 .32-.099.632-.276.897" transform="translate(14 17)"/>
        </g>
    </g>
</svg>
