<?xml version="1.0" encoding="UTF-8"?>
<svg width="431px" height="130px" viewBox="0 0 431 130" version="1.1" xmlns="http://www.w3.org/2000/svg" xmlns:xlink="http://www.w3.org/1999/xlink">
    <title>Logo/letsconnect</title>
    <g id="Logo/letsconnect" stroke="none" stroke-width="1" fill="none" fill-rule="evenodd">
        <g id="letsconnect" transform="translate(97.000000, 0.000000)" fill="#1193F5" fill-rule="nonzero">
            <path d="M99.9491393,29.0586247 C81.5475772,23.3473278 58.9248872,30.5172056 49.4674258,47.906981 C38.5320692,53.3547521 24.322028,49.6173079 15.0579701,59.4145984 C-2.56781701,72.2240034 -5.79108031,101.486918 11.1245331,116.233489 C21.3595481,126.128405 36.1620362,128.245358 49.7940258,127.628312 C100.102633,128.204693 150.415996,127.215107 200.725635,127.946213 C210.353006,127.629711 221.859369,129.852377 229.08438,121.721509 C242.388067,107.760556 240.948743,80.7975067 223.786457,70.5639423 C217.857472,64.6989717 202.846001,75.5865237 206.391447,62.7285916 C206.899651,36.4087346 190.386344,8.66929558 163.922426,1.99598605 C149.011509,-2.62583635 132.795945,1.08554862 120.237986,9.96615218 C112.333827,14.912052 104.902368,21.0415277 99.9491393,29.0586247 Z M160.745255,19.9946622 C169.829504,19.1740809 167.428686,33.8117512 165.301629,38.4451514 C153.873974,38.0597417 142.404475,38.3847833 130.960445,38.2773941 C126.997584,28.7297247 132.489604,14.2639777 144.120816,22.3233403 C149.789214,23.4854135 155.254494,20.9337703 160.745255,19.9946571 L160.745255,19.9946622 Z M136.689059,44.3250338 C149.210081,44.9896708 162.329958,42.7179821 174.45147,46.1257875 C181.282188,52.191172 171.572222,58.6096752 165.951832,53.0769413 C162.229979,55.5527846 164.686316,64.7417356 156.873566,61.7631216 C151.497337,64.0775972 149.683374,48.0527542 146.564073,57.5208891 C145.909099,66.2885752 129.990669,62.1404208 132.548556,52.8569136 C129.134137,52.3099393 113.727595,51.6807689 124.018653,48.0837744 C127.855439,45.8577517 132.132611,43.8745462 136.689059,44.3250338 L136.689059,44.3250338 Z M128.422702,74.2286202 C130.363312,83.3375662 131.456192,99.4713172 142.040358,101.165257 C148.924531,99.7440833 145.150135,88.1045357 146.824992,82.3054765 C139.695181,75.019189 159.758869,75.6421616 152.040661,81.4323356 C154.301845,87.6487604 148.696238,101.080108 157.598865,101.070573 C167.411664,96.6178653 165.992318,83.3932552 169.748806,74.9834258 C177.22945,74.6318105 194.55642,71.9219942 191.994036,84.7218261 C190.444137,93.4932095 189.164042,102.229944 187.738368,111.005779 C185.988132,117.353242 178.61243,114.865205 173.785473,115.363504 C153.449468,115.363504 133.113463,115.363504 112.777458,115.363504 C106.33259,106.834728 107.063044,95.1753774 105.879396,84.9745232 C102.653589,72.1546453 118.083357,75.5499398 125.956527,74.3895046 L127.189618,74.3090649 L128.422712,74.2286202 L128.422702,74.2286202 Z" id="path841"></path>
        </g>
    </g>
</svg>